solid OpenSCAD_Model
  facet normal 0 0 -1
    outer loop
      vertex 110 0 0
      vertex 120 10 0
      vertex 119.808 8.04909 0
    endloop
  endfacet
  facet normal 0 0 -1
    outer loop
      vertex 120 10 0
      vertex 73.75 40 0
      vertex 120 70 0
    endloop
  endfacet
  facet normal 0 0 -1
    outer loop
      vertex 110 0 0
      vertex 119.808 8.04909 0
      vertex 119.239 6.17319 0
    endloop
  endfacet
  facet normal 0 0 -1
    outer loop
      vertex 73.702 40.4877 0
      vertex 120 70 0
      vertex 73.75 40 0
    endloop
  endfacet
  facet normal 0 0 -1
    outer loop
      vertex 110 0 0
      vertex 119.239 6.17319 0
      vertex 118.315 4.44429 0
    endloop
  endfacet
  facet normal 0 0 -1
    outer loop
      vertex 73.5597 40.9567 0
      vertex 120 70 0
      vertex 73.702 40.4877 0
    endloop
  endfacet
  facet normal 0 0 -1
    outer loop
      vertex 110 0 0
      vertex 118.315 4.44429 0
      vertex 117.071 2.92889 0
    endloop
  endfacet
  facet normal 0 0 -1
    outer loop
      vertex 73.3287 41.3889 0
      vertex 120 70 0
      vertex 73.5597 40.9567 0
    endloop
  endfacet
  facet normal 0 0 -1
    outer loop
      vertex 110 0 0
      vertex 117.071 2.92889 0
      vertex 115.556 1.68529 0
    endloop
  endfacet
  facet normal 0 -0 -1
    outer loop
      vertex 110 80 0
      vertex 120 70 0
      vertex 73.3287 41.3889 0
    endloop
  endfacet
  facet normal 0 0 -1
    outer loop
      vertex 110 0 0
      vertex 115.556 1.68529 0
      vertex 113.827 0.7612 0
    endloop
  endfacet
  facet normal 0 0 -1
    outer loop
      vertex 119.808 71.9509 0
      vertex 110 80 0
      vertex 119.239 73.8268 0
    endloop
  endfacet
  facet normal 0 0 -1
    outer loop
      vertex 110 0 0
      vertex 113.827 0.7612 0
      vertex 111.951 0.192093 0
    endloop
  endfacet
  facet normal 0 0 -1
    outer loop
      vertex 119.239 73.8268 0
      vertex 110 80 0
      vertex 118.315 75.5557 0
    endloop
  endfacet
  facet normal -0 0 -1
    outer loop
      vertex 120 10 0
      vertex 110 0 0
      vertex 73.3287 38.6111 0
    endloop
  endfacet
  facet normal 0 0 -1
    outer loop
      vertex 117.071 77.0711 0
      vertex 110 80 0
      vertex 115.556 78.3147 0
    endloop
  endfacet
  facet normal 0 0 -1
    outer loop
      vertex 115.556 78.3147 0
      vertex 110 80 0
      vertex 113.827 79.2388 0
    endloop
  endfacet
  facet normal 0 0 -1
    outer loop
      vertex 120 10 0
      vertex 73.702 39.5123 0
      vertex 73.75 40 0
    endloop
  endfacet
  facet normal 0 0 -1
    outer loop
      vertex 120 10 0
      vertex 73.5597 39.0433 0
      vertex 73.702 39.5123 0
    endloop
  endfacet
  facet normal 0 0 -1
    outer loop
      vertex 120 10 0
      vertex 73.3287 38.6111 0
      vertex 73.5597 39.0433 0
    endloop
  endfacet
  facet normal 0 0 -1
    outer loop
      vertex 110 0 0
      vertex 73.0178 38.2322 0
      vertex 73.3287 38.6111 0
    endloop
  endfacet
  facet normal 0 0 -1
    outer loop
      vertex 110 0 0
      vertex 72.6389 37.9213 0
      vertex 73.0178 38.2322 0
    endloop
  endfacet
  facet normal 0 0 -1
    outer loop
      vertex 110 0 0
      vertex 72.2067 37.6903 0
      vertex 72.6389 37.9213 0
    endloop
  endfacet
  facet normal 0 0 -1
    outer loop
      vertex 110 0 0
      vertex 71.7377 37.548 0
      vertex 72.2067 37.6903 0
    endloop
  endfacet
  facet normal 0 0 -1
    outer loop
      vertex 110 0 0
      vertex 71.25 37.5 0
      vertex 71.7377 37.548 0
    endloop
  endfacet
  facet normal 0 0 -1
    outer loop
      vertex 61.9134 35.3806 0
      vertex 71.25 37.5 0
      vertex 110 0 0
    endloop
  endfacet
  facet normal 0 -0 -1
    outer loop
      vertex 62.7779 35.8427 0
      vertex 71.25 37.5 0
      vertex 61.9134 35.3806 0
    endloop
  endfacet
  facet normal -0 0 -1
    outer loop
      vertex 71.25 37.5 0
      vertex 62.7779 35.8427 0
      vertex 70.7623 37.548 0
    endloop
  endfacet
  facet normal -0 0 -1
    outer loop
      vertex 70.7623 37.548 0
      vertex 62.7779 35.8427 0
      vertex 70.2933 37.6903 0
    endloop
  endfacet
  facet normal 0 0 -1
    outer loop
      vertex 68.798 39.5123 0
      vertex 65 40 0
      vertex 68.75 40 0
    endloop
  endfacet
  facet normal 0 0 -1
    outer loop
      vertex 64.9039 39.0245 0
      vertex 68.798 39.5123 0
      vertex 68.9403 39.0433 0
    endloop
  endfacet
  facet normal 0 0 -1
    outer loop
      vertex 64.6194 38.0866 0
      vertex 68.9403 39.0433 0
      vertex 69.1713 38.6111 0
    endloop
  endfacet
  facet normal 0 0 -1
    outer loop
      vertex 64.6194 38.0866 0
      vertex 69.1713 38.6111 0
      vertex 69.4822 38.2322 0
    endloop
  endfacet
  facet normal 0 -0 -1
    outer loop
      vertex 63.5355 36.4645 0
      vertex 70.2933 37.6903 0
      vertex 62.7779 35.8427 0
    endloop
  endfacet
  facet normal -0 0 -1
    outer loop
      vertex 68.798 39.5123 0
      vertex 64.9039 39.0245 0
      vertex 65 40 0
    endloop
  endfacet
  facet normal 0 0 -1
    outer loop
      vertex 68.9403 39.0433 0
      vertex 64.6194 38.0866 0
      vertex 64.9039 39.0245 0
    endloop
  endfacet
  facet normal 0 0 -1
    outer loop
      vertex 69.4822 38.2322 0
      vertex 64.1573 37.2221 0
      vertex 64.6194 38.0866 0
    endloop
  endfacet
  facet normal -0 0 -1
    outer loop
      vertex 69.8611 37.9213 0
      vertex 64.1573 37.2221 0
      vertex 69.4822 38.2322 0
    endloop
  endfacet
  facet normal 0 -0 -1
    outer loop
      vertex 64.1573 37.2221 0
      vertex 69.8611 37.9213 0
      vertex 63.5355 36.4645 0
    endloop
  endfacet
  facet normal -0 0 -1
    outer loop
      vertex 70.2933 37.6903 0
      vertex 63.5355 36.4645 0
      vertex 69.8611 37.9213 0
    endloop
  endfacet
  facet normal 0 0 -1
    outer loop
      vertex 110 0 0
      vertex 60.9755 35.0961 0
      vertex 61.9134 35.3806 0
    endloop
  endfacet
  facet normal 0 0 -1
    outer loop
      vertex 110 0 0
      vertex 60 35 0
      vertex 60.9755 35.0961 0
    endloop
  endfacet
  facet normal 0 0 -1
    outer loop
      vertex 10 0 0
      vertex 60 35 0
      vertex 110 0 0
    endloop
  endfacet
  facet normal -0 0 -1
    outer loop
      vertex 60 35 0
      vertex 10 0 0
      vertex 59.0245 35.0961 0
    endloop
  endfacet
  facet normal -0 0 -1
    outer loop
      vertex 59.0245 35.0961 0
      vertex 10 0 0
      vertex 58.0866 35.3806 0
    endloop
  endfacet
  facet normal -0 0 -1
    outer loop
      vertex 55.3806 38.0866 0
      vertex 0 10 0
      vertex 55.0961 39.0245 0
    endloop
  endfacet
  facet normal 0 0 -1
    outer loop
      vertex 0 10 0
      vertex 55.3806 38.0866 0
      vertex 10 0 0
    endloop
  endfacet
  facet normal -0 0 -1
    outer loop
      vertex 55.8427 37.2221 0
      vertex 10 0 0
      vertex 55.3806 38.0866 0
    endloop
  endfacet
  facet normal -0 0 -1
    outer loop
      vertex 56.4645 36.4645 0
      vertex 10 0 0
      vertex 55.8427 37.2221 0
    endloop
  endfacet
  facet normal -0 0 -1
    outer loop
      vertex 57.2221 35.8427 0
      vertex 10 0 0
      vertex 56.4645 36.4645 0
    endloop
  endfacet
  facet normal -0 0 -1
    outer loop
      vertex 58.0866 35.3806 0
      vertex 10 0 0
      vertex 57.2221 35.8427 0
    endloop
  endfacet
  facet normal 0 0 -1
    outer loop
      vertex 113.827 79.2388 0
      vertex 110 80 0
      vertex 111.951 79.8079 0
    endloop
  endfacet
  facet normal 0 0 -1
    outer loop
      vertex 118.315 75.5557 0
      vertex 110 80 0
      vertex 117.071 77.0711 0
    endloop
  endfacet
  facet normal 0 0 -1
    outer loop
      vertex 120 70 0
      vertex 110 80 0
      vertex 119.808 71.9509 0
    endloop
  endfacet
  facet normal 0 0 -1
    outer loop
      vertex 73.0178 41.7678 0
      vertex 110 80 0
      vertex 73.3287 41.3889 0
    endloop
  endfacet
  facet normal 0 0 -1
    outer loop
      vertex 72.6389 42.0787 0
      vertex 110 80 0
      vertex 73.0178 41.7678 0
    endloop
  endfacet
  facet normal 0 0 -1
    outer loop
      vertex 72.2067 42.3097 0
      vertex 110 80 0
      vertex 72.6389 42.0787 0
    endloop
  endfacet
  facet normal 0 0 -1
    outer loop
      vertex 71.7377 42.452 0
      vertex 110 80 0
      vertex 72.2067 42.3097 0
    endloop
  endfacet
  facet normal 0 0 -1
    outer loop
      vertex 71.25 42.5 0
      vertex 110 80 0
      vertex 71.7377 42.452 0
    endloop
  endfacet
  facet normal 0 0 -1
    outer loop
      vertex 62.7779 44.1573 0
      vertex 71.25 42.5 0
      vertex 70.7623 42.452 0
    endloop
  endfacet
  facet normal 0 0 -1
    outer loop
      vertex 62.7779 44.1573 0
      vertex 70.7623 42.452 0
      vertex 70.2933 42.3097 0
    endloop
  endfacet
  facet normal 0 0 -1
    outer loop
      vertex 63.5355 43.5355 0
      vertex 70.2933 42.3097 0
      vertex 69.8611 42.0787 0
    endloop
  endfacet
  facet normal 0 0 -1
    outer loop
      vertex 64.1573 42.7779 0
      vertex 69.8611 42.0787 0
      vertex 69.4822 41.7678 0
    endloop
  endfacet
  facet normal 0 0 -1
    outer loop
      vertex 65 40 0
      vertex 68.798 40.4877 0
      vertex 68.75 40 0
    endloop
  endfacet
  facet normal 0 0 -1
    outer loop
      vertex 64.9039 40.9755 0
      vertex 68.798 40.4877 0
      vertex 65 40 0
    endloop
  endfacet
  facet normal 0 0 -1
    outer loop
      vertex 68.798 40.4877 0
      vertex 64.9039 40.9755 0
      vertex 68.9403 40.9567 0
    endloop
  endfacet
  facet normal 0 0 -1
    outer loop
      vertex 64.6194 41.9134 0
      vertex 68.9403 40.9567 0
      vertex 64.9039 40.9755 0
    endloop
  endfacet
  facet normal 0 0 -1
    outer loop
      vertex 68.9403 40.9567 0
      vertex 64.6194 41.9134 0
      vertex 69.1713 41.3889 0
    endloop
  endfacet
  facet normal 0 0 -1
    outer loop
      vertex 69.1713 41.3889 0
      vertex 64.6194 41.9134 0
      vertex 69.4822 41.7678 0
    endloop
  endfacet
  facet normal 0 0 -1
    outer loop
      vertex 64.1573 42.7779 0
      vertex 69.4822 41.7678 0
      vertex 64.6194 41.9134 0
    endloop
  endfacet
  facet normal 0 0 -1
    outer loop
      vertex 69.8611 42.0787 0
      vertex 64.1573 42.7779 0
      vertex 63.5355 43.5355 0
    endloop
  endfacet
  facet normal 0 0 -1
    outer loop
      vertex 70.2933 42.3097 0
      vertex 63.5355 43.5355 0
      vertex 62.7779 44.1573 0
    endloop
  endfacet
  facet normal 0 0 -1
    outer loop
      vertex 71.25 42.5 0
      vertex 62.7779 44.1573 0
      vertex 61.9134 44.6194 0
    endloop
  endfacet
  facet normal 0 0 -1
    outer loop
      vertex 71.25 42.5 0
      vertex 61.9134 44.6194 0
      vertex 110 80 0
    endloop
  endfacet
  facet normal 0 0 -1
    outer loop
      vertex 60.9755 44.9039 0
      vertex 110 80 0
      vertex 61.9134 44.6194 0
    endloop
  endfacet
  facet normal 0 0 -1
    outer loop
      vertex 60 45 0
      vertex 110 80 0
      vertex 60.9755 44.9039 0
    endloop
  endfacet
  facet normal 0 0 -1
    outer loop
      vertex 10 80 0
      vertex 60 45 0
      vertex 59.0245 44.9039 0
    endloop
  endfacet
  facet normal 0 0 -1
    outer loop
      vertex 10 80 0
      vertex 59.0245 44.9039 0
      vertex 58.0866 44.6194 0
    endloop
  endfacet
  facet normal 0 0 -1
    outer loop
      vertex 10 80 0
      vertex 58.0866 44.6194 0
      vertex 57.2221 44.1573 0
    endloop
  endfacet
  facet normal -0 0 -1
    outer loop
      vertex 55.0961 39.0245 0
      vertex 0 10 0
      vertex 55 40 0
    endloop
  endfacet
  facet normal 0 0 -1
    outer loop
      vertex 0 70 0
      vertex 55 40 0
      vertex 0 10 0
    endloop
  endfacet
  facet normal 0 0 -1
    outer loop
      vertex 55 40 0
      vertex 0 70 0
      vertex 55.0961 40.9755 0
    endloop
  endfacet
  facet normal 0 0 -1
    outer loop
      vertex 55.0961 40.9755 0
      vertex 0 70 0
      vertex 55.3806 41.9134 0
    endloop
  endfacet
  facet normal 0 0 -1
    outer loop
      vertex 60 45 0
      vertex 10 80 0
      vertex 110 80 0
    endloop
  endfacet
  facet normal 0 0 -1
    outer loop
      vertex 56.4645 43.5355 0
      vertex 10 80 0
      vertex 57.2221 44.1573 0
    endloop
  endfacet
  facet normal 0 -0 -1
    outer loop
      vertex 10 80 0
      vertex 55.3806 41.9134 0
      vertex 0 70 0
    endloop
  endfacet
  facet normal 0 0 -1
    outer loop
      vertex 55.8427 42.7779 0
      vertex 10 80 0
      vertex 56.4645 43.5355 0
    endloop
  endfacet
  facet normal 0 0 -1
    outer loop
      vertex 0 10 0
      vertex 10 0 0
      vertex 8.04909 0.192093 0
    endloop
  endfacet
  facet normal 0 0 -1
    outer loop
      vertex 10 80 0
      vertex 0 70 0
      vertex 8.26349 79.8481 0
    endloop
  endfacet
  facet normal 0 0 -1
    outer loop
      vertex 0 10 0
      vertex 8.04909 0.192093 0
      vertex 6.17319 0.7612 0
    endloop
  endfacet
  facet normal 0 0 -1
    outer loop
      vertex 55.3806 41.9134 0
      vertex 10 80 0
      vertex 55.8427 42.7779 0
    endloop
  endfacet
  facet normal 0 0 -1
    outer loop
      vertex 0 10 0
      vertex 6.17319 0.7612 0
      vertex 4.44429 1.68529 0
    endloop
  endfacet
  facet normal 0 0 -1
    outer loop
      vertex 8.26349 79.8481 0
      vertex 0 70 0
      vertex 6.57979 79.3969 0
    endloop
  endfacet
  facet normal 0 0 -1
    outer loop
      vertex 0 10 0
      vertex 4.44429 1.68529 0
      vertex 2.92889 2.92889 0
    endloop
  endfacet
  facet normal 0 0 -1
    outer loop
      vertex 6.57979 79.3969 0
      vertex 0 70 0
      vertex 5 78.6603 0
    endloop
  endfacet
  facet normal 0 0 -1
    outer loop
      vertex 0 10 0
      vertex 2.92889 2.92889 0
      vertex 1.68529 4.44429 0
    endloop
  endfacet
  facet normal 0 0 -1
    outer loop
      vertex 5 78.6603 0
      vertex 0 70 0
      vertex 3.5721 77.6604 0
    endloop
  endfacet
  facet normal 0 0 -1
    outer loop
      vertex 0 10 0
      vertex 1.68529 4.44429 0
      vertex 0.7612 6.17319 0
    endloop
  endfacet
  facet normal 0 0 -1
    outer loop
      vertex 3.5721 77.6604 0
      vertex 0 70 0
      vertex 2.3396 76.4279 0
    endloop
  endfacet
  facet normal 0 0 -1
    outer loop
      vertex 0 10 0
      vertex 0.7612 6.17319 0
      vertex 0.192093 8.04909 0
    endloop
  endfacet
  facet normal 0 0 -1
    outer loop
      vertex 2.3396 76.4279 0
      vertex 0 70 0
      vertex 1.33969 75 0
    endloop
  endfacet
  facet normal 0 0 -1
    outer loop
      vertex 1.33969 75 0
      vertex 0 70 0
      vertex 0.603088 73.4202 0
    endloop
  endfacet
  facet normal 0 0 -1
    outer loop
      vertex 0.603088 73.4202 0
      vertex 0 70 0
      vertex 0.151886 71.7365 0
    endloop
  endfacet
  facet normal 0 0 1
    outer loop
      vertex 110 78 2
      vertex 118 70 2
      vertex 117.846 71.5607 2
    endloop
  endfacet
  facet normal 0 0 1
    outer loop
      vertex 118 70 2
      vertex 73.75 40 2
      vertex 118 10 2
    endloop
  endfacet
  facet normal 0 0 1
    outer loop
      vertex 110 78 2
      vertex 117.846 71.5607 2
      vertex 117.391 73.0615 2
    endloop
  endfacet
  facet normal -0 0 1
    outer loop
      vertex 73.702 39.5123 2
      vertex 118 10 2
      vertex 73.75 40 2
    endloop
  endfacet
  facet normal 0 0 1
    outer loop
      vertex 110 78 2
      vertex 117.391 73.0615 2
      vertex 116.652 74.4446 2
    endloop
  endfacet
  facet normal -0 0 1
    outer loop
      vertex 73.5597 39.0433 2
      vertex 118 10 2
      vertex 73.702 39.5123 2
    endloop
  endfacet
  facet normal 0 0 1
    outer loop
      vertex 110 78 2
      vertex 116.652 74.4446 2
      vertex 115.657 75.6569 2
    endloop
  endfacet
  facet normal -0 0 1
    outer loop
      vertex 73.3287 38.6111 2
      vertex 118 10 2
      vertex 73.5597 39.0433 2
    endloop
  endfacet
  facet normal 0 0 1
    outer loop
      vertex 110 78 2
      vertex 115.657 75.6569 2
      vertex 114.445 76.6518 2
    endloop
  endfacet
  facet normal 0 -0 1
    outer loop
      vertex 110 2 2
      vertex 118 10 2
      vertex 73.3287 38.6111 2
    endloop
  endfacet
  facet normal 0 0 1
    outer loop
      vertex 110 78 2
      vertex 114.445 76.6518 2
      vertex 113.061 77.391 2
    endloop
  endfacet
  facet normal 0 0 1
    outer loop
      vertex 117.846 8.43929 2
      vertex 110 2 2
      vertex 117.391 6.93849 2
    endloop
  endfacet
  facet normal 0 0 1
    outer loop
      vertex 110 78 2
      vertex 113.061 77.391 2
      vertex 111.561 77.8463 2
    endloop
  endfacet
  facet normal 0 0 1
    outer loop
      vertex 117.391 6.93849 2
      vertex 110 2 2
      vertex 116.652 5.55539 2
    endloop
  endfacet
  facet normal 0 0 1
    outer loop
      vertex 118 70 2
      vertex 110 78 2
      vertex 73.3287 41.3889 2
    endloop
  endfacet
  facet normal 0 0 1
    outer loop
      vertex 115.657 4.34309 2
      vertex 110 2 2
      vertex 114.445 3.34819 2
    endloop
  endfacet
  facet normal 0 0 1
    outer loop
      vertex 114.445 3.34819 2
      vertex 110 2 2
      vertex 113.061 2.60899 2
    endloop
  endfacet
  facet normal 0 0 1
    outer loop
      vertex 118 70 2
      vertex 73.702 40.4877 2
      vertex 73.75 40 2
    endloop
  endfacet
  facet normal 0 0 1
    outer loop
      vertex 118 70 2
      vertex 73.5597 40.9567 2
      vertex 73.702 40.4877 2
    endloop
  endfacet
  facet normal 0 0 1
    outer loop
      vertex 118 70 2
      vertex 73.3287 41.3889 2
      vertex 73.5597 40.9567 2
    endloop
  endfacet
  facet normal 0 0 1
    outer loop
      vertex 110 78 2
      vertex 73.0178 41.7678 2
      vertex 73.3287 41.3889 2
    endloop
  endfacet
  facet normal 0 0 1
    outer loop
      vertex 110 78 2
      vertex 72.6389 42.0787 2
      vertex 73.0178 41.7678 2
    endloop
  endfacet
  facet normal 0 0 1
    outer loop
      vertex 110 78 2
      vertex 72.2067 42.3097 2
      vertex 72.6389 42.0787 2
    endloop
  endfacet
  facet normal 0 0 1
    outer loop
      vertex 110 78 2
      vertex 71.7377 42.452 2
      vertex 72.2067 42.3097 2
    endloop
  endfacet
  facet normal 0 0 1
    outer loop
      vertex 110 78 2
      vertex 71.25 42.5 2
      vertex 71.7377 42.452 2
    endloop
  endfacet
  facet normal -0 0 1
    outer loop
      vertex 61.9134 44.6194 2
      vertex 71.25 42.5 2
      vertex 110 78 2
    endloop
  endfacet
  facet normal -0 -0 1
    outer loop
      vertex 62.7779 44.1573 2
      vertex 71.25 42.5 2
      vertex 61.9134 44.6194 2
    endloop
  endfacet
  facet normal 0 0 1
    outer loop
      vertex 71.25 42.5 2
      vertex 62.7779 44.1573 2
      vertex 70.7623 42.452 2
    endloop
  endfacet
  facet normal 0 0 1
    outer loop
      vertex 70.7623 42.452 2
      vertex 62.7779 44.1573 2
      vertex 70.2933 42.3097 2
    endloop
  endfacet
  facet normal 0 0 1
    outer loop
      vertex 68.798 40.4877 2
      vertex 65 40 2
      vertex 68.75 40 2
    endloop
  endfacet
  facet normal 0 0 1
    outer loop
      vertex 64.9039 40.9755 2
      vertex 68.798 40.4877 2
      vertex 68.9403 40.9567 2
    endloop
  endfacet
  facet normal 0 0 1
    outer loop
      vertex 64.6194 41.9134 2
      vertex 68.9403 40.9567 2
      vertex 69.1713 41.3889 2
    endloop
  endfacet
  facet normal 0 0 1
    outer loop
      vertex 64.6194 41.9134 2
      vertex 69.1713 41.3889 2
      vertex 69.4822 41.7678 2
    endloop
  endfacet
  facet normal -0 -0 1
    outer loop
      vertex 63.5355 43.5355 2
      vertex 70.2933 42.3097 2
      vertex 62.7779 44.1573 2
    endloop
  endfacet
  facet normal 0 0 1
    outer loop
      vertex 68.798 40.4877 2
      vertex 64.9039 40.9755 2
      vertex 65 40 2
    endloop
  endfacet
  facet normal 0 0 1
    outer loop
      vertex 68.9403 40.9567 2
      vertex 64.6194 41.9134 2
      vertex 64.9039 40.9755 2
    endloop
  endfacet
  facet normal 0 0 1
    outer loop
      vertex 69.4822 41.7678 2
      vertex 64.1573 42.7779 2
      vertex 64.6194 41.9134 2
    endloop
  endfacet
  facet normal 0 0 1
    outer loop
      vertex 69.8611 42.0787 2
      vertex 64.1573 42.7779 2
      vertex 69.4822 41.7678 2
    endloop
  endfacet
  facet normal -0 -0 1
    outer loop
      vertex 64.1573 42.7779 2
      vertex 69.8611 42.0787 2
      vertex 63.5355 43.5355 2
    endloop
  endfacet
  facet normal 0 0 1
    outer loop
      vertex 70.2933 42.3097 2
      vertex 63.5355 43.5355 2
      vertex 69.8611 42.0787 2
    endloop
  endfacet
  facet normal 0 0 1
    outer loop
      vertex 110 78 2
      vertex 60.9755 44.9039 2
      vertex 61.9134 44.6194 2
    endloop
  endfacet
  facet normal 0 0 1
    outer loop
      vertex 110 78 2
      vertex 60 45 2
      vertex 60.9755 44.9039 2
    endloop
  endfacet
  facet normal -0 0 1
    outer loop
      vertex 10 78 2
      vertex 60 45 2
      vertex 110 78 2
    endloop
  endfacet
  facet normal 0 0 1
    outer loop
      vertex 60 45 2
      vertex 10 78 2
      vertex 59.0245 44.9039 2
    endloop
  endfacet
  facet normal 0 0 1
    outer loop
      vertex 59.0245 44.9039 2
      vertex 10 78 2
      vertex 58.0866 44.6194 2
    endloop
  endfacet
  facet normal 0 0 1
    outer loop
      vertex 55.3806 41.9134 2
      vertex 2 70 2
      vertex 55.0961 40.9755 2
    endloop
  endfacet
  facet normal -0 0 1
    outer loop
      vertex 2 70 2
      vertex 55.3806 41.9134 2
      vertex 10 78 2
    endloop
  endfacet
  facet normal 0 0 1
    outer loop
      vertex 55.8427 42.7779 2
      vertex 10 78 2
      vertex 55.3806 41.9134 2
    endloop
  endfacet
  facet normal 0 0 1
    outer loop
      vertex 56.4645 43.5355 2
      vertex 10 78 2
      vertex 55.8427 42.7779 2
    endloop
  endfacet
  facet normal 0 0 1
    outer loop
      vertex 57.2221 44.1573 2
      vertex 10 78 2
      vertex 56.4645 43.5355 2
    endloop
  endfacet
  facet normal 0 0 1
    outer loop
      vertex 58.0866 44.6194 2
      vertex 10 78 2
      vertex 57.2221 44.1573 2
    endloop
  endfacet
  facet normal 0 0 1
    outer loop
      vertex 113.061 2.60899 2
      vertex 110 2 2
      vertex 111.561 2.15369 2
    endloop
  endfacet
  facet normal 0 0 1
    outer loop
      vertex 116.652 5.55539 2
      vertex 110 2 2
      vertex 115.657 4.34309 2
    endloop
  endfacet
  facet normal 0 0 1
    outer loop
      vertex 118 10 2
      vertex 110 2 2
      vertex 117.846 8.43929 2
    endloop
  endfacet
  facet normal -0 0 1
    outer loop
      vertex 73.0178 38.2322 2
      vertex 110 2 2
      vertex 73.3287 38.6111 2
    endloop
  endfacet
  facet normal -0 0 1
    outer loop
      vertex 72.6389 37.9213 2
      vertex 110 2 2
      vertex 73.0178 38.2322 2
    endloop
  endfacet
  facet normal -0 0 1
    outer loop
      vertex 72.2067 37.6903 2
      vertex 110 2 2
      vertex 72.6389 37.9213 2
    endloop
  endfacet
  facet normal -0 0 1
    outer loop
      vertex 71.7377 37.548 2
      vertex 110 2 2
      vertex 72.2067 37.6903 2
    endloop
  endfacet
  facet normal -0 0 1
    outer loop
      vertex 71.25 37.5 2
      vertex 110 2 2
      vertex 71.7377 37.548 2
    endloop
  endfacet
  facet normal 0 0 1
    outer loop
      vertex 62.7779 35.8427 2
      vertex 71.25 37.5 2
      vertex 70.7623 37.548 2
    endloop
  endfacet
  facet normal 0 0 1
    outer loop
      vertex 62.7779 35.8427 2
      vertex 70.7623 37.548 2
      vertex 70.2933 37.6903 2
    endloop
  endfacet
  facet normal 0 0 1
    outer loop
      vertex 63.5355 36.4645 2
      vertex 70.2933 37.6903 2
      vertex 69.8611 37.9213 2
    endloop
  endfacet
  facet normal 0 0 1
    outer loop
      vertex 64.1573 37.2221 2
      vertex 69.8611 37.9213 2
      vertex 69.4822 38.2322 2
    endloop
  endfacet
  facet normal -0 0 1
    outer loop
      vertex 65 40 2
      vertex 68.798 39.5123 2
      vertex 68.75 40 2
    endloop
  endfacet
  facet normal 0 0 1
    outer loop
      vertex 64.9039 39.0245 2
      vertex 68.798 39.5123 2
      vertex 65 40 2
    endloop
  endfacet
  facet normal 0 0 1
    outer loop
      vertex 68.798 39.5123 2
      vertex 64.9039 39.0245 2
      vertex 68.9403 39.0433 2
    endloop
  endfacet
  facet normal 0 0 1
    outer loop
      vertex 64.6194 38.0866 2
      vertex 68.9403 39.0433 2
      vertex 64.9039 39.0245 2
    endloop
  endfacet
  facet normal 0 0 1
    outer loop
      vertex 68.9403 39.0433 2
      vertex 64.6194 38.0866 2
      vertex 69.1713 38.6111 2
    endloop
  endfacet
  facet normal 0 0 1
    outer loop
      vertex 69.1713 38.6111 2
      vertex 64.6194 38.0866 2
      vertex 69.4822 38.2322 2
    endloop
  endfacet
  facet normal 0 0 1
    outer loop
      vertex 64.1573 37.2221 2
      vertex 69.4822 38.2322 2
      vertex 64.6194 38.0866 2
    endloop
  endfacet
  facet normal 0 0 1
    outer loop
      vertex 69.8611 37.9213 2
      vertex 64.1573 37.2221 2
      vertex 63.5355 36.4645 2
    endloop
  endfacet
  facet normal 0 0 1
    outer loop
      vertex 70.2933 37.6903 2
      vertex 63.5355 36.4645 2
      vertex 62.7779 35.8427 2
    endloop
  endfacet
  facet normal 0 0 1
    outer loop
      vertex 71.25 37.5 2
      vertex 62.7779 35.8427 2
      vertex 61.9134 35.3806 2
    endloop
  endfacet
  facet normal 0 0 1
    outer loop
      vertex 71.25 37.5 2
      vertex 61.9134 35.3806 2
      vertex 110 2 2
    endloop
  endfacet
  facet normal -0 0 1
    outer loop
      vertex 60.9755 35.0961 2
      vertex 110 2 2
      vertex 61.9134 35.3806 2
    endloop
  endfacet
  facet normal -0 0 1
    outer loop
      vertex 60 35 2
      vertex 110 2 2
      vertex 60.9755 35.0961 2
    endloop
  endfacet
  facet normal 0 0 1
    outer loop
      vertex 10 2 2
      vertex 60 35 2
      vertex 59.0245 35.0961 2
    endloop
  endfacet
  facet normal 0 0 1
    outer loop
      vertex 10 2 2
      vertex 59.0245 35.0961 2
      vertex 58.0866 35.3806 2
    endloop
  endfacet
  facet normal 0 0 1
    outer loop
      vertex 10 2 2
      vertex 58.0866 35.3806 2
      vertex 57.2221 35.8427 2
    endloop
  endfacet
  facet normal 0 0 1
    outer loop
      vertex 55.0961 40.9755 2
      vertex 2 70 2
      vertex 55 40 2
    endloop
  endfacet
  facet normal 0 0 1
    outer loop
      vertex 2 10 2
      vertex 55 40 2
      vertex 2 70 2
    endloop
  endfacet
  facet normal 0 0 1
    outer loop
      vertex 55 40 2
      vertex 2 10 2
      vertex 55.0961 39.0245 2
    endloop
  endfacet
  facet normal 0 0 1
    outer loop
      vertex 55.0961 39.0245 2
      vertex 2 10 2
      vertex 55.3806 38.0866 2
    endloop
  endfacet
  facet normal 0 0 1
    outer loop
      vertex 60 35 2
      vertex 10 2 2
      vertex 110 2 2
    endloop
  endfacet
  facet normal 0 0 1
    outer loop
      vertex 56.4645 36.4645 2
      vertex 10 2 2
      vertex 57.2221 35.8427 2
    endloop
  endfacet
  facet normal 0 -0 1
    outer loop
      vertex 10 2 2
      vertex 55.3806 38.0866 2
      vertex 2 10 2
    endloop
  endfacet
  facet normal 0 0 1
    outer loop
      vertex 2 70 2
      vertex 10 78 2
      vertex 8.61079 77.8785 2
    endloop
  endfacet
  facet normal 0 0 1
    outer loop
      vertex 55.3806 38.0866 2
      vertex 10 2 2
      vertex 55.8427 37.2221 2
    endloop
  endfacet
  facet normal 0 0 1
    outer loop
      vertex 2 70 2
      vertex 8.61079 77.8785 2
      vertex 7.26379 77.5175 2
    endloop
  endfacet
  facet normal 0 0 1
    outer loop
      vertex 55.8427 37.2221 2
      vertex 10 2 2
      vertex 56.4645 36.4645 2
    endloop
  endfacet
  facet normal 0 0 1
    outer loop
      vertex 2 70 2
      vertex 7.26379 77.5175 2
      vertex 6 76.9282 2
    endloop
  endfacet
  facet normal 0 0 1
    outer loop
      vertex 10 2 2
      vertex 2 10 2
      vertex 8.43929 2.15369 2
    endloop
  endfacet
  facet normal 0 0 1
    outer loop
      vertex 2 70 2
      vertex 6 76.9282 2
      vertex 4.8577 76.1284 2
    endloop
  endfacet
  facet normal 0 0 1
    outer loop
      vertex 8.43929 2.15369 2
      vertex 2 10 2
      vertex 6.93849 2.60899 2
    endloop
  endfacet
  facet normal 0 0 1
    outer loop
      vertex 2 70 2
      vertex 4.8577 76.1284 2
      vertex 3.8716 75.1423 2
    endloop
  endfacet
  facet normal 0 0 1
    outer loop
      vertex 6.93849 2.60899 2
      vertex 2 10 2
      vertex 5.55539 3.34819 2
    endloop
  endfacet
  facet normal 0 0 1
    outer loop
      vertex 2 70 2
      vertex 3.8716 75.1423 2
      vertex 3.07179 74 2
    endloop
  endfacet
  facet normal 0 0 1
    outer loop
      vertex 5.55539 3.34819 2
      vertex 2 10 2
      vertex 4.34309 4.34309 2
    endloop
  endfacet
  facet normal 0 0 1
    outer loop
      vertex 2 70 2
      vertex 3.07179 74 2
      vertex 2.4825 72.7362 2
    endloop
  endfacet
  facet normal 0 0 1
    outer loop
      vertex 4.34309 4.34309 2
      vertex 2 10 2
      vertex 3.34819 5.55539 2
    endloop
  endfacet
  facet normal 0 0 1
    outer loop
      vertex 2 70 2
      vertex 2.4825 72.7362 2
      vertex 2.12149 71.3892 2
    endloop
  endfacet
  facet normal 0 0 1
    outer loop
      vertex 3.34819 5.55539 2
      vertex 2 10 2
      vertex 2.60899 6.93849 2
    endloop
  endfacet
  facet normal 0 0 1
    outer loop
      vertex 2.60899 6.93849 2
      vertex 2 10 2
      vertex 2.15369 8.43929 2
    endloop
  endfacet
  facet normal 0.290298 -0.956936 0
    outer loop
      vertex 111.951 0.192093 0
      vertex 113.827 0.7612 40
      vertex 111.951 0.192093 40
    endloop
  endfacet
  facet normal 0.290298 -0.956936 0
    outer loop
      vertex 113.827 0.7612 40
      vertex 111.951 0.192093 0
      vertex 113.827 0.7612 0
    endloop
  endfacet
  facet normal 0.471365 -0.881938 0
    outer loop
      vertex 113.827 0.7612 0
      vertex 115.556 1.68529 40
      vertex 113.827 0.7612 40
    endloop
  endfacet
  facet normal 0.471365 -0.881938 0
    outer loop
      vertex 115.556 1.68529 40
      vertex 113.827 0.7612 0
      vertex 115.556 1.68529 0
    endloop
  endfacet
  facet normal 0.634476 -0.772942 0
    outer loop
      vertex 115.556 1.68529 0
      vertex 117.071 2.92889 40
      vertex 115.556 1.68529 40
    endloop
  endfacet
  facet normal 0.634476 -0.772942 0
    outer loop
      vertex 117.071 2.92889 40
      vertex 115.556 1.68529 0
      vertex 117.071 2.92889 0
    endloop
  endfacet
  facet normal 0.772925 -0.634498 0
    outer loop
      vertex 117.071 2.92889 40
      vertex 118.315 4.44429 0
      vertex 118.315 4.44429 40
    endloop
  endfacet
  facet normal 0.772925 -0.634498 0
    outer loop
      vertex 118.315 4.44429 0
      vertex 117.071 2.92889 40
      vertex 117.071 2.92889 0
    endloop
  endfacet
  facet normal 0.881946 -0.471351 0
    outer loop
      vertex 118.315 4.44429 40
      vertex 119.239 6.17319 0
      vertex 119.239 6.17319 40
    endloop
  endfacet
  facet normal 0.881946 -0.471351 0
    outer loop
      vertex 119.239 6.17319 0
      vertex 118.315 4.44429 40
      vertex 118.315 4.44429 0
    endloop
  endfacet
  facet normal 0.956947 -0.290262 0
    outer loop
      vertex 119.239 6.17319 40
      vertex 119.808 8.04909 0
      vertex 119.808 8.04909 40
    endloop
  endfacet
  facet normal 0.956947 -0.290262 0
    outer loop
      vertex 119.808 8.04909 0
      vertex 119.239 6.17319 40
      vertex 119.239 6.17319 0
    endloop
  endfacet
  facet normal 0.995192 -0.0979424 0
    outer loop
      vertex 119.808 8.04909 40
      vertex 120 10 0
      vertex 120 10 40
    endloop
  endfacet
  facet normal 0.995192 -0.0979424 0
    outer loop
      vertex 120 10 0
      vertex 119.808 8.04909 40
      vertex 119.808 8.04909 0
    endloop
  endfacet
  facet normal 1 -0 0
    outer loop
      vertex 120 10 40
      vertex 120 70 0
      vertex 120 70 40
    endloop
  endfacet
  facet normal 1 0 0
    outer loop
      vertex 120 70 0
      vertex 120 10 40
      vertex 120 10 0
    endloop
  endfacet
  facet normal 0.995192 0.0979429 0
    outer loop
      vertex 120 70 40
      vertex 119.808 71.9509 0
      vertex 119.808 71.9509 40
    endloop
  endfacet
  facet normal 0.995192 0.0979429 0
    outer loop
      vertex 119.808 71.9509 0
      vertex 120 70 40
      vertex 120 70 0
    endloop
  endfacet
  facet normal 0.956947 0.290262 0
    outer loop
      vertex 119.808 71.9509 40
      vertex 119.239 73.8268 0
      vertex 119.239 73.8268 40
    endloop
  endfacet
  facet normal 0.956947 0.290262 0
    outer loop
      vertex 119.239 73.8268 0
      vertex 119.808 71.9509 40
      vertex 119.808 71.9509 0
    endloop
  endfacet
  facet normal 0.881946 0.471351 0
    outer loop
      vertex 119.239 73.8268 40
      vertex 118.315 75.5557 0
      vertex 118.315 75.5557 40
    endloop
  endfacet
  facet normal 0.881946 0.471351 0
    outer loop
      vertex 118.315 75.5557 0
      vertex 119.239 73.8268 40
      vertex 119.239 73.8268 0
    endloop
  endfacet
  facet normal 0.772925 0.634498 0
    outer loop
      vertex 118.315 75.5557 40
      vertex 117.071 77.0711 0
      vertex 117.071 77.0711 40
    endloop
  endfacet
  facet normal 0.772925 0.634498 0
    outer loop
      vertex 117.071 77.0711 0
      vertex 118.315 75.5557 40
      vertex 118.315 75.5557 0
    endloop
  endfacet
  facet normal 0.634476 0.772942 -0
    outer loop
      vertex 117.071 77.0711 0
      vertex 115.556 78.3147 40
      vertex 117.071 77.0711 40
    endloop
  endfacet
  facet normal 0.634476 0.772942 0
    outer loop
      vertex 115.556 78.3147 40
      vertex 117.071 77.0711 0
      vertex 115.556 78.3147 0
    endloop
  endfacet
  facet normal 0.471369 0.881936 -0
    outer loop
      vertex 115.556 78.3147 0
      vertex 113.827 79.2388 40
      vertex 115.556 78.3147 40
    endloop
  endfacet
  facet normal 0.471369 0.881936 0
    outer loop
      vertex 113.827 79.2388 40
      vertex 115.556 78.3147 0
      vertex 113.827 79.2388 0
    endloop
  endfacet
  facet normal 0.290295 0.956937 -0
    outer loop
      vertex 113.827 79.2388 0
      vertex 111.951 79.8079 40
      vertex 113.827 79.2388 40
    endloop
  endfacet
  facet normal 0.290295 0.956937 0
    outer loop
      vertex 111.951 79.8079 40
      vertex 113.827 79.2388 0
      vertex 111.951 79.8079 0
    endloop
  endfacet
  facet normal 0.0979885 0.995188 -0
    outer loop
      vertex 111.951 79.8079 0
      vertex 110 80 40
      vertex 111.951 79.8079 40
    endloop
  endfacet
  facet normal 0.0979885 0.995188 0
    outer loop
      vertex 110 80 40
      vertex 111.951 79.8079 0
      vertex 110 80 0
    endloop
  endfacet
  facet normal 0 1 -0
    outer loop
      vertex 110 80 0
      vertex 10 80 40
      vertex 110 80 40
    endloop
  endfacet
  facet normal 0 1 0
    outer loop
      vertex 10 80 40
      vertex 110 80 0
      vertex 10 80 0
    endloop
  endfacet
  facet normal -0.0871415 0.996196 0
    outer loop
      vertex 10 80 0
      vertex 8.26349 79.8481 40
      vertex 10 80 40
    endloop
  endfacet
  facet normal -0.0871415 0.996196 0
    outer loop
      vertex 8.26349 79.8481 40
      vertex 10 80 0
      vertex 8.26349 79.8481 0
    endloop
  endfacet
  facet normal -0.258848 0.965918 0
    outer loop
      vertex 8.26349 79.8481 0
      vertex 6.57979 79.3969 40
      vertex 8.26349 79.8481 40
    endloop
  endfacet
  facet normal -0.258848 0.965918 0
    outer loop
      vertex 6.57979 79.3969 40
      vertex 8.26349 79.8481 0
      vertex 6.57979 79.3969 0
    endloop
  endfacet
  facet normal -0.422586 0.906323 0
    outer loop
      vertex 6.57979 79.3969 0
      vertex 5 78.6603 40
      vertex 6.57979 79.3969 40
    endloop
  endfacet
  facet normal -0.422586 0.906323 0
    outer loop
      vertex 5 78.6603 40
      vertex 6.57979 79.3969 0
      vertex 5 78.6603 0
    endloop
  endfacet
  facet normal -0.573605 0.819132 0
    outer loop
      vertex 5 78.6603 0
      vertex 3.5721 77.6604 40
      vertex 5 78.6603 40
    endloop
  endfacet
  facet normal -0.573605 0.819132 0
    outer loop
      vertex 3.5721 77.6604 40
      vertex 5 78.6603 0
      vertex 3.5721 77.6604 0
    endloop
  endfacet
  facet normal -0.707107 0.707107 0
    outer loop
      vertex 2.3396 76.4279 0
      vertex 3.5721 77.6604 40
      vertex 3.5721 77.6604 0
    endloop
  endfacet
  facet normal -0.707107 0.707107 0
    outer loop
      vertex 3.5721 77.6604 40
      vertex 2.3396 76.4279 0
      vertex 2.3396 76.4279 40
    endloop
  endfacet
  facet normal -0.819129 0.573609 0
    outer loop
      vertex 1.33969 75 0
      vertex 2.3396 76.4279 40
      vertex 2.3396 76.4279 0
    endloop
  endfacet
  facet normal -0.819129 0.573609 0
    outer loop
      vertex 2.3396 76.4279 40
      vertex 1.33969 75 0
      vertex 1.33969 75 40
    endloop
  endfacet
  facet normal -0.906323 0.422585 0
    outer loop
      vertex 0.603088 73.4202 0
      vertex 1.33969 75 40
      vertex 1.33969 75 0
    endloop
  endfacet
  facet normal -0.906323 0.422585 0
    outer loop
      vertex 1.33969 75 40
      vertex 0.603088 73.4202 0
      vertex 0.603088 73.4202 40
    endloop
  endfacet
  facet normal -0.965918 0.258849 0
    outer loop
      vertex 0.151886 71.7365 0
      vertex 0.603088 73.4202 40
      vertex 0.603088 73.4202 0
    endloop
  endfacet
  facet normal -0.965918 0.258849 0
    outer loop
      vertex 0.603088 73.4202 40
      vertex 0.151886 71.7365 0
      vertex 0.151886 71.7365 40
    endloop
  endfacet
  facet normal -0.996197 0.0871341 0
    outer loop
      vertex 0 70 0
      vertex 0.151886 71.7365 40
      vertex 0.151886 71.7365 0
    endloop
  endfacet
  facet normal -0.996197 0.0871341 0
    outer loop
      vertex 0.151886 71.7365 40
      vertex 0 70 0
      vertex 0 70 40
    endloop
  endfacet
  facet normal -1 0 0
    outer loop
      vertex 0 10 0
      vertex 0 70 40
      vertex 0 70 0
    endloop
  endfacet
  facet normal -1 -0 0
    outer loop
      vertex 0 70 40
      vertex 0 10 0
      vertex 0 10 40
    endloop
  endfacet
  facet normal -0.995187 -0.0979894 0
    outer loop
      vertex 0.192093 8.04909 0
      vertex 0 10 40
      vertex 0 10 0
    endloop
  endfacet
  facet normal -0.995187 -0.0979894 0
    outer loop
      vertex 0 10 40
      vertex 0.192093 8.04909 0
      vertex 0.192093 8.04909 40
    endloop
  endfacet
  facet normal -0.956932 -0.290312 0
    outer loop
      vertex 0.7612 6.17319 0
      vertex 0.192093 8.04909 40
      vertex 0.192093 8.04909 0
    endloop
  endfacet
  facet normal -0.956932 -0.290312 0
    outer loop
      vertex 0.192093 8.04909 40
      vertex 0.7612 6.17319 0
      vertex 0.7612 6.17319 40
    endloop
  endfacet
  facet normal -0.881927 -0.471386 0
    outer loop
      vertex 1.68529 4.44429 0
      vertex 0.7612 6.17319 40
      vertex 0.7612 6.17319 0
    endloop
  endfacet
  facet normal -0.881927 -0.471386 0
    outer loop
      vertex 0.7612 6.17319 40
      vertex 1.68529 4.44429 0
      vertex 1.68529 4.44429 40
    endloop
  endfacet
  facet normal -0.773025 -0.634376 0
    outer loop
      vertex 2.92889 2.92889 0
      vertex 1.68529 4.44429 40
      vertex 1.68529 4.44429 0
    endloop
  endfacet
  facet normal -0.773025 -0.634376 0
    outer loop
      vertex 1.68529 4.44429 40
      vertex 2.92889 2.92889 0
      vertex 2.92889 2.92889 40
    endloop
  endfacet
  facet normal -0.634376 -0.773025 0
    outer loop
      vertex 2.92889 2.92889 0
      vertex 4.44429 1.68529 40
      vertex 2.92889 2.92889 40
    endloop
  endfacet
  facet normal -0.634376 -0.773025 -0
    outer loop
      vertex 4.44429 1.68529 40
      vertex 2.92889 2.92889 0
      vertex 4.44429 1.68529 0
    endloop
  endfacet
  facet normal -0.471386 -0.881927 0
    outer loop
      vertex 4.44429 1.68529 0
      vertex 6.17319 0.7612 40
      vertex 4.44429 1.68529 40
    endloop
  endfacet
  facet normal -0.471386 -0.881927 -0
    outer loop
      vertex 6.17319 0.7612 40
      vertex 4.44429 1.68529 0
      vertex 6.17319 0.7612 0
    endloop
  endfacet
  facet normal -0.290312 -0.956932 0
    outer loop
      vertex 6.17319 0.7612 0
      vertex 8.04909 0.192093 40
      vertex 6.17319 0.7612 40
    endloop
  endfacet
  facet normal -0.290312 -0.956932 -0
    outer loop
      vertex 8.04909 0.192093 40
      vertex 6.17319 0.7612 0
      vertex 8.04909 0.192093 0
    endloop
  endfacet
  facet normal -0.0979894 -0.995187 0
    outer loop
      vertex 8.04909 0.192093 0
      vertex 10 0 40
      vertex 8.04909 0.192093 40
    endloop
  endfacet
  facet normal -0.0979894 -0.995187 -0
    outer loop
      vertex 10 0 40
      vertex 8.04909 0.192093 0
      vertex 10 0 0
    endloop
  endfacet
  facet normal 0 -1 0
    outer loop
      vertex 10 0 0
      vertex 110 0 40
      vertex 10 0 40
    endloop
  endfacet
  facet normal 0 -1 -0
    outer loop
      vertex 110 0 40
      vertex 10 0 0
      vertex 110 0 0
    endloop
  endfacet
  facet normal 0.0979849 -0.995188 0
    outer loop
      vertex 110 0 0
      vertex 111.951 0.192093 40
      vertex 110 0 40
    endloop
  endfacet
  facet normal 0.0979849 -0.995188 0
    outer loop
      vertex 111.951 0.192093 40
      vertex 110 0 0
      vertex 111.951 0.192093 0
    endloop
  endfacet
  facet normal 0.290276 0.956943 -0
    outer loop
      vertex 59.0245 35.0961 0
      vertex 58.0866 35.3806 2
      vertex 59.0245 35.0961 2
    endloop
  endfacet
  facet normal 0.290276 0.956943 0
    outer loop
      vertex 58.0866 35.3806 2
      vertex 59.0245 35.0961 0
      vertex 58.0866 35.3806 0
    endloop
  endfacet
  facet normal 0.471409 0.881915 -0
    outer loop
      vertex 58.0866 35.3806 0
      vertex 57.2221 35.8427 2
      vertex 58.0866 35.3806 2
    endloop
  endfacet
  facet normal 0.471409 0.881915 0
    outer loop
      vertex 57.2221 35.8427 2
      vertex 58.0866 35.3806 0
      vertex 57.2221 35.8427 0
    endloop
  endfacet
  facet normal 0.634426 0.772984 -0
    outer loop
      vertex 57.2221 35.8427 0
      vertex 56.4645 36.4645 2
      vertex 57.2221 35.8427 2
    endloop
  endfacet
  facet normal 0.634426 0.772984 0
    outer loop
      vertex 56.4645 36.4645 2
      vertex 57.2221 35.8427 0
      vertex 56.4645 36.4645 0
    endloop
  endfacet
  facet normal 0.772984 0.634426 0
    outer loop
      vertex 56.4645 36.4645 2
      vertex 55.8427 37.2221 0
      vertex 55.8427 37.2221 2
    endloop
  endfacet
  facet normal 0.772984 0.634426 0
    outer loop
      vertex 55.8427 37.2221 0
      vertex 56.4645 36.4645 2
      vertex 56.4645 36.4645 0
    endloop
  endfacet
  facet normal 0.881915 0.471409 0
    outer loop
      vertex 55.8427 37.2221 2
      vertex 55.3806 38.0866 0
      vertex 55.3806 38.0866 2
    endloop
  endfacet
  facet normal 0.881915 0.471409 0
    outer loop
      vertex 55.3806 38.0866 0
      vertex 55.8427 37.2221 2
      vertex 55.8427 37.2221 0
    endloop
  endfacet
  facet normal 0.956943 0.290276 0
    outer loop
      vertex 55.3806 38.0866 2
      vertex 55.0961 39.0245 0
      vertex 55.0961 39.0245 2
    endloop
  endfacet
  facet normal 0.956943 0.290276 0
    outer loop
      vertex 55.0961 39.0245 0
      vertex 55.3806 38.0866 2
      vertex 55.3806 38.0866 0
    endloop
  endfacet
  facet normal 0.995183 0.098039 0
    outer loop
      vertex 55.0961 39.0245 2
      vertex 55 40 0
      vertex 55 40 2
    endloop
  endfacet
  facet normal 0.995183 0.098039 0
    outer loop
      vertex 55 40 0
      vertex 55.0961 39.0245 2
      vertex 55.0961 39.0245 0
    endloop
  endfacet
  facet normal 0.995183 -0.098039 0
    outer loop
      vertex 55 40 2
      vertex 55.0961 40.9755 0
      vertex 55.0961 40.9755 2
    endloop
  endfacet
  facet normal 0.995183 -0.098039 0
    outer loop
      vertex 55.0961 40.9755 0
      vertex 55 40 2
      vertex 55 40 0
    endloop
  endfacet
  facet normal 0.956943 -0.290276 0
    outer loop
      vertex 55.0961 40.9755 2
      vertex 55.3806 41.9134 0
      vertex 55.3806 41.9134 2
    endloop
  endfacet
  facet normal 0.956943 -0.290276 0
    outer loop
      vertex 55.3806 41.9134 0
      vertex 55.0961 40.9755 2
      vertex 55.0961 40.9755 0
    endloop
  endfacet
  facet normal 0.881915 -0.471409 0
    outer loop
      vertex 55.3806 41.9134 2
      vertex 55.8427 42.7779 0
      vertex 55.8427 42.7779 2
    endloop
  endfacet
  facet normal 0.881915 -0.471409 0
    outer loop
      vertex 55.8427 42.7779 0
      vertex 55.3806 41.9134 2
      vertex 55.3806 41.9134 0
    endloop
  endfacet
  facet normal 0.772984 -0.634426 0
    outer loop
      vertex 55.8427 42.7779 2
      vertex 56.4645 43.5355 0
      vertex 56.4645 43.5355 2
    endloop
  endfacet
  facet normal 0.772984 -0.634426 0
    outer loop
      vertex 56.4645 43.5355 0
      vertex 55.8427 42.7779 2
      vertex 55.8427 42.7779 0
    endloop
  endfacet
  facet normal 0.634426 -0.772984 0
    outer loop
      vertex 56.4645 43.5355 0
      vertex 57.2221 44.1573 2
      vertex 56.4645 43.5355 2
    endloop
  endfacet
  facet normal 0.634426 -0.772984 0
    outer loop
      vertex 57.2221 44.1573 2
      vertex 56.4645 43.5355 0
      vertex 57.2221 44.1573 0
    endloop
  endfacet
  facet normal 0.471409 -0.881915 0
    outer loop
      vertex 57.2221 44.1573 0
      vertex 58.0866 44.6194 2
      vertex 57.2221 44.1573 2
    endloop
  endfacet
  facet normal 0.471409 -0.881915 0
    outer loop
      vertex 58.0866 44.6194 2
      vertex 57.2221 44.1573 0
      vertex 58.0866 44.6194 0
    endloop
  endfacet
  facet normal 0.290276 -0.956943 0
    outer loop
      vertex 58.0866 44.6194 0
      vertex 59.0245 44.9039 2
      vertex 58.0866 44.6194 2
    endloop
  endfacet
  facet normal 0.290276 -0.956943 0
    outer loop
      vertex 59.0245 44.9039 2
      vertex 58.0866 44.6194 0
      vertex 59.0245 44.9039 0
    endloop
  endfacet
  facet normal 0.098039 -0.995183 0
    outer loop
      vertex 59.0245 44.9039 0
      vertex 60 45 2
      vertex 59.0245 44.9039 2
    endloop
  endfacet
  facet normal 0.098039 -0.995183 0
    outer loop
      vertex 60 45 2
      vertex 59.0245 44.9039 0
      vertex 60 45 0
    endloop
  endfacet
  facet normal -0.098039 -0.995183 0
    outer loop
      vertex 60 45 0
      vertex 60.9755 44.9039 2
      vertex 60 45 2
    endloop
  endfacet
  facet normal -0.098039 -0.995183 -0
    outer loop
      vertex 60.9755 44.9039 2
      vertex 60 45 0
      vertex 60.9755 44.9039 0
    endloop
  endfacet
  facet normal -0.290276 -0.956943 0
    outer loop
      vertex 60.9755 44.9039 0
      vertex 61.9134 44.6194 2
      vertex 60.9755 44.9039 2
    endloop
  endfacet
  facet normal -0.290276 -0.956943 -0
    outer loop
      vertex 61.9134 44.6194 2
      vertex 60.9755 44.9039 0
      vertex 61.9134 44.6194 0
    endloop
  endfacet
  facet normal -0.471409 -0.881915 0
    outer loop
      vertex 61.9134 44.6194 0
      vertex 62.7779 44.1573 2
      vertex 61.9134 44.6194 2
    endloop
  endfacet
  facet normal -0.471409 -0.881915 -0
    outer loop
      vertex 62.7779 44.1573 2
      vertex 61.9134 44.6194 0
      vertex 62.7779 44.1573 0
    endloop
  endfacet
  facet normal -0.634426 -0.772984 0
    outer loop
      vertex 62.7779 44.1573 0
      vertex 63.5355 43.5355 2
      vertex 62.7779 44.1573 2
    endloop
  endfacet
  facet normal -0.634426 -0.772984 -0
    outer loop
      vertex 63.5355 43.5355 2
      vertex 62.7779 44.1573 0
      vertex 63.5355 43.5355 0
    endloop
  endfacet
  facet normal -0.772984 -0.634426 0
    outer loop
      vertex 64.1573 42.7779 0
      vertex 63.5355 43.5355 2
      vertex 63.5355 43.5355 0
    endloop
  endfacet
  facet normal -0.772984 -0.634426 0
    outer loop
      vertex 63.5355 43.5355 2
      vertex 64.1573 42.7779 0
      vertex 64.1573 42.7779 2
    endloop
  endfacet
  facet normal -0.881915 -0.471409 0
    outer loop
      vertex 64.6194 41.9134 0
      vertex 64.1573 42.7779 2
      vertex 64.1573 42.7779 0
    endloop
  endfacet
  facet normal -0.881915 -0.471409 0
    outer loop
      vertex 64.1573 42.7779 2
      vertex 64.6194 41.9134 0
      vertex 64.6194 41.9134 2
    endloop
  endfacet
  facet normal -0.956943 -0.290276 0
    outer loop
      vertex 64.9039 40.9755 0
      vertex 64.6194 41.9134 2
      vertex 64.6194 41.9134 0
    endloop
  endfacet
  facet normal -0.956943 -0.290276 0
    outer loop
      vertex 64.6194 41.9134 2
      vertex 64.9039 40.9755 0
      vertex 64.9039 40.9755 2
    endloop
  endfacet
  facet normal -0.995183 -0.098039 0
    outer loop
      vertex 65 40 0
      vertex 64.9039 40.9755 2
      vertex 64.9039 40.9755 0
    endloop
  endfacet
  facet normal -0.995183 -0.098039 0
    outer loop
      vertex 64.9039 40.9755 2
      vertex 65 40 0
      vertex 65 40 2
    endloop
  endfacet
  facet normal -0.995183 0.098039 0
    outer loop
      vertex 64.9039 39.0245 0
      vertex 65 40 2
      vertex 65 40 0
    endloop
  endfacet
  facet normal -0.995183 0.098039 0
    outer loop
      vertex 65 40 2
      vertex 64.9039 39.0245 0
      vertex 64.9039 39.0245 2
    endloop
  endfacet
  facet normal -0.956943 0.290276 0
    outer loop
      vertex 64.6194 38.0866 0
      vertex 64.9039 39.0245 2
      vertex 64.9039 39.0245 0
    endloop
  endfacet
  facet normal -0.956943 0.290276 0
    outer loop
      vertex 64.9039 39.0245 2
      vertex 64.6194 38.0866 0
      vertex 64.6194 38.0866 2
    endloop
  endfacet
  facet normal -0.881915 0.471409 0
    outer loop
      vertex 64.1573 37.2221 0
      vertex 64.6194 38.0866 2
      vertex 64.6194 38.0866 0
    endloop
  endfacet
  facet normal -0.881915 0.471409 0
    outer loop
      vertex 64.6194 38.0866 2
      vertex 64.1573 37.2221 0
      vertex 64.1573 37.2221 2
    endloop
  endfacet
  facet normal -0.772984 0.634426 0
    outer loop
      vertex 63.5355 36.4645 0
      vertex 64.1573 37.2221 2
      vertex 64.1573 37.2221 0
    endloop
  endfacet
  facet normal -0.772984 0.634426 0
    outer loop
      vertex 64.1573 37.2221 2
      vertex 63.5355 36.4645 0
      vertex 63.5355 36.4645 2
    endloop
  endfacet
  facet normal -0.634426 0.772984 0
    outer loop
      vertex 63.5355 36.4645 0
      vertex 62.7779 35.8427 2
      vertex 63.5355 36.4645 2
    endloop
  endfacet
  facet normal -0.634426 0.772984 0
    outer loop
      vertex 62.7779 35.8427 2
      vertex 63.5355 36.4645 0
      vertex 62.7779 35.8427 0
    endloop
  endfacet
  facet normal -0.471409 0.881915 0
    outer loop
      vertex 62.7779 35.8427 0
      vertex 61.9134 35.3806 2
      vertex 62.7779 35.8427 2
    endloop
  endfacet
  facet normal -0.471409 0.881915 0
    outer loop
      vertex 61.9134 35.3806 2
      vertex 62.7779 35.8427 0
      vertex 61.9134 35.3806 0
    endloop
  endfacet
  facet normal -0.290276 0.956943 0
    outer loop
      vertex 61.9134 35.3806 0
      vertex 60.9755 35.0961 2
      vertex 61.9134 35.3806 2
    endloop
  endfacet
  facet normal -0.290276 0.956943 0
    outer loop
      vertex 60.9755 35.0961 2
      vertex 61.9134 35.3806 0
      vertex 60.9755 35.0961 0
    endloop
  endfacet
  facet normal -0.098039 0.995183 0
    outer loop
      vertex 60.9755 35.0961 0
      vertex 60 35 2
      vertex 60.9755 35.0961 2
    endloop
  endfacet
  facet normal -0.098039 0.995183 0
    outer loop
      vertex 60 35 2
      vertex 60.9755 35.0961 0
      vertex 60 35 0
    endloop
  endfacet
  facet normal 0.098039 0.995183 -0
    outer loop
      vertex 60 35 0
      vertex 59.0245 35.0961 2
      vertex 60 35 2
    endloop
  endfacet
  facet normal 0.098039 0.995183 0
    outer loop
      vertex 59.0245 35.0961 2
      vertex 60 35 0
      vertex 59.0245 35.0961 0
    endloop
  endfacet
  facet normal 0.290341 0.956923 -0
    outer loop
      vertex 70.7623 37.548 0
      vertex 70.2933 37.6903 2
      vertex 70.7623 37.548 2
    endloop
  endfacet
  facet normal 0.290341 0.956923 0
    outer loop
      vertex 70.2933 37.6903 2
      vertex 70.7623 37.548 0
      vertex 70.2933 37.6903 0
    endloop
  endfacet
  facet normal 0.471372 0.881935 -0
    outer loop
      vertex 70.2933 37.6903 0
      vertex 69.8611 37.9213 2
      vertex 70.2933 37.6903 2
    endloop
  endfacet
  facet normal 0.471372 0.881935 0
    outer loop
      vertex 69.8611 37.9213 2
      vertex 70.2933 37.6903 0
      vertex 69.8611 37.9213 0
    endloop
  endfacet
  facet normal 0.634326 0.773066 -0
    outer loop
      vertex 69.8611 37.9213 0
      vertex 69.4822 38.2322 2
      vertex 69.8611 37.9213 2
    endloop
  endfacet
  facet normal 0.634326 0.773066 0
    outer loop
      vertex 69.4822 38.2322 2
      vertex 69.8611 37.9213 0
      vertex 69.4822 38.2322 0
    endloop
  endfacet
  facet normal 0.773066 0.634326 0
    outer loop
      vertex 69.4822 38.2322 2
      vertex 69.1713 38.6111 0
      vertex 69.1713 38.6111 2
    endloop
  endfacet
  facet normal 0.773066 0.634326 0
    outer loop
      vertex 69.1713 38.6111 0
      vertex 69.4822 38.2322 2
      vertex 69.4822 38.2322 0
    endloop
  endfacet
  facet normal 0.881935 0.471372 0
    outer loop
      vertex 69.1713 38.6111 2
      vertex 68.9403 39.0433 0
      vertex 68.9403 39.0433 2
    endloop
  endfacet
  facet normal 0.881935 0.471372 0
    outer loop
      vertex 68.9403 39.0433 0
      vertex 69.1713 38.6111 2
      vertex 69.1713 38.6111 0
    endloop
  endfacet
  facet normal 0.956923 0.290341 0
    outer loop
      vertex 68.9403 39.0433 2
      vertex 68.798 39.5123 0
      vertex 68.798 39.5123 2
    endloop
  endfacet
  facet normal 0.956923 0.290341 0
    outer loop
      vertex 68.798 39.5123 0
      vertex 68.9403 39.0433 2
      vertex 68.9403 39.0433 0
    endloop
  endfacet
  facet normal 0.995192 0.0979479 0
    outer loop
      vertex 68.798 39.5123 2
      vertex 68.75 40 0
      vertex 68.75 40 2
    endloop
  endfacet
  facet normal 0.995192 0.0979479 0
    outer loop
      vertex 68.75 40 0
      vertex 68.798 39.5123 2
      vertex 68.798 39.5123 0
    endloop
  endfacet
  facet normal 0.995192 -0.0979479 0
    outer loop
      vertex 68.75 40 2
      vertex 68.798 40.4877 0
      vertex 68.798 40.4877 2
    endloop
  endfacet
  facet normal 0.995192 -0.0979479 0
    outer loop
      vertex 68.798 40.4877 0
      vertex 68.75 40 2
      vertex 68.75 40 0
    endloop
  endfacet
  facet normal 0.956923 -0.290341 0
    outer loop
      vertex 68.798 40.4877 2
      vertex 68.9403 40.9567 0
      vertex 68.9403 40.9567 2
    endloop
  endfacet
  facet normal 0.956923 -0.290341 0
    outer loop
      vertex 68.9403 40.9567 0
      vertex 68.798 40.4877 2
      vertex 68.798 40.4877 0
    endloop
  endfacet
  facet normal 0.881935 -0.471372 0
    outer loop
      vertex 68.9403 40.9567 2
      vertex 69.1713 41.3889 0
      vertex 69.1713 41.3889 2
    endloop
  endfacet
  facet normal 0.881935 -0.471372 0
    outer loop
      vertex 69.1713 41.3889 0
      vertex 68.9403 40.9567 2
      vertex 68.9403 40.9567 0
    endloop
  endfacet
  facet normal 0.773066 -0.634326 0
    outer loop
      vertex 69.1713 41.3889 2
      vertex 69.4822 41.7678 0
      vertex 69.4822 41.7678 2
    endloop
  endfacet
  facet normal 0.773066 -0.634326 0
    outer loop
      vertex 69.4822 41.7678 0
      vertex 69.1713 41.3889 2
      vertex 69.1713 41.3889 0
    endloop
  endfacet
  facet normal 0.634326 -0.773066 0
    outer loop
      vertex 69.4822 41.7678 0
      vertex 69.8611 42.0787 2
      vertex 69.4822 41.7678 2
    endloop
  endfacet
  facet normal 0.634326 -0.773066 0
    outer loop
      vertex 69.8611 42.0787 2
      vertex 69.4822 41.7678 0
      vertex 69.8611 42.0787 0
    endloop
  endfacet
  facet normal 0.471372 -0.881935 0
    outer loop
      vertex 69.8611 42.0787 0
      vertex 70.2933 42.3097 2
      vertex 69.8611 42.0787 2
    endloop
  endfacet
  facet normal 0.471372 -0.881935 0
    outer loop
      vertex 70.2933 42.3097 2
      vertex 69.8611 42.0787 0
      vertex 70.2933 42.3097 0
    endloop
  endfacet
  facet normal 0.290341 -0.956923 0
    outer loop
      vertex 70.2933 42.3097 0
      vertex 70.7623 42.452 2
      vertex 70.2933 42.3097 2
    endloop
  endfacet
  facet normal 0.290341 -0.956923 0
    outer loop
      vertex 70.7623 42.452 2
      vertex 70.2933 42.3097 0
      vertex 70.7623 42.452 0
    endloop
  endfacet
  facet normal 0.0979479 -0.995192 0
    outer loop
      vertex 70.7623 42.452 0
      vertex 71.25 42.5 2
      vertex 70.7623 42.452 2
    endloop
  endfacet
  facet normal 0.0979479 -0.995192 0
    outer loop
      vertex 71.25 42.5 2
      vertex 70.7623 42.452 0
      vertex 71.25 42.5 0
    endloop
  endfacet
  facet normal -0.0979479 -0.995192 0
    outer loop
      vertex 71.25 42.5 0
      vertex 71.7377 42.452 2
      vertex 71.25 42.5 2
    endloop
  endfacet
  facet normal -0.0979479 -0.995192 -0
    outer loop
      vertex 71.7377 42.452 2
      vertex 71.25 42.5 0
      vertex 71.7377 42.452 0
    endloop
  endfacet
  facet normal -0.290341 -0.956923 0
    outer loop
      vertex 71.7377 42.452 0
      vertex 72.2067 42.3097 2
      vertex 71.7377 42.452 2
    endloop
  endfacet
  facet normal -0.290341 -0.956923 -0
    outer loop
      vertex 72.2067 42.3097 2
      vertex 71.7377 42.452 0
      vertex 72.2067 42.3097 0
    endloop
  endfacet
  facet normal -0.471372 -0.881935 0
    outer loop
      vertex 72.2067 42.3097 0
      vertex 72.6389 42.0787 2
      vertex 72.2067 42.3097 2
    endloop
  endfacet
  facet normal -0.471372 -0.881935 -0
    outer loop
      vertex 72.6389 42.0787 2
      vertex 72.2067 42.3097 0
      vertex 72.6389 42.0787 0
    endloop
  endfacet
  facet normal -0.634326 -0.773066 0
    outer loop
      vertex 72.6389 42.0787 0
      vertex 73.0178 41.7678 2
      vertex 72.6389 42.0787 2
    endloop
  endfacet
  facet normal -0.634326 -0.773066 -0
    outer loop
      vertex 73.0178 41.7678 2
      vertex 72.6389 42.0787 0
      vertex 73.0178 41.7678 0
    endloop
  endfacet
  facet normal -0.773066 -0.634326 0
    outer loop
      vertex 73.3287 41.3889 0
      vertex 73.0178 41.7678 2
      vertex 73.0178 41.7678 0
    endloop
  endfacet
  facet normal -0.773066 -0.634326 0
    outer loop
      vertex 73.0178 41.7678 2
      vertex 73.3287 41.3889 0
      vertex 73.3287 41.3889 2
    endloop
  endfacet
  facet normal -0.881935 -0.471372 0
    outer loop
      vertex 73.5597 40.9567 0
      vertex 73.3287 41.3889 2
      vertex 73.3287 41.3889 0
    endloop
  endfacet
  facet normal -0.881935 -0.471372 0
    outer loop
      vertex 73.3287 41.3889 2
      vertex 73.5597 40.9567 0
      vertex 73.5597 40.9567 2
    endloop
  endfacet
  facet normal -0.956923 -0.290341 0
    outer loop
      vertex 73.702 40.4877 0
      vertex 73.5597 40.9567 2
      vertex 73.5597 40.9567 0
    endloop
  endfacet
  facet normal -0.956923 -0.290341 0
    outer loop
      vertex 73.5597 40.9567 2
      vertex 73.702 40.4877 0
      vertex 73.702 40.4877 2
    endloop
  endfacet
  facet normal -0.995192 -0.0979479 0
    outer loop
      vertex 73.75 40 0
      vertex 73.702 40.4877 2
      vertex 73.702 40.4877 0
    endloop
  endfacet
  facet normal -0.995192 -0.0979479 0
    outer loop
      vertex 73.702 40.4877 2
      vertex 73.75 40 0
      vertex 73.75 40 2
    endloop
  endfacet
  facet normal -0.995192 0.0979479 0
    outer loop
      vertex 73.702 39.5123 0
      vertex 73.75 40 2
      vertex 73.75 40 0
    endloop
  endfacet
  facet normal -0.995192 0.0979479 0
    outer loop
      vertex 73.75 40 2
      vertex 73.702 39.5123 0
      vertex 73.702 39.5123 2
    endloop
  endfacet
  facet normal -0.956923 0.290341 0
    outer loop
      vertex 73.5597 39.0433 0
      vertex 73.702 39.5123 2
      vertex 73.702 39.5123 0
    endloop
  endfacet
  facet normal -0.956923 0.290341 0
    outer loop
      vertex 73.702 39.5123 2
      vertex 73.5597 39.0433 0
      vertex 73.5597 39.0433 2
    endloop
  endfacet
  facet normal -0.881935 0.471372 0
    outer loop
      vertex 73.3287 38.6111 0
      vertex 73.5597 39.0433 2
      vertex 73.5597 39.0433 0
    endloop
  endfacet
  facet normal -0.881935 0.471372 0
    outer loop
      vertex 73.5597 39.0433 2
      vertex 73.3287 38.6111 0
      vertex 73.3287 38.6111 2
    endloop
  endfacet
  facet normal -0.773066 0.634326 0
    outer loop
      vertex 73.0178 38.2322 0
      vertex 73.3287 38.6111 2
      vertex 73.3287 38.6111 0
    endloop
  endfacet
  facet normal -0.773066 0.634326 0
    outer loop
      vertex 73.3287 38.6111 2
      vertex 73.0178 38.2322 0
      vertex 73.0178 38.2322 2
    endloop
  endfacet
  facet normal -0.634326 0.773066 0
    outer loop
      vertex 73.0178 38.2322 0
      vertex 72.6389 37.9213 2
      vertex 73.0178 38.2322 2
    endloop
  endfacet
  facet normal -0.634326 0.773066 0
    outer loop
      vertex 72.6389 37.9213 2
      vertex 73.0178 38.2322 0
      vertex 72.6389 37.9213 0
    endloop
  endfacet
  facet normal -0.471372 0.881935 0
    outer loop
      vertex 72.6389 37.9213 0
      vertex 72.2067 37.6903 2
      vertex 72.6389 37.9213 2
    endloop
  endfacet
  facet normal -0.471372 0.881935 0
    outer loop
      vertex 72.2067 37.6903 2
      vertex 72.6389 37.9213 0
      vertex 72.2067 37.6903 0
    endloop
  endfacet
  facet normal -0.290341 0.956923 0
    outer loop
      vertex 72.2067 37.6903 0
      vertex 71.7377 37.548 2
      vertex 72.2067 37.6903 2
    endloop
  endfacet
  facet normal -0.290341 0.956923 0
    outer loop
      vertex 71.7377 37.548 2
      vertex 72.2067 37.6903 0
      vertex 71.7377 37.548 0
    endloop
  endfacet
  facet normal -0.0979479 0.995192 0
    outer loop
      vertex 71.7377 37.548 0
      vertex 71.25 37.5 2
      vertex 71.7377 37.548 2
    endloop
  endfacet
  facet normal -0.0979479 0.995192 0
    outer loop
      vertex 71.25 37.5 2
      vertex 71.7377 37.548 0
      vertex 71.25 37.5 0
    endloop
  endfacet
  facet normal 0.0979479 0.995192 -0
    outer loop
      vertex 71.25 37.5 0
      vertex 70.7623 37.548 2
      vertex 71.25 37.5 2
    endloop
  endfacet
  facet normal 0.0979479 0.995192 0
    outer loop
      vertex 70.7623 37.548 2
      vertex 71.25 37.5 0
      vertex 70.7623 37.548 0
    endloop
  endfacet
  facet normal 0 0 1
    outer loop
      vertex 118 70 40
      vertex 120 70 40
      vertex 119.808 71.9509 40
    endloop
  endfacet
  facet normal 0 0 1
    outer loop
      vertex 120 70 40
      vertex 118 70 40
      vertex 120 10 40
    endloop
  endfacet
  facet normal 0 0 1
    outer loop
      vertex 117.846 71.5607 40
      vertex 119.808 71.9509 40
      vertex 119.239 73.8268 40
    endloop
  endfacet
  facet normal 0 0 1
    outer loop
      vertex 118 10 40
      vertex 120 10 40
      vertex 118 70 40
    endloop
  endfacet
  facet normal 0 0 1
    outer loop
      vertex 117.391 73.0615 40
      vertex 119.239 73.8268 40
      vertex 118.315 75.5557 40
    endloop
  endfacet
  facet normal 0 0 1
    outer loop
      vertex 120 10 40
      vertex 118 10 40
      vertex 119.808 8.04909 40
    endloop
  endfacet
  facet normal -0 0 1
    outer loop
      vertex 117.846 8.43929 40
      vertex 119.808 8.04909 40
      vertex 118 10 40
    endloop
  endfacet
  facet normal 0 0 1
    outer loop
      vertex 119.808 71.9509 40
      vertex 117.846 71.5607 40
      vertex 118 70 40
    endloop
  endfacet
  facet normal 0 0 1
    outer loop
      vertex 119.239 73.8268 40
      vertex 117.391 73.0615 40
      vertex 117.846 71.5607 40
    endloop
  endfacet
  facet normal 0 0 1
    outer loop
      vertex 116.652 74.4446 40
      vertex 118.315 75.5557 40
      vertex 117.071 77.0711 40
    endloop
  endfacet
  facet normal 0 0 1
    outer loop
      vertex 118.315 75.5557 40
      vertex 116.652 74.4446 40
      vertex 117.391 73.0615 40
    endloop
  endfacet
  facet normal 0 0 1
    outer loop
      vertex 117.071 77.0711 40
      vertex 115.657 75.6569 40
      vertex 116.652 74.4446 40
    endloop
  endfacet
  facet normal 0 0 1
    outer loop
      vertex 115.556 78.3147 40
      vertex 115.657 75.6569 40
      vertex 117.071 77.0711 40
    endloop
  endfacet
  facet normal 0 0 1
    outer loop
      vertex 115.556 78.3147 40
      vertex 114.445 76.6518 40
      vertex 115.657 75.6569 40
    endloop
  endfacet
  facet normal 0 0 1
    outer loop
      vertex 113.827 79.2388 40
      vertex 114.445 76.6518 40
      vertex 115.556 78.3147 40
    endloop
  endfacet
  facet normal 0 0 1
    outer loop
      vertex 113.827 79.2388 40
      vertex 113.061 77.391 40
      vertex 114.445 76.6518 40
    endloop
  endfacet
  facet normal 0 0 1
    outer loop
      vertex 111.951 79.8079 40
      vertex 113.061 77.391 40
      vertex 113.827 79.2388 40
    endloop
  endfacet
  facet normal 0 0 1
    outer loop
      vertex 111.951 79.8079 40
      vertex 111.561 77.8463 40
      vertex 113.061 77.391 40
    endloop
  endfacet
  facet normal 0 0 1
    outer loop
      vertex 110 80 40
      vertex 111.561 77.8463 40
      vertex 111.951 79.8079 40
    endloop
  endfacet
  facet normal 0 0 1
    outer loop
      vertex 110 80 40
      vertex 110 78 40
      vertex 111.561 77.8463 40
    endloop
  endfacet
  facet normal -0 0 1
    outer loop
      vertex 10 80 40
      vertex 110 78 40
      vertex 110 80 40
    endloop
  endfacet
  facet normal 0 0 1
    outer loop
      vertex 10 80 40
      vertex 10 78 40
      vertex 110 78 40
    endloop
  endfacet
  facet normal 0 0 1
    outer loop
      vertex 10 80 40
      vertex 8.61079 77.8785 40
      vertex 10 78 40
    endloop
  endfacet
  facet normal -0 0 1
    outer loop
      vertex 8.26349 79.8481 40
      vertex 8.61079 77.8785 40
      vertex 10 80 40
    endloop
  endfacet
  facet normal 0 0 1
    outer loop
      vertex 8.26349 79.8481 40
      vertex 7.26379 77.5175 40
      vertex 8.61079 77.8785 40
    endloop
  endfacet
  facet normal -0 0 1
    outer loop
      vertex 6.57979 79.3969 40
      vertex 7.26379 77.5175 40
      vertex 8.26349 79.8481 40
    endloop
  endfacet
  facet normal 0 0 1
    outer loop
      vertex 6.57979 79.3969 40
      vertex 6 76.9282 40
      vertex 7.26379 77.5175 40
    endloop
  endfacet
  facet normal -0 0 1
    outer loop
      vertex 5 78.6603 40
      vertex 6 76.9282 40
      vertex 6.57979 79.3969 40
    endloop
  endfacet
  facet normal 0 0 1
    outer loop
      vertex 5 78.6603 40
      vertex 4.8577 76.1284 40
      vertex 6 76.9282 40
    endloop
  endfacet
  facet normal -0 0 1
    outer loop
      vertex 3.5721 77.6604 40
      vertex 4.8577 76.1284 40
      vertex 5 78.6603 40
    endloop
  endfacet
  facet normal 0 0 1
    outer loop
      vertex 4.8577 76.1284 40
      vertex 3.5721 77.6604 40
      vertex 3.8716 75.1423 40
    endloop
  endfacet
  facet normal -0 0 1
    outer loop
      vertex 2.3396 76.4279 40
      vertex 3.8716 75.1423 40
      vertex 3.5721 77.6604 40
    endloop
  endfacet
  facet normal 0 0 1
    outer loop
      vertex 3.8716 75.1423 40
      vertex 2.3396 76.4279 40
      vertex 3.07179 74 40
    endloop
  endfacet
  facet normal -0 0 1
    outer loop
      vertex 1.33969 75 40
      vertex 3.07179 74 40
      vertex 2.3396 76.4279 40
    endloop
  endfacet
  facet normal 0 0 1
    outer loop
      vertex 3.07179 74 40
      vertex 1.33969 75 40
      vertex 2.4825 72.7362 40
    endloop
  endfacet
  facet normal -0 0 1
    outer loop
      vertex 0.603088 73.4202 40
      vertex 2.4825 72.7362 40
      vertex 1.33969 75 40
    endloop
  endfacet
  facet normal 0 0 1
    outer loop
      vertex 0 10 40
      vertex 2 10 40
      vertex 2 70 40
    endloop
  endfacet
  facet normal 0 0 1
    outer loop
      vertex 2.4825 72.7362 40
      vertex 0.603088 73.4202 40
      vertex 2.12149 71.3892 40
    endloop
  endfacet
  facet normal -0 0 1
    outer loop
      vertex 0.151886 71.7365 40
      vertex 2.12149 71.3892 40
      vertex 0.603088 73.4202 40
    endloop
  endfacet
  facet normal 0 0 1
    outer loop
      vertex 0 10 40
      vertex 2 70 40
      vertex 0 70 40
    endloop
  endfacet
  facet normal 0 0 1
    outer loop
      vertex 2.12149 71.3892 40
      vertex 0.151886 71.7365 40
      vertex 2 70 40
    endloop
  endfacet
  facet normal 0 -0 1
    outer loop
      vertex 0.192093 8.04909 40
      vertex 2 10 40
      vertex 0 10 40
    endloop
  endfacet
  facet normal 0 0 1
    outer loop
      vertex 2 70 40
      vertex 0.151886 71.7365 40
      vertex 0 70 40
    endloop
  endfacet
  facet normal 0 0 1
    outer loop
      vertex 2 10 40
      vertex 0.7612 6.17319 40
      vertex 1.68529 4.44429 40
    endloop
  endfacet
  facet normal 0 0 1
    outer loop
      vertex 2 10 40
      vertex 0.192093 8.04909 40
      vertex 0.7612 6.17319 40
    endloop
  endfacet
  facet normal 0 0 1
    outer loop
      vertex 119.808 8.04909 40
      vertex 117.846 8.43929 40
      vertex 119.239 6.17319 40
    endloop
  endfacet
  facet normal -0 0 1
    outer loop
      vertex 117.391 6.93849 40
      vertex 119.239 6.17319 40
      vertex 117.846 8.43929 40
    endloop
  endfacet
  facet normal 0 0 1
    outer loop
      vertex 119.239 6.17319 40
      vertex 117.391 6.93849 40
      vertex 118.315 4.44429 40
    endloop
  endfacet
  facet normal -0 0 1
    outer loop
      vertex 116.652 5.55539 40
      vertex 118.315 4.44429 40
      vertex 117.391 6.93849 40
    endloop
  endfacet
  facet normal 0 0 1
    outer loop
      vertex 118.315 4.44429 40
      vertex 116.652 5.55539 40
      vertex 117.071 2.92889 40
    endloop
  endfacet
  facet normal -0 0 1
    outer loop
      vertex 115.657 4.34309 40
      vertex 117.071 2.92889 40
      vertex 116.652 5.55539 40
    endloop
  endfacet
  facet normal 0 0 1
    outer loop
      vertex 115.657 4.34309 40
      vertex 115.556 1.68529 40
      vertex 117.071 2.92889 40
    endloop
  endfacet
  facet normal -0 0 1
    outer loop
      vertex 114.445 3.34819 40
      vertex 115.556 1.68529 40
      vertex 115.657 4.34309 40
    endloop
  endfacet
  facet normal 0 0 1
    outer loop
      vertex 114.445 3.34819 40
      vertex 113.827 0.7612 40
      vertex 115.556 1.68529 40
    endloop
  endfacet
  facet normal -0 0 1
    outer loop
      vertex 113.061 2.60899 40
      vertex 113.827 0.7612 40
      vertex 114.445 3.34819 40
    endloop
  endfacet
  facet normal 0 0 1
    outer loop
      vertex 113.061 2.60899 40
      vertex 111.951 0.192093 40
      vertex 113.827 0.7612 40
    endloop
  endfacet
  facet normal -0 0 1
    outer loop
      vertex 111.561 2.15369 40
      vertex 111.951 0.192093 40
      vertex 113.061 2.60899 40
    endloop
  endfacet
  facet normal -0 0 1
    outer loop
      vertex 110 2 40
      vertex 111.951 0.192093 40
      vertex 111.561 2.15369 40
    endloop
  endfacet
  facet normal 0 0 1
    outer loop
      vertex 110 2 40
      vertex 110 0 40
      vertex 111.951 0.192093 40
    endloop
  endfacet
  facet normal -0 0 1
    outer loop
      vertex 10 2 40
      vertex 110 0 40
      vertex 110 2 40
    endloop
  endfacet
  facet normal 0 0 1
    outer loop
      vertex 10 2 40
      vertex 10 0 40
      vertex 110 0 40
    endloop
  endfacet
  facet normal 0 0 1
    outer loop
      vertex 8.43929 2.15369 40
      vertex 10 0 40
      vertex 10 2 40
    endloop
  endfacet
  facet normal 0 0 1
    outer loop
      vertex 8.43929 2.15369 40
      vertex 8.04909 0.192093 40
      vertex 10 0 40
    endloop
  endfacet
  facet normal 0 0 1
    outer loop
      vertex 6.93849 2.60899 40
      vertex 8.04909 0.192093 40
      vertex 8.43929 2.15369 40
    endloop
  endfacet
  facet normal 0 0 1
    outer loop
      vertex 6.93849 2.60899 40
      vertex 6.17319 0.7612 40
      vertex 8.04909 0.192093 40
    endloop
  endfacet
  facet normal 0 0 1
    outer loop
      vertex 5.55539 3.34819 40
      vertex 6.17319 0.7612 40
      vertex 6.93849 2.60899 40
    endloop
  endfacet
  facet normal 0 0 1
    outer loop
      vertex 5.55539 3.34819 40
      vertex 4.44429 1.68529 40
      vertex 6.17319 0.7612 40
    endloop
  endfacet
  facet normal 0 0 1
    outer loop
      vertex 4.34309 4.34309 40
      vertex 4.44429 1.68529 40
      vertex 5.55539 3.34819 40
    endloop
  endfacet
  facet normal 0 0 1
    outer loop
      vertex 2.92889 2.92889 40
      vertex 4.34309 4.34309 40
      vertex 3.34819 5.55539 40
    endloop
  endfacet
  facet normal 0 0 1
    outer loop
      vertex 4.34309 4.34309 40
      vertex 2.92889 2.92889 40
      vertex 4.44429 1.68529 40
    endloop
  endfacet
  facet normal 0 0 1
    outer loop
      vertex 1.68529 4.44429 40
      vertex 3.34819 5.55539 40
      vertex 2.60899 6.93849 40
    endloop
  endfacet
  facet normal 0 0 1
    outer loop
      vertex 1.68529 4.44429 40
      vertex 2.60899 6.93849 40
      vertex 2.15369 8.43929 40
    endloop
  endfacet
  facet normal 0 0 1
    outer loop
      vertex 3.34819 5.55539 40
      vertex 1.68529 4.44429 40
      vertex 2.92889 2.92889 40
    endloop
  endfacet
  facet normal 0 0 1
    outer loop
      vertex 1.68529 4.44429 40
      vertex 2.15369 8.43929 40
      vertex 2 10 40
    endloop
  endfacet
  facet normal 0.0980004 0.995186 -0
    outer loop
      vertex 10 2 2
      vertex 8.43929 2.15369 40
      vertex 10 2 40
    endloop
  endfacet
  facet normal 0.0980004 0.995186 0
    outer loop
      vertex 8.43929 2.15369 40
      vertex 10 2 2
      vertex 8.43929 2.15369 2
    endloop
  endfacet
  facet normal 0.290306 0.956934 -0
    outer loop
      vertex 8.43929 2.15369 2
      vertex 6.93849 2.60899 40
      vertex 8.43929 2.15369 40
    endloop
  endfacet
  facet normal 0.290306 0.956934 0
    outer loop
      vertex 6.93849 2.60899 40
      vertex 8.43929 2.15369 2
      vertex 6.93849 2.60899 2
    endloop
  endfacet
  facet normal 0.471356 0.881943 -0
    outer loop
      vertex 6.93849 2.60899 2
      vertex 5.55539 3.34819 40
      vertex 6.93849 2.60899 40
    endloop
  endfacet
  facet normal 0.471356 0.881943 0
    outer loop
      vertex 5.55539 3.34819 40
      vertex 6.93849 2.60899 2
      vertex 5.55539 3.34819 2
    endloop
  endfacet
  facet normal 0.63439 0.773013 -0
    outer loop
      vertex 5.55539 3.34819 2
      vertex 4.34309 4.34309 40
      vertex 5.55539 3.34819 40
    endloop
  endfacet
  facet normal 0.63439 0.773013 0
    outer loop
      vertex 4.34309 4.34309 40
      vertex 5.55539 3.34819 2
      vertex 4.34309 4.34309 2
    endloop
  endfacet
  facet normal 0.773013 0.63439 0
    outer loop
      vertex 4.34309 4.34309 40
      vertex 3.34819 5.55539 2
      vertex 3.34819 5.55539 40
    endloop
  endfacet
  facet normal 0.773013 0.63439 0
    outer loop
      vertex 3.34819 5.55539 2
      vertex 4.34309 4.34309 40
      vertex 4.34309 4.34309 2
    endloop
  endfacet
  facet normal 0.881943 0.471356 0
    outer loop
      vertex 3.34819 5.55539 40
      vertex 2.60899 6.93849 2
      vertex 2.60899 6.93849 40
    endloop
  endfacet
  facet normal 0.881943 0.471356 0
    outer loop
      vertex 2.60899 6.93849 2
      vertex 3.34819 5.55539 40
      vertex 3.34819 5.55539 2
    endloop
  endfacet
  facet normal 0.956934 0.290306 0
    outer loop
      vertex 2.60899 6.93849 40
      vertex 2.15369 8.43929 2
      vertex 2.15369 8.43929 40
    endloop
  endfacet
  facet normal 0.956934 0.290306 0
    outer loop
      vertex 2.15369 8.43929 2
      vertex 2.60899 6.93849 40
      vertex 2.60899 6.93849 2
    endloop
  endfacet
  facet normal 0.995186 0.0980004 0
    outer loop
      vertex 2.15369 8.43929 40
      vertex 2 10 2
      vertex 2 10 40
    endloop
  endfacet
  facet normal 0.995186 0.0980004 0
    outer loop
      vertex 2 10 2
      vertex 2.15369 8.43929 40
      vertex 2.15369 8.43929 2
    endloop
  endfacet
  facet normal 1 -0 0
    outer loop
      vertex 2 10 40
      vertex 2 70 2
      vertex 2 70 40
    endloop
  endfacet
  facet normal 1 0 0
    outer loop
      vertex 2 70 2
      vertex 2 10 40
      vertex 2 10 2
    endloop
  endfacet
  facet normal 0.996198 -0.0871207 0
    outer loop
      vertex 2 70 40
      vertex 2.12149 71.3892 2
      vertex 2.12149 71.3892 40
    endloop
  endfacet
  facet normal 0.996198 -0.0871207 0
    outer loop
      vertex 2.12149 71.3892 2
      vertex 2 70 40
      vertex 2 70 2
    endloop
  endfacet
  facet normal 0.965911 -0.258874 0
    outer loop
      vertex 2.12149 71.3892 40
      vertex 2.4825 72.7362 2
      vertex 2.4825 72.7362 40
    endloop
  endfacet
  facet normal 0.965911 -0.258874 0
    outer loop
      vertex 2.4825 72.7362 2
      vertex 2.12149 71.3892 40
      vertex 2.12149 71.3892 2
    endloop
  endfacet
  facet normal 0.906316 -0.422601 0
    outer loop
      vertex 2.4825 72.7362 40
      vertex 3.07179 74 2
      vertex 3.07179 74 40
    endloop
  endfacet
  facet normal 0.906316 -0.422601 0
    outer loop
      vertex 3.07179 74 2
      vertex 2.4825 72.7362 40
      vertex 2.4825 72.7362 2
    endloop
  endfacet
  facet normal 0.819165 -0.573559 0
    outer loop
      vertex 3.07179 74 40
      vertex 3.8716 75.1423 2
      vertex 3.8716 75.1423 40
    endloop
  endfacet
  facet normal 0.819165 -0.573559 0
    outer loop
      vertex 3.8716 75.1423 2
      vertex 3.07179 74 40
      vertex 3.07179 74 2
    endloop
  endfacet
  facet normal 0.707107 -0.707107 0
    outer loop
      vertex 3.8716 75.1423 40
      vertex 4.8577 76.1284 2
      vertex 4.8577 76.1284 40
    endloop
  endfacet
  facet normal 0.707107 -0.707107 0
    outer loop
      vertex 4.8577 76.1284 2
      vertex 3.8716 75.1423 40
      vertex 3.8716 75.1423 2
    endloop
  endfacet
  facet normal 0.573554 -0.819168 0
    outer loop
      vertex 4.8577 76.1284 2
      vertex 6 76.9282 40
      vertex 4.8577 76.1284 40
    endloop
  endfacet
  facet normal 0.573554 -0.819168 0
    outer loop
      vertex 6 76.9282 40
      vertex 4.8577 76.1284 2
      vertex 6 76.9282 2
    endloop
  endfacet
  facet normal 0.422609 -0.906312 0
    outer loop
      vertex 6 76.9282 2
      vertex 7.26379 77.5175 40
      vertex 6 76.9282 40
    endloop
  endfacet
  facet normal 0.422609 -0.906312 0
    outer loop
      vertex 7.26379 77.5175 40
      vertex 6 76.9282 2
      vertex 7.26379 77.5175 2
    endloop
  endfacet
  facet normal 0.258868 -0.965913 0
    outer loop
      vertex 7.26379 77.5175 2
      vertex 8.61079 77.8785 40
      vertex 7.26379 77.5175 40
    endloop
  endfacet
  facet normal 0.258868 -0.965913 0
    outer loop
      vertex 8.61079 77.8785 40
      vertex 7.26379 77.5175 2
      vertex 8.61079 77.8785 2
    endloop
  endfacet
  facet normal 0.0871272 -0.996197 0
    outer loop
      vertex 8.61079 77.8785 2
      vertex 10 78 40
      vertex 8.61079 77.8785 40
    endloop
  endfacet
  facet normal 0.0871272 -0.996197 0
    outer loop
      vertex 10 78 40
      vertex 8.61079 77.8785 2
      vertex 10 78 2
    endloop
  endfacet
  facet normal 0 -1 0
    outer loop
      vertex 10 78 2
      vertex 110 78 40
      vertex 10 78 40
    endloop
  endfacet
  facet normal 0 -1 -0
    outer loop
      vertex 110 78 40
      vertex 10 78 2
      vertex 110 78 2
    endloop
  endfacet
  facet normal -0.0979887 -0.995188 0
    outer loop
      vertex 110 78 2
      vertex 111.561 77.8463 40
      vertex 110 78 40
    endloop
  endfacet
  facet normal -0.0979887 -0.995188 -0
    outer loop
      vertex 111.561 77.8463 40
      vertex 110 78 2
      vertex 111.561 77.8463 2
    endloop
  endfacet
  facet normal -0.290448 -0.956891 0
    outer loop
      vertex 111.561 77.8463 2
      vertex 113.061 77.391 40
      vertex 111.561 77.8463 40
    endloop
  endfacet
  facet normal -0.290448 -0.956891 -0
    outer loop
      vertex 113.061 77.391 40
      vertex 111.561 77.8463 2
      vertex 113.061 77.391 2
    endloop
  endfacet
  facet normal -0.471117 -0.882071 0
    outer loop
      vertex 113.061 77.391 2
      vertex 114.445 76.6518 40
      vertex 113.061 77.391 40
    endloop
  endfacet
  facet normal -0.471117 -0.882071 -0
    outer loop
      vertex 114.445 76.6518 40
      vertex 113.061 77.391 2
      vertex 114.445 76.6518 2
    endloop
  endfacet
  facet normal -0.634484 -0.772936 0
    outer loop
      vertex 114.445 76.6518 2
      vertex 115.657 75.6569 40
      vertex 114.445 76.6518 40
    endloop
  endfacet
  facet normal -0.634484 -0.772936 -0
    outer loop
      vertex 115.657 75.6569 40
      vertex 114.445 76.6518 2
      vertex 115.657 75.6569 2
    endloop
  endfacet
  facet normal -0.772982 -0.634428 0
    outer loop
      vertex 116.652 74.4446 2
      vertex 115.657 75.6569 40
      vertex 115.657 75.6569 2
    endloop
  endfacet
  facet normal -0.772982 -0.634428 0
    outer loop
      vertex 115.657 75.6569 40
      vertex 116.652 74.4446 2
      vertex 116.652 74.4446 40
    endloop
  endfacet
  facet normal -0.881996 -0.471257 0
    outer loop
      vertex 117.391 73.0615 2
      vertex 116.652 74.4446 40
      vertex 116.652 74.4446 2
    endloop
  endfacet
  facet normal -0.881996 -0.471257 0
    outer loop
      vertex 116.652 74.4446 40
      vertex 117.391 73.0615 2
      vertex 117.391 73.0615 40
    endloop
  endfacet
  facet normal -0.956987 -0.290131 0
    outer loop
      vertex 117.846 71.5607 2
      vertex 117.391 73.0615 40
      vertex 117.391 73.0615 2
    endloop
  endfacet
  facet normal -0.956987 -0.290131 0
    outer loop
      vertex 117.391 73.0615 40
      vertex 117.846 71.5607 2
      vertex 117.846 71.5607 40
    endloop
  endfacet
  facet normal -0.995167 -0.0981968 0
    outer loop
      vertex 118 70 2
      vertex 117.846 71.5607 40
      vertex 117.846 71.5607 2
    endloop
  endfacet
  facet normal -0.995167 -0.0981968 0
    outer loop
      vertex 117.846 71.5607 40
      vertex 118 70 2
      vertex 118 70 40
    endloop
  endfacet
  facet normal -1 0 0
    outer loop
      vertex 118 10 2
      vertex 118 70 40
      vertex 118 70 2
    endloop
  endfacet
  facet normal -1 -0 0
    outer loop
      vertex 118 70 40
      vertex 118 10 2
      vertex 118 10 40
    endloop
  endfacet
  facet normal -0.995167 0.0981962 0
    outer loop
      vertex 117.846 8.43929 2
      vertex 118 10 40
      vertex 118 10 2
    endloop
  endfacet
  facet normal -0.995167 0.0981962 0
    outer loop
      vertex 118 10 40
      vertex 117.846 8.43929 2
      vertex 117.846 8.43929 40
    endloop
  endfacet
  facet normal -0.956987 0.290131 0
    outer loop
      vertex 117.391 6.93849 2
      vertex 117.846 8.43929 40
      vertex 117.846 8.43929 2
    endloop
  endfacet
  facet normal -0.956987 0.290131 0
    outer loop
      vertex 117.846 8.43929 40
      vertex 117.391 6.93849 2
      vertex 117.391 6.93849 40
    endloop
  endfacet
  facet normal -0.881996 0.471257 0
    outer loop
      vertex 116.652 5.55539 2
      vertex 117.391 6.93849 40
      vertex 117.391 6.93849 2
    endloop
  endfacet
  facet normal -0.881996 0.471257 0
    outer loop
      vertex 117.391 6.93849 40
      vertex 116.652 5.55539 2
      vertex 116.652 5.55539 40
    endloop
  endfacet
  facet normal -0.772982 0.634428 0
    outer loop
      vertex 115.657 4.34309 2
      vertex 116.652 5.55539 40
      vertex 116.652 5.55539 2
    endloop
  endfacet
  facet normal -0.772982 0.634428 0
    outer loop
      vertex 116.652 5.55539 40
      vertex 115.657 4.34309 2
      vertex 115.657 4.34309 40
    endloop
  endfacet
  facet normal -0.634484 0.772936 0
    outer loop
      vertex 115.657 4.34309 2
      vertex 114.445 3.34819 40
      vertex 115.657 4.34309 40
    endloop
  endfacet
  facet normal -0.634484 0.772936 0
    outer loop
      vertex 114.445 3.34819 40
      vertex 115.657 4.34309 2
      vertex 114.445 3.34819 2
    endloop
  endfacet
  facet normal -0.471117 0.882071 0
    outer loop
      vertex 114.445 3.34819 2
      vertex 113.061 2.60899 40
      vertex 114.445 3.34819 40
    endloop
  endfacet
  facet normal -0.471117 0.882071 0
    outer loop
      vertex 113.061 2.60899 40
      vertex 114.445 3.34819 2
      vertex 113.061 2.60899 2
    endloop
  endfacet
  facet normal -0.290448 0.956891 0
    outer loop
      vertex 113.061 2.60899 2
      vertex 111.561 2.15369 40
      vertex 113.061 2.60899 40
    endloop
  endfacet
  facet normal -0.290448 0.956891 0
    outer loop
      vertex 111.561 2.15369 40
      vertex 113.061 2.60899 2
      vertex 111.561 2.15369 2
    endloop
  endfacet
  facet normal -0.0979824 0.995188 0
    outer loop
      vertex 111.561 2.15369 2
      vertex 110 2 40
      vertex 111.561 2.15369 40
    endloop
  endfacet
  facet normal -0.0979824 0.995188 0
    outer loop
      vertex 110 2 40
      vertex 111.561 2.15369 2
      vertex 110 2 2
    endloop
  endfacet
  facet normal 0 1 -0
    outer loop
      vertex 110 2 2
      vertex 10 2 40
      vertex 110 2 40
    endloop
  endfacet
  facet normal 0 1 0
    outer loop
      vertex 10 2 40
      vertex 110 2 2
      vertex 10 2 2
    endloop
  endfacet
endsolid OpenSCAD_Model
