<svg width="142" height="98" viewBox="-7 -5 142 98" xmlns="http://www.w3.org/2000/svg"><path d="M 10.0000 80.0000 L 110.0000 80.0000 A 10.0000 10.0000 0 0 0 120.0000 70.0000 L 120.0000 10.0000 A 10.0000 10.0000 0 0 0 110.0000 0.0000 L 10.0000 0.0000 A 10.0000 10.0000 0 0 0 0.0000 10.0000 L 0.0000 70.0000 A 10.0000 10.0000 0 0 0 10.0000 80.0000 Z" stroke="green" stroke-width="1" fill="none" /><path d="M 10.0000 78.0000 L 110.0000 78.0000 A 8.0000 8.0000 0 0 0 118.0000 70.0000 L 118.0000 10.0000 A 8.0000 8.0000 0 0 0 110.0000 2.0000 L 10.0000 2.0000 A 8.0000 8.0000 0 0 0 2.0000 10.0000 L 2.0000 70.0000 A 8.0000 8.0000 0 0 0 10.0000 78.0000 Z" stroke="green" stroke-width="1" fill="none" /></svg>