0
SECTION
2
ENTITIES
0
LINE
8
PARAMETRIX
10
139.3974
20
-3.8890
11
139.9455
21
-3.9043
0
ARC
8
PARAMETRIX
10
128.5161
20
38.9398
40
44.3424
50
284.9368
51
290.3658
0
ARC
8
PARAMETRIX
10
123.0021
20
53.7937
40
60.1868
50
290.3658
51
295.0252
0
ARC
8
PARAMETRIX
10
119.7786
20
60.6985
40
67.8070
50
295.0252
51
300.3335
0
ARC
8
PARAMETRIX
10
111.8014
20
74.3316
40
83.6024
50
300.3335
51
305.1137
0
LINE
8
PARAMETRIX
10
159.8896
20
5.9438
11
159.6350
21
10.8018
0
ARC
8
PARAMETRIX
10
118.9587
20
-62.2380
40
83.6024
50
60.8863
51
65.6665
0
ARC
8
PARAMETRIX
10
125.4672
20
-47.8457
40
67.8070
50
65.6665
51
70.9748
0
ARC
8
PARAMETRIX
10
127.9512
20
-40.6418
40
60.1868
50
70.9748
51
75.6342
0
ARC
8
PARAMETRIX
10
131.8824
20
-25.2928
40
44.3424
50
75.6342
51
81.0632
0
LINE
8
PARAMETRIX
10
138.7708
20
18.5112
11
138.2273
21
18.4387
0
ARC
8
PARAMETRIX
10
137.9628
20
20.4212
40
2.0000
50
189.0000
51
277.5981
0
LINE
8
PARAMETRIX
10
135.9874
20
20.1083
11
135.5456
21
22.8983
0
ARC
8
PARAMETRIX
10
137.5209
20
23.2112
40
2.0000
50
100.4019
51
189.0000
0
LINE
8
PARAMETRIX
10
137.1598
20
25.1783
11
137.6992
21
25.2773
0
ARC
8
PARAMETRIX
10
117.6117
20
64.8088
40
44.3424
50
296.9368
51
302.3658
0
ARC
8
PARAMETRIX
10
109.1299
20
78.1918
40
60.1868
50
302.3658
51
307.0252
0
ARC
8
PARAMETRIX
10
104.5412
20
84.2755
40
67.8070
50
307.0252
51
312.3335
0
ARC
8
PARAMETRIX
10
93.9039
20
95.9521
40
83.6024
50
312.3335
51
317.1137
0
LINE
8
PARAMETRIX
10
155.1598
20
39.0568
11
153.9007
21
43.7557
0
ARC
8
PARAMETRIX
10
129.2992
20
-36.1450
40
83.6024
50
72.8863
51
77.6665
0
ARC
8
PARAMETRIX
10
132.6731
20
-20.7141
40
67.8070
50
77.6665
51
82.9748
0
ARC
8
PARAMETRIX
10
133.6051
20
-13.1511
40
60.1868
50
82.9748
51
87.6342
0
ARC
8
PARAMETRIX
10
134.2592
20
2.6798
40
44.3424
50
87.6342
51
93.0632
0
LINE
8
PARAMETRIX
10
131.8896
20
46.9588
11
131.3730
21
46.7749
0
ARC
8
PARAMETRIX
10
130.7022
20
48.6590
40
2.0000
50
201.0000
51
289.5981
0
LINE
8
PARAMETRIX
10
128.8350
20
47.9423
11
127.8227
21
50.5794
0
ARC
8
PARAMETRIX
10
129.6899
20
51.2961
40
2.0000
50
112.4019
51
201.0000
0
LINE
8
PARAMETRIX
10
128.9277
20
53.1452
11
129.4347
21
53.3542
0
ARC
8
PARAMETRIX
10
101.5671
20
87.8455
40
44.3424
50
308.9368
51
314.3658
0
ARC
8
PARAMETRIX
10
90.4881
20
99.1725
40
60.1868
50
314.3658
51
319.0252
0
ARC
8
PARAMETRIX
10
84.7349
20
104.1692
40
67.8070
50
319.0252
51
324.3335
0
ARC
8
PARAMETRIX
10
71.9023
20
113.3790
40
83.6024
50
324.3335
51
329.1137
0
LINE
8
PARAMETRIX
10
143.6488
20
70.4628
11
141.4403
21
74.7973
0
ARC
8
PARAMETRIX
10
133.9887
20
-8.4723
40
83.6024
50
84.8863
51
89.6665
0
ARC
8
PARAMETRIX
10
134.0806
20
7.3228
40
67.8070
50
89.6665
51
94.9748
0
ARC
8
PARAMETRIX
10
133.4198
20
14.9143
40
60.1868
50
94.9748
51
99.6342
0
ARC
8
PARAMETRIX
10
130.7681
20
30.5353
40
44.3424
50
99.6342
51
105.0632
0
LINE
8
PARAMETRIX
10
119.2442
20
73.3540
11
118.7772
21
73.0667
0
ARC
8
PARAMETRIX
10
117.7293
20
74.7702
40
2.0000
50
213.0000
51
301.5981
0
LINE
8
PARAMETRIX
10
116.0519
20
73.6809
11
114.5134
21
76.0500
0
ARC
8
PARAMETRIX
10
116.1908
20
77.1392
40
2.0000
50
124.4019
51
213.0000
0
LINE
8
PARAMETRIX
10
115.0608
20
78.7894
11
115.5132
21
79.0993
0
ARC
8
PARAMETRIX
10
81.0835
20
107.0428
40
44.3424
50
320.9368
51
326.3658
0
ARC
8
PARAMETRIX
10
67.8916
20
115.8189
40
60.1868
50
326.3658
51
331.0252
0
ARC
8
PARAMETRIX
10
61.2252
20
119.5102
40
67.8070
50
331.0252
51
336.3335
0
ARC
8
PARAMETRIX
10
46.7582
20
125.8507
40
83.6024
50
336.3335
51
341.1137
0
LINE
8
PARAMETRIX
10
125.8597
20
98.7893
11
122.7983
21
102.5699
0
ARC
8
PARAMETRIX
10
132.8222
20
19.5706
40
83.6024
50
96.8863
51
101.6665
0
ARC
8
PARAMETRIX
10
129.6281
20
35.0397
40
67.8070
50
101.6665
51
106.9748
0
ARC
8
PARAMETRIX
10
127.4034
20
42.3279
40
60.1868
50
106.9748
51
111.6342
0
ARC
8
PARAMETRIX
10
121.5619
20
57.0562
40
44.3424
50
111.6342
51
117.0632
0
LINE
8
PARAMETRIX
10
101.3873
20
96.5433
11
100.9902
21
96.1652
0
ARC
8
PARAMETRIX
10
99.6110
20
97.6136
40
2.0000
50
225.0000
51
313.5981
0
LINE
8
PARAMETRIX
10
98.1968
20
96.1994
11
96.1994
21
98.1968
0
ARC
8
PARAMETRIX
10
97.6136
20
99.6110
40
2.0000
50
136.4019
51
225.0000
0
LINE
8
PARAMETRIX
10
96.1652
20
100.9902
11
96.5433
21
101.3873
0
ARC
8
PARAMETRIX
10
57.0562
20
121.5619
40
44.3424
50
332.9368
51
338.3658
0
ARC
8
PARAMETRIX
10
42.3279
20
127.4034
40
60.1868
50
338.3658
51
343.0252
0
ARC
8
PARAMETRIX
10
35.0397
20
129.6281
40
67.8070
50
343.0252
51
348.3335
0
ARC
8
PARAMETRIX
10
19.5706
20
132.8222
40
83.6024
50
348.3335
51
353.1137
0
LINE
8
PARAMETRIX
10
102.5699
20
122.7983
11
98.7893
21
125.8597
0
ARC
8
PARAMETRIX
10
125.8507
20
46.7582
40
83.6024
50
108.8863
51
113.6665
0
ARC
8
PARAMETRIX
10
119.5102
20
61.2252
40
67.8070
50
113.6665
51
118.9748
0
ARC
8
PARAMETRIX
10
115.8189
20
67.8916
40
60.1868
50
118.9748
51
123.6342
0
ARC
8
PARAMETRIX
10
107.0428
20
81.0835
40
44.3424
50
123.6342
51
129.0632
0
LINE
8
PARAMETRIX
10
79.0993
20
115.5132
11
78.7894
21
115.0608
0
ARC
8
PARAMETRIX
10
77.1392
20
116.1908
40
2.0000
50
237.0000
51
325.5981
0
LINE
8
PARAMETRIX
10
76.0500
20
114.5134
11
73.6809
21
116.0519
0
ARC
8
PARAMETRIX
10
74.7702
20
117.7293
40
2.0000
50
148.4019
51
237.0000
0
LINE
8
PARAMETRIX
10
73.0667
20
118.7772
11
73.3540
21
119.2442
0
ARC
8
PARAMETRIX
10
30.5353
20
130.7681
40
44.3424
50
344.9368
51
350.3658
0
ARC
8
PARAMETRIX
10
14.9143
20
133.4198
40
60.1868
50
350.3658
51
355.0252
0
ARC
8
PARAMETRIX
10
7.3228
20
134.0806
40
67.8070
50
355.0252
51
0.3335
0
ARC
8
PARAMETRIX
10
-8.4723
20
133.9887
40
83.6024
50
0.3335
51
5.1137
0
LINE
8
PARAMETRIX
10
74.7973
20
141.4403
11
70.4628
21
143.6488
0
ARC
8
PARAMETRIX
10
113.3790
20
71.9023
40
83.6024
50
120.8863
51
125.6665
0
ARC
8
PARAMETRIX
10
104.1692
20
84.7349
40
67.8070
50
125.6665
51
130.9748
0
ARC
8
PARAMETRIX
10
99.1725
20
90.4881
40
60.1868
50
130.9748
51
135.6342
0
ARC
8
PARAMETRIX
10
87.8455
20
101.5671
40
44.3424
50
135.6342
51
141.0632
0
LINE
8
PARAMETRIX
10
53.3542
20
129.4347
11
53.1452
21
128.9277
0
ARC
8
PARAMETRIX
10
51.2961
20
129.6899
40
2.0000
50
249.0000
51
337.5981
0
LINE
8
PARAMETRIX
10
50.5794
20
127.8227
11
47.9423
21
128.8350
0
ARC
8
PARAMETRIX
10
48.6590
20
130.7022
40
2.0000
50
160.4019
51
249.0000
0
LINE
8
PARAMETRIX
10
46.7749
20
131.3730
11
46.9588
21
131.8896
0
ARC
8
PARAMETRIX
10
2.6798
20
134.2592
40
44.3424
50
356.9368
51
2.3658
0
ARC
8
PARAMETRIX
10
-13.1511
20
133.6051
40
60.1868
50
2.3658
51
7.0252
0
ARC
8
PARAMETRIX
10
-20.7141
20
132.6731
40
67.8070
50
7.0252
51
12.3335
0
ARC
8
PARAMETRIX
10
-36.1450
20
129.2992
40
83.6024
50
12.3335
51
17.1137
0
LINE
8
PARAMETRIX
10
43.7557
20
153.9007
11
39.0568
21
155.1598
0
ARC
8
PARAMETRIX
10
95.9521
20
93.9039
40
83.6024
50
132.8863
51
137.6665
0
ARC
8
PARAMETRIX
10
84.2755
20
104.5412
40
67.8070
50
137.6665
51
142.9748
0
ARC
8
PARAMETRIX
10
78.1918
20
109.1299
40
60.1868
50
142.9748
51
147.6342
0
ARC
8
PARAMETRIX
10
64.8088
20
117.6117
40
44.3424
50
147.6342
51
153.0632
0
LINE
8
PARAMETRIX
10
25.2773
20
137.6992
11
25.1783
21
137.1598
0
ARC
8
PARAMETRIX
10
23.2112
20
137.5209
40
2.0000
50
261.0000
51
349.5981
0
LINE
8
PARAMETRIX
10
22.8983
20
135.5456
11
20.1083
21
135.9874
0
ARC
8
PARAMETRIX
10
20.4212
20
137.9628
40
2.0000
50
172.4019
51
261.0000
0
LINE
8
PARAMETRIX
10
18.4387
20
138.2273
11
18.5112
21
138.7708
0
ARC
8
PARAMETRIX
10
-25.2928
20
131.8824
40
44.3424
50
8.9368
51
14.3658
0
ARC
8
PARAMETRIX
10
-40.6418
20
127.9512
40
60.1868
50
14.3658
51
19.0252
0
ARC
8
PARAMETRIX
10
-47.8457
20
125.4672
40
67.8070
50
19.0252
51
24.3335
0
ARC
8
PARAMETRIX
10
-62.2380
20
118.9587
40
83.6024
50
24.3335
51
29.1137
0
LINE
8
PARAMETRIX
10
10.8018
20
159.6350
11
5.9438
21
159.8896
0
ARC
8
PARAMETRIX
10
74.3316
20
111.8014
40
83.6024
50
144.8863
51
149.6665
0
ARC
8
PARAMETRIX
10
60.6985
20
119.7786
40
67.8070
50
149.6665
51
154.9748
0
ARC
8
PARAMETRIX
10
53.7937
20
123.0021
40
60.1868
50
154.9748
51
159.6342
0
ARC
8
PARAMETRIX
10
38.9398
20
128.5161
40
44.3424
50
159.6342
51
165.0632
0
LINE
8
PARAMETRIX
10
-3.9043
20
139.9455
11
-3.8890
21
139.3974
0
ARC
8
PARAMETRIX
10
-5.8883
20
139.3416
40
2.0000
50
273.0000
51
1.5981
0
LINE
8
PARAMETRIX
10
-5.7836
20
137.3444
11
-8.6045
21
137.1965
0
ARC
8
PARAMETRIX
10
-8.7092
20
139.1938
40
2.0000
50
184.4019
51
273.0000
0
LINE
8
PARAMETRIX
10
-10.7033
20
139.0403
11
-10.7453
21
139.5870
0
ARC
8
PARAMETRIX
10
-52.1600
20
123.7418
40
44.3424
50
20.9368
51
26.3658
0
ARC
8
PARAMETRIX
10
-66.3563
20
116.7053
40
60.1868
50
26.3658
51
31.0252
0
ARC
8
PARAMETRIX
10
-72.8863
20
112.7777
40
67.8070
50
31.0252
51
36.3335
0
ARC
8
PARAMETRIX
10
-85.6108
20
103.4192
40
83.6024
50
36.3335
51
41.1137
0
LINE
8
PARAMETRIX
10
-22.6242
20
158.3924
11
-27.4290
21
157.6314
0
ARC
8
PARAMETRIX
10
49.4624
20
124.8127
40
83.6024
50
156.8863
51
161.6665
0
ARC
8
PARAMETRIX
10
34.4687
20
129.7811
40
67.8070
50
161.6665
51
166.9748
0
ARC
8
PARAMETRIX
10
27.0446
20
131.4985
40
60.1868
50
166.9748
51
171.6342
0
ARC
8
PARAMETRIX
10
11.3688
20
133.8038
40
44.3424
50
171.6342
51
177.0632
0
LINE
8
PARAMETRIX
10
-32.9153
20
136.0756
11
-32.7864
21
135.5427
0
ARC
8
PARAMETRIX
10
-34.7304
20
135.0724
40
2.0000
50
285.0000
51
13.5981
0
LINE
8
PARAMETRIX
10
-34.2127
20
133.1406
11
-36.9412
21
132.4095
0
ARC
8
PARAMETRIX
10
-37.4589
20
134.3413
40
2.0000
50
196.4019
51
285.0000
0
LINE
8
PARAMETRIX
10
-39.3775
20
133.7766
11
-39.5323
21
134.3026
0
ARC
8
PARAMETRIX
10
-76.7476
20
110.1931
40
44.3424
50
32.9368
51
38.3658
0
ARC
8
PARAMETRIX
10
-89.1706
20
100.3588
40
60.1868
50
38.3658
51
43.0252
0
ARC
8
PARAMETRIX
10
-94.7414
20
95.1594
40
67.8070
50
43.0252
51
48.3335
0
ARC
8
PARAMETRIX
10
-105.2421
20
83.3597
40
83.6024
50
48.3335
51
53.1137
0
LINE
8
PARAMETRIX
10
-55.0614
20
150.2273
11
-59.6030
21
148.4839
0
ARC
8
PARAMETRIX
10
22.4316
20
132.3691
40
83.6024
50
168.8863
51
173.6665
0
ARC
8
PARAMETRIX
10
6.7325
20
134.1115
40
67.8070
50
173.6665
51
178.9748
0
ARC
8
PARAMETRIX
10
-0.8864
20
134.2479
40
60.1868
50
178.9748
51
183.6342
0
ARC
8
PARAMETRIX
10
-16.6990
20
133.2436
40
44.3424
50
183.6342
51
189.0632
0
LINE
8
PARAMETRIX
10
-60.4878
20
126.2586
11
-60.2509
21
125.7641
0
ARC
8
PARAMETRIX
10
-62.0546
20
124.8999
40
2.0000
50
297.0000
51
25.5981
0
LINE
8
PARAMETRIX
10
-61.1466
20
123.1179
11
-63.6634
21
121.8355
0
ARC
8
PARAMETRIX
10
-64.5714
20
123.6175
40
2.0000
50
208.4019
51
297.0000
0
LINE
8
PARAMETRIX
10
-66.3307
20
122.6662
11
-66.5915
21
123.1486
0
ARC
8
PARAMETRIX
10
-97.9809
20
91.8284
40
44.3424
50
44.9368
51
50.3658
0
ARC
8
PARAMETRIX
10
-108.0878
20
79.6261
40
60.1868
50
50.3658
51
55.0252
0
ARC
8
PARAMETRIX
10
-112.4558
20
73.3821
40
67.8070
50
55.0252
51
60.3335
0
ARC
8
PARAMETRIX
10
-120.2738
20
59.6571
40
83.6024
50
60.3335
51
65.1137
0
LINE
8
PARAMETRIX
10
-85.0922
20
135.4965
11
-89.1721
21
132.8470
0
ARC
8
PARAMETRIX
10
-5.5797
20
134.1403
40
83.6024
50
180.8863
51
185.6665
0
ARC
8
PARAMETRIX
10
-21.2980
20
132.5806
40
67.8070
50
185.6665
51
190.9748
0
ARC
8
PARAMETRIX
10
-28.7788
20
131.1299
40
60.1868
50
190.9748
51
195.6342
0
ARC
8
PARAMETRIX
10
-44.0370
20
126.8600
40
44.3424
50
195.6342
51
201.0632
0
LINE
8
PARAMETRIX
10
-85.4166
20
110.9234
11
-85.0820
21
110.4890
0
ARC
8
PARAMETRIX
10
-86.6667
20
109.2687
40
2.0000
50
309.0000
51
37.5981
0
LINE
8
PARAMETRIX
10
-85.4080
20
107.7144
11
-87.6033
21
105.9367
0
ARC
8
PARAMETRIX
10
-88.8619
20
107.4910
40
2.0000
50
220.4019
51
309.0000
0
LINE
8
PARAMETRIX
10
-90.3850
20
106.1947
11
-90.7404
21
106.6123
0
ARC
8
PARAMETRIX
10
-114.9320
20
69.4503
40
44.3424
50
56.9368
51
62.3658
0
ARC
8
PARAMETRIX
10
-122.2810
20
55.4133
40
60.1868
50
62.3658
51
67.0252
0
ARC
8
PARAMETRIX
10
-125.2553
20
48.3976
40
67.8070
50
67.0252
51
72.3335
0
ARC
8
PARAMETRIX
10
-130.0489
20
33.3471
40
83.6024
50
72.3335
51
77.1137
0
LINE
8
PARAMETRIX
10
-111.4041
20
114.8439
11
-114.8439
21
111.4041
0
ARC
8
PARAMETRIX
10
-33.3471
20
130.0489
40
83.6024
50
192.8863
51
197.6665
0
ARC
8
PARAMETRIX
10
-48.3976
20
125.2553
40
67.8070
50
197.6665
51
202.9748
0
ARC
8
PARAMETRIX
10
-55.4133
20
122.2810
40
60.1868
50
202.9748
51
207.6342
0
ARC
8
PARAMETRIX
10
-69.4503
20
114.9320
40
44.3424
50
207.6342
51
213.0632
0
LINE
8
PARAMETRIX
10
-106.6123
20
90.7404
11
-106.1947
21
90.3850
0
ARC
8
PARAMETRIX
10
-107.4910
20
88.8619
40
2.0000
50
321.0000
51
49.5981
0
LINE
8
PARAMETRIX
10
-105.9367
20
87.6033
11
-107.7144
21
85.4080
0
ARC
8
PARAMETRIX
10
-109.2687
20
86.6667
40
2.0000
50
232.4019
51
321.0000
0
LINE
8
PARAMETRIX
10
-110.4890
20
85.0820
11
-110.9234
21
85.4166
0
ARC
8
PARAMETRIX
10
-126.8600
20
44.0370
40
44.3424
50
68.9368
51
74.3658
0
ARC
8
PARAMETRIX
10
-131.1299
20
28.7788
40
60.1868
50
74.3658
51
79.0252
0
ARC
8
PARAMETRIX
10
-132.5806
20
21.2980
40
67.8070
50
79.0252
51
84.3335
0
ARC
8
PARAMETRIX
10
-134.1403
20
5.5797
40
83.6024
50
84.3335
51
89.1137
0
LINE
8
PARAMETRIX
10
-132.8470
20
89.1721
11
-135.4965
21
85.0922
0
ARC
8
PARAMETRIX
10
-59.6571
20
120.2738
40
83.6024
50
204.8863
51
209.6665
0
ARC
8
PARAMETRIX
10
-73.3821
20
112.4558
40
67.8070
50
209.6665
51
214.9748
0
ARC
8
PARAMETRIX
10
-79.6261
20
108.0878
40
60.1868
50
214.9748
51
219.6342
0
ARC
8
PARAMETRIX
10
-91.8284
20
97.9809
40
44.3424
50
219.6342
51
225.0632
0
LINE
8
PARAMETRIX
10
-123.1486
20
66.5915
11
-122.6662
21
66.3307
0
ARC
8
PARAMETRIX
10
-123.6175
20
64.5714
40
2.0000
50
333.0000
51
61.5981
0
LINE
8
PARAMETRIX
10
-121.8355
20
63.6634
11
-123.1179
21
61.1466
0
ARC
8
PARAMETRIX
10
-124.8999
20
62.0546
40
2.0000
50
244.4019
51
333.0000
0
LINE
8
PARAMETRIX
10
-125.7641
20
60.2509
11
-126.2586
21
60.4878
0
ARC
8
PARAMETRIX
10
-133.2436
20
16.6990
40
44.3424
50
80.9368
51
86.3658
0
ARC
8
PARAMETRIX
10
-134.2479
20
0.8864
40
60.1868
50
86.3658
51
91.0252
0
ARC
8
PARAMETRIX
10
-134.1115
20
-6.7325
40
67.8070
50
91.0252
51
96.3335
0
ARC
8
PARAMETRIX
10
-132.3691
20
-22.4316
40
83.6024
50
96.3335
51
101.1137
0
LINE
8
PARAMETRIX
10
-148.4839
20
59.6030
11
-150.2273
21
55.0614
0
ARC
8
PARAMETRIX
10
-83.3597
20
105.2421
40
83.6024
50
216.8863
51
221.6665
0
ARC
8
PARAMETRIX
10
-95.1594
20
94.7414
40
67.8070
50
221.6665
51
226.9748
0
ARC
8
PARAMETRIX
10
-100.3588
20
89.1706
40
60.1868
50
226.9748
51
231.6342
0
ARC
8
PARAMETRIX
10
-110.1931
20
76.7476
40
44.3424
50
231.6342
51
237.0632
0
LINE
8
PARAMETRIX
10
-134.3026
20
39.5323
11
-133.7766
21
39.3775
0
ARC
8
PARAMETRIX
10
-134.3413
20
37.4589
40
2.0000
50
345.0000
51
73.5981
0
LINE
8
PARAMETRIX
10
-132.4095
20
36.9412
11
-133.1406
21
34.2127
0
ARC
8
PARAMETRIX
10
-135.0724
20
34.7304
40
2.0000
50
256.4019
51
345.0000
0
LINE
8
PARAMETRIX
10
-135.5427
20
32.7864
11
-136.0756
21
32.9153
0
ARC
8
PARAMETRIX
10
-133.8038
20
-11.3688
40
44.3424
50
92.9368
51
98.3658
0
ARC
8
PARAMETRIX
10
-131.4985
20
-27.0446
40
60.1868
50
98.3658
51
103.0252
0
ARC
8
PARAMETRIX
10
-129.7811
20
-34.4687
40
67.8070
50
103.0252
51
108.3335
0
ARC
8
PARAMETRIX
10
-124.8127
20
-49.4624
40
83.6024
50
108.3335
51
113.1137
0
LINE
8
PARAMETRIX
10
-157.6314
20
27.4290
11
-158.3924
21
22.6242
0
ARC
8
PARAMETRIX
10
-103.4192
20
85.6108
40
83.6024
50
228.8863
51
233.6665
0
ARC
8
PARAMETRIX
10
-112.7777
20
72.8863
40
67.8070
50
233.6665
51
238.9748
0
ARC
8
PARAMETRIX
10
-116.7053
20
66.3563
40
60.1868
50
238.9748
51
243.6342
0
ARC
8
PARAMETRIX
10
-123.7418
20
52.1600
40
44.3424
50
243.6342
51
249.0632
0
LINE
8
PARAMETRIX
10
-139.5870
20
10.7453
11
-139.0403
21
10.7033
0
ARC
8
PARAMETRIX
10
-139.1938
20
8.7092
40
2.0000
50
357.0000
51
85.5981
0
LINE
8
PARAMETRIX
10
-137.1965
20
8.6045
11
-137.3444
21
5.7836
0
ARC
8
PARAMETRIX
10
-139.3416
20
5.8883
40
2.0000
50
268.4019
51
357.0000
0
LINE
8
PARAMETRIX
10
-139.3974
20
3.8890
11
-139.9455
21
3.9043
0
ARC
8
PARAMETRIX
10
-128.5161
20
-38.9398
40
44.3424
50
104.9368
51
110.3658
0
ARC
8
PARAMETRIX
10
-123.0021
20
-53.7937
40
60.1868
50
110.3658
51
115.0252
0
ARC
8
PARAMETRIX
10
-119.7786
20
-60.6985
40
67.8070
50
115.0252
51
120.3335
0
ARC
8
PARAMETRIX
10
-111.8014
20
-74.3316
40
83.6024
50
120.3335
51
125.1137
0
LINE
8
PARAMETRIX
10
-159.8896
20
-5.9438
11
-159.6350
21
-10.8018
0
ARC
8
PARAMETRIX
10
-118.9587
20
62.2380
40
83.6024
50
240.8863
51
245.6665
0
ARC
8
PARAMETRIX
10
-125.4672
20
47.8457
40
67.8070
50
245.6665
51
250.9748
0
ARC
8
PARAMETRIX
10
-127.9512
20
40.6418
40
60.1868
50
250.9748
51
255.6342
0
ARC
8
PARAMETRIX
10
-131.8824
20
25.2928
40
44.3424
50
255.6342
51
261.0632
0
LINE
8
PARAMETRIX
10
-138.7708
20
-18.5112
11
-138.2273
21
-18.4387
0
ARC
8
PARAMETRIX
10
-137.9628
20
-20.4212
40
2.0000
50
9.0000
51
97.5981
0
LINE
8
PARAMETRIX
10
-135.9874
20
-20.1083
11
-135.5456
21
-22.8983
0
ARC
8
PARAMETRIX
10
-137.5209
20
-23.2112
40
2.0000
50
280.4019
51
9.0000
0
LINE
8
PARAMETRIX
10
-137.1598
20
-25.1783
11
-137.6992
21
-25.2773
0
ARC
8
PARAMETRIX
10
-117.6117
20
-64.8088
40
44.3424
50
116.9368
51
122.3658
0
ARC
8
PARAMETRIX
10
-109.1299
20
-78.1918
40
60.1868
50
122.3658
51
127.0252
0
ARC
8
PARAMETRIX
10
-104.5412
20
-84.2755
40
67.8070
50
127.0252
51
132.3335
0
ARC
8
PARAMETRIX
10
-93.9039
20
-95.9521
40
83.6024
50
132.3335
51
137.1137
0
LINE
8
PARAMETRIX
10
-155.1598
20
-39.0568
11
-153.9007
21
-43.7557
0
ARC
8
PARAMETRIX
10
-129.2992
20
36.1450
40
83.6024
50
252.8863
51
257.6665
0
ARC
8
PARAMETRIX
10
-132.6731
20
20.7141
40
67.8070
50
257.6665
51
262.9748
0
ARC
8
PARAMETRIX
10
-133.6051
20
13.1511
40
60.1868
50
262.9748
51
267.6342
0
ARC
8
PARAMETRIX
10
-134.2592
20
-2.6798
40
44.3424
50
267.6342
51
273.0632
0
LINE
8
PARAMETRIX
10
-131.8896
20
-46.9588
11
-131.3730
21
-46.7749
0
ARC
8
PARAMETRIX
10
-130.7022
20
-48.6590
40
2.0000
50
21.0000
51
109.5981
0
LINE
8
PARAMETRIX
10
-128.8350
20
-47.9423
11
-127.8227
21
-50.5794
0
ARC
8
PARAMETRIX
10
-129.6899
20
-51.2961
40
2.0000
50
292.4019
51
21.0000
0
LINE
8
PARAMETRIX
10
-128.9277
20
-53.1452
11
-129.4347
21
-53.3542
0
ARC
8
PARAMETRIX
10
-101.5671
20
-87.8455
40
44.3424
50
128.9368
51
134.3658
0
ARC
8
PARAMETRIX
10
-90.4881
20
-99.1725
40
60.1868
50
134.3658
51
139.0252
0
ARC
8
PARAMETRIX
10
-84.7349
20
-104.1692
40
67.8070
50
139.0252
51
144.3335
0
ARC
8
PARAMETRIX
10
-71.9023
20
-113.3790
40
83.6024
50
144.3335
51
149.1137
0
LINE
8
PARAMETRIX
10
-143.6488
20
-70.4628
11
-141.4403
21
-74.7973
0
ARC
8
PARAMETRIX
10
-133.9887
20
8.4723
40
83.6024
50
264.8863
51
269.6665
0
ARC
8
PARAMETRIX
10
-134.0806
20
-7.3228
40
67.8070
50
269.6665
51
274.9748
0
ARC
8
PARAMETRIX
10
-133.4198
20
-14.9143
40
60.1868
50
274.9748
51
279.6342
0
ARC
8
PARAMETRIX
10
-130.7681
20
-30.5353
40
44.3424
50
279.6342
51
285.0632
0
LINE
8
PARAMETRIX
10
-119.2442
20
-73.3540
11
-118.7772
21
-73.0667
0
ARC
8
PARAMETRIX
10
-117.7293
20
-74.7702
40
2.0000
50
33.0000
51
121.5981
0
LINE
8
PARAMETRIX
10
-116.0519
20
-73.6809
11
-114.5134
21
-76.0500
0
ARC
8
PARAMETRIX
10
-116.1908
20
-77.1392
40
2.0000
50
304.4019
51
33.0000
0
LINE
8
PARAMETRIX
10
-115.0608
20
-78.7894
11
-115.5132
21
-79.0993
0
ARC
8
PARAMETRIX
10
-81.0835
20
-107.0428
40
44.3424
50
140.9368
51
146.3658
0
ARC
8
PARAMETRIX
10
-67.8916
20
-115.8189
40
60.1868
50
146.3658
51
151.0252
0
ARC
8
PARAMETRIX
10
-61.2252
20
-119.5102
40
67.8070
50
151.0252
51
156.3335
0
ARC
8
PARAMETRIX
10
-46.7582
20
-125.8507
40
83.6024
50
156.3335
51
161.1137
0
LINE
8
PARAMETRIX
10
-125.8597
20
-98.7893
11
-122.7983
21
-102.5699
0
ARC
8
PARAMETRIX
10
-132.8222
20
-19.5706
40
83.6024
50
276.8863
51
281.6665
0
ARC
8
PARAMETRIX
10
-129.6281
20
-35.0397
40
67.8070
50
281.6665
51
286.9748
0
ARC
8
PARAMETRIX
10
-127.4034
20
-42.3279
40
60.1868
50
286.9748
51
291.6342
0
ARC
8
PARAMETRIX
10
-121.5619
20
-57.0562
40
44.3424
50
291.6342
51
297.0632
0
LINE
8
PARAMETRIX
10
-101.3873
20
-96.5433
11
-100.9902
21
-96.1652
0
ARC
8
PARAMETRIX
10
-99.6110
20
-97.6136
40
2.0000
50
45.0000
51
133.5981
0
LINE
8
PARAMETRIX
10
-98.1968
20
-96.1994
11
-96.1994
21
-98.1968
0
ARC
8
PARAMETRIX
10
-97.6136
20
-99.6110
40
2.0000
50
316.4019
51
45.0000
0
LINE
8
PARAMETRIX
10
-96.1652
20
-100.9902
11
-96.5433
21
-101.3873
0
ARC
8
PARAMETRIX
10
-57.0562
20
-121.5619
40
44.3424
50
152.9368
51
158.3658
0
ARC
8
PARAMETRIX
10
-42.3279
20
-127.4034
40
60.1868
50
158.3658
51
163.0252
0
ARC
8
PARAMETRIX
10
-35.0397
20
-129.6281
40
67.8070
50
163.0252
51
168.3335
0
ARC
8
PARAMETRIX
10
-19.5706
20
-132.8222
40
83.6024
50
168.3335
51
173.1137
0
LINE
8
PARAMETRIX
10
-102.5699
20
-122.7983
11
-98.7893
21
-125.8597
0
ARC
8
PARAMETRIX
10
-125.8507
20
-46.7582
40
83.6024
50
288.8863
51
293.6665
0
ARC
8
PARAMETRIX
10
-119.5102
20
-61.2252
40
67.8070
50
293.6665
51
298.9748
0
ARC
8
PARAMETRIX
10
-115.8189
20
-67.8916
40
60.1868
50
298.9748
51
303.6342
0
ARC
8
PARAMETRIX
10
-107.0428
20
-81.0835
40
44.3424
50
303.6342
51
309.0632
0
LINE
8
PARAMETRIX
10
-79.0993
20
-115.5132
11
-78.7894
21
-115.0608
0
ARC
8
PARAMETRIX
10
-77.1392
20
-116.1908
40
2.0000
50
57.0000
51
145.5981
0
LINE
8
PARAMETRIX
10
-76.0500
20
-114.5134
11
-73.6809
21
-116.0519
0
ARC
8
PARAMETRIX
10
-74.7702
20
-117.7293
40
2.0000
50
328.4019
51
57.0000
0
LINE
8
PARAMETRIX
10
-73.0667
20
-118.7772
11
-73.3540
21
-119.2442
0
ARC
8
PARAMETRIX
10
-30.5353
20
-130.7681
40
44.3424
50
164.9368
51
170.3658
0
ARC
8
PARAMETRIX
10
-14.9143
20
-133.4198
40
60.1868
50
170.3658
51
175.0252
0
ARC
8
PARAMETRIX
10
-7.3228
20
-134.0806
40
67.8070
50
175.0252
51
180.3335
0
ARC
8
PARAMETRIX
10
8.4723
20
-133.9887
40
83.6024
50
180.3335
51
185.1137
0
LINE
8
PARAMETRIX
10
-74.7973
20
-141.4403
11
-70.4628
21
-143.6488
0
ARC
8
PARAMETRIX
10
-113.3790
20
-71.9023
40
83.6024
50
300.8863
51
305.6665
0
ARC
8
PARAMETRIX
10
-104.1692
20
-84.7349
40
67.8070
50
305.6665
51
310.9748
0
ARC
8
PARAMETRIX
10
-99.1725
20
-90.4881
40
60.1868
50
310.9748
51
315.6342
0
ARC
8
PARAMETRIX
10
-87.8455
20
-101.5671
40
44.3424
50
315.6342
51
321.0632
0
LINE
8
PARAMETRIX
10
-53.3542
20
-129.4347
11
-53.1452
21
-128.9277
0
ARC
8
PARAMETRIX
10
-51.2961
20
-129.6899
40
2.0000
50
69.0000
51
157.5981
0
LINE
8
PARAMETRIX
10
-50.5794
20
-127.8227
11
-47.9423
21
-128.8350
0
ARC
8
PARAMETRIX
10
-48.6590
20
-130.7022
40
2.0000
50
340.4019
51
69.0000
0
LINE
8
PARAMETRIX
10
-46.7749
20
-131.3730
11
-46.9588
21
-131.8896
0
ARC
8
PARAMETRIX
10
-2.6798
20
-134.2592
40
44.3424
50
176.9368
51
182.3658
0
ARC
8
PARAMETRIX
10
13.1511
20
-133.6051
40
60.1868
50
182.3658
51
187.0252
0
ARC
8
PARAMETRIX
10
20.7141
20
-132.6731
40
67.8070
50
187.0252
51
192.3335
0
ARC
8
PARAMETRIX
10
36.1450
20
-129.2992
40
83.6024
50
192.3335
51
197.1137
0
LINE
8
PARAMETRIX
10
-43.7557
20
-153.9007
11
-39.0568
21
-155.1598
0
ARC
8
PARAMETRIX
10
-95.9521
20
-93.9039
40
83.6024
50
312.8863
51
317.6665
0
ARC
8
PARAMETRIX
10
-84.2755
20
-104.5412
40
67.8070
50
317.6665
51
322.9748
0
ARC
8
PARAMETRIX
10
-78.1918
20
-109.1299
40
60.1868
50
322.9748
51
327.6342
0
ARC
8
PARAMETRIX
10
-64.8088
20
-117.6117
40
44.3424
50
327.6342
51
333.0632
0
LINE
8
PARAMETRIX
10
-25.2773
20
-137.6992
11
-25.1783
21
-137.1598
0
ARC
8
PARAMETRIX
10
-23.2112
20
-137.5209
40
2.0000
50
81.0000
51
169.5981
0
LINE
8
PARAMETRIX
10
-22.8983
20
-135.5456
11
-20.1083
21
-135.9874
0
ARC
8
PARAMETRIX
10
-20.4212
20
-137.9628
40
2.0000
50
352.4019
51
81.0000
0
LINE
8
PARAMETRIX
10
-18.4387
20
-138.2273
11
-18.5112
21
-138.7708
0
ARC
8
PARAMETRIX
10
25.2928
20
-131.8824
40
44.3424
50
188.9368
51
194.3658
0
ARC
8
PARAMETRIX
10
40.6418
20
-127.9512
40
60.1868
50
194.3658
51
199.0252
0
ARC
8
PARAMETRIX
10
47.8457
20
-125.4672
40
67.8070
50
199.0252
51
204.3335
0
ARC
8
PARAMETRIX
10
62.2380
20
-118.9587
40
83.6024
50
204.3335
51
209.1137
0
LINE
8
PARAMETRIX
10
-10.8018
20
-159.6350
11
-5.9438
21
-159.8896
0
ARC
8
PARAMETRIX
10
-74.3316
20
-111.8014
40
83.6024
50
324.8863
51
329.6665
0
ARC
8
PARAMETRIX
10
-60.6985
20
-119.7786
40
67.8070
50
329.6665
51
334.9748
0
ARC
8
PARAMETRIX
10
-53.7937
20
-123.0021
40
60.1868
50
334.9748
51
339.6342
0
ARC
8
PARAMETRIX
10
-38.9398
20
-128.5161
40
44.3424
50
339.6342
51
345.0632
0
LINE
8
PARAMETRIX
10
3.9043
20
-139.9455
11
3.8890
21
-139.3974
0
ARC
8
PARAMETRIX
10
5.8883
20
-139.3416
40
2.0000
50
93.0000
51
181.5981
0
LINE
8
PARAMETRIX
10
5.7836
20
-137.3444
11
8.6045
21
-137.1965
0
ARC
8
PARAMETRIX
10
8.7092
20
-139.1938
40
2.0000
50
4.4019
51
93.0000
0
LINE
8
PARAMETRIX
10
10.7033
20
-139.0403
11
10.7453
21
-139.5870
0
ARC
8
PARAMETRIX
10
52.1600
20
-123.7418
40
44.3424
50
200.9368
51
206.3658
0
ARC
8
PARAMETRIX
10
66.3563
20
-116.7053
40
60.1868
50
206.3658
51
211.0252
0
ARC
8
PARAMETRIX
10
72.8863
20
-112.7777
40
67.8070
50
211.0252
51
216.3335
0
ARC
8
PARAMETRIX
10
85.6108
20
-103.4192
40
83.6024
50
216.3335
51
221.1137
0
LINE
8
PARAMETRIX
10
22.6242
20
-158.3924
11
27.4290
21
-157.6314
0
ARC
8
PARAMETRIX
10
-49.4624
20
-124.8127
40
83.6024
50
336.8863
51
341.6665
0
ARC
8
PARAMETRIX
10
-34.4687
20
-129.7811
40
67.8070
50
341.6665
51
346.9748
0
ARC
8
PARAMETRIX
10
-27.0446
20
-131.4985
40
60.1868
50
346.9748
51
351.6342
0
ARC
8
PARAMETRIX
10
-11.3688
20
-133.8038
40
44.3424
50
351.6342
51
357.0632
0
LINE
8
PARAMETRIX
10
32.9153
20
-136.0756
11
32.7864
21
-135.5427
0
ARC
8
PARAMETRIX
10
34.7304
20
-135.0724
40
2.0000
50
105.0000
51
193.5981
0
LINE
8
PARAMETRIX
10
34.2127
20
-133.1406
11
36.9412
21
-132.4095
0
ARC
8
PARAMETRIX
10
37.4589
20
-134.3413
40
2.0000
50
16.4019
51
105.0000
0
LINE
8
PARAMETRIX
10
39.3775
20
-133.7766
11
39.5323
21
-134.3026
0
ARC
8
PARAMETRIX
10
76.7476
20
-110.1931
40
44.3424
50
212.9368
51
218.3658
0
ARC
8
PARAMETRIX
10
89.1706
20
-100.3588
40
60.1868
50
218.3658
51
223.0252
0
ARC
8
PARAMETRIX
10
94.7414
20
-95.1594
40
67.8070
50
223.0252
51
228.3335
0
ARC
8
PARAMETRIX
10
105.2421
20
-83.3597
40
83.6024
50
228.3335
51
233.1137
0
LINE
8
PARAMETRIX
10
55.0614
20
-150.2273
11
59.6030
21
-148.4839
0
ARC
8
PARAMETRIX
10
-22.4316
20
-132.3691
40
83.6024
50
348.8863
51
353.6665
0
ARC
8
PARAMETRIX
10
-6.7325
20
-134.1115
40
67.8070
50
353.6665
51
358.9748
0
ARC
8
PARAMETRIX
10
0.8864
20
-134.2479
40
60.1868
50
358.9748
51
3.6342
0
ARC
8
PARAMETRIX
10
16.6990
20
-133.2436
40
44.3424
50
3.6342
51
9.0632
0
LINE
8
PARAMETRIX
10
60.4878
20
-126.2586
11
60.2509
21
-125.7641
0
ARC
8
PARAMETRIX
10
62.0546
20
-124.8999
40
2.0000
50
117.0000
51
205.5981
0
LINE
8
PARAMETRIX
10
61.1466
20
-123.1179
11
63.6634
21
-121.8355
0
ARC
8
PARAMETRIX
10
64.5714
20
-123.6175
40
2.0000
50
28.4019
51
117.0000
0
LINE
8
PARAMETRIX
10
66.3307
20
-122.6662
11
66.5915
21
-123.1486
0
ARC
8
PARAMETRIX
10
97.9809
20
-91.8284
40
44.3424
50
224.9368
51
230.3658
0
ARC
8
PARAMETRIX
10
108.0878
20
-79.6261
40
60.1868
50
230.3658
51
235.0252
0
ARC
8
PARAMETRIX
10
112.4558
20
-73.3821
40
67.8070
50
235.0252
51
240.3335
0
ARC
8
PARAMETRIX
10
120.2738
20
-59.6571
40
83.6024
50
240.3335
51
245.1137
0
LINE
8
PARAMETRIX
10
85.0922
20
-135.4965
11
89.1721
21
-132.8470
0
ARC
8
PARAMETRIX
10
5.5797
20
-134.1403
40
83.6024
50
0.8863
51
5.6665
0
ARC
8
PARAMETRIX
10
21.2980
20
-132.5806
40
67.8070
50
5.6665
51
10.9748
0
ARC
8
PARAMETRIX
10
28.7788
20
-131.1299
40
60.1868
50
10.9748
51
15.6342
0
ARC
8
PARAMETRIX
10
44.0370
20
-126.8600
40
44.3424
50
15.6342
51
21.0632
0
LINE
8
PARAMETRIX
10
85.4166
20
-110.9234
11
85.0820
21
-110.4890
0
ARC
8
PARAMETRIX
10
86.6667
20
-109.2687
40
2.0000
50
129.0000
51
217.5981
0
LINE
8
PARAMETRIX
10
85.4080
20
-107.7144
11
87.6033
21
-105.9367
0
ARC
8
PARAMETRIX
10
88.8619
20
-107.4910
40
2.0000
50
40.4019
51
129.0000
0
LINE
8
PARAMETRIX
10
90.3850
20
-106.1947
11
90.7404
21
-106.6123
0
ARC
8
PARAMETRIX
10
114.9320
20
-69.4503
40
44.3424
50
236.9368
51
242.3658
0
ARC
8
PARAMETRIX
10
122.2810
20
-55.4133
40
60.1868
50
242.3658
51
247.0252
0
ARC
8
PARAMETRIX
10
125.2553
20
-48.3976
40
67.8070
50
247.0252
51
252.3335
0
ARC
8
PARAMETRIX
10
130.0489
20
-33.3471
40
83.6024
50
252.3335
51
257.1137
0
LINE
8
PARAMETRIX
10
111.4041
20
-114.8439
11
114.8439
21
-111.4041
0
ARC
8
PARAMETRIX
10
33.3471
20
-130.0489
40
83.6024
50
12.8863
51
17.6665
0
ARC
8
PARAMETRIX
10
48.3976
20
-125.2553
40
67.8070
50
17.6665
51
22.9748
0
ARC
8
PARAMETRIX
10
55.4133
20
-122.2810
40
60.1868
50
22.9748
51
27.6342
0
ARC
8
PARAMETRIX
10
69.4503
20
-114.9320
40
44.3424
50
27.6342
51
33.0632
0
LINE
8
PARAMETRIX
10
106.6123
20
-90.7404
11
106.1947
21
-90.3850
0
ARC
8
PARAMETRIX
10
107.4910
20
-88.8619
40
2.0000
50
141.0000
51
229.5981
0
LINE
8
PARAMETRIX
10
105.9367
20
-87.6033
11
107.7144
21
-85.4080
0
ARC
8
PARAMETRIX
10
109.2687
20
-86.6667
40
2.0000
50
52.4019
51
141.0000
0
LINE
8
PARAMETRIX
10
110.4890
20
-85.0820
11
110.9234
21
-85.4166
0
ARC
8
PARAMETRIX
10
126.8600
20
-44.0370
40
44.3424
50
248.9368
51
254.3658
0
ARC
8
PARAMETRIX
10
131.1299
20
-28.7788
40
60.1868
50
254.3658
51
259.0252
0
ARC
8
PARAMETRIX
10
132.5806
20
-21.2980
40
67.8070
50
259.0252
51
264.3335
0
ARC
8
PARAMETRIX
10
134.1403
20
-5.5797
40
83.6024
50
264.3335
51
269.1137
0
LINE
8
PARAMETRIX
10
132.8470
20
-89.1721
11
135.4965
21
-85.0922
0
ARC
8
PARAMETRIX
10
59.6571
20
-120.2738
40
83.6024
50
24.8863
51
29.6665
0
ARC
8
PARAMETRIX
10
73.3821
20
-112.4558
40
67.8070
50
29.6665
51
34.9748
0
ARC
8
PARAMETRIX
10
79.6261
20
-108.0878
40
60.1868
50
34.9748
51
39.6342
0
ARC
8
PARAMETRIX
10
91.8284
20
-97.9809
40
44.3424
50
39.6342
51
45.0632
0
LINE
8
PARAMETRIX
10
123.1486
20
-66.5915
11
122.6662
21
-66.3307
0
ARC
8
PARAMETRIX
10
123.6175
20
-64.5714
40
2.0000
50
153.0000
51
241.5981
0
LINE
8
PARAMETRIX
10
121.8355
20
-63.6634
11
123.1179
21
-61.1466
0
ARC
8
PARAMETRIX
10
124.8999
20
-62.0546
40
2.0000
50
64.4019
51
153.0000
0
LINE
8
PARAMETRIX
10
125.7641
20
-60.2509
11
126.2586
21
-60.4878
0
ARC
8
PARAMETRIX
10
133.2436
20
-16.6990
40
44.3424
50
260.9368
51
266.3658
0
ARC
8
PARAMETRIX
10
134.2479
20
-0.8864
40
60.1868
50
266.3658
51
271.0252
0
ARC
8
PARAMETRIX
10
134.1115
20
6.7325
40
67.8070
50
271.0252
51
276.3335
0
ARC
8
PARAMETRIX
10
132.3691
20
22.4316
40
83.6024
50
276.3335
51
281.1137
0
LINE
8
PARAMETRIX
10
148.4839
20
-59.6030
11
150.2273
21
-55.0614
0
ARC
8
PARAMETRIX
10
83.3597
20
-105.2421
40
83.6024
50
36.8863
51
41.6665
0
ARC
8
PARAMETRIX
10
95.1594
20
-94.7414
40
67.8070
50
41.6665
51
46.9748
0
ARC
8
PARAMETRIX
10
100.3588
20
-89.1706
40
60.1868
50
46.9748
51
51.6342
0
ARC
8
PARAMETRIX
10
110.1931
20
-76.7476
40
44.3424
50
51.6342
51
57.0632
0
LINE
8
PARAMETRIX
10
134.3026
20
-39.5323
11
133.7766
21
-39.3775
0
ARC
8
PARAMETRIX
10
134.3413
20
-37.4589
40
2.0000
50
165.0000
51
253.5981
0
LINE
8
PARAMETRIX
10
132.4095
20
-36.9412
11
133.1406
21
-34.2127
0
ARC
8
PARAMETRIX
10
135.0724
20
-34.7304
40
2.0000
50
76.4019
51
165.0000
0
LINE
8
PARAMETRIX
10
135.5427
20
-32.7864
11
136.0756
21
-32.9153
0
ARC
8
PARAMETRIX
10
133.8038
20
11.3688
40
44.3424
50
272.9368
51
278.3658
0
ARC
8
PARAMETRIX
10
131.4985
20
27.0446
40
60.1868
50
278.3658
51
283.0252
0
ARC
8
PARAMETRIX
10
129.7811
20
34.4687
40
67.8070
50
283.0252
51
288.3335
0
ARC
8
PARAMETRIX
10
124.8127
20
49.4624
40
83.6024
50
288.3335
51
293.1137
0
LINE
8
PARAMETRIX
10
157.6314
20
-27.4290
11
158.3924
21
-22.6242
0
ARC
8
PARAMETRIX
10
103.4192
20
-85.6108
40
83.6024
50
48.8863
51
53.6665
0
ARC
8
PARAMETRIX
10
112.7777
20
-72.8863
40
67.8070
50
53.6665
51
58.9748
0
ARC
8
PARAMETRIX
10
116.7053
20
-66.3563
40
60.1868
50
58.9748
51
63.6342
0
ARC
8
PARAMETRIX
10
123.7418
20
-52.1600
40
44.3424
50
63.6342
51
69.0632
0
LINE
8
PARAMETRIX
10
139.5870
20
-10.7453
11
139.0403
21
-10.7033
0
ARC
8
PARAMETRIX
10
139.1938
20
-8.7092
40
2.0000
50
177.0000
51
265.5981
0
LINE
8
PARAMETRIX
10
137.1965
20
-8.6045
11
137.3444
21
-5.7836
0
ARC
8
PARAMETRIX
10
139.3416
20
-5.8883
40
2.0000
50
88.4019
51
177.0000
0
CIRCLE
8
PARAMETRIX
10
0.0000
20
0.0000
40
100.0000
0
ARC
8
PARAMETRIX
10
-0.0000
20
-0.0000
40
127.5000
50
2.5320
51
37.4680
0
ARC
8
PARAMETRIX
10
98.8148
20
75.7357
40
3.0000
50
37.4680
51
130.0000
0
LINE
8
PARAMETRIX
10
96.8864
20
78.0338
11
87.3004
21
69.9902
0
ARC
8
PARAMETRIX
10
89.2288
20
67.6921
40
3.0000
50
130.0000
51
217.1852
0
ARC
8
PARAMETRIX
10
-0.0000
20
0.0000
40
109.0000
50
2.8148
51
37.1852
0
ARC
8
PARAMETRIX
10
111.8649
20
5.5000
40
3.0000
50
182.8148
51
270.0000
0
LINE
8
PARAMETRIX
10
111.8649
20
2.5000
11
124.3785
21
2.5000
0
ARC
8
PARAMETRIX
10
124.3785
20
5.5000
40
3.0000
50
270.0000
51
2.5320
0
ARC
8
PARAMETRIX
10
-0.0000
20
0.0000
40
127.5000
50
42.5320
51
77.4680
0
ARC
8
PARAMETRIX
10
27.0145
20
121.5338
40
3.0000
50
77.4680
51
170.0000
0
LINE
8
PARAMETRIX
10
24.0601
20
122.0547
11
21.8872
21
109.7313
0
ARC
8
PARAMETRIX
10
24.8416
20
109.2103
40
3.0000
50
170.0000
51
257.1852
0
ARC
8
PARAMETRIX
10
-0.0000
20
0.0000
40
109.0000
50
42.8148
51
77.1852
0
ARC
8
PARAMETRIX
10
82.1581
20
76.1186
40
3.0000
50
222.8148
51
310.0000
0
LINE
8
PARAMETRIX
10
84.0865
20
73.8205
11
93.6725
21
81.8640
0
ARC
8
PARAMETRIX
10
91.7441
20
84.1622
40
3.0000
50
310.0000
51
42.5320
0
ARC
8
PARAMETRIX
10
0.0000
20
-0.0000
40
127.5000
50
82.5320
51
117.4680
0
ARC
8
PARAMETRIX
10
-57.4261
20
110.4649
40
3.0000
50
117.4680
51
210.0000
0
LINE
8
PARAMETRIX
10
-60.0242
20
108.9649
11
-53.7674
21
98.1278
0
ARC
8
PARAMETRIX
10
-51.1693
20
99.6278
40
3.0000
50
210.0000
51
297.1852
0
ARC
8
PARAMETRIX
10
-0.0000
20
-0.0000
40
109.0000
50
82.8148
51
117.1852
0
ARC
8
PARAMETRIX
10
14.0087
20
111.1205
40
3.0000
50
262.8148
51
350.0000
0
LINE
8
PARAMETRIX
10
16.9631
20
110.5995
11
19.1361
21
122.9230
0
ARC
8
PARAMETRIX
10
16.1816
20
123.4439
40
3.0000
50
350.0000
51
82.5320
0
ARC
8
PARAMETRIX
10
0.0000
20
0.0000
40
127.5000
50
122.5320
51
157.4680
0
ARC
8
PARAMETRIX
10
-114.9964
20
47.7082
40
3.0000
50
157.4680
51
250.0000
0
LINE
8
PARAMETRIX
10
-116.0225
20
44.8892
11
-104.2635
21
40.6093
0
ARC
8
PARAMETRIX
10
-103.2375
20
43.4283
40
3.0000
50
250.0000
51
337.1852
0
ARC
8
PARAMETRIX
10
-0.0000
20
0.0000
40
109.0000
50
122.8148
51
157.1852
0
ARC
8
PARAMETRIX
10
-60.6956
20
94.1278
40
3.0000
50
302.8148
51
30.0000
0
LINE
8
PARAMETRIX
10
-58.0975
20
95.6278
11
-64.3543
21
106.4649
0
ARC
8
PARAMETRIX
10
-66.9524
20
104.9649
40
3.0000
50
30.0000
51
122.5320
0
ARC
8
PARAMETRIX
10
0.0000
20
0.0000
40
127.5000
50
162.5320
51
197.4680
0
ARC
8
PARAMETRIX
10
-118.7586
20
-37.3716
40
3.0000
50
197.4680
51
290.0000
0
LINE
8
PARAMETRIX
10
-117.7326
20
-40.1907
11
-105.9736
21
-35.9108
0
ARC
8
PARAMETRIX
10
-106.9997
20
-33.0917
40
3.0000
50
290.0000
51
17.1852
0
ARC
8
PARAMETRIX
10
-0.0000
20
-0.0000
40
109.0000
50
162.8148
51
197.1852
0
ARC
8
PARAMETRIX
10
-106.9997
20
33.0917
40
3.0000
50
342.8148
51
70.0000
0
LINE
8
PARAMETRIX
10
-105.9736
20
35.9108
11
-117.7326
21
40.1907
0
ARC
8
PARAMETRIX
10
-118.7586
20
37.3716
40
3.0000
50
70.0000
51
162.5320
0
ARC
8
PARAMETRIX
10
0.0000
20
-0.0000
40
127.5000
50
202.5320
51
237.4680
0
ARC
8
PARAMETRIX
10
-66.9524
20
-104.9649
40
3.0000
50
237.4680
51
330.0000
0
LINE
8
PARAMETRIX
10
-64.3543
20
-106.4649
11
-58.0975
21
-95.6278
0
ARC
8
PARAMETRIX
10
-60.6956
20
-94.1278
40
3.0000
50
330.0000
51
57.1852
0
ARC
8
PARAMETRIX
10
0.0000
20
-0.0000
40
109.0000
50
202.8148
51
237.1852
0
ARC
8
PARAMETRIX
10
-103.2375
20
-43.4283
40
3.0000
50
22.8148
51
110.0000
0
LINE
8
PARAMETRIX
10
-104.2635
20
-40.6093
11
-116.0225
21
-44.8892
0
ARC
8
PARAMETRIX
10
-114.9964
20
-47.7082
40
3.0000
50
110.0000
51
202.5320
0
ARC
8
PARAMETRIX
10
0.0000
20
-0.0000
40
127.5000
50
242.5320
51
277.4680
0
ARC
8
PARAMETRIX
10
16.1816
20
-123.4439
40
3.0000
50
277.4680
51
10.0000
0
LINE
8
PARAMETRIX
10
19.1361
20
-122.9230
11
16.9631
21
-110.5995
0
ARC
8
PARAMETRIX
10
14.0087
20
-111.1205
40
3.0000
50
10.0000
51
97.1852
0
ARC
8
PARAMETRIX
10
-0.0000
20
0.0000
40
109.0000
50
242.8148
51
277.1852
0
ARC
8
PARAMETRIX
10
-51.1693
20
-99.6278
40
3.0000
50
62.8148
51
150.0000
0
LINE
8
PARAMETRIX
10
-53.7674
20
-98.1278
11
-60.0242
21
-108.9649
0
ARC
8
PARAMETRIX
10
-57.4261
20
-110.4649
40
3.0000
50
150.0000
51
242.5320
0
ARC
8
PARAMETRIX
10
0.0000
20
-0.0000
40
127.5000
50
282.5320
51
317.4680
0
ARC
8
PARAMETRIX
10
91.7441
20
-84.1622
40
3.0000
50
317.4680
51
50.0000
0
LINE
8
PARAMETRIX
10
93.6725
20
-81.8640
11
84.0865
21
-73.8205
0
ARC
8
PARAMETRIX
10
82.1581
20
-76.1186
40
3.0000
50
50.0000
51
137.1852
0
ARC
8
PARAMETRIX
10
0.0000
20
0.0000
40
109.0000
50
282.8148
51
317.1852
0
ARC
8
PARAMETRIX
10
24.8416
20
-109.2103
40
3.0000
50
102.8148
51
190.0000
0
LINE
8
PARAMETRIX
10
21.8872
20
-109.7313
11
24.0601
21
-122.0547
0
ARC
8
PARAMETRIX
10
27.0145
20
-121.5338
40
3.0000
50
190.0000
51
282.5320
0
ARC
8
PARAMETRIX
10
0.0000
20
0.0000
40
127.5000
50
322.5320
51
357.4680
0
ARC
8
PARAMETRIX
10
124.3785
20
-5.5000
40
3.0000
50
357.4680
51
90.0000
0
LINE
8
PARAMETRIX
10
124.3785
20
-2.5000
11
111.8649
21
-2.5000
0
ARC
8
PARAMETRIX
10
111.8649
20
-5.5000
40
3.0000
50
90.0000
51
177.1852
0
ARC
8
PARAMETRIX
10
0.0000
20
0.0000
40
109.0000
50
322.8148
51
357.1852
0
ARC
8
PARAMETRIX
10
89.2288
20
-67.6921
40
3.0000
50
142.8148
51
230.0000
0
LINE
8
PARAMETRIX
10
87.3004
20
-69.9902
11
96.8864
21
-78.0338
0
ARC
8
PARAMETRIX
10
98.8148
20
-75.7357
40
3.0000
50
230.0000
51
322.5320
0
ENDSEC
0
EOF
