<svg width="362" height="362" viewBox="-178 -178 362 362" xmlns="http://www.w3.org/2000/svg"><path d="M 139.3974 3.8890 L 139.9455 3.9043 A 44.3424 44.3424 0 0 0 143.9478 2.6308 A 60.1868 60.1868 0 0 0 148.4622 0.7428 A 67.8070 67.8070 0 0 0 154.0233 -2.1743 A 83.6024 83.6024 0 0 0 159.8896 -5.9438 L 159.6350 -10.8018 A 83.6024 83.6024 0 0 0 153.4068 -13.9375 A 67.8070 67.8070 0 0 0 147.5712 -16.2573 A 60.1868 60.1868 0 0 0 142.8843 -17.6630 A 44.3424 44.3424 0 0 0 138.7708 -18.5112 L 138.2273 -18.4387 A 2.0000 2.0000 0 0 1 135.9874 -20.1083 L 135.5456 -22.8983 A 2.0000 2.0000 0 0 1 137.1598 -25.1783 L 137.6992 -25.2773 A 44.3424 44.3424 0 0 0 141.3492 -27.3551 A 60.1868 60.1868 0 0 0 145.3723 -30.1404 A 67.8070 67.8070 0 0 0 150.2055 -34.1500 A 83.6024 83.6024 0 0 0 155.1598 -39.0568 L 153.9007 -43.7557 A 83.6024 83.6024 0 0 0 147.1567 -45.5280 A 67.8070 67.8070 0 0 0 140.9663 -46.5838 A 60.1868 60.1868 0 0 0 136.0896 -46.9844 A 44.3424 44.3424 0 0 0 131.8896 -46.9588 L 131.3730 -46.7749 A 2.0000 2.0000 0 0 1 128.8350 -47.9423 L 127.8227 -50.5794 A 2.0000 2.0000 0 0 1 128.9277 -53.1452 L 129.4347 -53.3542 A 44.3424 44.3424 0 0 0 132.5729 -56.1455 A 60.1868 60.1868 0 0 0 135.9291 -59.7064 A 67.8070 67.8070 0 0 0 139.8229 -64.6332 A 83.6024 83.6024 0 0 0 143.6488 -70.4628 L 141.4403 -74.7973 A 83.6024 83.6024 0 0 0 134.4752 -75.1287 A 67.8070 67.8070 0 0 0 128.2006 -74.8744 A 60.1868 60.1868 0 0 0 123.3471 -74.2523 A 44.3424 44.3424 0 0 0 119.2442 -73.3540 L 118.7772 -73.0667 A 2.0000 2.0000 0 0 1 116.0519 -73.6809 L 114.5134 -76.0500 A 2.0000 2.0000 0 0 1 115.0608 -78.7894 L 115.5132 -79.0993 A 44.3424 44.3424 0 0 0 118.0026 -82.4821 A 60.1868 60.1868 0 0 0 120.5450 -86.6629 A 67.8070 67.8070 0 0 0 123.3295 -92.2916 A 83.6024 83.6024 0 0 0 125.8597 -98.7893 L 122.7983 -102.5699 A 83.6024 83.6024 0 0 0 115.9165 -101.4459 A 67.8070 67.8070 0 0 0 109.8318 -99.8926 A 60.1868 60.1868 0 0 0 105.2137 -98.2750 A 44.3424 44.3424 0 0 0 101.3873 -96.5433 L 100.9902 -96.1652 A 2.0000 2.0000 0 0 1 98.1968 -96.1994 L 96.1994 -98.1968 A 2.0000 2.0000 0 0 1 96.1652 -100.9902 L 96.5433 -101.3873 A 44.3424 44.3424 0 0 0 98.2750 -105.2137 A 60.1868 60.1868 0 0 0 99.8926 -109.8318 A 67.8070 67.8070 0 0 0 101.4459 -115.9165 A 83.6024 83.6024 0 0 0 102.5699 -122.7983 L 98.7893 -125.8597 A 83.6024 83.6024 0 0 0 92.2916 -123.3295 A 67.8070 67.8070 0 0 0 86.6629 -120.5450 A 60.1868 60.1868 0 0 0 82.4821 -118.0026 A 44.3424 44.3424 0 0 0 79.0993 -115.5132 L 78.7894 -115.0608 A 2.0000 2.0000 0 0 1 76.0500 -114.5134 L 73.6809 -116.0519 A 2.0000 2.0000 0 0 1 73.0667 -118.7772 L 73.3540 -119.2442 A 44.3424 44.3424 0 0 0 74.2523 -123.3471 A 60.1868 60.1868 0 0 0 74.8744 -128.2006 A 67.8070 67.8070 0 0 0 75.1287 -134.4752 A 83.6024 83.6024 0 0 0 74.7973 -141.4403 L 70.4628 -143.6488 A 83.6024 83.6024 0 0 0 64.6332 -139.8229 A 67.8070 67.8070 0 0 0 59.7064 -135.9291 A 60.1868 60.1868 0 0 0 56.1455 -132.5729 A 44.3424 44.3424 0 0 0 53.3542 -129.4347 L 53.1452 -128.9277 A 2.0000 2.0000 0 0 1 50.5794 -127.8227 L 47.9423 -128.8350 A 2.0000 2.0000 0 0 1 46.7749 -131.3730 L 46.9588 -131.8896 A 44.3424 44.3424 0 0 0 46.9844 -136.0896 A 60.1868 60.1868 0 0 0 46.5838 -140.9663 A 67.8070 67.8070 0 0 0 45.5280 -147.1567 A 83.6024 83.6024 0 0 0 43.7557 -153.9007 L 39.0568 -155.1598 A 83.6024 83.6024 0 0 0 34.1500 -150.2055 A 67.8070 67.8070 0 0 0 30.1404 -145.3723 A 60.1868 60.1868 0 0 0 27.3551 -141.3492 A 44.3424 44.3424 0 0 0 25.2773 -137.6992 L 25.1783 -137.1598 A 2.0000 2.0000 0 0 1 22.8983 -135.5456 L 20.1083 -135.9874 A 2.0000 2.0000 0 0 1 18.4387 -138.2273 L 18.5112 -138.7708 A 44.3424 44.3424 0 0 0 17.6630 -142.8843 A 60.1868 60.1868 0 0 0 16.2573 -147.5712 A 67.8070 67.8070 0 0 0 13.9375 -153.4068 A 83.6024 83.6024 0 0 0 10.8018 -159.6350 L 5.9438 -159.8896 A 83.6024 83.6024 0 0 0 2.1743 -154.0233 A 67.8070 67.8070 0 0 0 -0.7428 -148.4622 A 60.1868 60.1868 0 0 0 -2.6308 -143.9478 A 44.3424 44.3424 0 0 0 -3.9043 -139.9455 L -3.8890 -139.3974 A 2.0000 2.0000 0 0 1 -5.7836 -137.3444 L -8.6045 -137.1965 A 2.0000 2.0000 0 0 1 -10.7033 -139.0403 L -10.7453 -139.5870 A 44.3424 44.3424 0 0 0 -12.4303 -143.4343 A 60.1868 60.1868 0 0 0 -14.7798 -147.7265 A 67.8070 67.8070 0 0 0 -18.2622 -152.9523 A 83.6024 83.6024 0 0 0 -22.6242 -158.3924 L -27.4290 -157.6314 A 83.6024 83.6024 0 0 0 -29.8965 -151.1096 A 67.8070 67.8070 0 0 0 -31.5936 -145.0635 A 60.1868 60.1868 0 0 0 -32.5017 -140.2553 A 44.3424 44.3424 0 0 0 -32.9153 -136.0756 L -32.7864 -135.5427 A 2.0000 2.0000 0 0 1 -34.2127 -133.1406 L -36.9412 -132.4095 A 2.0000 2.0000 0 0 1 -39.3775 -133.7766 L -39.5323 -134.3026 A 44.3424 44.3424 0 0 0 -41.9803 -137.7155 A 60.1868 60.1868 0 0 0 -45.1709 -141.4254 A 67.8070 67.8070 0 0 0 -49.6637 -145.8130 A 83.6024 83.6024 0 0 0 -55.0614 -150.2273 L -59.6030 -148.4839 A 83.6024 83.6024 0 0 0 -60.6606 -141.5916 A 67.8070 67.8070 0 0 0 -61.0636 -135.3248 A 60.1868 60.1868 0 0 0 -60.9522 -130.4329 A 44.3424 44.3424 0 0 0 -60.4878 -126.2586 L -60.2509 -125.7641 A 2.0000 2.0000 0 0 1 -61.1466 -123.1179 L -63.6634 -121.8355 A 2.0000 2.0000 0 0 1 -66.3307 -122.6662 L -66.5915 -123.1486 A 44.3424 44.3424 0 0 0 -69.6956 -125.9779 A 60.1868 60.1868 0 0 0 -73.5878 -128.9434 A 67.8070 67.8070 0 0 0 -78.8946 -132.3009 A 83.6024 83.6024 0 0 0 -85.0922 -135.4965 L -89.1721 -132.8470 A 83.6024 83.6024 0 0 0 -88.7736 -125.8855 A 67.8070 67.8070 0 0 0 -87.8648 -119.6718 A 60.1868 60.1868 0 0 0 -86.7388 -114.9099 A 44.3424 44.3424 0 0 0 -85.4166 -110.9234 L -85.0820 -110.4890 A 2.0000 2.0000 0 0 1 -85.4080 -107.7144 L -87.6033 -105.9367 A 2.0000 2.0000 0 0 1 -90.3850 -106.1947 L -90.7404 -106.6123 A 44.3424 44.3424 0 0 0 -94.3648 -108.7344 A 60.1868 60.1868 0 0 0 -98.7885 -110.8259 A 67.8070 67.8070 0 0 0 -104.6775 -113.0067 A 83.6024 83.6024 0 0 0 -111.4041 -114.8439 L -114.8439 -111.4041 A 83.6024 83.6024 0 0 0 -113.0067 -104.6775 A 67.8070 67.8070 0 0 0 -110.8259 -98.7885 A 60.1868 60.1868 0 0 0 -108.7344 -94.3648 A 44.3424 44.3424 0 0 0 -106.6123 -90.7404 L -106.1947 -90.3850 A 2.0000 2.0000 0 0 1 -105.9367 -87.6033 L -107.7144 -85.4080 A 2.0000 2.0000 0 0 1 -110.4890 -85.0820 L -110.9234 -85.4166 A 44.3424 44.3424 0 0 0 -114.9099 -86.7388 A 60.1868 60.1868 0 0 0 -119.6718 -87.8648 A 67.8070 67.8070 0 0 0 -125.8855 -88.7736 A 83.6024 83.6024 0 0 0 -132.8470 -89.1721 L -135.4965 -85.0922 A 83.6024 83.6024 0 0 0 -132.3009 -78.8946 A 67.8070 67.8070 0 0 0 -128.9434 -73.5878 A 60.1868 60.1868 0 0 0 -125.9779 -69.6956 A 44.3424 44.3424 0 0 0 -123.1486 -66.5915 L -122.6662 -66.3307 A 2.0000 2.0000 0 0 1 -121.8355 -63.6634 L -123.1179 -61.1466 A 2.0000 2.0000 0 0 1 -125.7641 -60.2509 L -126.2586 -60.4878 A 44.3424 44.3424 0 0 0 -130.4329 -60.9522 A 60.1868 60.1868 0 0 0 -135.3248 -61.0636 A 67.8070 67.8070 0 0 0 -141.5916 -60.6606 A 83.6024 83.6024 0 0 0 -148.4839 -59.6030 L -150.2273 -55.0614 A 83.6024 83.6024 0 0 0 -145.8130 -49.6637 A 67.8070 67.8070 0 0 0 -141.4254 -45.1709 A 60.1868 60.1868 0 0 0 -137.7155 -41.9803 A 44.3424 44.3424 0 0 0 -134.3026 -39.5323 L -133.7766 -39.3775 A 2.0000 2.0000 0 0 1 -132.4095 -36.9412 L -133.1406 -34.2127 A 2.0000 2.0000 0 0 1 -135.5427 -32.7864 L -136.0756 -32.9153 A 44.3424 44.3424 0 0 0 -140.2553 -32.5017 A 60.1868 60.1868 0 0 0 -145.0635 -31.5936 A 67.8070 67.8070 0 0 0 -151.1096 -29.8965 A 83.6024 83.6024 0 0 0 -157.6314 -27.4290 L -158.3924 -22.6242 A 83.6024 83.6024 0 0 0 -152.9523 -18.2622 A 67.8070 67.8070 0 0 0 -147.7265 -14.7798 A 60.1868 60.1868 0 0 0 -143.4343 -12.4303 A 44.3424 44.3424 0 0 0 -139.5870 -10.7453 L -139.0403 -10.7033 A 2.0000 2.0000 0 0 1 -137.1965 -8.6045 L -137.3444 -5.7836 A 2.0000 2.0000 0 0 1 -139.3974 -3.8890 L -139.9455 -3.9043 A 44.3424 44.3424 0 0 0 -143.9478 -2.6308 A 60.1868 60.1868 0 0 0 -148.4622 -0.7428 A 67.8070 67.8070 0 0 0 -154.0233 2.1743 A 83.6024 83.6024 0 0 0 -159.8896 5.9438 L -159.6350 10.8018 A 83.6024 83.6024 0 0 0 -153.4068 13.9375 A 67.8070 67.8070 0 0 0 -147.5712 16.2573 A 60.1868 60.1868 0 0 0 -142.8843 17.6630 A 44.3424 44.3424 0 0 0 -138.7708 18.5112 L -138.2273 18.4387 A 2.0000 2.0000 0 0 1 -135.9874 20.1083 L -135.5456 22.8983 A 2.0000 2.0000 0 0 1 -137.1598 25.1783 L -137.6992 25.2773 A 44.3424 44.3424 0 0 0 -141.3492 27.3551 A 60.1868 60.1868 0 0 0 -145.3723 30.1404 A 67.8070 67.8070 0 0 0 -150.2055 34.1500 A 83.6024 83.6024 0 0 0 -155.1598 39.0568 L -153.9007 43.7557 A 83.6024 83.6024 0 0 0 -147.1567 45.5280 A 67.8070 67.8070 0 0 0 -140.9663 46.5838 A 60.1868 60.1868 0 0 0 -136.0896 46.9844 A 44.3424 44.3424 0 0 0 -131.8896 46.9588 L -131.3730 46.7749 A 2.0000 2.0000 0 0 1 -128.8350 47.9423 L -127.8227 50.5794 A 2.0000 2.0000 0 0 1 -128.9277 53.1452 L -129.4347 53.3542 A 44.3424 44.3424 0 0 0 -132.5729 56.1455 A 60.1868 60.1868 0 0 0 -135.9291 59.7064 A 67.8070 67.8070 0 0 0 -139.8229 64.6332 A 83.6024 83.6024 0 0 0 -143.6488 70.4628 L -141.4403 74.7973 A 83.6024 83.6024 0 0 0 -134.4752 75.1287 A 67.8070 67.8070 0 0 0 -128.2006 74.8744 A 60.1868 60.1868 0 0 0 -123.3471 74.2523 A 44.3424 44.3424 0 0 0 -119.2442 73.3540 L -118.7772 73.0667 A 2.0000 2.0000 0 0 1 -116.0519 73.6809 L -114.5134 76.0500 A 2.0000 2.0000 0 0 1 -115.0608 78.7894 L -115.5132 79.0993 A 44.3424 44.3424 0 0 0 -118.0026 82.4821 A 60.1868 60.1868 0 0 0 -120.5450 86.6629 A 67.8070 67.8070 0 0 0 -123.3295 92.2916 A 83.6024 83.6024 0 0 0 -125.8597 98.7893 L -122.7983 102.5699 A 83.6024 83.6024 0 0 0 -115.9165 101.4459 A 67.8070 67.8070 0 0 0 -109.8318 99.8926 A 60.1868 60.1868 0 0 0 -105.2137 98.2750 A 44.3424 44.3424 0 0 0 -101.3873 96.5433 L -100.9902 96.1652 A 2.0000 2.0000 0 0 1 -98.1968 96.1994 L -96.1994 98.1968 A 2.0000 2.0000 0 0 1 -96.1652 100.9902 L -96.5433 101.3873 A 44.3424 44.3424 0 0 0 -98.2750 105.2137 A 60.1868 60.1868 0 0 0 -99.8926 109.8318 A 67.8070 67.8070 0 0 0 -101.4459 115.9165 A 83.6024 83.6024 0 0 0 -102.5699 122.7983 L -98.7893 125.8597 A 83.6024 83.6024 0 0 0 -92.2916 123.3295 A 67.8070 67.8070 0 0 0 -86.6629 120.5450 A 60.1868 60.1868 0 0 0 -82.4821 118.0026 A 44.3424 44.3424 0 0 0 -79.0993 115.5132 L -78.7894 115.0608 A 2.0000 2.0000 0 0 1 -76.0500 114.5134 L -73.6809 116.0519 A 2.0000 2.0000 0 0 1 -73.0667 118.7772 L -73.3540 119.2442 A 44.3424 44.3424 0 0 0 -74.2523 123.3471 A 60.1868 60.1868 0 0 0 -74.8744 128.2006 A 67.8070 67.8070 0 0 0 -75.1287 134.4752 A 83.6024 83.6024 0 0 0 -74.7973 141.4403 L -70.4628 143.6488 A 83.6024 83.6024 0 0 0 -64.6332 139.8229 A 67.8070 67.8070 0 0 0 -59.7064 135.9291 A 60.1868 60.1868 0 0 0 -56.1455 132.5729 A 44.3424 44.3424 0 0 0 -53.3542 129.4347 L -53.1452 128.9277 A 2.0000 2.0000 0 0 1 -50.5794 127.8227 L -47.9423 128.8350 A 2.0000 2.0000 0 0 1 -46.7749 131.3730 L -46.9588 131.8896 A 44.3424 44.3424 0 0 0 -46.9844 136.0896 A 60.1868 60.1868 0 0 0 -46.5838 140.9663 A 67.8070 67.8070 0 0 0 -45.5280 147.1567 A 83.6024 83.6024 0 0 0 -43.7557 153.9007 L -39.0568 155.1598 A 83.6024 83.6024 0 0 0 -34.1500 150.2055 A 67.8070 67.8070 0 0 0 -30.1404 145.3723 A 60.1868 60.1868 0 0 0 -27.3551 141.3492 A 44.3424 44.3424 0 0 0 -25.2773 137.6992 L -25.1783 137.1598 A 2.0000 2.0000 0 0 1 -22.8983 135.5456 L -20.1083 135.9874 A 2.0000 2.0000 0 0 1 -18.4387 138.2273 L -18.5112 138.7708 A 44.3424 44.3424 0 0 0 -17.6630 142.8843 A 60.1868 60.1868 0 0 0 -16.2573 147.5712 A 67.8070 67.8070 0 0 0 -13.9375 153.4068 A 83.6024 83.6024 0 0 0 -10.8018 159.6350 L -5.9438 159.8896 A 83.6024 83.6024 0 0 0 -2.1743 154.0233 A 67.8070 67.8070 0 0 0 0.7428 148.4622 A 60.1868 60.1868 0 0 0 2.6308 143.9478 A 44.3424 44.3424 0 0 0 3.9043 139.9455 L 3.8890 139.3974 A 2.0000 2.0000 0 0 1 5.7836 137.3444 L 8.6045 137.1965 A 2.0000 2.0000 0 0 1 10.7033 139.0403 L 10.7453 139.5870 A 44.3424 44.3424 0 0 0 12.4303 143.4343 A 60.1868 60.1868 0 0 0 14.7798 147.7265 A 67.8070 67.8070 0 0 0 18.2622 152.9523 A 83.6024 83.6024 0 0 0 22.6242 158.3924 L 27.4290 157.6314 A 83.6024 83.6024 0 0 0 29.8965 151.1096 A 67.8070 67.8070 0 0 0 31.5936 145.0635 A 60.1868 60.1868 0 0 0 32.5017 140.2553 A 44.3424 44.3424 0 0 0 32.9153 136.0756 L 32.7864 135.5427 A 2.0000 2.0000 0 0 1 34.2127 133.1406 L 36.9412 132.4095 A 2.0000 2.0000 0 0 1 39.3775 133.7766 L 39.5323 134.3026 A 44.3424 44.3424 0 0 0 41.9803 137.7155 A 60.1868 60.1868 0 0 0 45.1709 141.4254 A 67.8070 67.8070 0 0 0 49.6637 145.8130 A 83.6024 83.6024 0 0 0 55.0614 150.2273 L 59.6030 148.4839 A 83.6024 83.6024 0 0 0 60.6606 141.5916 A 67.8070 67.8070 0 0 0 61.0636 135.3248 A 60.1868 60.1868 0 0 0 60.9522 130.4329 A 44.3424 44.3424 0 0 0 60.4878 126.2586 L 60.2509 125.7641 A 2.0000 2.0000 0 0 1 61.1466 123.1179 L 63.6634 121.8355 A 2.0000 2.0000 0 0 1 66.3307 122.6662 L 66.5915 123.1486 A 44.3424 44.3424 0 0 0 69.6956 125.9779 A 60.1868 60.1868 0 0 0 73.5878 128.9434 A 67.8070 67.8070 0 0 0 78.8946 132.3009 A 83.6024 83.6024 0 0 0 85.0922 135.4965 L 89.1721 132.8470 A 83.6024 83.6024 0 0 0 88.7736 125.8855 A 67.8070 67.8070 0 0 0 87.8648 119.6718 A 60.1868 60.1868 0 0 0 86.7388 114.9099 A 44.3424 44.3424 0 0 0 85.4166 110.9234 L 85.0820 110.4890 A 2.0000 2.0000 0 0 1 85.4080 107.7144 L 87.6033 105.9367 A 2.0000 2.0000 0 0 1 90.3850 106.1947 L 90.7404 106.6123 A 44.3424 44.3424 0 0 0 94.3648 108.7344 A 60.1868 60.1868 0 0 0 98.7885 110.8259 A 67.8070 67.8070 0 0 0 104.6775 113.0067 A 83.6024 83.6024 0 0 0 111.4041 114.8439 L 114.8439 111.4041 A 83.6024 83.6024 0 0 0 113.0067 104.6775 A 67.8070 67.8070 0 0 0 110.8259 98.7885 A 60.1868 60.1868 0 0 0 108.7344 94.3648 A 44.3424 44.3424 0 0 0 106.6123 90.7404 L 106.1947 90.3850 A 2.0000 2.0000 0 0 1 105.9367 87.6033 L 107.7144 85.4080 A 2.0000 2.0000 0 0 1 110.4890 85.0820 L 110.9234 85.4166 A 44.3424 44.3424 0 0 0 114.9099 86.7388 A 60.1868 60.1868 0 0 0 119.6718 87.8648 A 67.8070 67.8070 0 0 0 125.8855 88.7736 A 83.6024 83.6024 0 0 0 132.8470 89.1721 L 135.4965 85.0922 A 83.6024 83.6024 0 0 0 132.3009 78.8946 A 67.8070 67.8070 0 0 0 128.9434 73.5878 A 60.1868 60.1868 0 0 0 125.9779 69.6956 A 44.3424 44.3424 0 0 0 123.1486 66.5915 L 122.6662 66.3307 A 2.0000 2.0000 0 0 1 121.8355 63.6634 L 123.1179 61.1466 A 2.0000 2.0000 0 0 1 125.7641 60.2509 L 126.2586 60.4878 A 44.3424 44.3424 0 0 0 130.4329 60.9522 A 60.1868 60.1868 0 0 0 135.3248 61.0636 A 67.8070 67.8070 0 0 0 141.5916 60.6606 A 83.6024 83.6024 0 0 0 148.4839 59.6030 L 150.2273 55.0614 A 83.6024 83.6024 0 0 0 145.8130 49.6637 A 67.8070 67.8070 0 0 0 141.4254 45.1709 A 60.1868 60.1868 0 0 0 137.7155 41.9803 A 44.3424 44.3424 0 0 0 134.3026 39.5323 L 133.7766 39.3775 A 2.0000 2.0000 0 0 1 132.4095 36.9412 L 133.1406 34.2127 A 2.0000 2.0000 0 0 1 135.5427 32.7864 L 136.0756 32.9153 A 44.3424 44.3424 0 0 0 140.2553 32.5017 A 60.1868 60.1868 0 0 0 145.0635 31.5936 A 67.8070 67.8070 0 0 0 151.1096 29.8965 A 83.6024 83.6024 0 0 0 157.6314 27.4290 L 158.3924 22.6242 A 83.6024 83.6024 0 0 0 152.9523 18.2622 A 67.8070 67.8070 0 0 0 147.7265 14.7798 A 60.1868 60.1868 0 0 0 143.4343 12.4303 A 44.3424 44.3424 0 0 0 139.5870 10.7453 L 139.0403 10.7033 A 2.0000 2.0000 0 0 1 137.1965 8.6045 L 137.3444 5.7836 A 2.0000 2.0000 0 0 1 139.3974 3.8890 Z" stroke="green" stroke-width="1" fill="none" /><circle cx="0.0000" cy="0.0000" r="100.0000" stroke="green" stroke-width="1" fill="none" /><path d="M 127.3755 -5.6325 A 127.5000 127.5000 0 0 0 101.1958 -77.5606 A 3.0000 3.0000 0 0 0 96.8864 -78.0338 L 87.3004 -69.9902 A 3.0000 3.0000 0 0 0 86.8387 -65.8789 A 109.0000 109.0000 0 0 1 108.8685 -5.3527 A 3.0000 3.0000 0 0 0 111.8649 -2.5000 L 124.3785 -2.5000 A 3.0000 3.0000 0 0 0 127.3755 -5.6325 Z" stroke="green" stroke-width="1" fill="none" /><path d="M 93.9548 -86.1902 A 127.5000 127.5000 0 0 0 27.6655 -124.4623 A 3.0000 3.0000 0 0 0 24.0601 -122.0547 L 21.8872 -109.7313 A 3.0000 3.0000 0 0 0 24.1762 -106.2851 A 109.0000 109.0000 0 0 1 79.9575 -74.0797 A 3.0000 3.0000 0 0 0 84.0865 -73.8205 L 93.6725 -81.8640 A 3.0000 3.0000 0 0 0 93.9548 -86.1902 Z" stroke="green" stroke-width="1" fill="none" /><path d="M 16.5716 -126.4185 A 127.5000 127.5000 0 0 0 -58.8098 -113.1267 A 3.0000 3.0000 0 0 0 -60.0242 -108.9649 L -53.7674 -98.1278 A 3.0000 3.0000 0 0 0 -49.7987 -96.9592 A 109.0000 109.0000 0 0 1 13.6335 -108.1440 A 3.0000 3.0000 0 0 0 16.9631 -110.5995 L 19.1361 -122.9230 A 3.0000 3.0000 0 0 0 16.5716 -126.4185 Z" stroke="green" stroke-width="1" fill="none" /><path d="M -68.5657 -107.4942 A 127.5000 127.5000 0 0 0 -117.7674 -48.8578 A 3.0000 3.0000 0 0 0 -116.0225 -44.8892 L -104.2635 -40.6093 A 3.0000 3.0000 0 0 0 -100.4722 -42.2651 A 109.0000 109.0000 0 0 1 -59.0698 -91.6065 A 3.0000 3.0000 0 0 0 -58.0975 -95.6278 L -64.3543 -106.4649 A 3.0000 3.0000 0 0 0 -68.5657 -107.4942 Z" stroke="green" stroke-width="1" fill="none" /><path d="M -121.6203 -38.2721 A 127.5000 127.5000 0 0 0 -121.6203 38.2721 A 3.0000 3.0000 0 0 0 -117.7326 40.1907 L -105.9736 35.9108 A 3.0000 3.0000 0 0 0 -104.1336 32.2053 A 109.0000 109.0000 0 0 1 -104.1336 -32.2053 A 3.0000 3.0000 0 0 0 -105.9736 -35.9108 L -117.7326 -40.1907 A 3.0000 3.0000 0 0 0 -121.6203 -38.2721 Z" stroke="green" stroke-width="1" fill="none" /><path d="M -117.7674 48.8578 A 127.5000 127.5000 0 0 0 -68.5657 107.4942 A 3.0000 3.0000 0 0 0 -64.3543 106.4649 L -58.0975 95.6278 A 3.0000 3.0000 0 0 0 -59.0698 91.6065 A 109.0000 109.0000 0 0 1 -100.4722 42.2651 A 3.0000 3.0000 0 0 0 -104.2635 40.6093 L -116.0225 44.8892 A 3.0000 3.0000 0 0 0 -117.7674 48.8578 Z" stroke="green" stroke-width="1" fill="none" /><path d="M -58.8098 113.1267 A 127.5000 127.5000 0 0 0 16.5716 126.4185 A 3.0000 3.0000 0 0 0 19.1361 122.9230 L 16.9631 110.5995 A 3.0000 3.0000 0 0 0 13.6335 108.1440 A 109.0000 109.0000 0 0 1 -49.7987 96.9592 A 3.0000 3.0000 0 0 0 -53.7674 98.1278 L -60.0242 108.9649 A 3.0000 3.0000 0 0 0 -58.8098 113.1267 Z" stroke="green" stroke-width="1" fill="none" /><path d="M 27.6655 124.4623 A 127.5000 127.5000 0 0 0 93.9548 86.1902 A 3.0000 3.0000 0 0 0 93.6725 81.8640 L 84.0865 73.8205 A 3.0000 3.0000 0 0 0 79.9575 74.0797 A 109.0000 109.0000 0 0 1 24.1762 106.2851 A 3.0000 3.0000 0 0 0 21.8872 109.7313 L 24.0601 122.0547 A 3.0000 3.0000 0 0 0 27.6655 124.4623 Z" stroke="green" stroke-width="1" fill="none" /><path d="M 101.1958 77.5606 A 127.5000 127.5000 0 0 0 127.3755 5.6325 A 3.0000 3.0000 0 0 0 124.3785 2.5000 L 111.8649 2.5000 A 3.0000 3.0000 0 0 0 108.8685 5.3527 A 109.0000 109.0000 0 0 1 86.8387 65.8789 A 3.0000 3.0000 0 0 0 87.3004 69.9902 L 96.8864 78.0338 A 3.0000 3.0000 0 0 0 101.1958 77.5606 Z" stroke="green" stroke-width="1" fill="none" /></svg>