<svg width="15938" height="9998" viewBox="-8037 -5040 15938 9998" xmlns="http://www.w3.org/2000/svg"><path d="M -7240.0000 2015.0000 L -5640.0000 2015.0000 L -5640.0000 1015.0000 L -7240.0000 1015.0000 L -7240.0000 2015.0000 Z" stroke="green" stroke-width="1" fill="none" /><path d="M -7240.0000 1005.0000 L -5640.0000 1005.0000 L -5640.0000 5.0000 L -7240.0000 5.0000 L -7240.0000 1005.0000 Z" stroke="green" stroke-width="1" fill="none" /><path d="M -7240.0000 -5.0000 L -5640.0000 -5.0000 L -5640.0000 -1005.0000 L -7240.0000 -1005.0000 L -7240.0000 -5.0000 Z" stroke="green" stroke-width="1" fill="none" /><path d="M -7240.0000 -1015.0000 L -5640.0000 -1015.0000 L -5640.0000 -2015.0000 L -7240.0000 -2015.0000 L -7240.0000 -1015.0000 Z" stroke="green" stroke-width="1" fill="none" /><path d="M -5630.0000 3530.0000 L -4030.0000 3530.0000 L -4030.0000 2530.0000 L -5630.0000 2530.0000 L -5630.0000 3530.0000 Z" stroke="green" stroke-width="1" fill="none" /><path d="M -5630.0000 2520.0000 L -4030.0000 2520.0000 L -4030.0000 1520.0000 L -5630.0000 1520.0000 L -5630.0000 2520.0000 Z" stroke="green" stroke-width="1" fill="none" /><path d="M -5630.0000 1510.0000 L -4030.0000 1510.0000 L -4030.0000 510.0000 L -5630.0000 510.0000 L -5630.0000 1510.0000 Z" stroke="green" stroke-width="1" fill="none" /><path d="M -5630.0000 500.0000 L -4030.0000 500.0000 L -4030.0000 -500.0000 L -5630.0000 -500.0000 L -5630.0000 500.0000 Z" stroke="green" stroke-width="1" fill="none" /><path d="M -5630.0000 -510.0000 L -4030.0000 -510.0000 L -4030.0000 -1510.0000 L -5630.0000 -1510.0000 L -5630.0000 -510.0000 Z" stroke="green" stroke-width="1" fill="none" /><path d="M -5630.0000 -1520.0000 L -4030.0000 -1520.0000 L -4030.0000 -2520.0000 L -5630.0000 -2520.0000 L -5630.0000 -1520.0000 Z" stroke="green" stroke-width="1" fill="none" /><path d="M -5630.0000 -2530.0000 L -4030.0000 -2530.0000 L -4030.0000 -3530.0000 L -5630.0000 -3530.0000 L -5630.0000 -2530.0000 Z" stroke="green" stroke-width="1" fill="none" /><path d="M -4020.0000 4035.0000 L -2420.0000 4035.0000 L -2420.0000 3035.0000 L -4020.0000 3035.0000 L -4020.0000 4035.0000 Z" stroke="green" stroke-width="1" fill="none" /><path d="M -4020.0000 3025.0000 L -2420.0000 3025.0000 L -2420.0000 2025.0000 L -4020.0000 2025.0000 L -4020.0000 3025.0000 Z" stroke="green" stroke-width="1" fill="none" /><path d="M -4020.0000 2015.0000 L -2420.0000 2015.0000 L -2420.0000 1015.0000 L -4020.0000 1015.0000 L -4020.0000 2015.0000 Z" stroke="green" stroke-width="1" fill="none" /><path d="M -4020.0000 1005.0000 L -2420.0000 1005.0000 L -2420.0000 5.0000 L -4020.0000 5.0000 L -4020.0000 1005.0000 Z" stroke="green" stroke-width="1" fill="none" /><path d="M -4020.0000 -5.0000 L -2420.0000 -5.0000 L -2420.0000 -1005.0000 L -4020.0000 -1005.0000 L -4020.0000 -5.0000 Z" stroke="green" stroke-width="1" fill="none" /><path d="M -4020.0000 -1015.0000 L -2420.0000 -1015.0000 L -2420.0000 -2015.0000 L -4020.0000 -2015.0000 L -4020.0000 -1015.0000 Z" stroke="green" stroke-width="1" fill="none" /><path d="M -4020.0000 -2025.0000 L -2420.0000 -2025.0000 L -2420.0000 -3025.0000 L -4020.0000 -3025.0000 L -4020.0000 -2025.0000 Z" stroke="green" stroke-width="1" fill="none" /><path d="M -4020.0000 -3035.0000 L -2420.0000 -3035.0000 L -2420.0000 -4035.0000 L -4020.0000 -4035.0000 L -4020.0000 -3035.0000 Z" stroke="green" stroke-width="1" fill="none" /><path d="M -2410.0000 4540.0000 L -810.0000 4540.0000 L -810.0000 3540.0000 L -2410.0000 3540.0000 L -2410.0000 4540.0000 Z" stroke="green" stroke-width="1" fill="none" /><path d="M -2410.0000 3530.0000 L -810.0000 3530.0000 L -810.0000 2530.0000 L -2410.0000 2530.0000 L -2410.0000 3530.0000 Z" stroke="green" stroke-width="1" fill="none" /><path d="M -2410.0000 2520.0000 L -810.0000 2520.0000 L -810.0000 1520.0000 L -2410.0000 1520.0000 L -2410.0000 2520.0000 Z" stroke="green" stroke-width="1" fill="none" /><path d="M -2410.0000 1510.0000 L -810.0000 1510.0000 L -810.0000 510.0000 L -2410.0000 510.0000 L -2410.0000 1510.0000 Z" stroke="green" stroke-width="1" fill="none" /><path d="M -2410.0000 500.0000 L -810.0000 500.0000 L -810.0000 -500.0000 L -2410.0000 -500.0000 L -2410.0000 500.0000 Z" stroke="green" stroke-width="1" fill="none" /><path d="M -2410.0000 -510.0000 L -810.0000 -510.0000 L -810.0000 -1510.0000 L -2410.0000 -1510.0000 L -2410.0000 -510.0000 Z" stroke="green" stroke-width="1" fill="none" /><path d="M -2410.0000 -1520.0000 L -810.0000 -1520.0000 L -810.0000 -2520.0000 L -2410.0000 -2520.0000 L -2410.0000 -1520.0000 Z" stroke="green" stroke-width="1" fill="none" /><path d="M -2410.0000 -2530.0000 L -810.0000 -2530.0000 L -810.0000 -3530.0000 L -2410.0000 -3530.0000 L -2410.0000 -2530.0000 Z" stroke="green" stroke-width="1" fill="none" /><path d="M -2410.0000 -3540.0000 L -810.0000 -3540.0000 L -810.0000 -4540.0000 L -2410.0000 -4540.0000 L -2410.0000 -3540.0000 Z" stroke="green" stroke-width="1" fill="none" /><path d="M -800.0000 4035.0000 L 800.0000 4035.0000 L 800.0000 3035.0000 L -800.0000 3035.0000 L -800.0000 4035.0000 Z" stroke="green" stroke-width="1" fill="none" /><path d="M -800.0000 3025.0000 L 800.0000 3025.0000 L 800.0000 2025.0000 L -800.0000 2025.0000 L -800.0000 3025.0000 Z" stroke="green" stroke-width="1" fill="none" /><path d="M -800.0000 2015.0000 L 800.0000 2015.0000 L 800.0000 1015.0000 L -800.0000 1015.0000 L -800.0000 2015.0000 Z" stroke="green" stroke-width="1" fill="none" /><path d="M -800.0000 1005.0000 L 800.0000 1005.0000 L 800.0000 5.0000 L -800.0000 5.0000 L -800.0000 1005.0000 Z" stroke="green" stroke-width="1" fill="none" /><path d="M -800.0000 -5.0000 L 800.0000 -5.0000 L 800.0000 -1005.0000 L -800.0000 -1005.0000 L -800.0000 -5.0000 Z" stroke="green" stroke-width="1" fill="none" /><path d="M -800.0000 -1015.0000 L 800.0000 -1015.0000 L 800.0000 -2015.0000 L -800.0000 -2015.0000 L -800.0000 -1015.0000 Z" stroke="green" stroke-width="1" fill="none" /><path d="M -800.0000 -2025.0000 L 800.0000 -2025.0000 L 800.0000 -3025.0000 L -800.0000 -3025.0000 L -800.0000 -2025.0000 Z" stroke="green" stroke-width="1" fill="none" /><path d="M -800.0000 -3035.0000 L 800.0000 -3035.0000 L 800.0000 -4035.0000 L -800.0000 -4035.0000 L -800.0000 -3035.0000 Z" stroke="green" stroke-width="1" fill="none" /><path d="M 810.0000 4540.0000 L 2410.0000 4540.0000 L 2410.0000 3540.0000 L 810.0000 3540.0000 L 810.0000 4540.0000 Z" stroke="green" stroke-width="1" fill="none" /><path d="M 810.0000 3530.0000 L 2410.0000 3530.0000 L 2410.0000 2530.0000 L 810.0000 2530.0000 L 810.0000 3530.0000 Z" stroke="green" stroke-width="1" fill="none" /><path d="M 810.0000 2520.0000 L 2410.0000 2520.0000 L 2410.0000 1520.0000 L 810.0000 1520.0000 L 810.0000 2520.0000 Z" stroke="green" stroke-width="1" fill="none" /><path d="M 810.0000 1510.0000 L 2410.0000 1510.0000 L 2410.0000 510.0000 L 810.0000 510.0000 L 810.0000 1510.0000 Z" stroke="green" stroke-width="1" fill="none" /><path d="M 810.0000 500.0000 L 2410.0000 500.0000 L 2410.0000 -500.0000 L 810.0000 -500.0000 L 810.0000 500.0000 Z" stroke="green" stroke-width="1" fill="none" /><path d="M 810.0000 -510.0000 L 2410.0000 -510.0000 L 2410.0000 -1510.0000 L 810.0000 -1510.0000 L 810.0000 -510.0000 Z" stroke="green" stroke-width="1" fill="none" /><path d="M 810.0000 -1520.0000 L 2410.0000 -1520.0000 L 2410.0000 -2520.0000 L 810.0000 -2520.0000 L 810.0000 -1520.0000 Z" stroke="green" stroke-width="1" fill="none" /><path d="M 810.0000 -2530.0000 L 2410.0000 -2530.0000 L 2410.0000 -3530.0000 L 810.0000 -3530.0000 L 810.0000 -2530.0000 Z" stroke="green" stroke-width="1" fill="none" /><path d="M 810.0000 -3540.0000 L 2410.0000 -3540.0000 L 2410.0000 -4540.0000 L 810.0000 -4540.0000 L 810.0000 -3540.0000 Z" stroke="green" stroke-width="1" fill="none" /><path d="M 2420.0000 4035.0000 L 4020.0000 4035.0000 L 4020.0000 3035.0000 L 2420.0000 3035.0000 L 2420.0000 4035.0000 Z" stroke="green" stroke-width="1" fill="none" /><path d="M 2420.0000 3025.0000 L 4020.0000 3025.0000 L 4020.0000 2025.0000 L 2420.0000 2025.0000 L 2420.0000 3025.0000 Z" stroke="green" stroke-width="1" fill="none" /><path d="M 2420.0000 2015.0000 L 4020.0000 2015.0000 L 4020.0000 1015.0000 L 2420.0000 1015.0000 L 2420.0000 2015.0000 Z" stroke="green" stroke-width="1" fill="none" /><path d="M 2420.0000 1005.0000 L 4020.0000 1005.0000 L 4020.0000 5.0000 L 2420.0000 5.0000 L 2420.0000 1005.0000 Z" stroke="green" stroke-width="1" fill="none" /><path d="M 2420.0000 -5.0000 L 4020.0000 -5.0000 L 4020.0000 -1005.0000 L 2420.0000 -1005.0000 L 2420.0000 -5.0000 Z" stroke="green" stroke-width="1" fill="none" /><path d="M 2420.0000 -1015.0000 L 4020.0000 -1015.0000 L 4020.0000 -2015.0000 L 2420.0000 -2015.0000 L 2420.0000 -1015.0000 Z" stroke="green" stroke-width="1" fill="none" /><path d="M 2420.0000 -2025.0000 L 4020.0000 -2025.0000 L 4020.0000 -3025.0000 L 2420.0000 -3025.0000 L 2420.0000 -2025.0000 Z" stroke="green" stroke-width="1" fill="none" /><path d="M 2420.0000 -3035.0000 L 4020.0000 -3035.0000 L 4020.0000 -4035.0000 L 2420.0000 -4035.0000 L 2420.0000 -3035.0000 Z" stroke="green" stroke-width="1" fill="none" /><path d="M 4030.0000 3530.0000 L 5630.0000 3530.0000 L 5630.0000 2530.0000 L 4030.0000 2530.0000 L 4030.0000 3530.0000 Z" stroke="green" stroke-width="1" fill="none" /><path d="M 4030.0000 2520.0000 L 5630.0000 2520.0000 L 5630.0000 1520.0000 L 4030.0000 1520.0000 L 4030.0000 2520.0000 Z" stroke="green" stroke-width="1" fill="none" /><path d="M 4030.0000 1510.0000 L 5630.0000 1510.0000 L 5630.0000 510.0000 L 4030.0000 510.0000 L 4030.0000 1510.0000 Z" stroke="green" stroke-width="1" fill="none" /><path d="M 4030.0000 500.0000 L 5630.0000 500.0000 L 5630.0000 -500.0000 L 4030.0000 -500.0000 L 4030.0000 500.0000 Z" stroke="green" stroke-width="1" fill="none" /><path d="M 4030.0000 -510.0000 L 5630.0000 -510.0000 L 5630.0000 -1510.0000 L 4030.0000 -1510.0000 L 4030.0000 -510.0000 Z" stroke="green" stroke-width="1" fill="none" /><path d="M 4030.0000 -1520.0000 L 5630.0000 -1520.0000 L 5630.0000 -2520.0000 L 4030.0000 -2520.0000 L 4030.0000 -1520.0000 Z" stroke="green" stroke-width="1" fill="none" /><path d="M 4030.0000 -2530.0000 L 5630.0000 -2530.0000 L 5630.0000 -3530.0000 L 4030.0000 -3530.0000 L 4030.0000 -2530.0000 Z" stroke="green" stroke-width="1" fill="none" /><path d="M 5640.0000 2015.0000 L 7240.0000 2015.0000 L 7240.0000 1015.0000 L 5640.0000 1015.0000 L 5640.0000 2015.0000 Z" stroke="green" stroke-width="1" fill="none" /><path d="M 5640.0000 1005.0000 L 7240.0000 1005.0000 L 7240.0000 5.0000 L 5640.0000 5.0000 L 5640.0000 1005.0000 Z" stroke="green" stroke-width="1" fill="none" /><path d="M 5640.0000 -5.0000 L 7240.0000 -5.0000 L 7240.0000 -1005.0000 L 5640.0000 -1005.0000 L 5640.0000 -5.0000 Z" stroke="green" stroke-width="1" fill="none" /><path d="M 5640.0000 -1015.0000 L 7240.0000 -1015.0000 L 7240.0000 -2015.0000 L 5640.0000 -2015.0000 L 5640.0000 -1015.0000 Z" stroke="green" stroke-width="1" fill="none" /></svg>