0
SECTION
2
ENTITIES
0
LINE
8
PARAMETRIX
10
-7240.0000
20
-2015.0000
11
-5640.0000
21
-2015.0000
0
LINE
8
PARAMETRIX
10
-5640.0000
20
-2015.0000
11
-5640.0000
21
-1015.0000
0
LINE
8
PARAMETRIX
10
-5640.0000
20
-1015.0000
11
-7240.0000
21
-1015.0000
0
LINE
8
PARAMETRIX
10
-7240.0000
20
-1015.0000
11
-7240.0000
21
-2015.0000
0
LINE
8
PARAMETRIX
10
-7240.0000
20
-1005.0000
11
-5640.0000
21
-1005.0000
0
LINE
8
PARAMETRIX
10
-5640.0000
20
-1005.0000
11
-5640.0000
21
-5.0000
0
LINE
8
PARAMETRIX
10
-5640.0000
20
-5.0000
11
-7240.0000
21
-5.0000
0
LINE
8
PARAMETRIX
10
-7240.0000
20
-5.0000
11
-7240.0000
21
-1005.0000
0
LINE
8
PARAMETRIX
10
-7240.0000
20
5.0000
11
-5640.0000
21
5.0000
0
LINE
8
PARAMETRIX
10
-5640.0000
20
5.0000
11
-5640.0000
21
1005.0000
0
LINE
8
PARAMETRIX
10
-5640.0000
20
1005.0000
11
-7240.0000
21
1005.0000
0
LINE
8
PARAMETRIX
10
-7240.0000
20
1005.0000
11
-7240.0000
21
5.0000
0
LINE
8
PARAMETRIX
10
-7240.0000
20
1015.0000
11
-5640.0000
21
1015.0000
0
LINE
8
PARAMETRIX
10
-5640.0000
20
1015.0000
11
-5640.0000
21
2015.0000
0
LINE
8
PARAMETRIX
10
-5640.0000
20
2015.0000
11
-7240.0000
21
2015.0000
0
LINE
8
PARAMETRIX
10
-7240.0000
20
2015.0000
11
-7240.0000
21
1015.0000
0
LINE
8
PARAMETRIX
10
-5630.0000
20
-3530.0000
11
-4030.0000
21
-3530.0000
0
LINE
8
PARAMETRIX
10
-4030.0000
20
-3530.0000
11
-4030.0000
21
-2530.0000
0
LINE
8
PARAMETRIX
10
-4030.0000
20
-2530.0000
11
-5630.0000
21
-2530.0000
0
LINE
8
PARAMETRIX
10
-5630.0000
20
-2530.0000
11
-5630.0000
21
-3530.0000
0
LINE
8
PARAMETRIX
10
-5630.0000
20
-2520.0000
11
-4030.0000
21
-2520.0000
0
LINE
8
PARAMETRIX
10
-4030.0000
20
-2520.0000
11
-4030.0000
21
-1520.0000
0
LINE
8
PARAMETRIX
10
-4030.0000
20
-1520.0000
11
-5630.0000
21
-1520.0000
0
LINE
8
PARAMETRIX
10
-5630.0000
20
-1520.0000
11
-5630.0000
21
-2520.0000
0
LINE
8
PARAMETRIX
10
-5630.0000
20
-1510.0000
11
-4030.0000
21
-1510.0000
0
LINE
8
PARAMETRIX
10
-4030.0000
20
-1510.0000
11
-4030.0000
21
-510.0000
0
LINE
8
PARAMETRIX
10
-4030.0000
20
-510.0000
11
-5630.0000
21
-510.0000
0
LINE
8
PARAMETRIX
10
-5630.0000
20
-510.0000
11
-5630.0000
21
-1510.0000
0
LINE
8
PARAMETRIX
10
-5630.0000
20
-500.0000
11
-4030.0000
21
-500.0000
0
LINE
8
PARAMETRIX
10
-4030.0000
20
-500.0000
11
-4030.0000
21
500.0000
0
LINE
8
PARAMETRIX
10
-4030.0000
20
500.0000
11
-5630.0000
21
500.0000
0
LINE
8
PARAMETRIX
10
-5630.0000
20
500.0000
11
-5630.0000
21
-500.0000
0
LINE
8
PARAMETRIX
10
-5630.0000
20
510.0000
11
-4030.0000
21
510.0000
0
LINE
8
PARAMETRIX
10
-4030.0000
20
510.0000
11
-4030.0000
21
1510.0000
0
LINE
8
PARAMETRIX
10
-4030.0000
20
1510.0000
11
-5630.0000
21
1510.0000
0
LINE
8
PARAMETRIX
10
-5630.0000
20
1510.0000
11
-5630.0000
21
510.0000
0
LINE
8
PARAMETRIX
10
-5630.0000
20
1520.0000
11
-4030.0000
21
1520.0000
0
LINE
8
PARAMETRIX
10
-4030.0000
20
1520.0000
11
-4030.0000
21
2520.0000
0
LINE
8
PARAMETRIX
10
-4030.0000
20
2520.0000
11
-5630.0000
21
2520.0000
0
LINE
8
PARAMETRIX
10
-5630.0000
20
2520.0000
11
-5630.0000
21
1520.0000
0
LINE
8
PARAMETRIX
10
-5630.0000
20
2530.0000
11
-4030.0000
21
2530.0000
0
LINE
8
PARAMETRIX
10
-4030.0000
20
2530.0000
11
-4030.0000
21
3530.0000
0
LINE
8
PARAMETRIX
10
-4030.0000
20
3530.0000
11
-5630.0000
21
3530.0000
0
LINE
8
PARAMETRIX
10
-5630.0000
20
3530.0000
11
-5630.0000
21
2530.0000
0
LINE
8
PARAMETRIX
10
-4020.0000
20
-4035.0000
11
-2420.0000
21
-4035.0000
0
LINE
8
PARAMETRIX
10
-2420.0000
20
-4035.0000
11
-2420.0000
21
-3035.0000
0
LINE
8
PARAMETRIX
10
-2420.0000
20
-3035.0000
11
-4020.0000
21
-3035.0000
0
LINE
8
PARAMETRIX
10
-4020.0000
20
-3035.0000
11
-4020.0000
21
-4035.0000
0
LINE
8
PARAMETRIX
10
-4020.0000
20
-3025.0000
11
-2420.0000
21
-3025.0000
0
LINE
8
PARAMETRIX
10
-2420.0000
20
-3025.0000
11
-2420.0000
21
-2025.0000
0
LINE
8
PARAMETRIX
10
-2420.0000
20
-2025.0000
11
-4020.0000
21
-2025.0000
0
LINE
8
PARAMETRIX
10
-4020.0000
20
-2025.0000
11
-4020.0000
21
-3025.0000
0
LINE
8
PARAMETRIX
10
-4020.0000
20
-2015.0000
11
-2420.0000
21
-2015.0000
0
LINE
8
PARAMETRIX
10
-2420.0000
20
-2015.0000
11
-2420.0000
21
-1015.0000
0
LINE
8
PARAMETRIX
10
-2420.0000
20
-1015.0000
11
-4020.0000
21
-1015.0000
0
LINE
8
PARAMETRIX
10
-4020.0000
20
-1015.0000
11
-4020.0000
21
-2015.0000
0
LINE
8
PARAMETRIX
10
-4020.0000
20
-1005.0000
11
-2420.0000
21
-1005.0000
0
LINE
8
PARAMETRIX
10
-2420.0000
20
-1005.0000
11
-2420.0000
21
-5.0000
0
LINE
8
PARAMETRIX
10
-2420.0000
20
-5.0000
11
-4020.0000
21
-5.0000
0
LINE
8
PARAMETRIX
10
-4020.0000
20
-5.0000
11
-4020.0000
21
-1005.0000
0
LINE
8
PARAMETRIX
10
-4020.0000
20
5.0000
11
-2420.0000
21
5.0000
0
LINE
8
PARAMETRIX
10
-2420.0000
20
5.0000
11
-2420.0000
21
1005.0000
0
LINE
8
PARAMETRIX
10
-2420.0000
20
1005.0000
11
-4020.0000
21
1005.0000
0
LINE
8
PARAMETRIX
10
-4020.0000
20
1005.0000
11
-4020.0000
21
5.0000
0
LINE
8
PARAMETRIX
10
-4020.0000
20
1015.0000
11
-2420.0000
21
1015.0000
0
LINE
8
PARAMETRIX
10
-2420.0000
20
1015.0000
11
-2420.0000
21
2015.0000
0
LINE
8
PARAMETRIX
10
-2420.0000
20
2015.0000
11
-4020.0000
21
2015.0000
0
LINE
8
PARAMETRIX
10
-4020.0000
20
2015.0000
11
-4020.0000
21
1015.0000
0
LINE
8
PARAMETRIX
10
-4020.0000
20
2025.0000
11
-2420.0000
21
2025.0000
0
LINE
8
PARAMETRIX
10
-2420.0000
20
2025.0000
11
-2420.0000
21
3025.0000
0
LINE
8
PARAMETRIX
10
-2420.0000
20
3025.0000
11
-4020.0000
21
3025.0000
0
LINE
8
PARAMETRIX
10
-4020.0000
20
3025.0000
11
-4020.0000
21
2025.0000
0
LINE
8
PARAMETRIX
10
-4020.0000
20
3035.0000
11
-2420.0000
21
3035.0000
0
LINE
8
PARAMETRIX
10
-2420.0000
20
3035.0000
11
-2420.0000
21
4035.0000
0
LINE
8
PARAMETRIX
10
-2420.0000
20
4035.0000
11
-4020.0000
21
4035.0000
0
LINE
8
PARAMETRIX
10
-4020.0000
20
4035.0000
11
-4020.0000
21
3035.0000
0
LINE
8
PARAMETRIX
10
-2410.0000
20
-4540.0000
11
-810.0000
21
-4540.0000
0
LINE
8
PARAMETRIX
10
-810.0000
20
-4540.0000
11
-810.0000
21
-3540.0000
0
LINE
8
PARAMETRIX
10
-810.0000
20
-3540.0000
11
-2410.0000
21
-3540.0000
0
LINE
8
PARAMETRIX
10
-2410.0000
20
-3540.0000
11
-2410.0000
21
-4540.0000
0
LINE
8
PARAMETRIX
10
-2410.0000
20
-3530.0000
11
-810.0000
21
-3530.0000
0
LINE
8
PARAMETRIX
10
-810.0000
20
-3530.0000
11
-810.0000
21
-2530.0000
0
LINE
8
PARAMETRIX
10
-810.0000
20
-2530.0000
11
-2410.0000
21
-2530.0000
0
LINE
8
PARAMETRIX
10
-2410.0000
20
-2530.0000
11
-2410.0000
21
-3530.0000
0
LINE
8
PARAMETRIX
10
-2410.0000
20
-2520.0000
11
-810.0000
21
-2520.0000
0
LINE
8
PARAMETRIX
10
-810.0000
20
-2520.0000
11
-810.0000
21
-1520.0000
0
LINE
8
PARAMETRIX
10
-810.0000
20
-1520.0000
11
-2410.0000
21
-1520.0000
0
LINE
8
PARAMETRIX
10
-2410.0000
20
-1520.0000
11
-2410.0000
21
-2520.0000
0
LINE
8
PARAMETRIX
10
-2410.0000
20
-1510.0000
11
-810.0000
21
-1510.0000
0
LINE
8
PARAMETRIX
10
-810.0000
20
-1510.0000
11
-810.0000
21
-510.0000
0
LINE
8
PARAMETRIX
10
-810.0000
20
-510.0000
11
-2410.0000
21
-510.0000
0
LINE
8
PARAMETRIX
10
-2410.0000
20
-510.0000
11
-2410.0000
21
-1510.0000
0
LINE
8
PARAMETRIX
10
-2410.0000
20
-500.0000
11
-810.0000
21
-500.0000
0
LINE
8
PARAMETRIX
10
-810.0000
20
-500.0000
11
-810.0000
21
500.0000
0
LINE
8
PARAMETRIX
10
-810.0000
20
500.0000
11
-2410.0000
21
500.0000
0
LINE
8
PARAMETRIX
10
-2410.0000
20
500.0000
11
-2410.0000
21
-500.0000
0
LINE
8
PARAMETRIX
10
-2410.0000
20
510.0000
11
-810.0000
21
510.0000
0
LINE
8
PARAMETRIX
10
-810.0000
20
510.0000
11
-810.0000
21
1510.0000
0
LINE
8
PARAMETRIX
10
-810.0000
20
1510.0000
11
-2410.0000
21
1510.0000
0
LINE
8
PARAMETRIX
10
-2410.0000
20
1510.0000
11
-2410.0000
21
510.0000
0
LINE
8
PARAMETRIX
10
-2410.0000
20
1520.0000
11
-810.0000
21
1520.0000
0
LINE
8
PARAMETRIX
10
-810.0000
20
1520.0000
11
-810.0000
21
2520.0000
0
LINE
8
PARAMETRIX
10
-810.0000
20
2520.0000
11
-2410.0000
21
2520.0000
0
LINE
8
PARAMETRIX
10
-2410.0000
20
2520.0000
11
-2410.0000
21
1520.0000
0
LINE
8
PARAMETRIX
10
-2410.0000
20
2530.0000
11
-810.0000
21
2530.0000
0
LINE
8
PARAMETRIX
10
-810.0000
20
2530.0000
11
-810.0000
21
3530.0000
0
LINE
8
PARAMETRIX
10
-810.0000
20
3530.0000
11
-2410.0000
21
3530.0000
0
LINE
8
PARAMETRIX
10
-2410.0000
20
3530.0000
11
-2410.0000
21
2530.0000
0
LINE
8
PARAMETRIX
10
-2410.0000
20
3540.0000
11
-810.0000
21
3540.0000
0
LINE
8
PARAMETRIX
10
-810.0000
20
3540.0000
11
-810.0000
21
4540.0000
0
LINE
8
PARAMETRIX
10
-810.0000
20
4540.0000
11
-2410.0000
21
4540.0000
0
LINE
8
PARAMETRIX
10
-2410.0000
20
4540.0000
11
-2410.0000
21
3540.0000
0
LINE
8
PARAMETRIX
10
-800.0000
20
-4035.0000
11
800.0000
21
-4035.0000
0
LINE
8
PARAMETRIX
10
800.0000
20
-4035.0000
11
800.0000
21
-3035.0000
0
LINE
8
PARAMETRIX
10
800.0000
20
-3035.0000
11
-800.0000
21
-3035.0000
0
LINE
8
PARAMETRIX
10
-800.0000
20
-3035.0000
11
-800.0000
21
-4035.0000
0
LINE
8
PARAMETRIX
10
-800.0000
20
-3025.0000
11
800.0000
21
-3025.0000
0
LINE
8
PARAMETRIX
10
800.0000
20
-3025.0000
11
800.0000
21
-2025.0000
0
LINE
8
PARAMETRIX
10
800.0000
20
-2025.0000
11
-800.0000
21
-2025.0000
0
LINE
8
PARAMETRIX
10
-800.0000
20
-2025.0000
11
-800.0000
21
-3025.0000
0
LINE
8
PARAMETRIX
10
-800.0000
20
-2015.0000
11
800.0000
21
-2015.0000
0
LINE
8
PARAMETRIX
10
800.0000
20
-2015.0000
11
800.0000
21
-1015.0000
0
LINE
8
PARAMETRIX
10
800.0000
20
-1015.0000
11
-800.0000
21
-1015.0000
0
LINE
8
PARAMETRIX
10
-800.0000
20
-1015.0000
11
-800.0000
21
-2015.0000
0
LINE
8
PARAMETRIX
10
-800.0000
20
-1005.0000
11
800.0000
21
-1005.0000
0
LINE
8
PARAMETRIX
10
800.0000
20
-1005.0000
11
800.0000
21
-5.0000
0
LINE
8
PARAMETRIX
10
800.0000
20
-5.0000
11
-800.0000
21
-5.0000
0
LINE
8
PARAMETRIX
10
-800.0000
20
-5.0000
11
-800.0000
21
-1005.0000
0
LINE
8
PARAMETRIX
10
-800.0000
20
5.0000
11
800.0000
21
5.0000
0
LINE
8
PARAMETRIX
10
800.0000
20
5.0000
11
800.0000
21
1005.0000
0
LINE
8
PARAMETRIX
10
800.0000
20
1005.0000
11
-800.0000
21
1005.0000
0
LINE
8
PARAMETRIX
10
-800.0000
20
1005.0000
11
-800.0000
21
5.0000
0
LINE
8
PARAMETRIX
10
-800.0000
20
1015.0000
11
800.0000
21
1015.0000
0
LINE
8
PARAMETRIX
10
800.0000
20
1015.0000
11
800.0000
21
2015.0000
0
LINE
8
PARAMETRIX
10
800.0000
20
2015.0000
11
-800.0000
21
2015.0000
0
LINE
8
PARAMETRIX
10
-800.0000
20
2015.0000
11
-800.0000
21
1015.0000
0
LINE
8
PARAMETRIX
10
-800.0000
20
2025.0000
11
800.0000
21
2025.0000
0
LINE
8
PARAMETRIX
10
800.0000
20
2025.0000
11
800.0000
21
3025.0000
0
LINE
8
PARAMETRIX
10
800.0000
20
3025.0000
11
-800.0000
21
3025.0000
0
LINE
8
PARAMETRIX
10
-800.0000
20
3025.0000
11
-800.0000
21
2025.0000
0
LINE
8
PARAMETRIX
10
-800.0000
20
3035.0000
11
800.0000
21
3035.0000
0
LINE
8
PARAMETRIX
10
800.0000
20
3035.0000
11
800.0000
21
4035.0000
0
LINE
8
PARAMETRIX
10
800.0000
20
4035.0000
11
-800.0000
21
4035.0000
0
LINE
8
PARAMETRIX
10
-800.0000
20
4035.0000
11
-800.0000
21
3035.0000
0
LINE
8
PARAMETRIX
10
810.0000
20
-4540.0000
11
2410.0000
21
-4540.0000
0
LINE
8
PARAMETRIX
10
2410.0000
20
-4540.0000
11
2410.0000
21
-3540.0000
0
LINE
8
PARAMETRIX
10
2410.0000
20
-3540.0000
11
810.0000
21
-3540.0000
0
LINE
8
PARAMETRIX
10
810.0000
20
-3540.0000
11
810.0000
21
-4540.0000
0
LINE
8
PARAMETRIX
10
810.0000
20
-3530.0000
11
2410.0000
21
-3530.0000
0
LINE
8
PARAMETRIX
10
2410.0000
20
-3530.0000
11
2410.0000
21
-2530.0000
0
LINE
8
PARAMETRIX
10
2410.0000
20
-2530.0000
11
810.0000
21
-2530.0000
0
LINE
8
PARAMETRIX
10
810.0000
20
-2530.0000
11
810.0000
21
-3530.0000
0
LINE
8
PARAMETRIX
10
810.0000
20
-2520.0000
11
2410.0000
21
-2520.0000
0
LINE
8
PARAMETRIX
10
2410.0000
20
-2520.0000
11
2410.0000
21
-1520.0000
0
LINE
8
PARAMETRIX
10
2410.0000
20
-1520.0000
11
810.0000
21
-1520.0000
0
LINE
8
PARAMETRIX
10
810.0000
20
-1520.0000
11
810.0000
21
-2520.0000
0
LINE
8
PARAMETRIX
10
810.0000
20
-1510.0000
11
2410.0000
21
-1510.0000
0
LINE
8
PARAMETRIX
10
2410.0000
20
-1510.0000
11
2410.0000
21
-510.0000
0
LINE
8
PARAMETRIX
10
2410.0000
20
-510.0000
11
810.0000
21
-510.0000
0
LINE
8
PARAMETRIX
10
810.0000
20
-510.0000
11
810.0000
21
-1510.0000
0
LINE
8
PARAMETRIX
10
810.0000
20
-500.0000
11
2410.0000
21
-500.0000
0
LINE
8
PARAMETRIX
10
2410.0000
20
-500.0000
11
2410.0000
21
500.0000
0
LINE
8
PARAMETRIX
10
2410.0000
20
500.0000
11
810.0000
21
500.0000
0
LINE
8
PARAMETRIX
10
810.0000
20
500.0000
11
810.0000
21
-500.0000
0
LINE
8
PARAMETRIX
10
810.0000
20
510.0000
11
2410.0000
21
510.0000
0
LINE
8
PARAMETRIX
10
2410.0000
20
510.0000
11
2410.0000
21
1510.0000
0
LINE
8
PARAMETRIX
10
2410.0000
20
1510.0000
11
810.0000
21
1510.0000
0
LINE
8
PARAMETRIX
10
810.0000
20
1510.0000
11
810.0000
21
510.0000
0
LINE
8
PARAMETRIX
10
810.0000
20
1520.0000
11
2410.0000
21
1520.0000
0
LINE
8
PARAMETRIX
10
2410.0000
20
1520.0000
11
2410.0000
21
2520.0000
0
LINE
8
PARAMETRIX
10
2410.0000
20
2520.0000
11
810.0000
21
2520.0000
0
LINE
8
PARAMETRIX
10
810.0000
20
2520.0000
11
810.0000
21
1520.0000
0
LINE
8
PARAMETRIX
10
810.0000
20
2530.0000
11
2410.0000
21
2530.0000
0
LINE
8
PARAMETRIX
10
2410.0000
20
2530.0000
11
2410.0000
21
3530.0000
0
LINE
8
PARAMETRIX
10
2410.0000
20
3530.0000
11
810.0000
21
3530.0000
0
LINE
8
PARAMETRIX
10
810.0000
20
3530.0000
11
810.0000
21
2530.0000
0
LINE
8
PARAMETRIX
10
810.0000
20
3540.0000
11
2410.0000
21
3540.0000
0
LINE
8
PARAMETRIX
10
2410.0000
20
3540.0000
11
2410.0000
21
4540.0000
0
LINE
8
PARAMETRIX
10
2410.0000
20
4540.0000
11
810.0000
21
4540.0000
0
LINE
8
PARAMETRIX
10
810.0000
20
4540.0000
11
810.0000
21
3540.0000
0
LINE
8
PARAMETRIX
10
2420.0000
20
-4035.0000
11
4020.0000
21
-4035.0000
0
LINE
8
PARAMETRIX
10
4020.0000
20
-4035.0000
11
4020.0000
21
-3035.0000
0
LINE
8
PARAMETRIX
10
4020.0000
20
-3035.0000
11
2420.0000
21
-3035.0000
0
LINE
8
PARAMETRIX
10
2420.0000
20
-3035.0000
11
2420.0000
21
-4035.0000
0
LINE
8
PARAMETRIX
10
2420.0000
20
-3025.0000
11
4020.0000
21
-3025.0000
0
LINE
8
PARAMETRIX
10
4020.0000
20
-3025.0000
11
4020.0000
21
-2025.0000
0
LINE
8
PARAMETRIX
10
4020.0000
20
-2025.0000
11
2420.0000
21
-2025.0000
0
LINE
8
PARAMETRIX
10
2420.0000
20
-2025.0000
11
2420.0000
21
-3025.0000
0
LINE
8
PARAMETRIX
10
2420.0000
20
-2015.0000
11
4020.0000
21
-2015.0000
0
LINE
8
PARAMETRIX
10
4020.0000
20
-2015.0000
11
4020.0000
21
-1015.0000
0
LINE
8
PARAMETRIX
10
4020.0000
20
-1015.0000
11
2420.0000
21
-1015.0000
0
LINE
8
PARAMETRIX
10
2420.0000
20
-1015.0000
11
2420.0000
21
-2015.0000
0
LINE
8
PARAMETRIX
10
2420.0000
20
-1005.0000
11
4020.0000
21
-1005.0000
0
LINE
8
PARAMETRIX
10
4020.0000
20
-1005.0000
11
4020.0000
21
-5.0000
0
LINE
8
PARAMETRIX
10
4020.0000
20
-5.0000
11
2420.0000
21
-5.0000
0
LINE
8
PARAMETRIX
10
2420.0000
20
-5.0000
11
2420.0000
21
-1005.0000
0
LINE
8
PARAMETRIX
10
2420.0000
20
5.0000
11
4020.0000
21
5.0000
0
LINE
8
PARAMETRIX
10
4020.0000
20
5.0000
11
4020.0000
21
1005.0000
0
LINE
8
PARAMETRIX
10
4020.0000
20
1005.0000
11
2420.0000
21
1005.0000
0
LINE
8
PARAMETRIX
10
2420.0000
20
1005.0000
11
2420.0000
21
5.0000
0
LINE
8
PARAMETRIX
10
2420.0000
20
1015.0000
11
4020.0000
21
1015.0000
0
LINE
8
PARAMETRIX
10
4020.0000
20
1015.0000
11
4020.0000
21
2015.0000
0
LINE
8
PARAMETRIX
10
4020.0000
20
2015.0000
11
2420.0000
21
2015.0000
0
LINE
8
PARAMETRIX
10
2420.0000
20
2015.0000
11
2420.0000
21
1015.0000
0
LINE
8
PARAMETRIX
10
2420.0000
20
2025.0000
11
4020.0000
21
2025.0000
0
LINE
8
PARAMETRIX
10
4020.0000
20
2025.0000
11
4020.0000
21
3025.0000
0
LINE
8
PARAMETRIX
10
4020.0000
20
3025.0000
11
2420.0000
21
3025.0000
0
LINE
8
PARAMETRIX
10
2420.0000
20
3025.0000
11
2420.0000
21
2025.0000
0
LINE
8
PARAMETRIX
10
2420.0000
20
3035.0000
11
4020.0000
21
3035.0000
0
LINE
8
PARAMETRIX
10
4020.0000
20
3035.0000
11
4020.0000
21
4035.0000
0
LINE
8
PARAMETRIX
10
4020.0000
20
4035.0000
11
2420.0000
21
4035.0000
0
LINE
8
PARAMETRIX
10
2420.0000
20
4035.0000
11
2420.0000
21
3035.0000
0
LINE
8
PARAMETRIX
10
4030.0000
20
-3530.0000
11
5630.0000
21
-3530.0000
0
LINE
8
PARAMETRIX
10
5630.0000
20
-3530.0000
11
5630.0000
21
-2530.0000
0
LINE
8
PARAMETRIX
10
5630.0000
20
-2530.0000
11
4030.0000
21
-2530.0000
0
LINE
8
PARAMETRIX
10
4030.0000
20
-2530.0000
11
4030.0000
21
-3530.0000
0
LINE
8
PARAMETRIX
10
4030.0000
20
-2520.0000
11
5630.0000
21
-2520.0000
0
LINE
8
PARAMETRIX
10
5630.0000
20
-2520.0000
11
5630.0000
21
-1520.0000
0
LINE
8
PARAMETRIX
10
5630.0000
20
-1520.0000
11
4030.0000
21
-1520.0000
0
LINE
8
PARAMETRIX
10
4030.0000
20
-1520.0000
11
4030.0000
21
-2520.0000
0
LINE
8
PARAMETRIX
10
4030.0000
20
-1510.0000
11
5630.0000
21
-1510.0000
0
LINE
8
PARAMETRIX
10
5630.0000
20
-1510.0000
11
5630.0000
21
-510.0000
0
LINE
8
PARAMETRIX
10
5630.0000
20
-510.0000
11
4030.0000
21
-510.0000
0
LINE
8
PARAMETRIX
10
4030.0000
20
-510.0000
11
4030.0000
21
-1510.0000
0
LINE
8
PARAMETRIX
10
4030.0000
20
-500.0000
11
5630.0000
21
-500.0000
0
LINE
8
PARAMETRIX
10
5630.0000
20
-500.0000
11
5630.0000
21
500.0000
0
LINE
8
PARAMETRIX
10
5630.0000
20
500.0000
11
4030.0000
21
500.0000
0
LINE
8
PARAMETRIX
10
4030.0000
20
500.0000
11
4030.0000
21
-500.0000
0
LINE
8
PARAMETRIX
10
4030.0000
20
510.0000
11
5630.0000
21
510.0000
0
LINE
8
PARAMETRIX
10
5630.0000
20
510.0000
11
5630.0000
21
1510.0000
0
LINE
8
PARAMETRIX
10
5630.0000
20
1510.0000
11
4030.0000
21
1510.0000
0
LINE
8
PARAMETRIX
10
4030.0000
20
1510.0000
11
4030.0000
21
510.0000
0
LINE
8
PARAMETRIX
10
4030.0000
20
1520.0000
11
5630.0000
21
1520.0000
0
LINE
8
PARAMETRIX
10
5630.0000
20
1520.0000
11
5630.0000
21
2520.0000
0
LINE
8
PARAMETRIX
10
5630.0000
20
2520.0000
11
4030.0000
21
2520.0000
0
LINE
8
PARAMETRIX
10
4030.0000
20
2520.0000
11
4030.0000
21
1520.0000
0
LINE
8
PARAMETRIX
10
4030.0000
20
2530.0000
11
5630.0000
21
2530.0000
0
LINE
8
PARAMETRIX
10
5630.0000
20
2530.0000
11
5630.0000
21
3530.0000
0
LINE
8
PARAMETRIX
10
5630.0000
20
3530.0000
11
4030.0000
21
3530.0000
0
LINE
8
PARAMETRIX
10
4030.0000
20
3530.0000
11
4030.0000
21
2530.0000
0
LINE
8
PARAMETRIX
10
5640.0000
20
-2015.0000
11
7240.0000
21
-2015.0000
0
LINE
8
PARAMETRIX
10
7240.0000
20
-2015.0000
11
7240.0000
21
-1015.0000
0
LINE
8
PARAMETRIX
10
7240.0000
20
-1015.0000
11
5640.0000
21
-1015.0000
0
LINE
8
PARAMETRIX
10
5640.0000
20
-1015.0000
11
5640.0000
21
-2015.0000
0
LINE
8
PARAMETRIX
10
5640.0000
20
-1005.0000
11
7240.0000
21
-1005.0000
0
LINE
8
PARAMETRIX
10
7240.0000
20
-1005.0000
11
7240.0000
21
-5.0000
0
LINE
8
PARAMETRIX
10
7240.0000
20
-5.0000
11
5640.0000
21
-5.0000
0
LINE
8
PARAMETRIX
10
5640.0000
20
-5.0000
11
5640.0000
21
-1005.0000
0
LINE
8
PARAMETRIX
10
5640.0000
20
5.0000
11
7240.0000
21
5.0000
0
LINE
8
PARAMETRIX
10
7240.0000
20
5.0000
11
7240.0000
21
1005.0000
0
LINE
8
PARAMETRIX
10
7240.0000
20
1005.0000
11
5640.0000
21
1005.0000
0
LINE
8
PARAMETRIX
10
5640.0000
20
1005.0000
11
5640.0000
21
5.0000
0
LINE
8
PARAMETRIX
10
5640.0000
20
1015.0000
11
7240.0000
21
1015.0000
0
LINE
8
PARAMETRIX
10
7240.0000
20
1015.0000
11
7240.0000
21
2015.0000
0
LINE
8
PARAMETRIX
10
7240.0000
20
2015.0000
11
5640.0000
21
2015.0000
0
LINE
8
PARAMETRIX
10
5640.0000
20
2015.0000
11
5640.0000
21
1015.0000
0
ENDSEC
0
EOF
