0
SECTION
2
ENTITIES
0
LINE
8
PARAMETRIX
10
-8954.2857
20
-5415.0000
11
-7354.2857
21
-5415.0000
0
LINE
8
PARAMETRIX
10
-7354.2857
20
-5415.0000
11
-7354.2857
21
-4415.0000
0
LINE
8
PARAMETRIX
10
-7354.2857
20
-4415.0000
11
-8954.2857
21
-4415.0000
0
LINE
8
PARAMETRIX
10
-8954.2857
20
-4415.0000
11
-8954.2857
21
-5415.0000
0
LINE
8
PARAMETRIX
10
-8954.2857
20
-4405.0000
11
-7354.2857
21
-4405.0000
0
LINE
8
PARAMETRIX
10
-7354.2857
20
-4405.0000
11
-7354.2857
21
-3405.0000
0
LINE
8
PARAMETRIX
10
-7354.2857
20
-3405.0000
11
-8954.2857
21
-3405.0000
0
LINE
8
PARAMETRIX
10
-8954.2857
20
-3405.0000
11
-8954.2857
21
-4405.0000
0
LINE
8
PARAMETRIX
10
-8954.2857
20
-3300.8725
11
-7354.2857
21
-3300.8725
0
LINE
8
PARAMETRIX
10
-7354.2857
20
-3300.8725
11
-7354.2857
21
-2300.8725
0
LINE
8
PARAMETRIX
10
-7354.2857
20
-2300.8725
11
-8954.2857
21
-2300.8725
0
LINE
8
PARAMETRIX
10
-8954.2857
20
-2300.8725
11
-8954.2857
21
-3300.8725
0
LINE
8
PARAMETRIX
10
-8954.2857
20
-1985.2422
11
-7354.2857
21
-1985.2422
0
LINE
8
PARAMETRIX
10
-7354.2857
20
-1985.2422
11
-7354.2857
21
-985.2422
0
LINE
8
PARAMETRIX
10
-7354.2857
20
-985.2422
11
-8954.2857
21
-985.2422
0
LINE
8
PARAMETRIX
10
-8954.2857
20
-985.2422
11
-8954.2857
21
-1985.2422
0
LINE
8
PARAMETRIX
10
-8954.2857
20
-500.0000
11
-7354.2857
21
-500.0000
0
LINE
8
PARAMETRIX
10
-7354.2857
20
-500.0000
11
-7354.2857
21
500.0000
0
LINE
8
PARAMETRIX
10
-7354.2857
20
500.0000
11
-8954.2857
21
500.0000
0
LINE
8
PARAMETRIX
10
-8954.2857
20
500.0000
11
-8954.2857
21
-500.0000
0
LINE
8
PARAMETRIX
10
-8954.2857
20
985.2422
11
-7354.2857
21
985.2422
0
LINE
8
PARAMETRIX
10
-7354.2857
20
985.2422
11
-7354.2857
21
1985.2422
0
LINE
8
PARAMETRIX
10
-7354.2857
20
1985.2422
11
-8954.2857
21
1985.2422
0
LINE
8
PARAMETRIX
10
-8954.2857
20
1985.2422
11
-8954.2857
21
985.2422
0
LINE
8
PARAMETRIX
10
-8954.2857
20
2300.8725
11
-7354.2857
21
2300.8725
0
LINE
8
PARAMETRIX
10
-7354.2857
20
2300.8725
11
-7354.2857
21
3300.8725
0
LINE
8
PARAMETRIX
10
-7354.2857
20
3300.8725
11
-8954.2857
21
3300.8725
0
LINE
8
PARAMETRIX
10
-8954.2857
20
3300.8725
11
-8954.2857
21
2300.8725
0
LINE
8
PARAMETRIX
10
-8954.2857
20
3405.0000
11
-7354.2857
21
3405.0000
0
LINE
8
PARAMETRIX
10
-7354.2857
20
3405.0000
11
-7354.2857
21
4405.0000
0
LINE
8
PARAMETRIX
10
-7354.2857
20
4405.0000
11
-8954.2857
21
4405.0000
0
LINE
8
PARAMETRIX
10
-8954.2857
20
4405.0000
11
-8954.2857
21
3405.0000
0
LINE
8
PARAMETRIX
10
-8954.2857
20
4415.0000
11
-7354.2857
21
4415.0000
0
LINE
8
PARAMETRIX
10
-7354.2857
20
4415.0000
11
-7354.2857
21
5415.0000
0
LINE
8
PARAMETRIX
10
-7354.2857
20
5415.0000
11
-8954.2857
21
5415.0000
0
LINE
8
PARAMETRIX
10
-8954.2857
20
5415.0000
11
-8954.2857
21
4415.0000
0
LINE
8
PARAMETRIX
10
-7344.2857
20
-5415.0000
11
-5744.2857
21
-5415.0000
0
LINE
8
PARAMETRIX
10
-5744.2857
20
-5415.0000
11
-5744.2857
21
-4415.0000
0
LINE
8
PARAMETRIX
10
-5744.2857
20
-4415.0000
11
-7344.2857
21
-4415.0000
0
LINE
8
PARAMETRIX
10
-7344.2857
20
-4415.0000
11
-7344.2857
21
-5415.0000
0
LINE
8
PARAMETRIX
10
-7344.2857
20
-4405.0000
11
-5744.2857
21
-4405.0000
0
LINE
8
PARAMETRIX
10
-5744.2857
20
-4405.0000
11
-5744.2857
21
-3405.0000
0
LINE
8
PARAMETRIX
10
-5744.2857
20
-3405.0000
11
-7344.2857
21
-3405.0000
0
LINE
8
PARAMETRIX
10
-7344.2857
20
-3405.0000
11
-7344.2857
21
-4405.0000
0
LINE
8
PARAMETRIX
10
-7344.2857
20
-3300.8725
11
-5744.2857
21
-3300.8725
0
LINE
8
PARAMETRIX
10
-5744.2857
20
-3300.8725
11
-5744.2857
21
-2300.8725
0
LINE
8
PARAMETRIX
10
-5744.2857
20
-2300.8725
11
-7344.2857
21
-2300.8725
0
LINE
8
PARAMETRIX
10
-7344.2857
20
-2300.8725
11
-7344.2857
21
-3300.8725
0
LINE
8
PARAMETRIX
10
-7344.2857
20
-1985.2422
11
-5744.2857
21
-1985.2422
0
LINE
8
PARAMETRIX
10
-5744.2857
20
-1985.2422
11
-5744.2857
21
-985.2422
0
LINE
8
PARAMETRIX
10
-5744.2857
20
-985.2422
11
-7344.2857
21
-985.2422
0
LINE
8
PARAMETRIX
10
-7344.2857
20
-985.2422
11
-7344.2857
21
-1985.2422
0
LINE
8
PARAMETRIX
10
-7344.2857
20
-500.0000
11
-5744.2857
21
-500.0000
0
LINE
8
PARAMETRIX
10
-5744.2857
20
-500.0000
11
-5744.2857
21
500.0000
0
LINE
8
PARAMETRIX
10
-5744.2857
20
500.0000
11
-7344.2857
21
500.0000
0
LINE
8
PARAMETRIX
10
-7344.2857
20
500.0000
11
-7344.2857
21
-500.0000
0
LINE
8
PARAMETRIX
10
-7344.2857
20
985.2422
11
-5744.2857
21
985.2422
0
LINE
8
PARAMETRIX
10
-5744.2857
20
985.2422
11
-5744.2857
21
1985.2422
0
LINE
8
PARAMETRIX
10
-5744.2857
20
1985.2422
11
-7344.2857
21
1985.2422
0
LINE
8
PARAMETRIX
10
-7344.2857
20
1985.2422
11
-7344.2857
21
985.2422
0
LINE
8
PARAMETRIX
10
-7344.2857
20
2300.8725
11
-5744.2857
21
2300.8725
0
LINE
8
PARAMETRIX
10
-5744.2857
20
2300.8725
11
-5744.2857
21
3300.8725
0
LINE
8
PARAMETRIX
10
-5744.2857
20
3300.8725
11
-7344.2857
21
3300.8725
0
LINE
8
PARAMETRIX
10
-7344.2857
20
3300.8725
11
-7344.2857
21
2300.8725
0
LINE
8
PARAMETRIX
10
-7344.2857
20
3405.0000
11
-5744.2857
21
3405.0000
0
LINE
8
PARAMETRIX
10
-5744.2857
20
3405.0000
11
-5744.2857
21
4405.0000
0
LINE
8
PARAMETRIX
10
-5744.2857
20
4405.0000
11
-7344.2857
21
4405.0000
0
LINE
8
PARAMETRIX
10
-7344.2857
20
4405.0000
11
-7344.2857
21
3405.0000
0
LINE
8
PARAMETRIX
10
-7344.2857
20
4415.0000
11
-5744.2857
21
4415.0000
0
LINE
8
PARAMETRIX
10
-5744.2857
20
4415.0000
11
-5744.2857
21
5415.0000
0
LINE
8
PARAMETRIX
10
-5744.2857
20
5415.0000
11
-7344.2857
21
5415.0000
0
LINE
8
PARAMETRIX
10
-7344.2857
20
5415.0000
11
-7344.2857
21
4415.0000
0
LINE
8
PARAMETRIX
10
-5448.5714
20
-5415.0000
11
-3848.5714
21
-5415.0000
0
LINE
8
PARAMETRIX
10
-3848.5714
20
-5415.0000
11
-3848.5714
21
-4415.0000
0
LINE
8
PARAMETRIX
10
-3848.5714
20
-4415.0000
11
-5448.5714
21
-4415.0000
0
LINE
8
PARAMETRIX
10
-5448.5714
20
-4415.0000
11
-5448.5714
21
-5415.0000
0
LINE
8
PARAMETRIX
10
-5448.5714
20
-4405.0000
11
-3848.5714
21
-4405.0000
0
LINE
8
PARAMETRIX
10
-3848.5714
20
-4405.0000
11
-3848.5714
21
-3405.0000
0
LINE
8
PARAMETRIX
10
-3848.5714
20
-3405.0000
11
-5448.5714
21
-3405.0000
0
LINE
8
PARAMETRIX
10
-5448.5714
20
-3405.0000
11
-5448.5714
21
-4405.0000
0
LINE
8
PARAMETRIX
10
-5448.5714
20
-3300.8725
11
-3848.5714
21
-3300.8725
0
LINE
8
PARAMETRIX
10
-3848.5714
20
-3300.8725
11
-3848.5714
21
-2300.8725
0
LINE
8
PARAMETRIX
10
-3848.5714
20
-2300.8725
11
-5448.5714
21
-2300.8725
0
LINE
8
PARAMETRIX
10
-5448.5714
20
-2300.8725
11
-5448.5714
21
-3300.8725
0
LINE
8
PARAMETRIX
10
-5448.5714
20
-1985.2422
11
-3848.5714
21
-1985.2422
0
LINE
8
PARAMETRIX
10
-3848.5714
20
-1985.2422
11
-3848.5714
21
-985.2422
0
LINE
8
PARAMETRIX
10
-3848.5714
20
-985.2422
11
-5448.5714
21
-985.2422
0
LINE
8
PARAMETRIX
10
-5448.5714
20
-985.2422
11
-5448.5714
21
-1985.2422
0
LINE
8
PARAMETRIX
10
-5448.5714
20
-500.0000
11
-3848.5714
21
-500.0000
0
LINE
8
PARAMETRIX
10
-3848.5714
20
-500.0000
11
-3848.5714
21
500.0000
0
LINE
8
PARAMETRIX
10
-3848.5714
20
500.0000
11
-5448.5714
21
500.0000
0
LINE
8
PARAMETRIX
10
-5448.5714
20
500.0000
11
-5448.5714
21
-500.0000
0
LINE
8
PARAMETRIX
10
-5448.5714
20
985.2422
11
-3848.5714
21
985.2422
0
LINE
8
PARAMETRIX
10
-3848.5714
20
985.2422
11
-3848.5714
21
1985.2422
0
LINE
8
PARAMETRIX
10
-3848.5714
20
1985.2422
11
-5448.5714
21
1985.2422
0
LINE
8
PARAMETRIX
10
-5448.5714
20
1985.2422
11
-5448.5714
21
985.2422
0
LINE
8
PARAMETRIX
10
-5448.5714
20
2300.8725
11
-3848.5714
21
2300.8725
0
LINE
8
PARAMETRIX
10
-3848.5714
20
2300.8725
11
-3848.5714
21
3300.8725
0
LINE
8
PARAMETRIX
10
-3848.5714
20
3300.8725
11
-5448.5714
21
3300.8725
0
LINE
8
PARAMETRIX
10
-5448.5714
20
3300.8725
11
-5448.5714
21
2300.8725
0
LINE
8
PARAMETRIX
10
-5448.5714
20
3405.0000
11
-3848.5714
21
3405.0000
0
LINE
8
PARAMETRIX
10
-3848.5714
20
3405.0000
11
-3848.5714
21
4405.0000
0
LINE
8
PARAMETRIX
10
-3848.5714
20
4405.0000
11
-5448.5714
21
4405.0000
0
LINE
8
PARAMETRIX
10
-5448.5714
20
4405.0000
11
-5448.5714
21
3405.0000
0
LINE
8
PARAMETRIX
10
-5448.5714
20
4415.0000
11
-3848.5714
21
4415.0000
0
LINE
8
PARAMETRIX
10
-3848.5714
20
4415.0000
11
-3848.5714
21
5415.0000
0
LINE
8
PARAMETRIX
10
-3848.5714
20
5415.0000
11
-5448.5714
21
5415.0000
0
LINE
8
PARAMETRIX
10
-5448.5714
20
5415.0000
11
-5448.5714
21
4415.0000
0
LINE
8
PARAMETRIX
10
-3267.1429
20
-5415.0000
11
-1667.1429
21
-5415.0000
0
LINE
8
PARAMETRIX
10
-1667.1429
20
-5415.0000
11
-1667.1429
21
-4415.0000
0
LINE
8
PARAMETRIX
10
-1667.1429
20
-4415.0000
11
-3267.1429
21
-4415.0000
0
LINE
8
PARAMETRIX
10
-3267.1429
20
-4415.0000
11
-3267.1429
21
-5415.0000
0
LINE
8
PARAMETRIX
10
-3267.1429
20
-4405.0000
11
-1667.1429
21
-4405.0000
0
LINE
8
PARAMETRIX
10
-1667.1429
20
-4405.0000
11
-1667.1429
21
-3405.0000
0
LINE
8
PARAMETRIX
10
-1667.1429
20
-3405.0000
11
-3267.1429
21
-3405.0000
0
LINE
8
PARAMETRIX
10
-3267.1429
20
-3405.0000
11
-3267.1429
21
-4405.0000
0
LINE
8
PARAMETRIX
10
-3267.1429
20
-3300.8725
11
-1667.1429
21
-3300.8725
0
LINE
8
PARAMETRIX
10
-1667.1429
20
-3300.8725
11
-1667.1429
21
-2300.8725
0
LINE
8
PARAMETRIX
10
-1667.1429
20
-2300.8725
11
-3267.1429
21
-2300.8725
0
LINE
8
PARAMETRIX
10
-3267.1429
20
-2300.8725
11
-3267.1429
21
-3300.8725
0
LINE
8
PARAMETRIX
10
-3267.1429
20
-1985.2422
11
-1667.1429
21
-1985.2422
0
LINE
8
PARAMETRIX
10
-1667.1429
20
-1985.2422
11
-1667.1429
21
-985.2422
0
LINE
8
PARAMETRIX
10
-1667.1429
20
-985.2422
11
-3267.1429
21
-985.2422
0
LINE
8
PARAMETRIX
10
-3267.1429
20
-985.2422
11
-3267.1429
21
-1985.2422
0
LINE
8
PARAMETRIX
10
-3267.1429
20
-500.0000
11
-1667.1429
21
-500.0000
0
LINE
8
PARAMETRIX
10
-1667.1429
20
-500.0000
11
-1667.1429
21
500.0000
0
LINE
8
PARAMETRIX
10
-1667.1429
20
500.0000
11
-3267.1429
21
500.0000
0
LINE
8
PARAMETRIX
10
-3267.1429
20
500.0000
11
-3267.1429
21
-500.0000
0
LINE
8
PARAMETRIX
10
-3267.1429
20
985.2422
11
-1667.1429
21
985.2422
0
LINE
8
PARAMETRIX
10
-1667.1429
20
985.2422
11
-1667.1429
21
1985.2422
0
LINE
8
PARAMETRIX
10
-1667.1429
20
1985.2422
11
-3267.1429
21
1985.2422
0
LINE
8
PARAMETRIX
10
-3267.1429
20
1985.2422
11
-3267.1429
21
985.2422
0
LINE
8
PARAMETRIX
10
-3267.1429
20
2300.8725
11
-1667.1429
21
2300.8725
0
LINE
8
PARAMETRIX
10
-1667.1429
20
2300.8725
11
-1667.1429
21
3300.8725
0
LINE
8
PARAMETRIX
10
-1667.1429
20
3300.8725
11
-3267.1429
21
3300.8725
0
LINE
8
PARAMETRIX
10
-3267.1429
20
3300.8725
11
-3267.1429
21
2300.8725
0
LINE
8
PARAMETRIX
10
-3267.1429
20
3405.0000
11
-1667.1429
21
3405.0000
0
LINE
8
PARAMETRIX
10
-1667.1429
20
3405.0000
11
-1667.1429
21
4405.0000
0
LINE
8
PARAMETRIX
10
-1667.1429
20
4405.0000
11
-3267.1429
21
4405.0000
0
LINE
8
PARAMETRIX
10
-3267.1429
20
4405.0000
11
-3267.1429
21
3405.0000
0
LINE
8
PARAMETRIX
10
-3267.1429
20
4415.0000
11
-1667.1429
21
4415.0000
0
LINE
8
PARAMETRIX
10
-1667.1429
20
4415.0000
11
-1667.1429
21
5415.0000
0
LINE
8
PARAMETRIX
10
-1667.1429
20
5415.0000
11
-3267.1429
21
5415.0000
0
LINE
8
PARAMETRIX
10
-3267.1429
20
5415.0000
11
-3267.1429
21
4415.0000
0
LINE
8
PARAMETRIX
10
-800.0000
20
-5415.0000
11
800.0000
21
-5415.0000
0
LINE
8
PARAMETRIX
10
800.0000
20
-5415.0000
11
800.0000
21
-4415.0000
0
LINE
8
PARAMETRIX
10
800.0000
20
-4415.0000
11
-800.0000
21
-4415.0000
0
LINE
8
PARAMETRIX
10
-800.0000
20
-4415.0000
11
-800.0000
21
-5415.0000
0
LINE
8
PARAMETRIX
10
-800.0000
20
-4405.0000
11
800.0000
21
-4405.0000
0
LINE
8
PARAMETRIX
10
800.0000
20
-4405.0000
11
800.0000
21
-3405.0000
0
LINE
8
PARAMETRIX
10
800.0000
20
-3405.0000
11
-800.0000
21
-3405.0000
0
LINE
8
PARAMETRIX
10
-800.0000
20
-3405.0000
11
-800.0000
21
-4405.0000
0
LINE
8
PARAMETRIX
10
-800.0000
20
-3300.8725
11
800.0000
21
-3300.8725
0
LINE
8
PARAMETRIX
10
800.0000
20
-3300.8725
11
800.0000
21
-2300.8725
0
LINE
8
PARAMETRIX
10
800.0000
20
-2300.8725
11
-800.0000
21
-2300.8725
0
LINE
8
PARAMETRIX
10
-800.0000
20
-2300.8725
11
-800.0000
21
-3300.8725
0
LINE
8
PARAMETRIX
10
-800.0000
20
-1985.2422
11
800.0000
21
-1985.2422
0
LINE
8
PARAMETRIX
10
800.0000
20
-1985.2422
11
800.0000
21
-985.2422
0
LINE
8
PARAMETRIX
10
800.0000
20
-985.2422
11
-800.0000
21
-985.2422
0
LINE
8
PARAMETRIX
10
-800.0000
20
-985.2422
11
-800.0000
21
-1985.2422
0
LINE
8
PARAMETRIX
10
-800.0000
20
-500.0000
11
800.0000
21
-500.0000
0
LINE
8
PARAMETRIX
10
800.0000
20
-500.0000
11
800.0000
21
500.0000
0
LINE
8
PARAMETRIX
10
800.0000
20
500.0000
11
-800.0000
21
500.0000
0
LINE
8
PARAMETRIX
10
-800.0000
20
500.0000
11
-800.0000
21
-500.0000
0
LINE
8
PARAMETRIX
10
-800.0000
20
985.2422
11
800.0000
21
985.2422
0
LINE
8
PARAMETRIX
10
800.0000
20
985.2422
11
800.0000
21
1985.2422
0
LINE
8
PARAMETRIX
10
800.0000
20
1985.2422
11
-800.0000
21
1985.2422
0
LINE
8
PARAMETRIX
10
-800.0000
20
1985.2422
11
-800.0000
21
985.2422
0
LINE
8
PARAMETRIX
10
-800.0000
20
2300.8725
11
800.0000
21
2300.8725
0
LINE
8
PARAMETRIX
10
800.0000
20
2300.8725
11
800.0000
21
3300.8725
0
LINE
8
PARAMETRIX
10
800.0000
20
3300.8725
11
-800.0000
21
3300.8725
0
LINE
8
PARAMETRIX
10
-800.0000
20
3300.8725
11
-800.0000
21
2300.8725
0
LINE
8
PARAMETRIX
10
-800.0000
20
3405.0000
11
800.0000
21
3405.0000
0
LINE
8
PARAMETRIX
10
800.0000
20
3405.0000
11
800.0000
21
4405.0000
0
LINE
8
PARAMETRIX
10
800.0000
20
4405.0000
11
-800.0000
21
4405.0000
0
LINE
8
PARAMETRIX
10
-800.0000
20
4405.0000
11
-800.0000
21
3405.0000
0
LINE
8
PARAMETRIX
10
-800.0000
20
4415.0000
11
800.0000
21
4415.0000
0
LINE
8
PARAMETRIX
10
800.0000
20
4415.0000
11
800.0000
21
5415.0000
0
LINE
8
PARAMETRIX
10
800.0000
20
5415.0000
11
-800.0000
21
5415.0000
0
LINE
8
PARAMETRIX
10
-800.0000
20
5415.0000
11
-800.0000
21
4415.0000
0
LINE
8
PARAMETRIX
10
1667.1429
20
-5415.0000
11
3267.1429
21
-5415.0000
0
LINE
8
PARAMETRIX
10
3267.1429
20
-5415.0000
11
3267.1429
21
-4415.0000
0
LINE
8
PARAMETRIX
10
3267.1429
20
-4415.0000
11
1667.1429
21
-4415.0000
0
LINE
8
PARAMETRIX
10
1667.1429
20
-4415.0000
11
1667.1429
21
-5415.0000
0
LINE
8
PARAMETRIX
10
1667.1429
20
-4405.0000
11
3267.1429
21
-4405.0000
0
LINE
8
PARAMETRIX
10
3267.1429
20
-4405.0000
11
3267.1429
21
-3405.0000
0
LINE
8
PARAMETRIX
10
3267.1429
20
-3405.0000
11
1667.1429
21
-3405.0000
0
LINE
8
PARAMETRIX
10
1667.1429
20
-3405.0000
11
1667.1429
21
-4405.0000
0
LINE
8
PARAMETRIX
10
1667.1429
20
-3300.8725
11
3267.1429
21
-3300.8725
0
LINE
8
PARAMETRIX
10
3267.1429
20
-3300.8725
11
3267.1429
21
-2300.8725
0
LINE
8
PARAMETRIX
10
3267.1429
20
-2300.8725
11
1667.1429
21
-2300.8725
0
LINE
8
PARAMETRIX
10
1667.1429
20
-2300.8725
11
1667.1429
21
-3300.8725
0
LINE
8
PARAMETRIX
10
1667.1429
20
-1985.2422
11
3267.1429
21
-1985.2422
0
LINE
8
PARAMETRIX
10
3267.1429
20
-1985.2422
11
3267.1429
21
-985.2422
0
LINE
8
PARAMETRIX
10
3267.1429
20
-985.2422
11
1667.1429
21
-985.2422
0
LINE
8
PARAMETRIX
10
1667.1429
20
-985.2422
11
1667.1429
21
-1985.2422
0
LINE
8
PARAMETRIX
10
1667.1429
20
-500.0000
11
3267.1429
21
-500.0000
0
LINE
8
PARAMETRIX
10
3267.1429
20
-500.0000
11
3267.1429
21
500.0000
0
LINE
8
PARAMETRIX
10
3267.1429
20
500.0000
11
1667.1429
21
500.0000
0
LINE
8
PARAMETRIX
10
1667.1429
20
500.0000
11
1667.1429
21
-500.0000
0
LINE
8
PARAMETRIX
10
1667.1429
20
985.2422
11
3267.1429
21
985.2422
0
LINE
8
PARAMETRIX
10
3267.1429
20
985.2422
11
3267.1429
21
1985.2422
0
LINE
8
PARAMETRIX
10
3267.1429
20
1985.2422
11
1667.1429
21
1985.2422
0
LINE
8
PARAMETRIX
10
1667.1429
20
1985.2422
11
1667.1429
21
985.2422
0
LINE
8
PARAMETRIX
10
1667.1429
20
2300.8725
11
3267.1429
21
2300.8725
0
LINE
8
PARAMETRIX
10
3267.1429
20
2300.8725
11
3267.1429
21
3300.8725
0
LINE
8
PARAMETRIX
10
3267.1429
20
3300.8725
11
1667.1429
21
3300.8725
0
LINE
8
PARAMETRIX
10
1667.1429
20
3300.8725
11
1667.1429
21
2300.8725
0
LINE
8
PARAMETRIX
10
1667.1429
20
3405.0000
11
3267.1429
21
3405.0000
0
LINE
8
PARAMETRIX
10
3267.1429
20
3405.0000
11
3267.1429
21
4405.0000
0
LINE
8
PARAMETRIX
10
3267.1429
20
4405.0000
11
1667.1429
21
4405.0000
0
LINE
8
PARAMETRIX
10
1667.1429
20
4405.0000
11
1667.1429
21
3405.0000
0
LINE
8
PARAMETRIX
10
1667.1429
20
4415.0000
11
3267.1429
21
4415.0000
0
LINE
8
PARAMETRIX
10
3267.1429
20
4415.0000
11
3267.1429
21
5415.0000
0
LINE
8
PARAMETRIX
10
3267.1429
20
5415.0000
11
1667.1429
21
5415.0000
0
LINE
8
PARAMETRIX
10
1667.1429
20
5415.0000
11
1667.1429
21
4415.0000
0
LINE
8
PARAMETRIX
10
3848.5714
20
-5415.0000
11
5448.5714
21
-5415.0000
0
LINE
8
PARAMETRIX
10
5448.5714
20
-5415.0000
11
5448.5714
21
-4415.0000
0
LINE
8
PARAMETRIX
10
5448.5714
20
-4415.0000
11
3848.5714
21
-4415.0000
0
LINE
8
PARAMETRIX
10
3848.5714
20
-4415.0000
11
3848.5714
21
-5415.0000
0
LINE
8
PARAMETRIX
10
3848.5714
20
-4405.0000
11
5448.5714
21
-4405.0000
0
LINE
8
PARAMETRIX
10
5448.5714
20
-4405.0000
11
5448.5714
21
-3405.0000
0
LINE
8
PARAMETRIX
10
5448.5714
20
-3405.0000
11
3848.5714
21
-3405.0000
0
LINE
8
PARAMETRIX
10
3848.5714
20
-3405.0000
11
3848.5714
21
-4405.0000
0
LINE
8
PARAMETRIX
10
3848.5714
20
-3300.8725
11
5448.5714
21
-3300.8725
0
LINE
8
PARAMETRIX
10
5448.5714
20
-3300.8725
11
5448.5714
21
-2300.8725
0
LINE
8
PARAMETRIX
10
5448.5714
20
-2300.8725
11
3848.5714
21
-2300.8725
0
LINE
8
PARAMETRIX
10
3848.5714
20
-2300.8725
11
3848.5714
21
-3300.8725
0
LINE
8
PARAMETRIX
10
3848.5714
20
-1985.2422
11
5448.5714
21
-1985.2422
0
LINE
8
PARAMETRIX
10
5448.5714
20
-1985.2422
11
5448.5714
21
-985.2422
0
LINE
8
PARAMETRIX
10
5448.5714
20
-985.2422
11
3848.5714
21
-985.2422
0
LINE
8
PARAMETRIX
10
3848.5714
20
-985.2422
11
3848.5714
21
-1985.2422
0
LINE
8
PARAMETRIX
10
3848.5714
20
-500.0000
11
5448.5714
21
-500.0000
0
LINE
8
PARAMETRIX
10
5448.5714
20
-500.0000
11
5448.5714
21
500.0000
0
LINE
8
PARAMETRIX
10
5448.5714
20
500.0000
11
3848.5714
21
500.0000
0
LINE
8
PARAMETRIX
10
3848.5714
20
500.0000
11
3848.5714
21
-500.0000
0
LINE
8
PARAMETRIX
10
3848.5714
20
985.2422
11
5448.5714
21
985.2422
0
LINE
8
PARAMETRIX
10
5448.5714
20
985.2422
11
5448.5714
21
1985.2422
0
LINE
8
PARAMETRIX
10
5448.5714
20
1985.2422
11
3848.5714
21
1985.2422
0
LINE
8
PARAMETRIX
10
3848.5714
20
1985.2422
11
3848.5714
21
985.2422
0
LINE
8
PARAMETRIX
10
3848.5714
20
2300.8725
11
5448.5714
21
2300.8725
0
LINE
8
PARAMETRIX
10
5448.5714
20
2300.8725
11
5448.5714
21
3300.8725
0
LINE
8
PARAMETRIX
10
5448.5714
20
3300.8725
11
3848.5714
21
3300.8725
0
LINE
8
PARAMETRIX
10
3848.5714
20
3300.8725
11
3848.5714
21
2300.8725
0
LINE
8
PARAMETRIX
10
3848.5714
20
3405.0000
11
5448.5714
21
3405.0000
0
LINE
8
PARAMETRIX
10
5448.5714
20
3405.0000
11
5448.5714
21
4405.0000
0
LINE
8
PARAMETRIX
10
5448.5714
20
4405.0000
11
3848.5714
21
4405.0000
0
LINE
8
PARAMETRIX
10
3848.5714
20
4405.0000
11
3848.5714
21
3405.0000
0
LINE
8
PARAMETRIX
10
3848.5714
20
4415.0000
11
5448.5714
21
4415.0000
0
LINE
8
PARAMETRIX
10
5448.5714
20
4415.0000
11
5448.5714
21
5415.0000
0
LINE
8
PARAMETRIX
10
5448.5714
20
5415.0000
11
3848.5714
21
5415.0000
0
LINE
8
PARAMETRIX
10
3848.5714
20
5415.0000
11
3848.5714
21
4415.0000
0
LINE
8
PARAMETRIX
10
5744.2857
20
-5415.0000
11
7344.2857
21
-5415.0000
0
LINE
8
PARAMETRIX
10
7344.2857
20
-5415.0000
11
7344.2857
21
-4415.0000
0
LINE
8
PARAMETRIX
10
7344.2857
20
-4415.0000
11
5744.2857
21
-4415.0000
0
LINE
8
PARAMETRIX
10
5744.2857
20
-4415.0000
11
5744.2857
21
-5415.0000
0
LINE
8
PARAMETRIX
10
5744.2857
20
-4405.0000
11
7344.2857
21
-4405.0000
0
LINE
8
PARAMETRIX
10
7344.2857
20
-4405.0000
11
7344.2857
21
-3405.0000
0
LINE
8
PARAMETRIX
10
7344.2857
20
-3405.0000
11
5744.2857
21
-3405.0000
0
LINE
8
PARAMETRIX
10
5744.2857
20
-3405.0000
11
5744.2857
21
-4405.0000
0
LINE
8
PARAMETRIX
10
5744.2857
20
-3300.8725
11
7344.2857
21
-3300.8725
0
LINE
8
PARAMETRIX
10
7344.2857
20
-3300.8725
11
7344.2857
21
-2300.8725
0
LINE
8
PARAMETRIX
10
7344.2857
20
-2300.8725
11
5744.2857
21
-2300.8725
0
LINE
8
PARAMETRIX
10
5744.2857
20
-2300.8725
11
5744.2857
21
-3300.8725
0
LINE
8
PARAMETRIX
10
5744.2857
20
-1985.2422
11
7344.2857
21
-1985.2422
0
LINE
8
PARAMETRIX
10
7344.2857
20
-1985.2422
11
7344.2857
21
-985.2422
0
LINE
8
PARAMETRIX
10
7344.2857
20
-985.2422
11
5744.2857
21
-985.2422
0
LINE
8
PARAMETRIX
10
5744.2857
20
-985.2422
11
5744.2857
21
-1985.2422
0
LINE
8
PARAMETRIX
10
5744.2857
20
-500.0000
11
7344.2857
21
-500.0000
0
LINE
8
PARAMETRIX
10
7344.2857
20
-500.0000
11
7344.2857
21
500.0000
0
LINE
8
PARAMETRIX
10
7344.2857
20
500.0000
11
5744.2857
21
500.0000
0
LINE
8
PARAMETRIX
10
5744.2857
20
500.0000
11
5744.2857
21
-500.0000
0
LINE
8
PARAMETRIX
10
5744.2857
20
985.2422
11
7344.2857
21
985.2422
0
LINE
8
PARAMETRIX
10
7344.2857
20
985.2422
11
7344.2857
21
1985.2422
0
LINE
8
PARAMETRIX
10
7344.2857
20
1985.2422
11
5744.2857
21
1985.2422
0
LINE
8
PARAMETRIX
10
5744.2857
20
1985.2422
11
5744.2857
21
985.2422
0
LINE
8
PARAMETRIX
10
5744.2857
20
2300.8725
11
7344.2857
21
2300.8725
0
LINE
8
PARAMETRIX
10
7344.2857
20
2300.8725
11
7344.2857
21
3300.8725
0
LINE
8
PARAMETRIX
10
7344.2857
20
3300.8725
11
5744.2857
21
3300.8725
0
LINE
8
PARAMETRIX
10
5744.2857
20
3300.8725
11
5744.2857
21
2300.8725
0
LINE
8
PARAMETRIX
10
5744.2857
20
3405.0000
11
7344.2857
21
3405.0000
0
LINE
8
PARAMETRIX
10
7344.2857
20
3405.0000
11
7344.2857
21
4405.0000
0
LINE
8
PARAMETRIX
10
7344.2857
20
4405.0000
11
5744.2857
21
4405.0000
0
LINE
8
PARAMETRIX
10
5744.2857
20
4405.0000
11
5744.2857
21
3405.0000
0
LINE
8
PARAMETRIX
10
5744.2857
20
4415.0000
11
7344.2857
21
4415.0000
0
LINE
8
PARAMETRIX
10
7344.2857
20
4415.0000
11
7344.2857
21
5415.0000
0
LINE
8
PARAMETRIX
10
7344.2857
20
5415.0000
11
5744.2857
21
5415.0000
0
LINE
8
PARAMETRIX
10
5744.2857
20
5415.0000
11
5744.2857
21
4415.0000
0
LINE
8
PARAMETRIX
10
7354.2857
20
-5415.0000
11
8954.2857
21
-5415.0000
0
LINE
8
PARAMETRIX
10
8954.2857
20
-5415.0000
11
8954.2857
21
-4415.0000
0
LINE
8
PARAMETRIX
10
8954.2857
20
-4415.0000
11
7354.2857
21
-4415.0000
0
LINE
8
PARAMETRIX
10
7354.2857
20
-4415.0000
11
7354.2857
21
-5415.0000
0
LINE
8
PARAMETRIX
10
7354.2857
20
-4405.0000
11
8954.2857
21
-4405.0000
0
LINE
8
PARAMETRIX
10
8954.2857
20
-4405.0000
11
8954.2857
21
-3405.0000
0
LINE
8
PARAMETRIX
10
8954.2857
20
-3405.0000
11
7354.2857
21
-3405.0000
0
LINE
8
PARAMETRIX
10
7354.2857
20
-3405.0000
11
7354.2857
21
-4405.0000
0
LINE
8
PARAMETRIX
10
7354.2857
20
-3300.8725
11
8954.2857
21
-3300.8725
0
LINE
8
PARAMETRIX
10
8954.2857
20
-3300.8725
11
8954.2857
21
-2300.8725
0
LINE
8
PARAMETRIX
10
8954.2857
20
-2300.8725
11
7354.2857
21
-2300.8725
0
LINE
8
PARAMETRIX
10
7354.2857
20
-2300.8725
11
7354.2857
21
-3300.8725
0
LINE
8
PARAMETRIX
10
7354.2857
20
-1985.2422
11
8954.2857
21
-1985.2422
0
LINE
8
PARAMETRIX
10
8954.2857
20
-1985.2422
11
8954.2857
21
-985.2422
0
LINE
8
PARAMETRIX
10
8954.2857
20
-985.2422
11
7354.2857
21
-985.2422
0
LINE
8
PARAMETRIX
10
7354.2857
20
-985.2422
11
7354.2857
21
-1985.2422
0
LINE
8
PARAMETRIX
10
7354.2857
20
-500.0000
11
8954.2857
21
-500.0000
0
LINE
8
PARAMETRIX
10
8954.2857
20
-500.0000
11
8954.2857
21
500.0000
0
LINE
8
PARAMETRIX
10
8954.2857
20
500.0000
11
7354.2857
21
500.0000
0
LINE
8
PARAMETRIX
10
7354.2857
20
500.0000
11
7354.2857
21
-500.0000
0
LINE
8
PARAMETRIX
10
7354.2857
20
985.2422
11
8954.2857
21
985.2422
0
LINE
8
PARAMETRIX
10
8954.2857
20
985.2422
11
8954.2857
21
1985.2422
0
LINE
8
PARAMETRIX
10
8954.2857
20
1985.2422
11
7354.2857
21
1985.2422
0
LINE
8
PARAMETRIX
10
7354.2857
20
1985.2422
11
7354.2857
21
985.2422
0
LINE
8
PARAMETRIX
10
7354.2857
20
2300.8725
11
8954.2857
21
2300.8725
0
LINE
8
PARAMETRIX
10
8954.2857
20
2300.8725
11
8954.2857
21
3300.8725
0
LINE
8
PARAMETRIX
10
8954.2857
20
3300.8725
11
7354.2857
21
3300.8725
0
LINE
8
PARAMETRIX
10
7354.2857
20
3300.8725
11
7354.2857
21
2300.8725
0
LINE
8
PARAMETRIX
10
7354.2857
20
3405.0000
11
8954.2857
21
3405.0000
0
LINE
8
PARAMETRIX
10
8954.2857
20
3405.0000
11
8954.2857
21
4405.0000
0
LINE
8
PARAMETRIX
10
8954.2857
20
4405.0000
11
7354.2857
21
4405.0000
0
LINE
8
PARAMETRIX
10
7354.2857
20
4405.0000
11
7354.2857
21
3405.0000
0
LINE
8
PARAMETRIX
10
7354.2857
20
4415.0000
11
8954.2857
21
4415.0000
0
LINE
8
PARAMETRIX
10
8954.2857
20
4415.0000
11
8954.2857
21
5415.0000
0
LINE
8
PARAMETRIX
10
8954.2857
20
5415.0000
11
7354.2857
21
5415.0000
0
LINE
8
PARAMETRIX
10
7354.2857
20
5415.0000
11
7354.2857
21
4415.0000
0
ENDSEC
0
EOF
