<svg width="19709" height="11923" viewBox="-9940 -6011 19709 11923" xmlns="http://www.w3.org/2000/svg"><path d="M -8954.2857 5415.0000 L -7354.2857 5415.0000 L -7354.2857 4415.0000 L -8954.2857 4415.0000 L -8954.2857 5415.0000 Z" stroke="green" stroke-width="1" fill="none" /><path d="M -8954.2857 4405.0000 L -7354.2857 4405.0000 L -7354.2857 3405.0000 L -8954.2857 3405.0000 L -8954.2857 4405.0000 Z" stroke="green" stroke-width="1" fill="none" /><path d="M -8954.2857 3300.8725 L -7354.2857 3300.8725 L -7354.2857 2300.8725 L -8954.2857 2300.8725 L -8954.2857 3300.8725 Z" stroke="green" stroke-width="1" fill="none" /><path d="M -8954.2857 1985.2422 L -7354.2857 1985.2422 L -7354.2857 985.2422 L -8954.2857 985.2422 L -8954.2857 1985.2422 Z" stroke="green" stroke-width="1" fill="none" /><path d="M -8954.2857 500.0000 L -7354.2857 500.0000 L -7354.2857 -500.0000 L -8954.2857 -500.0000 L -8954.2857 500.0000 Z" stroke="green" stroke-width="1" fill="none" /><path d="M -8954.2857 -985.2422 L -7354.2857 -985.2422 L -7354.2857 -1985.2422 L -8954.2857 -1985.2422 L -8954.2857 -985.2422 Z" stroke="green" stroke-width="1" fill="none" /><path d="M -8954.2857 -2300.8725 L -7354.2857 -2300.8725 L -7354.2857 -3300.8725 L -8954.2857 -3300.8725 L -8954.2857 -2300.8725 Z" stroke="green" stroke-width="1" fill="none" /><path d="M -8954.2857 -3405.0000 L -7354.2857 -3405.0000 L -7354.2857 -4405.0000 L -8954.2857 -4405.0000 L -8954.2857 -3405.0000 Z" stroke="green" stroke-width="1" fill="none" /><path d="M -8954.2857 -4415.0000 L -7354.2857 -4415.0000 L -7354.2857 -5415.0000 L -8954.2857 -5415.0000 L -8954.2857 -4415.0000 Z" stroke="green" stroke-width="1" fill="none" /><path d="M -7344.2857 5415.0000 L -5744.2857 5415.0000 L -5744.2857 4415.0000 L -7344.2857 4415.0000 L -7344.2857 5415.0000 Z" stroke="green" stroke-width="1" fill="none" /><path d="M -7344.2857 4405.0000 L -5744.2857 4405.0000 L -5744.2857 3405.0000 L -7344.2857 3405.0000 L -7344.2857 4405.0000 Z" stroke="green" stroke-width="1" fill="none" /><path d="M -7344.2857 3300.8725 L -5744.2857 3300.8725 L -5744.2857 2300.8725 L -7344.2857 2300.8725 L -7344.2857 3300.8725 Z" stroke="green" stroke-width="1" fill="none" /><path d="M -7344.2857 1985.2422 L -5744.2857 1985.2422 L -5744.2857 985.2422 L -7344.2857 985.2422 L -7344.2857 1985.2422 Z" stroke="green" stroke-width="1" fill="none" /><path d="M -7344.2857 500.0000 L -5744.2857 500.0000 L -5744.2857 -500.0000 L -7344.2857 -500.0000 L -7344.2857 500.0000 Z" stroke="green" stroke-width="1" fill="none" /><path d="M -7344.2857 -985.2422 L -5744.2857 -985.2422 L -5744.2857 -1985.2422 L -7344.2857 -1985.2422 L -7344.2857 -985.2422 Z" stroke="green" stroke-width="1" fill="none" /><path d="M -7344.2857 -2300.8725 L -5744.2857 -2300.8725 L -5744.2857 -3300.8725 L -7344.2857 -3300.8725 L -7344.2857 -2300.8725 Z" stroke="green" stroke-width="1" fill="none" /><path d="M -7344.2857 -3405.0000 L -5744.2857 -3405.0000 L -5744.2857 -4405.0000 L -7344.2857 -4405.0000 L -7344.2857 -3405.0000 Z" stroke="green" stroke-width="1" fill="none" /><path d="M -7344.2857 -4415.0000 L -5744.2857 -4415.0000 L -5744.2857 -5415.0000 L -7344.2857 -5415.0000 L -7344.2857 -4415.0000 Z" stroke="green" stroke-width="1" fill="none" /><path d="M -5448.5714 5415.0000 L -3848.5714 5415.0000 L -3848.5714 4415.0000 L -5448.5714 4415.0000 L -5448.5714 5415.0000 Z" stroke="green" stroke-width="1" fill="none" /><path d="M -5448.5714 4405.0000 L -3848.5714 4405.0000 L -3848.5714 3405.0000 L -5448.5714 3405.0000 L -5448.5714 4405.0000 Z" stroke="green" stroke-width="1" fill="none" /><path d="M -5448.5714 3300.8725 L -3848.5714 3300.8725 L -3848.5714 2300.8725 L -5448.5714 2300.8725 L -5448.5714 3300.8725 Z" stroke="green" stroke-width="1" fill="none" /><path d="M -5448.5714 1985.2422 L -3848.5714 1985.2422 L -3848.5714 985.2422 L -5448.5714 985.2422 L -5448.5714 1985.2422 Z" stroke="green" stroke-width="1" fill="none" /><path d="M -5448.5714 500.0000 L -3848.5714 500.0000 L -3848.5714 -500.0000 L -5448.5714 -500.0000 L -5448.5714 500.0000 Z" stroke="green" stroke-width="1" fill="none" /><path d="M -5448.5714 -985.2422 L -3848.5714 -985.2422 L -3848.5714 -1985.2422 L -5448.5714 -1985.2422 L -5448.5714 -985.2422 Z" stroke="green" stroke-width="1" fill="none" /><path d="M -5448.5714 -2300.8725 L -3848.5714 -2300.8725 L -3848.5714 -3300.8725 L -5448.5714 -3300.8725 L -5448.5714 -2300.8725 Z" stroke="green" stroke-width="1" fill="none" /><path d="M -5448.5714 -3405.0000 L -3848.5714 -3405.0000 L -3848.5714 -4405.0000 L -5448.5714 -4405.0000 L -5448.5714 -3405.0000 Z" stroke="green" stroke-width="1" fill="none" /><path d="M -5448.5714 -4415.0000 L -3848.5714 -4415.0000 L -3848.5714 -5415.0000 L -5448.5714 -5415.0000 L -5448.5714 -4415.0000 Z" stroke="green" stroke-width="1" fill="none" /><path d="M -3267.1429 5415.0000 L -1667.1429 5415.0000 L -1667.1429 4415.0000 L -3267.1429 4415.0000 L -3267.1429 5415.0000 Z" stroke="green" stroke-width="1" fill="none" /><path d="M -3267.1429 4405.0000 L -1667.1429 4405.0000 L -1667.1429 3405.0000 L -3267.1429 3405.0000 L -3267.1429 4405.0000 Z" stroke="green" stroke-width="1" fill="none" /><path d="M -3267.1429 3300.8725 L -1667.1429 3300.8725 L -1667.1429 2300.8725 L -3267.1429 2300.8725 L -3267.1429 3300.8725 Z" stroke="green" stroke-width="1" fill="none" /><path d="M -3267.1429 1985.2422 L -1667.1429 1985.2422 L -1667.1429 985.2422 L -3267.1429 985.2422 L -3267.1429 1985.2422 Z" stroke="green" stroke-width="1" fill="none" /><path d="M -3267.1429 500.0000 L -1667.1429 500.0000 L -1667.1429 -500.0000 L -3267.1429 -500.0000 L -3267.1429 500.0000 Z" stroke="green" stroke-width="1" fill="none" /><path d="M -3267.1429 -985.2422 L -1667.1429 -985.2422 L -1667.1429 -1985.2422 L -3267.1429 -1985.2422 L -3267.1429 -985.2422 Z" stroke="green" stroke-width="1" fill="none" /><path d="M -3267.1429 -2300.8725 L -1667.1429 -2300.8725 L -1667.1429 -3300.8725 L -3267.1429 -3300.8725 L -3267.1429 -2300.8725 Z" stroke="green" stroke-width="1" fill="none" /><path d="M -3267.1429 -3405.0000 L -1667.1429 -3405.0000 L -1667.1429 -4405.0000 L -3267.1429 -4405.0000 L -3267.1429 -3405.0000 Z" stroke="green" stroke-width="1" fill="none" /><path d="M -3267.1429 -4415.0000 L -1667.1429 -4415.0000 L -1667.1429 -5415.0000 L -3267.1429 -5415.0000 L -3267.1429 -4415.0000 Z" stroke="green" stroke-width="1" fill="none" /><path d="M -800.0000 5415.0000 L 800.0000 5415.0000 L 800.0000 4415.0000 L -800.0000 4415.0000 L -800.0000 5415.0000 Z" stroke="green" stroke-width="1" fill="none" /><path d="M -800.0000 4405.0000 L 800.0000 4405.0000 L 800.0000 3405.0000 L -800.0000 3405.0000 L -800.0000 4405.0000 Z" stroke="green" stroke-width="1" fill="none" /><path d="M -800.0000 3300.8725 L 800.0000 3300.8725 L 800.0000 2300.8725 L -800.0000 2300.8725 L -800.0000 3300.8725 Z" stroke="green" stroke-width="1" fill="none" /><path d="M -800.0000 1985.2422 L 800.0000 1985.2422 L 800.0000 985.2422 L -800.0000 985.2422 L -800.0000 1985.2422 Z" stroke="green" stroke-width="1" fill="none" /><path d="M -800.0000 500.0000 L 800.0000 500.0000 L 800.0000 -500.0000 L -800.0000 -500.0000 L -800.0000 500.0000 Z" stroke="green" stroke-width="1" fill="none" /><path d="M -800.0000 -985.2422 L 800.0000 -985.2422 L 800.0000 -1985.2422 L -800.0000 -1985.2422 L -800.0000 -985.2422 Z" stroke="green" stroke-width="1" fill="none" /><path d="M -800.0000 -2300.8725 L 800.0000 -2300.8725 L 800.0000 -3300.8725 L -800.0000 -3300.8725 L -800.0000 -2300.8725 Z" stroke="green" stroke-width="1" fill="none" /><path d="M -800.0000 -3405.0000 L 800.0000 -3405.0000 L 800.0000 -4405.0000 L -800.0000 -4405.0000 L -800.0000 -3405.0000 Z" stroke="green" stroke-width="1" fill="none" /><path d="M -800.0000 -4415.0000 L 800.0000 -4415.0000 L 800.0000 -5415.0000 L -800.0000 -5415.0000 L -800.0000 -4415.0000 Z" stroke="green" stroke-width="1" fill="none" /><path d="M 1667.1429 5415.0000 L 3267.1429 5415.0000 L 3267.1429 4415.0000 L 1667.1429 4415.0000 L 1667.1429 5415.0000 Z" stroke="green" stroke-width="1" fill="none" /><path d="M 1667.1429 4405.0000 L 3267.1429 4405.0000 L 3267.1429 3405.0000 L 1667.1429 3405.0000 L 1667.1429 4405.0000 Z" stroke="green" stroke-width="1" fill="none" /><path d="M 1667.1429 3300.8725 L 3267.1429 3300.8725 L 3267.1429 2300.8725 L 1667.1429 2300.8725 L 1667.1429 3300.8725 Z" stroke="green" stroke-width="1" fill="none" /><path d="M 1667.1429 1985.2422 L 3267.1429 1985.2422 L 3267.1429 985.2422 L 1667.1429 985.2422 L 1667.1429 1985.2422 Z" stroke="green" stroke-width="1" fill="none" /><path d="M 1667.1429 500.0000 L 3267.1429 500.0000 L 3267.1429 -500.0000 L 1667.1429 -500.0000 L 1667.1429 500.0000 Z" stroke="green" stroke-width="1" fill="none" /><path d="M 1667.1429 -985.2422 L 3267.1429 -985.2422 L 3267.1429 -1985.2422 L 1667.1429 -1985.2422 L 1667.1429 -985.2422 Z" stroke="green" stroke-width="1" fill="none" /><path d="M 1667.1429 -2300.8725 L 3267.1429 -2300.8725 L 3267.1429 -3300.8725 L 1667.1429 -3300.8725 L 1667.1429 -2300.8725 Z" stroke="green" stroke-width="1" fill="none" /><path d="M 1667.1429 -3405.0000 L 3267.1429 -3405.0000 L 3267.1429 -4405.0000 L 1667.1429 -4405.0000 L 1667.1429 -3405.0000 Z" stroke="green" stroke-width="1" fill="none" /><path d="M 1667.1429 -4415.0000 L 3267.1429 -4415.0000 L 3267.1429 -5415.0000 L 1667.1429 -5415.0000 L 1667.1429 -4415.0000 Z" stroke="green" stroke-width="1" fill="none" /><path d="M 3848.5714 5415.0000 L 5448.5714 5415.0000 L 5448.5714 4415.0000 L 3848.5714 4415.0000 L 3848.5714 5415.0000 Z" stroke="green" stroke-width="1" fill="none" /><path d="M 3848.5714 4405.0000 L 5448.5714 4405.0000 L 5448.5714 3405.0000 L 3848.5714 3405.0000 L 3848.5714 4405.0000 Z" stroke="green" stroke-width="1" fill="none" /><path d="M 3848.5714 3300.8725 L 5448.5714 3300.8725 L 5448.5714 2300.8725 L 3848.5714 2300.8725 L 3848.5714 3300.8725 Z" stroke="green" stroke-width="1" fill="none" /><path d="M 3848.5714 1985.2422 L 5448.5714 1985.2422 L 5448.5714 985.2422 L 3848.5714 985.2422 L 3848.5714 1985.2422 Z" stroke="green" stroke-width="1" fill="none" /><path d="M 3848.5714 500.0000 L 5448.5714 500.0000 L 5448.5714 -500.0000 L 3848.5714 -500.0000 L 3848.5714 500.0000 Z" stroke="green" stroke-width="1" fill="none" /><path d="M 3848.5714 -985.2422 L 5448.5714 -985.2422 L 5448.5714 -1985.2422 L 3848.5714 -1985.2422 L 3848.5714 -985.2422 Z" stroke="green" stroke-width="1" fill="none" /><path d="M 3848.5714 -2300.8725 L 5448.5714 -2300.8725 L 5448.5714 -3300.8725 L 3848.5714 -3300.8725 L 3848.5714 -2300.8725 Z" stroke="green" stroke-width="1" fill="none" /><path d="M 3848.5714 -3405.0000 L 5448.5714 -3405.0000 L 5448.5714 -4405.0000 L 3848.5714 -4405.0000 L 3848.5714 -3405.0000 Z" stroke="green" stroke-width="1" fill="none" /><path d="M 3848.5714 -4415.0000 L 5448.5714 -4415.0000 L 5448.5714 -5415.0000 L 3848.5714 -5415.0000 L 3848.5714 -4415.0000 Z" stroke="green" stroke-width="1" fill="none" /><path d="M 5744.2857 5415.0000 L 7344.2857 5415.0000 L 7344.2857 4415.0000 L 5744.2857 4415.0000 L 5744.2857 5415.0000 Z" stroke="green" stroke-width="1" fill="none" /><path d="M 5744.2857 4405.0000 L 7344.2857 4405.0000 L 7344.2857 3405.0000 L 5744.2857 3405.0000 L 5744.2857 4405.0000 Z" stroke="green" stroke-width="1" fill="none" /><path d="M 5744.2857 3300.8725 L 7344.2857 3300.8725 L 7344.2857 2300.8725 L 5744.2857 2300.8725 L 5744.2857 3300.8725 Z" stroke="green" stroke-width="1" fill="none" /><path d="M 5744.2857 1985.2422 L 7344.2857 1985.2422 L 7344.2857 985.2422 L 5744.2857 985.2422 L 5744.2857 1985.2422 Z" stroke="green" stroke-width="1" fill="none" /><path d="M 5744.2857 500.0000 L 7344.2857 500.0000 L 7344.2857 -500.0000 L 5744.2857 -500.0000 L 5744.2857 500.0000 Z" stroke="green" stroke-width="1" fill="none" /><path d="M 5744.2857 -985.2422 L 7344.2857 -985.2422 L 7344.2857 -1985.2422 L 5744.2857 -1985.2422 L 5744.2857 -985.2422 Z" stroke="green" stroke-width="1" fill="none" /><path d="M 5744.2857 -2300.8725 L 7344.2857 -2300.8725 L 7344.2857 -3300.8725 L 5744.2857 -3300.8725 L 5744.2857 -2300.8725 Z" stroke="green" stroke-width="1" fill="none" /><path d="M 5744.2857 -3405.0000 L 7344.2857 -3405.0000 L 7344.2857 -4405.0000 L 5744.2857 -4405.0000 L 5744.2857 -3405.0000 Z" stroke="green" stroke-width="1" fill="none" /><path d="M 5744.2857 -4415.0000 L 7344.2857 -4415.0000 L 7344.2857 -5415.0000 L 5744.2857 -5415.0000 L 5744.2857 -4415.0000 Z" stroke="green" stroke-width="1" fill="none" /><path d="M 7354.2857 5415.0000 L 8954.2857 5415.0000 L 8954.2857 4415.0000 L 7354.2857 4415.0000 L 7354.2857 5415.0000 Z" stroke="green" stroke-width="1" fill="none" /><path d="M 7354.2857 4405.0000 L 8954.2857 4405.0000 L 8954.2857 3405.0000 L 7354.2857 3405.0000 L 7354.2857 4405.0000 Z" stroke="green" stroke-width="1" fill="none" /><path d="M 7354.2857 3300.8725 L 8954.2857 3300.8725 L 8954.2857 2300.8725 L 7354.2857 2300.8725 L 7354.2857 3300.8725 Z" stroke="green" stroke-width="1" fill="none" /><path d="M 7354.2857 1985.2422 L 8954.2857 1985.2422 L 8954.2857 985.2422 L 7354.2857 985.2422 L 7354.2857 1985.2422 Z" stroke="green" stroke-width="1" fill="none" /><path d="M 7354.2857 500.0000 L 8954.2857 500.0000 L 8954.2857 -500.0000 L 7354.2857 -500.0000 L 7354.2857 500.0000 Z" stroke="green" stroke-width="1" fill="none" /><path d="M 7354.2857 -985.2422 L 8954.2857 -985.2422 L 8954.2857 -1985.2422 L 7354.2857 -1985.2422 L 7354.2857 -985.2422 Z" stroke="green" stroke-width="1" fill="none" /><path d="M 7354.2857 -2300.8725 L 8954.2857 -2300.8725 L 8954.2857 -3300.8725 L 7354.2857 -3300.8725 L 7354.2857 -2300.8725 Z" stroke="green" stroke-width="1" fill="none" /><path d="M 7354.2857 -3405.0000 L 8954.2857 -3405.0000 L 8954.2857 -4405.0000 L 7354.2857 -4405.0000 L 7354.2857 -3405.0000 Z" stroke="green" stroke-width="1" fill="none" /><path d="M 7354.2857 -4415.0000 L 8954.2857 -4415.0000 L 8954.2857 -5415.0000 L 7354.2857 -5415.0000 L 7354.2857 -4415.0000 Z" stroke="green" stroke-width="1" fill="none" /></svg>