<svg width="322" height="65" viewBox="-156 -3 322 65" xmlns="http://www.w3.org/2000/svg"><path d="M -110.0000 50.0000 L -100.0000 50.0000 L -100.0000 0.0000 L -110.0000 0.0000 L -110.0000 50.0000 Z" stroke="green" stroke-width="1" fill="none" /><path d="M 103.7500 50.0000 L 113.7500 50.0000 L 113.7500 0.0000 L 103.7500 0.0000 L 103.7500 50.0000 Z" stroke="green" stroke-width="1" fill="none" /><path d="M -125.0000 50.0000 L -115.0000 50.0000 L -115.0000 0.0000 L -125.0000 0.0000 L -125.0000 50.0000 Z" stroke="green" stroke-width="1" fill="none" /><path d="M 118.7500 50.0000 L 128.7500 50.0000 L 128.7500 0.0000 L 118.7500 0.0000 L 118.7500 50.0000 Z" stroke="green" stroke-width="1" fill="none" /><path d="M -140.0000 50.0000 L -130.0000 50.0000 L -130.0000 0.0000 L -140.0000 0.0000 L -140.0000 50.0000 Z" stroke="green" stroke-width="1" fill="none" /><path d="M 133.7500 50.0000 L 143.7500 50.0000 L 143.7500 0.0000 L 133.7500 0.0000 L 133.7500 50.0000 Z" stroke="green" stroke-width="1" fill="none" /></svg>