<svg width="322" height="314" viewBox="-156 -156 322 314" xmlns="http://www.w3.org/2000/svg"><path d="M -100.0000 -3.7500 A 5.0000 5.0000 0 0 0 -110.0000 -3.7500 A 110.0000 110.0000 0 0 0 -0.0000 106.2500 A 113.7500 113.7500 0 0 0 113.7500 -7.5000 A 117.5000 117.5000 0 0 0 -3.7500 -125.0000 A 121.2500 121.2500 0 0 0 -125.0000 -3.7500 A 125.0000 125.0000 0 0 0 -0.0000 121.2500 A 128.7500 128.7500 0 0 0 128.7500 -7.5000 A 132.5000 132.5000 0 0 0 -3.7500 -140.0000 A 136.2500 136.2500 0 0 0 -140.0000 -3.7500 A 140.0000 140.0000 0 0 0 -0.0000 136.2500 A 143.7500 143.7500 0 0 0 143.7500 -7.5000 A 5.0000 5.0000 0 0 0 133.7500 -7.5000 A 133.7500 133.7500 0 0 1 -0.0000 126.2500 A 130.0000 130.0000 0 0 1 -130.0000 -3.7500 A 126.2500 126.2500 0 0 1 -3.7500 -130.0000 A 122.5000 122.5000 0 0 1 118.7500 -7.5000 A 118.7500 118.7500 0 0 1 -0.0000 111.2500 A 115.0000 115.0000 0 0 1 -115.0000 -3.7500 A 111.2500 111.2500 0 0 1 -3.7500 -115.0000 A 107.5000 107.5000 0 0 1 103.7500 -7.5000 A 103.7500 103.7500 0 0 1 -0.0000 96.2500 A 100.0000 100.0000 0 0 1 -100.0000 -3.7500 Z" stroke="green" stroke-width="1" fill="none" /></svg>