0
SECTION
2
ENTITIES
0
LINE
8
PARAMETRIX
10
-4353.3333
20
-500.0000
11
-2753.3333
21
-500.0000
0
LINE
8
PARAMETRIX
10
-2753.3333
20
-500.0000
11
-2753.3333
21
500.0000
0
LINE
8
PARAMETRIX
10
-2753.3333
20
500.0000
11
-4353.3333
21
500.0000
0
LINE
8
PARAMETRIX
10
-4353.3333
20
500.0000
11
-4353.3333
21
-500.0000
0
LINE
8
PARAMETRIX
10
-2743.3333
20
-1510.0000
11
-1143.3333
21
-1510.0000
0
LINE
8
PARAMETRIX
10
-1143.3333
20
-1510.0000
11
-1143.3333
21
-510.0000
0
LINE
8
PARAMETRIX
10
-1143.3333
20
-510.0000
11
-2743.3333
21
-510.0000
0
LINE
8
PARAMETRIX
10
-2743.3333
20
-510.0000
11
-2743.3333
21
-1510.0000
0
LINE
8
PARAMETRIX
10
-2743.3333
20
-500.0000
11
-1143.3333
21
-500.0000
0
LINE
8
PARAMETRIX
10
-1143.3333
20
-500.0000
11
-1143.3333
21
500.0000
0
LINE
8
PARAMETRIX
10
-1143.3333
20
500.0000
11
-2743.3333
21
500.0000
0
LINE
8
PARAMETRIX
10
-2743.3333
20
500.0000
11
-2743.3333
21
-500.0000
0
LINE
8
PARAMETRIX
10
-2743.3333
20
510.0000
11
-1143.3333
21
510.0000
0
LINE
8
PARAMETRIX
10
-1143.3333
20
510.0000
11
-1143.3333
21
1510.0000
0
LINE
8
PARAMETRIX
10
-1143.3333
20
1510.0000
11
-2743.3333
21
1510.0000
0
LINE
8
PARAMETRIX
10
-2743.3333
20
1510.0000
11
-2743.3333
21
510.0000
0
LINE
8
PARAMETRIX
10
-800.0000
20
-2520.0000
11
800.0000
21
-2520.0000
0
LINE
8
PARAMETRIX
10
800.0000
20
-2520.0000
11
800.0000
21
-1520.0000
0
LINE
8
PARAMETRIX
10
800.0000
20
-1520.0000
11
-800.0000
21
-1520.0000
0
LINE
8
PARAMETRIX
10
-800.0000
20
-1520.0000
11
-800.0000
21
-2520.0000
0
LINE
8
PARAMETRIX
10
-800.0000
20
-1510.0000
11
800.0000
21
-1510.0000
0
LINE
8
PARAMETRIX
10
800.0000
20
-1510.0000
11
800.0000
21
-510.0000
0
LINE
8
PARAMETRIX
10
800.0000
20
-510.0000
11
-800.0000
21
-510.0000
0
LINE
8
PARAMETRIX
10
-800.0000
20
-510.0000
11
-800.0000
21
-1510.0000
0
LINE
8
PARAMETRIX
10
-800.0000
20
-500.0000
11
800.0000
21
-500.0000
0
LINE
8
PARAMETRIX
10
800.0000
20
-500.0000
11
800.0000
21
500.0000
0
LINE
8
PARAMETRIX
10
800.0000
20
500.0000
11
-800.0000
21
500.0000
0
LINE
8
PARAMETRIX
10
-800.0000
20
500.0000
11
-800.0000
21
-500.0000
0
LINE
8
PARAMETRIX
10
-800.0000
20
510.0000
11
800.0000
21
510.0000
0
LINE
8
PARAMETRIX
10
800.0000
20
510.0000
11
800.0000
21
1510.0000
0
LINE
8
PARAMETRIX
10
800.0000
20
1510.0000
11
-800.0000
21
1510.0000
0
LINE
8
PARAMETRIX
10
-800.0000
20
1510.0000
11
-800.0000
21
510.0000
0
LINE
8
PARAMETRIX
10
-800.0000
20
1520.0000
11
800.0000
21
1520.0000
0
LINE
8
PARAMETRIX
10
800.0000
20
1520.0000
11
800.0000
21
2520.0000
0
LINE
8
PARAMETRIX
10
800.0000
20
2520.0000
11
-800.0000
21
2520.0000
0
LINE
8
PARAMETRIX
10
-800.0000
20
2520.0000
11
-800.0000
21
1520.0000
0
LINE
8
PARAMETRIX
10
1143.3333
20
-1510.0000
11
2743.3333
21
-1510.0000
0
LINE
8
PARAMETRIX
10
2743.3333
20
-1510.0000
11
2743.3333
21
-510.0000
0
LINE
8
PARAMETRIX
10
2743.3333
20
-510.0000
11
1143.3333
21
-510.0000
0
LINE
8
PARAMETRIX
10
1143.3333
20
-510.0000
11
1143.3333
21
-1510.0000
0
LINE
8
PARAMETRIX
10
1143.3333
20
-500.0000
11
2743.3333
21
-500.0000
0
LINE
8
PARAMETRIX
10
2743.3333
20
-500.0000
11
2743.3333
21
500.0000
0
LINE
8
PARAMETRIX
10
2743.3333
20
500.0000
11
1143.3333
21
500.0000
0
LINE
8
PARAMETRIX
10
1143.3333
20
500.0000
11
1143.3333
21
-500.0000
0
LINE
8
PARAMETRIX
10
1143.3333
20
510.0000
11
2743.3333
21
510.0000
0
LINE
8
PARAMETRIX
10
2743.3333
20
510.0000
11
2743.3333
21
1510.0000
0
LINE
8
PARAMETRIX
10
2743.3333
20
1510.0000
11
1143.3333
21
1510.0000
0
LINE
8
PARAMETRIX
10
1143.3333
20
1510.0000
11
1143.3333
21
510.0000
0
LINE
8
PARAMETRIX
10
2753.3333
20
-500.0000
11
4353.3333
21
-500.0000
0
LINE
8
PARAMETRIX
10
4353.3333
20
-500.0000
11
4353.3333
21
500.0000
0
LINE
8
PARAMETRIX
10
4353.3333
20
500.0000
11
2753.3333
21
500.0000
0
LINE
8
PARAMETRIX
10
2753.3333
20
500.0000
11
2753.3333
21
-500.0000
0
ENDSEC
0
EOF
