<svg width="9587" height="5554" viewBox="-4833 -2798 9587 5554" xmlns="http://www.w3.org/2000/svg"><path d="M -4353.3333 500.0000 L -2753.3333 500.0000 L -2753.3333 -500.0000 L -4353.3333 -500.0000 L -4353.3333 500.0000 Z" stroke="green" stroke-width="1" fill="none" /><path d="M -2743.3333 1510.0000 L -1143.3333 1510.0000 L -1143.3333 510.0000 L -2743.3333 510.0000 L -2743.3333 1510.0000 Z" stroke="green" stroke-width="1" fill="none" /><path d="M -2743.3333 500.0000 L -1143.3333 500.0000 L -1143.3333 -500.0000 L -2743.3333 -500.0000 L -2743.3333 500.0000 Z" stroke="green" stroke-width="1" fill="none" /><path d="M -2743.3333 -510.0000 L -1143.3333 -510.0000 L -1143.3333 -1510.0000 L -2743.3333 -1510.0000 L -2743.3333 -510.0000 Z" stroke="green" stroke-width="1" fill="none" /><path d="M -800.0000 2520.0000 L 800.0000 2520.0000 L 800.0000 1520.0000 L -800.0000 1520.0000 L -800.0000 2520.0000 Z" stroke="green" stroke-width="1" fill="none" /><path d="M -800.0000 1510.0000 L 800.0000 1510.0000 L 800.0000 510.0000 L -800.0000 510.0000 L -800.0000 1510.0000 Z" stroke="green" stroke-width="1" fill="none" /><path d="M -800.0000 500.0000 L 800.0000 500.0000 L 800.0000 -500.0000 L -800.0000 -500.0000 L -800.0000 500.0000 Z" stroke="green" stroke-width="1" fill="none" /><path d="M -800.0000 -510.0000 L 800.0000 -510.0000 L 800.0000 -1510.0000 L -800.0000 -1510.0000 L -800.0000 -510.0000 Z" stroke="green" stroke-width="1" fill="none" /><path d="M -800.0000 -1520.0000 L 800.0000 -1520.0000 L 800.0000 -2520.0000 L -800.0000 -2520.0000 L -800.0000 -1520.0000 Z" stroke="green" stroke-width="1" fill="none" /><path d="M 1143.3333 1510.0000 L 2743.3333 1510.0000 L 2743.3333 510.0000 L 1143.3333 510.0000 L 1143.3333 1510.0000 Z" stroke="green" stroke-width="1" fill="none" /><path d="M 1143.3333 500.0000 L 2743.3333 500.0000 L 2743.3333 -500.0000 L 1143.3333 -500.0000 L 1143.3333 500.0000 Z" stroke="green" stroke-width="1" fill="none" /><path d="M 1143.3333 -510.0000 L 2743.3333 -510.0000 L 2743.3333 -1510.0000 L 1143.3333 -1510.0000 L 1143.3333 -510.0000 Z" stroke="green" stroke-width="1" fill="none" /><path d="M 2753.3333 500.0000 L 4353.3333 500.0000 L 4353.3333 -500.0000 L 2753.3333 -500.0000 L 2753.3333 500.0000 Z" stroke="green" stroke-width="1" fill="none" /></svg>