solid OpenSCAD_Model
  facet normal 0 0 -1
    outer loop
      vertex 100.768 0.682693 0
      vertex 99.0823 0.172287 0
      vertex 97.3296 0 0
    endloop
  endfacet
  facet normal 0 0 -1
    outer loop
      vertex 100.768 0.682693 0
      vertex 104.804 3.98669 0
      vertex 103.685 2.62709 0
    endloop
  endfacet
  facet normal 0 0 -1
    outer loop
      vertex 100.768 0.682693 0
      vertex 103.685 2.62709 0
      vertex 102.322 1.51149 0
    endloop
  endfacet
  facet normal 0 0 -1
    outer loop
      vertex 100.768 0.682693 0
      vertex 105.637 5.5383 0
      vertex 104.804 3.98669 0
    endloop
  endfacet
  facet normal 0 0 -1
    outer loop
      vertex 100.768 0.682693 0
      vertex 106.329 8.97469 0
      vertex 105.637 5.5383 0
    endloop
  endfacet
  facet normal 0 0 -1
    outer loop
      vertex 105.637 5.5383 0
      vertex 106.329 8.97469 0
      vertex 106.152 7.2224 0
    endloop
  endfacet
  facet normal 0 0 -1
    outer loop
      vertex 100.768 0.682693 0
      vertex 100.815 17.2978 0
      vertex 106.329 8.97469 0
    endloop
  endfacet
  facet normal 0 0 -1
    outer loop
      vertex 104.832 13.9711 0
      vertex 105.657 12.4149 0
      vertex 106.162 10.7278 0
    endloop
  endfacet
  facet normal 0 0 -1
    outer loop
      vertex 106.329 8.97469 0
      vertex 104.832 13.9711 0
      vertex 106.162 10.7278 0
    endloop
  endfacet
  facet normal 0 0 -1
    outer loop
      vertex 106.329 8.97469 0
      vertex 100.815 17.2978 0
      vertex 104.832 13.9711 0
    endloop
  endfacet
  facet normal 0 0 -1
    outer loop
      vertex 100.815 17.2978 0
      vertex 102.364 16.4603 0
      vertex 103.72 15.337 0
    endloop
  endfacet
  facet normal 0 0 -1
    outer loop
      vertex 104.832 13.9711 0
      vertex 100.815 17.2978 0
      vertex 103.72 15.337 0
    endloop
  endfacet
  facet normal -0 0 -1
    outer loop
      vertex 100.768 0.682693 0
      vertex 97.3296 0 0
      vertex 100.815 17.2978 0
    endloop
  endfacet
  facet normal 0 0 -1
    outer loop
      vertex 31.5537 15.2886 0
      vertex 44.417 16.165 0
      vertex 44.9236 14.4951 0
    endloop
  endfacet
  facet normal 0 0 -1
    outer loop
      vertex 40.1867 42 0
      vertex 41.3761 41.9211 0
      vertex 42.5446 41.6856 0
    endloop
  endfacet
  facet normal 0 0 -1
    outer loop
      vertex 43.6718 41.2978 0
      vertex 40.1867 42 0
      vertex 42.5446 41.6856 0
    endloop
  endfacet
  facet normal 0 -0 -1
    outer loop
      vertex 0.136688 34.5628 0
      vertex 11.5303 28.3706 0
      vertex 0 33 0
    endloop
  endfacet
  facet normal 0 0 -1
    outer loop
      vertex 0.542786 36.0782 0
      vertex 12.8726 29.8287 0
      vertex 11.5303 28.3706 0
    endloop
  endfacet
  facet normal 0 0 -1
    outer loop
      vertex 12.8726 29.8287 0
      vertex 2.10559 38.7851 0
      vertex 3.21489 39.8944 0
    endloop
  endfacet
  facet normal 0 0 -1
    outer loop
      vertex 12.8726 29.8287 0
      vertex 1.2058 37.5 0
      vertex 2.10559 38.7851 0
    endloop
  endfacet
  facet normal 0 0 -1
    outer loop
      vertex 0.136688 34.5628 0
      vertex 0.542786 36.0782 0
      vertex 11.5303 28.3706 0
    endloop
  endfacet
  facet normal 0 0 -1
    outer loop
      vertex 0 33 0
      vertex 11.5303 28.3706 0
      vertex 10.4463 26.7114 0
    endloop
  endfacet
  facet normal 0 0 -1
    outer loop
      vertex 9.65019 24.8964 0
      vertex 0 33 0
      vertex 10.4463 26.7114 0
    endloop
  endfacet
  facet normal 0 -0 -1
    outer loop
      vertex 1.2058 37.5 0
      vertex 12.8726 29.8287 0
      vertex 0.542786 36.0782 0
    endloop
  endfacet
  facet normal -0 0 -1
    outer loop
      vertex 21.991 9.04099 0
      vertex 9 0 0
      vertex 20.009 9.04099 0
    endloop
  endfacet
  facet normal 0 0 -1
    outer loop
      vertex 7.24419 0.172897 0
      vertex 12.8726 12.1713 0
      vertex 9 0 0
    endloop
  endfacet
  facet normal 0 0 -1
    outer loop
      vertex 2.63599 2.63599 0
      vertex 1.5168 3.99989 0
      vertex 12.8726 12.1713 0
    endloop
  endfacet
  facet normal 0 0 -1
    outer loop
      vertex 3.99989 1.5168 0
      vertex 2.63599 2.63599 0
      vertex 12.8726 12.1713 0
    endloop
  endfacet
  facet normal 0 0 -1
    outer loop
      vertex 5.55579 0.685089 0
      vertex 12.8726 12.1713 0
      vertex 7.24419 0.172897 0
    endloop
  endfacet
  facet normal 0 0 -1
    outer loop
      vertex 5.55579 0.685089 0
      vertex 3.99989 1.5168 0
      vertex 12.8726 12.1713 0
    endloop
  endfacet
  facet normal 0 0 -1
    outer loop
      vertex 9 0 0
      vertex 14.4366 10.954 0
      vertex 16.1797 10.0107 0
    endloop
  endfacet
  facet normal 0 0 -1
    outer loop
      vertex 9 0 0
      vertex 12.8726 12.1713 0
      vertex 14.4366 10.954 0
    endloop
  endfacet
  facet normal 0 0 -1
    outer loop
      vertex 9 0 0
      vertex 21.991 9.04099 0
      vertex 23.9458 9.36719 0
    endloop
  endfacet
  facet normal 0 0 -1
    outer loop
      vertex 0 33 0
      vertex 9.1637 22.9751 0
      vertex 9 21 0
    endloop
  endfacet
  facet normal 0 0 -1
    outer loop
      vertex 0 33 0
      vertex 9.65019 24.8964 0
      vertex 9.1637 22.9751 0
    endloop
  endfacet
  facet normal -0 0 -1
    outer loop
      vertex 43.6718 41.2978 0
      vertex 31.5537 26.7114 0
      vertex 40.1867 42 0
    endloop
  endfacet
  facet normal 0 0 -1
    outer loop
      vertex 23.9458 32.6328 0
      vertex 21.991 32.959 0
      vertex 40.1867 42 0
    endloop
  endfacet
  facet normal 0 -0 -1
    outer loop
      vertex 23.9458 9.36719 0
      vertex 49.7411 9.6776 0
      vertex 9 0 0
    endloop
  endfacet
  facet normal -0 0 -1
    outer loop
      vertex 20.009 9.04099 0
      vertex 9 0 0
      vertex 18.0542 9.36719 0
    endloop
  endfacet
  facet normal -0 0 -1
    outer loop
      vertex 18.0542 9.36719 0
      vertex 9 0 0
      vertex 16.1797 10.0107 0
    endloop
  endfacet
  facet normal 0 0 -1
    outer loop
      vertex 0.685089 5.55579 0
      vertex 12.8726 12.1713 0
      vertex 1.5168 3.99989 0
    endloop
  endfacet
  facet normal 0 0 -1
    outer loop
      vertex 0.685089 5.55579 0
      vertex 11.5303 13.6294 0
      vertex 12.8726 12.1713 0
    endloop
  endfacet
  facet normal 0 0 -1
    outer loop
      vertex 0.685089 5.55579 0
      vertex 0.172897 7.24419 0
      vertex 11.5303 13.6294 0
    endloop
  endfacet
  facet normal 0 0 -1
    outer loop
      vertex 11.5303 13.6294 0
      vertex 0.172897 7.24419 0
      vertex 0 9 0
    endloop
  endfacet
  facet normal 0 -0 -1
    outer loop
      vertex 9.65019 17.1036 0
      vertex 10.4463 15.2886 0
      vertex 0 9 0
    endloop
  endfacet
  facet normal 0 -0 -1
    outer loop
      vertex 10.4463 15.2886 0
      vertex 11.5303 13.6294 0
      vertex 0 9 0
    endloop
  endfacet
  facet normal 0 -0 -1
    outer loop
      vertex 9.1637 19.0249 0
      vertex 9.65019 17.1036 0
      vertex 0 9 0
    endloop
  endfacet
  facet normal 0 -0 -1
    outer loop
      vertex 9 21 0
      vertex 9.1637 19.0249 0
      vertex 0 9 0
    endloop
  endfacet
  facet normal 0 0 -1
    outer loop
      vertex 0 33 0
      vertex 9 21 0
      vertex 0 9 0
    endloop
  endfacet
  facet normal 0 0 -1
    outer loop
      vertex 3.21489 39.8944 0
      vertex 4.5 40.7942 0
      vertex 12.8726 29.8287 0
    endloop
  endfacet
  facet normal 0 0 -1
    outer loop
      vertex 12.8726 29.8287 0
      vertex 4.5 40.7942 0
      vertex 5.9218 41.4572 0
    endloop
  endfacet
  facet normal 0 -0 -1
    outer loop
      vertex 7.43719 41.8633 0
      vertex 12.8726 29.8287 0
      vertex 5.9218 41.4572 0
    endloop
  endfacet
  facet normal 0 0 -1
    outer loop
      vertex 7.43719 41.8633 0
      vertex 9 42 0
      vertex 12.8726 29.8287 0
    endloop
  endfacet
  facet normal 0 0 -1
    outer loop
      vertex 12.8726 29.8287 0
      vertex 9 42 0
      vertex 14.4366 31.046 0
    endloop
  endfacet
  facet normal 0 0 -1
    outer loop
      vertex 14.4366 31.046 0
      vertex 9 42 0
      vertex 16.1797 31.9893 0
    endloop
  endfacet
  facet normal 0 0 -1
    outer loop
      vertex 16.1797 31.9893 0
      vertex 9 42 0
      vertex 18.0542 32.6328 0
    endloop
  endfacet
  facet normal -0 0 -1
    outer loop
      vertex 20.009 32.959 0
      vertex 18.0542 32.6328 0
      vertex 9 42 0
    endloop
  endfacet
  facet normal 0 0 -1
    outer loop
      vertex 21.991 32.959 0
      vertex 20.009 32.959 0
      vertex 9 42 0
    endloop
  endfacet
  facet normal -0 0 -1
    outer loop
      vertex 40.1867 42 0
      vertex 21.991 32.959 0
      vertex 9 42 0
    endloop
  endfacet
  facet normal 0 0 -1
    outer loop
      vertex 25.8203 31.9893 0
      vertex 23.9458 32.6328 0
      vertex 40.1867 42 0
    endloop
  endfacet
  facet normal 0 0 -1
    outer loop
      vertex 27.5634 31.046 0
      vertex 25.8203 31.9893 0
      vertex 40.1867 42 0
    endloop
  endfacet
  facet normal 0 0 -1
    outer loop
      vertex 29.1274 29.8287 0
      vertex 27.5634 31.046 0
      vertex 40.1867 42 0
    endloop
  endfacet
  facet normal 0 0 -1
    outer loop
      vertex 30.4697 28.3706 0
      vertex 29.1274 29.8287 0
      vertex 40.1867 42 0
    endloop
  endfacet
  facet normal 0 0 -1
    outer loop
      vertex 31.5537 26.7114 0
      vertex 30.4697 28.3706 0
      vertex 40.1867 42 0
    endloop
  endfacet
  facet normal -0 0 -1
    outer loop
      vertex 45.7462 22.8471 0
      vertex 44.9236 21.3081 0
      vertex 32.8363 22.9751 0
    endloop
  endfacet
  facet normal 0 0 -1
    outer loop
      vertex 44.246 17.9016 0
      vertex 32.8363 19.0249 0
      vertex 44.417 19.6382 0
    endloop
  endfacet
  facet normal 0 -0 -1
    outer loop
      vertex 31.5537 15.2886 0
      vertex 44.9236 14.4951 0
      vertex 30.4697 13.6294 0
    endloop
  endfacet
  facet normal -0 0 -1
    outer loop
      vertex 44.9236 21.3081 0
      vertex 33 21 0
      vertex 32.8363 22.9751 0
    endloop
  endfacet
  facet normal 0 0 -1
    outer loop
      vertex 31.5537 26.7114 0
      vertex 46.8532 24.196 0
      vertex 32.3498 24.8964 0
    endloop
  endfacet
  facet normal -0 0 -1
    outer loop
      vertex 45.7462 12.9561 0
      vertex 29.1274 12.1713 0
      vertex 30.4697 13.6294 0
    endloop
  endfacet
  facet normal 0 -0 -1
    outer loop
      vertex 45.7462 12.9561 0
      vertex 46.8532 11.6072 0
      vertex 29.1274 12.1713 0
    endloop
  endfacet
  facet normal 0 -0 -1
    outer loop
      vertex 46.8532 11.6072 0
      vertex 48.2021 10.5002 0
      vertex 27.5634 10.954 0
    endloop
  endfacet
  facet normal 0 -0 -1
    outer loop
      vertex 48.2021 10.5002 0
      vertex 49.7411 9.6776 0
      vertex 25.8203 10.0107 0
    endloop
  endfacet
  facet normal 0 0 -1
    outer loop
      vertex 9 0 0
      vertex 49.7411 9.6776 0
      vertex 51.4109 9.17099 0
    endloop
  endfacet
  facet normal 0 0 -1
    outer loop
      vertex 9 0 0
      vertex 53.1476 9 0
      vertex 97.3296 0 0
    endloop
  endfacet
  facet normal 0 0 -1
    outer loop
      vertex 9 0 0
      vertex 51.4109 9.17099 0
      vertex 53.1476 9 0
    endloop
  endfacet
  facet normal -0 0 -1
    outer loop
      vertex 75.5192 17.3749 0
      vertex 74.726 17.1343 0
      vertex 60.549 22.8471 0
    endloop
  endfacet
  facet normal 0 -0 -1
    outer loop
      vertex 27.5634 10.954 0
      vertex 48.2021 10.5002 0
      vertex 25.8203 10.0107 0
    endloop
  endfacet
  facet normal -0 0 -1
    outer loop
      vertex 49.7411 9.6776 0
      vertex 23.9458 9.36719 0
      vertex 25.8203 10.0107 0
    endloop
  endfacet
  facet normal 0 0 -1
    outer loop
      vertex 45.7462 22.8471 0
      vertex 32.8363 22.9751 0
      vertex 32.3498 24.8964 0
    endloop
  endfacet
  facet normal 0 -0 -1
    outer loop
      vertex 29.1274 12.1713 0
      vertex 46.8532 11.6072 0
      vertex 27.5634 10.954 0
    endloop
  endfacet
  facet normal 0 -0 -1
    outer loop
      vertex 44.9236 14.4951 0
      vertex 45.7462 12.9561 0
      vertex 30.4697 13.6294 0
    endloop
  endfacet
  facet normal 0 -0 -1
    outer loop
      vertex 32.3498 17.1036 0
      vertex 44.417 16.165 0
      vertex 31.5537 15.2886 0
    endloop
  endfacet
  facet normal 0 0 -1
    outer loop
      vertex 32.3498 17.1036 0
      vertex 44.246 17.9016 0
      vertex 44.417 16.165 0
    endloop
  endfacet
  facet normal 0 0 -1
    outer loop
      vertex 32.3498 17.1036 0
      vertex 32.8363 19.0249 0
      vertex 44.246 17.9016 0
    endloop
  endfacet
  facet normal 0 0 -1
    outer loop
      vertex 32.8363 19.0249 0
      vertex 33 21 0
      vertex 44.417 19.6382 0
    endloop
  endfacet
  facet normal 0 0 -1
    outer loop
      vertex 44.417 19.6382 0
      vertex 33 21 0
      vertex 44.9236 21.3081 0
    endloop
  endfacet
  facet normal -0 0 -1
    outer loop
      vertex 46.8532 24.196 0
      vertex 45.7462 22.8471 0
      vertex 32.3498 24.8964 0
    endloop
  endfacet
  facet normal 0 0 -1
    outer loop
      vertex 43.6718 41.2978 0
      vertex 58.093 25.303 0
      vertex 56.5541 26.1256 0
    endloop
  endfacet
  facet normal 0 0 -1
    outer loop
      vertex 31.5537 26.7114 0
      vertex 43.6718 41.2978 0
      vertex 46.8532 24.196 0
    endloop
  endfacet
  facet normal 0 0 -1
    outer loop
      vertex 46.8532 24.196 0
      vertex 43.6718 41.2978 0
      vertex 48.2021 25.303 0
    endloop
  endfacet
  facet normal 0 0 -1
    outer loop
      vertex 48.2021 25.303 0
      vertex 43.6718 41.2978 0
      vertex 49.7411 26.1256 0
    endloop
  endfacet
  facet normal 0 0 -1
    outer loop
      vertex 49.7411 26.1256 0
      vertex 43.6718 41.2978 0
      vertex 51.4109 26.6322 0
    endloop
  endfacet
  facet normal 0 0 -1
    outer loop
      vertex 51.4109 26.6322 0
      vertex 43.6718 41.2978 0
      vertex 53.1476 26.8032 0
    endloop
  endfacet
  facet normal 0 0 -1
    outer loop
      vertex 53.1476 26.8032 0
      vertex 43.6718 41.2978 0
      vertex 54.8842 26.6322 0
    endloop
  endfacet
  facet normal 0 0 -1
    outer loop
      vertex 54.8842 26.6322 0
      vertex 43.6718 41.2978 0
      vertex 56.5541 26.1256 0
    endloop
  endfacet
  facet normal 0 0 -1
    outer loop
      vertex 76.344 17.4562 0
      vertex 59.4419 24.196 0
      vertex 58.093 25.303 0
    endloop
  endfacet
  facet normal -0 0 -1
    outer loop
      vertex 73.995 16.7436 0
      vertex 73.3543 16.2178 0
      vertex 61.8781 19.6382 0
    endloop
  endfacet
  facet normal 0 0 -1
    outer loop
      vertex 72.1972 14.0529 0
      vertex 61.8781 16.165 0
      vertex 72.4378 14.8461 0
    endloop
  endfacet
  facet normal 0 0 -1
    outer loop
      vertex 60.549 12.9561 0
      vertex 61.3716 14.4951 0
      vertex 72.1972 12.4032 0
    endloop
  endfacet
  facet normal 0 0 -1
    outer loop
      vertex 72.4378 11.6101 0
      vertex 60.549 12.9561 0
      vertex 72.1972 12.4032 0
    endloop
  endfacet
  facet normal 0 0 -1
    outer loop
      vertex 72.8285 10.8791 0
      vertex 59.4419 11.6072 0
      vertex 60.549 12.9561 0
    endloop
  endfacet
  facet normal 0 0 -1
    outer loop
      vertex 100.815 17.2978 0
      vertex 79.8595 15.5771 0
      vertex 79.3337 16.2178 0
    endloop
  endfacet
  facet normal 0 -0 -1
    outer loop
      vertex 58.093 10.5002 0
      vertex 73.995 9.71259 0
      vertex 56.5541 9.6776 0
    endloop
  endfacet
  facet normal 0 -0 -1
    outer loop
      vertex 56.5541 9.6776 0
      vertex 74.726 9.32179 0
      vertex 54.8842 9.17099 0
    endloop
  endfacet
  facet normal 0 0 -1
    outer loop
      vertex 54.8842 9.17099 0
      vertex 74.726 9.32179 0
      vertex 75.5192 9.08119 0
    endloop
  endfacet
  facet normal 0 0 -1
    outer loop
      vertex 97.3296 0 0
      vertex 54.8842 9.17099 0
      vertex 75.5192 9.08119 0
    endloop
  endfacet
  facet normal -0 -0 -1
    outer loop
      vertex 76.344 9 0
      vertex 97.3296 0 0
      vertex 75.5192 9.08119 0
    endloop
  endfacet
  facet normal 0 -0 -1
    outer loop
      vertex 54.8842 9.17099 0
      vertex 97.3296 0 0
      vertex 53.1476 9 0
    endloop
  endfacet
  facet normal 0 0 -1
    outer loop
      vertex 59.4419 11.6072 0
      vertex 72.8285 10.8791 0
      vertex 73.3543 10.2384 0
    endloop
  endfacet
  facet normal -0 -0 -1
    outer loop
      vertex 73.3543 10.2384 0
      vertex 73.995 9.71259 0
      vertex 58.093 10.5002 0
    endloop
  endfacet
  facet normal 0 0 -1
    outer loop
      vertex 56.5541 9.6776 0
      vertex 73.995 9.71259 0
      vertex 74.726 9.32179 0
    endloop
  endfacet
  facet normal 0 -0 -1
    outer loop
      vertex 59.4419 11.6072 0
      vertex 73.3543 10.2384 0
      vertex 58.093 10.5002 0
    endloop
  endfacet
  facet normal -0 -0 -1
    outer loop
      vertex 72.4378 11.6101 0
      vertex 72.8285 10.8791 0
      vertex 60.549 12.9561 0
    endloop
  endfacet
  facet normal 0 0 -1
    outer loop
      vertex 72.1972 12.4032 0
      vertex 61.3716 14.4951 0
      vertex 72.1159 13.2281 0
    endloop
  endfacet
  facet normal 0 0 -1
    outer loop
      vertex 72.1159 13.2281 0
      vertex 61.3716 14.4951 0
      vertex 61.8781 16.165 0
    endloop
  endfacet
  facet normal -0 0 -1
    outer loop
      vertex 72.1972 14.0529 0
      vertex 72.1159 13.2281 0
      vertex 61.8781 16.165 0
    endloop
  endfacet
  facet normal 0 0 -1
    outer loop
      vertex 72.4378 14.8461 0
      vertex 61.8781 16.165 0
      vertex 62.0492 17.9016 0
    endloop
  endfacet
  facet normal -0 0 -1
    outer loop
      vertex 72.8285 15.5771 0
      vertex 72.4378 14.8461 0
      vertex 62.0492 17.9016 0
    endloop
  endfacet
  facet normal 0 0 -1
    outer loop
      vertex 61.8781 19.6382 0
      vertex 72.8285 15.5771 0
      vertex 62.0492 17.9016 0
    endloop
  endfacet
  facet normal 0 0 -1
    outer loop
      vertex 61.8781 19.6382 0
      vertex 73.3543 16.2178 0
      vertex 72.8285 15.5771 0
    endloop
  endfacet
  facet normal 0 0 -1
    outer loop
      vertex 61.3716 21.3081 0
      vertex 73.995 16.7436 0
      vertex 61.8781 19.6382 0
    endloop
  endfacet
  facet normal 0 0 -1
    outer loop
      vertex 61.3716 21.3081 0
      vertex 74.726 17.1343 0
      vertex 73.995 16.7436 0
    endloop
  endfacet
  facet normal 0 0 -1
    outer loop
      vertex 61.3716 21.3081 0
      vertex 60.549 22.8471 0
      vertex 74.726 17.1343 0
    endloop
  endfacet
  facet normal 0 0 -1
    outer loop
      vertex 60.549 22.8471 0
      vertex 59.4419 24.196 0
      vertex 75.5192 17.3749 0
    endloop
  endfacet
  facet normal 0 0 -1
    outer loop
      vertex 75.5192 17.3749 0
      vertex 59.4419 24.196 0
      vertex 76.344 17.4562 0
    endloop
  endfacet
  facet normal 0 0 -1
    outer loop
      vertex 77.1689 17.3749 0
      vertex 58.093 25.303 0
      vertex 43.6718 41.2978 0
    endloop
  endfacet
  facet normal 0 0 -1
    outer loop
      vertex 76.344 17.4562 0
      vertex 58.093 25.303 0
      vertex 77.1689 17.3749 0
    endloop
  endfacet
  facet normal 0 0 -1
    outer loop
      vertex 77.1689 17.3749 0
      vertex 43.6718 41.2978 0
      vertex 100.815 17.2978 0
    endloop
  endfacet
  facet normal 0 0 -1
    outer loop
      vertex 77.962 17.1343 0
      vertex 77.1689 17.3749 0
      vertex 100.815 17.2978 0
    endloop
  endfacet
  facet normal 0 0 -1
    outer loop
      vertex 78.693 16.7436 0
      vertex 77.962 17.1343 0
      vertex 100.815 17.2978 0
    endloop
  endfacet
  facet normal 0 0 -1
    outer loop
      vertex 100.815 17.2978 0
      vertex 79.3337 16.2178 0
      vertex 78.693 16.7436 0
    endloop
  endfacet
  facet normal 0 0 -1
    outer loop
      vertex 79.8595 15.5771 0
      vertex 100.815 17.2978 0
      vertex 80.2503 14.8461 0
    endloop
  endfacet
  facet normal 0 0 -1
    outer loop
      vertex 80.2503 14.8461 0
      vertex 100.815 17.2978 0
      vertex 80.4909 14.0529 0
    endloop
  endfacet
  facet normal 0 0 -1
    outer loop
      vertex 80.4909 14.0529 0
      vertex 100.815 17.2978 0
      vertex 80.5721 13.2281 0
    endloop
  endfacet
  facet normal 0 -0 -1
    outer loop
      vertex 80.5721 13.2281 0
      vertex 100.815 17.2978 0
      vertex 80.4909 12.4032 0
    endloop
  endfacet
  facet normal 0 0 -1
    outer loop
      vertex 80.4909 12.4032 0
      vertex 100.815 17.2978 0
      vertex 97.3296 0 0
    endloop
  endfacet
  facet normal 0 0 -1
    outer loop
      vertex 80.2503 11.6101 0
      vertex 80.4909 12.4032 0
      vertex 97.3296 0 0
    endloop
  endfacet
  facet normal 0 0 -1
    outer loop
      vertex 79.8595 10.8791 0
      vertex 80.2503 11.6101 0
      vertex 97.3296 0 0
    endloop
  endfacet
  facet normal 0 0 -1
    outer loop
      vertex 79.3337 10.2384 0
      vertex 79.8595 10.8791 0
      vertex 97.3296 0 0
    endloop
  endfacet
  facet normal 0 0 -1
    outer loop
      vertex 78.693 9.71259 0
      vertex 79.3337 10.2384 0
      vertex 97.3296 0 0
    endloop
  endfacet
  facet normal 0 0 -1
    outer loop
      vertex 77.962 9.32179 0
      vertex 78.693 9.71259 0
      vertex 97.3296 0 0
    endloop
  endfacet
  facet normal 0 0 -1
    outer loop
      vertex 76.344 9 0
      vertex 77.1689 9.08119 0
      vertex 97.3296 0 0
    endloop
  endfacet
  facet normal 0 0 -1
    outer loop
      vertex 77.1689 9.08119 0
      vertex 77.962 9.32179 0
      vertex 97.3296 0 0
    endloop
  endfacet
  facet normal 0 0 1
    outer loop
      vertex 97.3296 0 30
      vertex 99.0823 0.172287 30
      vertex 100.768 0.682693 30
    endloop
  endfacet
  facet normal 0 -0 1
    outer loop
      vertex 103.685 2.62709 30
      vertex 104.804 3.98669 30
      vertex 100.768 0.682693 30
    endloop
  endfacet
  facet normal 0 -0 1
    outer loop
      vertex 102.322 1.51149 30
      vertex 103.685 2.62709 30
      vertex 100.768 0.682693 30
    endloop
  endfacet
  facet normal 0 -0 1
    outer loop
      vertex 104.804 3.98669 30
      vertex 105.637 5.5383 30
      vertex 100.768 0.682693 30
    endloop
  endfacet
  facet normal 0 -0 1
    outer loop
      vertex 105.637 5.5383 30
      vertex 106.329 8.97469 30
      vertex 100.768 0.682693 30
    endloop
  endfacet
  facet normal 0 -0 1
    outer loop
      vertex 106.152 7.2224 30
      vertex 106.329 8.97469 30
      vertex 105.637 5.5383 30
    endloop
  endfacet
  facet normal 0 0 1
    outer loop
      vertex 106.329 8.97469 30
      vertex 100.815 17.2978 30
      vertex 100.768 0.682693 30
    endloop
  endfacet
  facet normal 0 0 1
    outer loop
      vertex 106.162 10.7278 30
      vertex 105.657 12.4149 30
      vertex 104.832 13.9711 30
    endloop
  endfacet
  facet normal 0 0 1
    outer loop
      vertex 106.162 10.7278 30
      vertex 104.832 13.9711 30
      vertex 106.329 8.97469 30
    endloop
  endfacet
  facet normal 0 0 1
    outer loop
      vertex 104.832 13.9711 30
      vertex 100.815 17.2978 30
      vertex 106.329 8.97469 30
    endloop
  endfacet
  facet normal 0 0 1
    outer loop
      vertex 103.72 15.337 30
      vertex 102.364 16.4603 30
      vertex 100.815 17.2978 30
    endloop
  endfacet
  facet normal 0 0 1
    outer loop
      vertex 103.72 15.337 30
      vertex 100.815 17.2978 30
      vertex 104.832 13.9711 30
    endloop
  endfacet
  facet normal 0 0 1
    outer loop
      vertex 100.815 17.2978 30
      vertex 97.3296 0 30
      vertex 100.768 0.682693 30
    endloop
  endfacet
  facet normal 0 0 1
    outer loop
      vertex 44.9236 14.4951 30
      vertex 44.417 16.165 30
      vertex 31.5537 15.2886 30
    endloop
  endfacet
  facet normal 0 0 1
    outer loop
      vertex 42.5446 41.6856 30
      vertex 41.3761 41.9211 30
      vertex 40.1867 42 30
    endloop
  endfacet
  facet normal 0 0 1
    outer loop
      vertex 42.5446 41.6856 30
      vertex 40.1867 42 30
      vertex 43.6718 41.2978 30
    endloop
  endfacet
  facet normal -0 0 1
    outer loop
      vertex 0 33 30
      vertex 11.5303 28.3706 30
      vertex 0.136688 34.5628 30
    endloop
  endfacet
  facet normal 0 -0 1
    outer loop
      vertex 11.5303 28.3706 30
      vertex 12.8726 29.8287 30
      vertex 0.542786 36.0782 30
    endloop
  endfacet
  facet normal 0 0 1
    outer loop
      vertex 3.21489 39.8944 30
      vertex 2.10559 38.7851 30
      vertex 12.8726 29.8287 30
    endloop
  endfacet
  facet normal 0 0 1
    outer loop
      vertex 2.10559 38.7851 30
      vertex 1.2058 37.5 30
      vertex 12.8726 29.8287 30
    endloop
  endfacet
  facet normal 0 0 1
    outer loop
      vertex 11.5303 28.3706 30
      vertex 0.542786 36.0782 30
      vertex 0.136688 34.5628 30
    endloop
  endfacet
  facet normal 0 -0 1
    outer loop
      vertex 10.4463 26.7114 30
      vertex 11.5303 28.3706 30
      vertex 0 33 30
    endloop
  endfacet
  facet normal 0 0 1
    outer loop
      vertex 10.4463 26.7114 30
      vertex 0 33 30
      vertex 9.65019 24.8964 30
    endloop
  endfacet
  facet normal -0 0 1
    outer loop
      vertex 0.542786 36.0782 30
      vertex 12.8726 29.8287 30
      vertex 1.2058 37.5 30
    endloop
  endfacet
  facet normal -0 0 1
    outer loop
      vertex 20.009 9.04099 30
      vertex 9 0 30
      vertex 21.991 9.04099 30
    endloop
  endfacet
  facet normal 0 -0 1
    outer loop
      vertex 9 0 30
      vertex 12.8726 12.1713 30
      vertex 7.24419 0.172897 30
    endloop
  endfacet
  facet normal 0 0 1
    outer loop
      vertex 12.8726 12.1713 30
      vertex 1.5168 3.99989 30
      vertex 2.63599 2.63599 30
    endloop
  endfacet
  facet normal 0 0 1
    outer loop
      vertex 12.8726 12.1713 30
      vertex 2.63599 2.63599 30
      vertex 3.99989 1.5168 30
    endloop
  endfacet
  facet normal 0 -0 1
    outer loop
      vertex 7.24419 0.172897 30
      vertex 12.8726 12.1713 30
      vertex 5.55579 0.685089 30
    endloop
  endfacet
  facet normal 0 0 1
    outer loop
      vertex 12.8726 12.1713 30
      vertex 3.99989 1.5168 30
      vertex 5.55579 0.685089 30
    endloop
  endfacet
  facet normal 0 0 1
    outer loop
      vertex 16.1797 10.0107 30
      vertex 14.4366 10.954 30
      vertex 9 0 30
    endloop
  endfacet
  facet normal 0 0 1
    outer loop
      vertex 14.4366 10.954 30
      vertex 12.8726 12.1713 30
      vertex 9 0 30
    endloop
  endfacet
  facet normal 0 0 1
    outer loop
      vertex 23.9458 9.36719 30
      vertex 21.991 9.04099 30
      vertex 9 0 30
    endloop
  endfacet
  facet normal 0 -0 1
    outer loop
      vertex 9 21 30
      vertex 9.1637 22.9751 30
      vertex 0 33 30
    endloop
  endfacet
  facet normal 0 -0 1
    outer loop
      vertex 9.1637 22.9751 30
      vertex 9.65019 24.8964 30
      vertex 0 33 30
    endloop
  endfacet
  facet normal 0 0 1
    outer loop
      vertex 40.1867 42 30
      vertex 31.5537 26.7114 30
      vertex 43.6718 41.2978 30
    endloop
  endfacet
  facet normal 0 0 1
    outer loop
      vertex 40.1867 42 30
      vertex 21.991 32.959 30
      vertex 23.9458 32.6328 30
    endloop
  endfacet
  facet normal 0 0 1
    outer loop
      vertex 9 0 30
      vertex 49.7411 9.6776 30
      vertex 23.9458 9.36719 30
    endloop
  endfacet
  facet normal 0 0 1
    outer loop
      vertex 18.0542 9.36719 30
      vertex 9 0 30
      vertex 20.009 9.04099 30
    endloop
  endfacet
  facet normal 0 0 1
    outer loop
      vertex 16.1797 10.0107 30
      vertex 9 0 30
      vertex 18.0542 9.36719 30
    endloop
  endfacet
  facet normal 0 -0 1
    outer loop
      vertex 1.5168 3.99989 30
      vertex 12.8726 12.1713 30
      vertex 0.685089 5.55579 30
    endloop
  endfacet
  facet normal 0 0 1
    outer loop
      vertex 12.8726 12.1713 30
      vertex 11.5303 13.6294 30
      vertex 0.685089 5.55579 30
    endloop
  endfacet
  facet normal 0 0 1
    outer loop
      vertex 11.5303 13.6294 30
      vertex 0.172897 7.24419 30
      vertex 0.685089 5.55579 30
    endloop
  endfacet
  facet normal -0 0 1
    outer loop
      vertex 0 9 30
      vertex 0.172897 7.24419 30
      vertex 11.5303 13.6294 30
    endloop
  endfacet
  facet normal 0 0 1
    outer loop
      vertex 0 9 30
      vertex 10.4463 15.2886 30
      vertex 9.65019 17.1036 30
    endloop
  endfacet
  facet normal 0 0 1
    outer loop
      vertex 0 9 30
      vertex 11.5303 13.6294 30
      vertex 10.4463 15.2886 30
    endloop
  endfacet
  facet normal 0 0 1
    outer loop
      vertex 0 9 30
      vertex 9.65019 17.1036 30
      vertex 9.1637 19.0249 30
    endloop
  endfacet
  facet normal 0 0 1
    outer loop
      vertex 0 9 30
      vertex 9.1637 19.0249 30
      vertex 9 21 30
    endloop
  endfacet
  facet normal 0 0 1
    outer loop
      vertex 0 9 30
      vertex 9 21 30
      vertex 0 33 30
    endloop
  endfacet
  facet normal 0 0 1
    outer loop
      vertex 12.8726 29.8287 30
      vertex 4.5 40.7942 30
      vertex 3.21489 39.8944 30
    endloop
  endfacet
  facet normal 0 0 1
    outer loop
      vertex 5.9218 41.4572 30
      vertex 4.5 40.7942 30
      vertex 12.8726 29.8287 30
    endloop
  endfacet
  facet normal -0 0 1
    outer loop
      vertex 5.9218 41.4572 30
      vertex 12.8726 29.8287 30
      vertex 7.43719 41.8633 30
    endloop
  endfacet
  facet normal 0 0 1
    outer loop
      vertex 12.8726 29.8287 30
      vertex 9 42 30
      vertex 7.43719 41.8633 30
    endloop
  endfacet
  facet normal 0 0 1
    outer loop
      vertex 14.4366 31.046 30
      vertex 9 42 30
      vertex 12.8726 29.8287 30
    endloop
  endfacet
  facet normal 0 0 1
    outer loop
      vertex 16.1797 31.9893 30
      vertex 9 42 30
      vertex 14.4366 31.046 30
    endloop
  endfacet
  facet normal 0 0 1
    outer loop
      vertex 18.0542 32.6328 30
      vertex 9 42 30
      vertex 16.1797 31.9893 30
    endloop
  endfacet
  facet normal 0 0 1
    outer loop
      vertex 9 42 30
      vertex 18.0542 32.6328 30
      vertex 20.009 32.959 30
    endloop
  endfacet
  facet normal 0 0 1
    outer loop
      vertex 9 42 30
      vertex 20.009 32.959 30
      vertex 21.991 32.959 30
    endloop
  endfacet
  facet normal -0 0 1
    outer loop
      vertex 9 42 30
      vertex 21.991 32.959 30
      vertex 40.1867 42 30
    endloop
  endfacet
  facet normal 0 0 1
    outer loop
      vertex 40.1867 42 30
      vertex 23.9458 32.6328 30
      vertex 25.8203 31.9893 30
    endloop
  endfacet
  facet normal 0 0 1
    outer loop
      vertex 40.1867 42 30
      vertex 25.8203 31.9893 30
      vertex 27.5634 31.046 30
    endloop
  endfacet
  facet normal 0 0 1
    outer loop
      vertex 40.1867 42 30
      vertex 27.5634 31.046 30
      vertex 29.1274 29.8287 30
    endloop
  endfacet
  facet normal 0 0 1
    outer loop
      vertex 40.1867 42 30
      vertex 29.1274 29.8287 30
      vertex 30.4697 28.3706 30
    endloop
  endfacet
  facet normal 0 0 1
    outer loop
      vertex 40.1867 42 30
      vertex 30.4697 28.3706 30
      vertex 31.5537 26.7114 30
    endloop
  endfacet
  facet normal 0 0 1
    outer loop
      vertex 32.8363 22.9751 30
      vertex 44.9236 21.3081 30
      vertex 45.7462 22.8471 30
    endloop
  endfacet
  facet normal 0 0 1
    outer loop
      vertex 44.417 19.6382 30
      vertex 32.8363 19.0249 30
      vertex 44.246 17.9016 30
    endloop
  endfacet
  facet normal 0 0 1
    outer loop
      vertex 30.4697 13.6294 30
      vertex 44.9236 14.4951 30
      vertex 31.5537 15.2886 30
    endloop
  endfacet
  facet normal 0 0 1
    outer loop
      vertex 32.8363 22.9751 30
      vertex 33 21 30
      vertex 44.9236 21.3081 30
    endloop
  endfacet
  facet normal -0 -0 1
    outer loop
      vertex 32.3498 24.8964 30
      vertex 46.8532 24.196 30
      vertex 31.5537 26.7114 30
    endloop
  endfacet
  facet normal 0 0 1
    outer loop
      vertex 30.4697 13.6294 30
      vertex 29.1274 12.1713 30
      vertex 45.7462 12.9561 30
    endloop
  endfacet
  facet normal -0 0 1
    outer loop
      vertex 29.1274 12.1713 30
      vertex 46.8532 11.6072 30
      vertex 45.7462 12.9561 30
    endloop
  endfacet
  facet normal -0 0 1
    outer loop
      vertex 27.5634 10.954 30
      vertex 48.2021 10.5002 30
      vertex 46.8532 11.6072 30
    endloop
  endfacet
  facet normal -0 0 1
    outer loop
      vertex 25.8203 10.0107 30
      vertex 49.7411 9.6776 30
      vertex 48.2021 10.5002 30
    endloop
  endfacet
  facet normal 0 0 1
    outer loop
      vertex 51.4109 9.17099 30
      vertex 49.7411 9.6776 30
      vertex 9 0 30
    endloop
  endfacet
  facet normal 0 0 1
    outer loop
      vertex 97.3296 0 30
      vertex 53.1476 9 30
      vertex 9 0 30
    endloop
  endfacet
  facet normal 0 0 1
    outer loop
      vertex 53.1476 9 30
      vertex 51.4109 9.17099 30
      vertex 9 0 30
    endloop
  endfacet
  facet normal 0 0 1
    outer loop
      vertex 60.549 22.8471 30
      vertex 74.726 17.1343 30
      vertex 75.5192 17.3749 30
    endloop
  endfacet
  facet normal 0 0 1
    outer loop
      vertex 25.8203 10.0107 30
      vertex 48.2021 10.5002 30
      vertex 27.5634 10.954 30
    endloop
  endfacet
  facet normal 0 0 1
    outer loop
      vertex 25.8203 10.0107 30
      vertex 23.9458 9.36719 30
      vertex 49.7411 9.6776 30
    endloop
  endfacet
  facet normal 0 0 1
    outer loop
      vertex 32.3498 24.8964 30
      vertex 32.8363 22.9751 30
      vertex 45.7462 22.8471 30
    endloop
  endfacet
  facet normal 0 0 1
    outer loop
      vertex 27.5634 10.954 30
      vertex 46.8532 11.6072 30
      vertex 29.1274 12.1713 30
    endloop
  endfacet
  facet normal -0 0 1
    outer loop
      vertex 30.4697 13.6294 30
      vertex 45.7462 12.9561 30
      vertex 44.9236 14.4951 30
    endloop
  endfacet
  facet normal 0 0 1
    outer loop
      vertex 31.5537 15.2886 30
      vertex 44.417 16.165 30
      vertex 32.3498 17.1036 30
    endloop
  endfacet
  facet normal 0 0 1
    outer loop
      vertex 44.417 16.165 30
      vertex 44.246 17.9016 30
      vertex 32.3498 17.1036 30
    endloop
  endfacet
  facet normal 0 0 1
    outer loop
      vertex 44.246 17.9016 30
      vertex 32.8363 19.0249 30
      vertex 32.3498 17.1036 30
    endloop
  endfacet
  facet normal 0 0 1
    outer loop
      vertex 44.417 19.6382 30
      vertex 33 21 30
      vertex 32.8363 19.0249 30
    endloop
  endfacet
  facet normal 0 0 1
    outer loop
      vertex 44.9236 21.3081 30
      vertex 33 21 30
      vertex 44.417 19.6382 30
    endloop
  endfacet
  facet normal 0 0 1
    outer loop
      vertex 32.3498 24.8964 30
      vertex 45.7462 22.8471 30
      vertex 46.8532 24.196 30
    endloop
  endfacet
  facet normal -0 -0 1
    outer loop
      vertex 56.5541 26.1256 30
      vertex 58.093 25.303 30
      vertex 43.6718 41.2978 30
    endloop
  endfacet
  facet normal 0 0 1
    outer loop
      vertex 46.8532 24.196 30
      vertex 43.6718 41.2978 30
      vertex 31.5537 26.7114 30
    endloop
  endfacet
  facet normal 0 0 1
    outer loop
      vertex 48.2021 25.303 30
      vertex 43.6718 41.2978 30
      vertex 46.8532 24.196 30
    endloop
  endfacet
  facet normal 0 0 1
    outer loop
      vertex 49.7411 26.1256 30
      vertex 43.6718 41.2978 30
      vertex 48.2021 25.303 30
    endloop
  endfacet
  facet normal 0 0 1
    outer loop
      vertex 51.4109 26.6322 30
      vertex 43.6718 41.2978 30
      vertex 49.7411 26.1256 30
    endloop
  endfacet
  facet normal 0 0 1
    outer loop
      vertex 53.1476 26.8032 30
      vertex 43.6718 41.2978 30
      vertex 51.4109 26.6322 30
    endloop
  endfacet
  facet normal 0 0 1
    outer loop
      vertex 54.8842 26.6322 30
      vertex 43.6718 41.2978 30
      vertex 53.1476 26.8032 30
    endloop
  endfacet
  facet normal 0 0 1
    outer loop
      vertex 56.5541 26.1256 30
      vertex 43.6718 41.2978 30
      vertex 54.8842 26.6322 30
    endloop
  endfacet
  facet normal 0 0 1
    outer loop
      vertex 58.093 25.303 30
      vertex 59.4419 24.196 30
      vertex 76.344 17.4562 30
    endloop
  endfacet
  facet normal 0 0 1
    outer loop
      vertex 61.8781 19.6382 30
      vertex 73.3543 16.2178 30
      vertex 73.995 16.7436 30
    endloop
  endfacet
  facet normal 0 0 1
    outer loop
      vertex 72.4378 14.8461 30
      vertex 61.8781 16.165 30
      vertex 72.1972 14.0529 30
    endloop
  endfacet
  facet normal 0 0 1
    outer loop
      vertex 72.1972 12.4032 30
      vertex 61.3716 14.4951 30
      vertex 60.549 12.9561 30
    endloop
  endfacet
  facet normal 0 0 1
    outer loop
      vertex 72.1972 12.4032 30
      vertex 60.549 12.9561 30
      vertex 72.4378 11.6101 30
    endloop
  endfacet
  facet normal 0 0 1
    outer loop
      vertex 60.549 12.9561 30
      vertex 59.4419 11.6072 30
      vertex 72.8285 10.8791 30
    endloop
  endfacet
  facet normal -0 0 1
    outer loop
      vertex 79.3337 16.2178 30
      vertex 79.8595 15.5771 30
      vertex 100.815 17.2978 30
    endloop
  endfacet
  facet normal 0 0 1
    outer loop
      vertex 56.5541 9.6776 30
      vertex 73.995 9.71259 30
      vertex 58.093 10.5002 30
    endloop
  endfacet
  facet normal 0 0 1
    outer loop
      vertex 54.8842 9.17099 30
      vertex 74.726 9.32179 30
      vertex 56.5541 9.6776 30
    endloop
  endfacet
  facet normal 0 0 1
    outer loop
      vertex 75.5192 9.08119 30
      vertex 74.726 9.32179 30
      vertex 54.8842 9.17099 30
    endloop
  endfacet
  facet normal 0 0 1
    outer loop
      vertex 75.5192 9.08119 30
      vertex 54.8842 9.17099 30
      vertex 97.3296 0 30
    endloop
  endfacet
  facet normal 0 0 1
    outer loop
      vertex 75.5192 9.08119 30
      vertex 97.3296 0 30
      vertex 76.344 9 30
    endloop
  endfacet
  facet normal -0 0 1
    outer loop
      vertex 53.1476 9 30
      vertex 97.3296 0 30
      vertex 54.8842 9.17099 30
    endloop
  endfacet
  facet normal 0 0 1
    outer loop
      vertex 73.3543 10.2384 30
      vertex 72.8285 10.8791 30
      vertex 59.4419 11.6072 30
    endloop
  endfacet
  facet normal 0 0 1
    outer loop
      vertex 58.093 10.5002 30
      vertex 73.995 9.71259 30
      vertex 73.3543 10.2384 30
    endloop
  endfacet
  facet normal 0 0 1
    outer loop
      vertex 74.726 9.32179 30
      vertex 73.995 9.71259 30
      vertex 56.5541 9.6776 30
    endloop
  endfacet
  facet normal -0 0 1
    outer loop
      vertex 58.093 10.5002 30
      vertex 73.3543 10.2384 30
      vertex 59.4419 11.6072 30
    endloop
  endfacet
  facet normal 0 0 1
    outer loop
      vertex 60.549 12.9561 30
      vertex 72.8285 10.8791 30
      vertex 72.4378 11.6101 30
    endloop
  endfacet
  facet normal 0 0 1
    outer loop
      vertex 72.1159 13.2281 30
      vertex 61.3716 14.4951 30
      vertex 72.1972 12.4032 30
    endloop
  endfacet
  facet normal 0 0 1
    outer loop
      vertex 61.8781 16.165 30
      vertex 61.3716 14.4951 30
      vertex 72.1159 13.2281 30
    endloop
  endfacet
  facet normal 0 0 1
    outer loop
      vertex 61.8781 16.165 30
      vertex 72.1159 13.2281 30
      vertex 72.1972 14.0529 30
    endloop
  endfacet
  facet normal 0 0 1
    outer loop
      vertex 62.0492 17.9016 30
      vertex 61.8781 16.165 30
      vertex 72.4378 14.8461 30
    endloop
  endfacet
  facet normal 0 0 1
    outer loop
      vertex 62.0492 17.9016 30
      vertex 72.4378 14.8461 30
      vertex 72.8285 15.5771 30
    endloop
  endfacet
  facet normal -0 -0 1
    outer loop
      vertex 62.0492 17.9016 30
      vertex 72.8285 15.5771 30
      vertex 61.8781 19.6382 30
    endloop
  endfacet
  facet normal 0 -0 1
    outer loop
      vertex 72.8285 15.5771 30
      vertex 73.3543 16.2178 30
      vertex 61.8781 19.6382 30
    endloop
  endfacet
  facet normal -0 -0 1
    outer loop
      vertex 61.8781 19.6382 30
      vertex 73.995 16.7436 30
      vertex 61.3716 21.3081 30
    endloop
  endfacet
  facet normal 0 -0 1
    outer loop
      vertex 73.995 16.7436 30
      vertex 74.726 17.1343 30
      vertex 61.3716 21.3081 30
    endloop
  endfacet
  facet normal 0 0 1
    outer loop
      vertex 74.726 17.1343 30
      vertex 60.549 22.8471 30
      vertex 61.3716 21.3081 30
    endloop
  endfacet
  facet normal 0 0 1
    outer loop
      vertex 75.5192 17.3749 30
      vertex 59.4419 24.196 30
      vertex 60.549 22.8471 30
    endloop
  endfacet
  facet normal 0 0 1
    outer loop
      vertex 76.344 17.4562 30
      vertex 59.4419 24.196 30
      vertex 75.5192 17.3749 30
    endloop
  endfacet
  facet normal 0 0 1
    outer loop
      vertex 43.6718 41.2978 30
      vertex 58.093 25.303 30
      vertex 77.1689 17.3749 30
    endloop
  endfacet
  facet normal 0 0 1
    outer loop
      vertex 77.1689 17.3749 30
      vertex 58.093 25.303 30
      vertex 76.344 17.4562 30
    endloop
  endfacet
  facet normal 0 0 1
    outer loop
      vertex 100.815 17.2978 30
      vertex 43.6718 41.2978 30
      vertex 77.1689 17.3749 30
    endloop
  endfacet
  facet normal 0 0 1
    outer loop
      vertex 100.815 17.2978 30
      vertex 77.1689 17.3749 30
      vertex 77.962 17.1343 30
    endloop
  endfacet
  facet normal 0 0 1
    outer loop
      vertex 100.815 17.2978 30
      vertex 77.962 17.1343 30
      vertex 78.693 16.7436 30
    endloop
  endfacet
  facet normal -0 0 1
    outer loop
      vertex 78.693 16.7436 30
      vertex 79.3337 16.2178 30
      vertex 100.815 17.2978 30
    endloop
  endfacet
  facet normal 0 -0 1
    outer loop
      vertex 80.2503 14.8461 30
      vertex 100.815 17.2978 30
      vertex 79.8595 15.5771 30
    endloop
  endfacet
  facet normal 0 -0 1
    outer loop
      vertex 80.4909 14.0529 30
      vertex 100.815 17.2978 30
      vertex 80.2503 14.8461 30
    endloop
  endfacet
  facet normal 0 -0 1
    outer loop
      vertex 80.5721 13.2281 30
      vertex 100.815 17.2978 30
      vertex 80.4909 14.0529 30
    endloop
  endfacet
  facet normal 0 0 1
    outer loop
      vertex 80.4909 12.4032 30
      vertex 100.815 17.2978 30
      vertex 80.5721 13.2281 30
    endloop
  endfacet
  facet normal 0 -0 1
    outer loop
      vertex 97.3296 0 30
      vertex 100.815 17.2978 30
      vertex 80.4909 12.4032 30
    endloop
  endfacet
  facet normal 0 0 1
    outer loop
      vertex 97.3296 0 30
      vertex 80.4909 12.4032 30
      vertex 80.2503 11.6101 30
    endloop
  endfacet
  facet normal 0 0 1
    outer loop
      vertex 97.3296 0 30
      vertex 80.2503 11.6101 30
      vertex 79.8595 10.8791 30
    endloop
  endfacet
  facet normal 0 0 1
    outer loop
      vertex 97.3296 0 30
      vertex 79.8595 10.8791 30
      vertex 79.3337 10.2384 30
    endloop
  endfacet
  facet normal 0 0 1
    outer loop
      vertex 97.3296 0 30
      vertex 79.3337 10.2384 30
      vertex 78.693 9.71259 30
    endloop
  endfacet
  facet normal 0 0 1
    outer loop
      vertex 97.3296 0 30
      vertex 78.693 9.71259 30
      vertex 77.962 9.32179 30
    endloop
  endfacet
  facet normal 0 0 1
    outer loop
      vertex 97.3296 0 30
      vertex 77.1689 9.08119 30
      vertex 76.344 9 30
    endloop
  endfacet
  facet normal 0 0 1
    outer loop
      vertex 97.3296 0 30
      vertex 77.962 9.32179 30
      vertex 77.1689 9.08119 30
    endloop
  endfacet
  facet normal 0.289793 -0.957089 0
    outer loop
      vertex 100.768 0.682693 0
      vertex 99.0823 0.172287 30
      vertex 99.0823 0.172287 0
    endloop
  endfacet
  facet normal 0.289793 -0.957089 0
    outer loop
      vertex 100.768 0.682693 0
      vertex 100.768 0.682693 30
      vertex 99.0823 0.172287 30
    endloop
  endfacet
  facet normal 0.470587 -0.882354 0
    outer loop
      vertex 102.322 1.51149 0
      vertex 100.768 0.682693 30
      vertex 100.768 0.682693 0
    endloop
  endfacet
  facet normal 0.470587 -0.882354 0
    outer loop
      vertex 102.322 1.51149 0
      vertex 102.322 1.51149 30
      vertex 100.768 0.682693 30
    endloop
  endfacet
  facet normal 0.63338 -0.773841 0
    outer loop
      vertex 103.685 2.62709 0
      vertex 102.322 1.51149 30
      vertex 102.322 1.51149 0
    endloop
  endfacet
  facet normal 0.63338 -0.773841 0
    outer loop
      vertex 103.685 2.62709 0
      vertex 103.685 2.62709 30
      vertex 102.322 1.51149 30
    endloop
  endfacet
  facet normal 0.772117 -0.63548 0
    outer loop
      vertex 104.804 3.98669 0
      vertex 103.685 2.62709 30
      vertex 103.685 2.62709 0
    endloop
  endfacet
  facet normal 0.772117 -0.63548 0
    outer loop
      vertex 104.804 3.98669 0
      vertex 104.804 3.98669 30
      vertex 103.685 2.62709 30
    endloop
  endfacet
  facet normal 0.881059 -0.473007 0
    outer loop
      vertex 105.637 5.5383 0
      vertex 104.804 3.98669 30
      vertex 104.804 3.98669 0
    endloop
  endfacet
  facet normal 0.881059 -0.473007 0
    outer loop
      vertex 105.637 5.5383 0
      vertex 105.637 5.5383 30
      vertex 104.804 3.98669 30
    endloop
  endfacet
  facet normal 0.956286 -0.292433 0
    outer loop
      vertex 106.152 7.2224 0
      vertex 105.637 5.5383 30
      vertex 105.637 5.5383 0
    endloop
  endfacet
  facet normal 0.956286 -0.292433 0
    outer loop
      vertex 106.152 7.2224 0
      vertex 106.152 7.2224 30
      vertex 105.637 5.5383 30
    endloop
  endfacet
  facet normal 0.994937 -0.100499 0
    outer loop
      vertex 106.329 8.97469 0
      vertex 106.152 7.2224 30
      vertex 106.152 7.2224 0
    endloop
  endfacet
  facet normal 0.994937 -0.100499 0
    outer loop
      vertex 106.329 8.97469 0
      vertex 106.329 8.97469 30
      vertex 106.152 7.2224 30
    endloop
  endfacet
  facet normal 0.995493 0.09483 0
    outer loop
      vertex 106.162 10.7278 0
      vertex 106.329 8.97469 30
      vertex 106.329 8.97469 0
    endloop
  endfacet
  facet normal 0.995493 0.09483 -0
    outer loop
      vertex 106.162 10.7278 0
      vertex 106.162 10.7278 30
      vertex 106.329 8.97469 30
    endloop
  endfacet
  facet normal 0.958003 0.286759 0
    outer loop
      vertex 105.657 12.4149 0
      vertex 106.162 10.7278 30
      vertex 106.162 10.7278 0
    endloop
  endfacet
  facet normal 0.958003 0.286759 -0
    outer loop
      vertex 105.657 12.4149 0
      vertex 105.657 12.4149 30
      vertex 106.162 10.7278 30
    endloop
  endfacet
  facet normal 0.883523 0.468388 0
    outer loop
      vertex 104.832 13.9711 0
      vertex 105.657 12.4149 30
      vertex 105.657 12.4149 0
    endloop
  endfacet
  facet normal 0.883523 0.468388 -0
    outer loop
      vertex 104.832 13.9711 0
      vertex 104.832 13.9711 30
      vertex 105.657 12.4149 30
    endloop
  endfacet
  facet normal 0.775501 0.631347 0
    outer loop
      vertex 103.72 15.337 0
      vertex 104.832 13.9711 30
      vertex 104.832 13.9711 0
    endloop
  endfacet
  facet normal 0.775501 0.631347 -0
    outer loop
      vertex 103.72 15.337 0
      vertex 103.72 15.337 30
      vertex 104.832 13.9711 30
    endloop
  endfacet
  facet normal 0.637936 0.770089 0
    outer loop
      vertex 102.364 16.4603 0
      vertex 103.72 15.337 30
      vertex 103.72 15.337 0
    endloop
  endfacet
  facet normal 0.637936 0.770089 -0
    outer loop
      vertex 102.364 16.4603 0
      vertex 102.364 16.4603 30
      vertex 103.72 15.337 30
    endloop
  endfacet
  facet normal 0.475606 0.879658 0
    outer loop
      vertex 100.815 17.2978 0
      vertex 102.364 16.4603 30
      vertex 102.364 16.4603 0
    endloop
  endfacet
  facet normal 0.475606 0.879658 -0
    outer loop
      vertex 100.815 17.2978 0
      vertex 100.815 17.2978 30
      vertex 102.364 16.4603 30
    endloop
  endfacet
  facet normal 0.387231 0.921983 0
    outer loop
      vertex 43.6718 41.2978 0
      vertex 100.815 17.2978 30
      vertex 100.815 17.2978 0
    endloop
  endfacet
  facet normal 0.387231 0.921983 -0
    outer loop
      vertex 43.6718 41.2978 0
      vertex 43.6718 41.2978 30
      vertex 100.815 17.2978 30
    endloop
  endfacet
  facet normal 0.325324 0.945603 0
    outer loop
      vertex 42.5446 41.6856 0
      vertex 43.6718 41.2978 30
      vertex 43.6718 41.2978 0
    endloop
  endfacet
  facet normal 0.325324 0.945603 -0
    outer loop
      vertex 42.5446 41.6856 0
      vertex 42.5446 41.6856 30
      vertex 43.6718 41.2978 30
    endloop
  endfacet
  facet normal 0.197568 0.980289 0
    outer loop
      vertex 41.3761 41.9211 0
      vertex 42.5446 41.6856 30
      vertex 42.5446 41.6856 0
    endloop
  endfacet
  facet normal 0.197568 0.980289 -0
    outer loop
      vertex 41.3761 41.9211 0
      vertex 41.3761 41.9211 30
      vertex 42.5446 41.6856 30
    endloop
  endfacet
  facet normal 0.0661905 0.997807 0
    outer loop
      vertex 40.1867 42 0
      vertex 41.3761 41.9211 30
      vertex 41.3761 41.9211 0
    endloop
  endfacet
  facet normal 0.0661905 0.997807 -0
    outer loop
      vertex 40.1867 42 0
      vertex 40.1867 42 30
      vertex 41.3761 41.9211 30
    endloop
  endfacet
  facet normal 0 1 0
    outer loop
      vertex 9 42 0
      vertex 40.1867 42 30
      vertex 40.1867 42 0
    endloop
  endfacet
  facet normal 0 1 0
    outer loop
      vertex 9 42 0
      vertex 9 42 30
      vertex 40.1867 42 30
    endloop
  endfacet
  facet normal -0.0871379 0.996196 0
    outer loop
      vertex 7.43719 41.8633 0
      vertex 9 42 30
      vertex 9 42 0
    endloop
  endfacet
  facet normal -0.0871379 0.996196 0
    outer loop
      vertex 7.43719 41.8633 0
      vertex 7.43719 41.8633 30
      vertex 9 42 30
    endloop
  endfacet
  facet normal -0.25885 0.965917 0
    outer loop
      vertex 5.9218 41.4572 0
      vertex 7.43719 41.8633 30
      vertex 7.43719 41.8633 0
    endloop
  endfacet
  facet normal -0.25885 0.965917 0
    outer loop
      vertex 5.9218 41.4572 0
      vertex 5.9218 41.4572 30
      vertex 7.43719 41.8633 30
    endloop
  endfacet
  facet normal -0.42262 0.906307 0
    outer loop
      vertex 4.5 40.7942 0
      vertex 5.9218 41.4572 30
      vertex 5.9218 41.4572 0
    endloop
  endfacet
  facet normal -0.42262 0.906307 0
    outer loop
      vertex 4.5 40.7942 0
      vertex 4.5 40.7942 30
      vertex 5.9218 41.4572 30
    endloop
  endfacet
  facet normal -0.573558 0.819165 0
    outer loop
      vertex 3.21489 39.8944 0
      vertex 4.5 40.7942 30
      vertex 4.5 40.7942 0
    endloop
  endfacet
  facet normal -0.573558 0.819165 0
    outer loop
      vertex 3.21489 39.8944 0
      vertex 3.21489 39.8944 30
      vertex 4.5 40.7942 30
    endloop
  endfacet
  facet normal -0.707107 0.707107 0
    outer loop
      vertex 2.10559 38.7851 0
      vertex 3.21489 39.8944 30
      vertex 3.21489 39.8944 0
    endloop
  endfacet
  facet normal -0.707107 0.707107 0
    outer loop
      vertex 2.10559 38.7851 0
      vertex 2.10559 38.7851 30
      vertex 3.21489 39.8944 30
    endloop
  endfacet
  facet normal -0.819166 0.573556 0
    outer loop
      vertex 1.2058 37.5 0
      vertex 2.10559 38.7851 30
      vertex 2.10559 38.7851 0
    endloop
  endfacet
  facet normal -0.819166 0.573556 0
    outer loop
      vertex 1.2058 37.5 0
      vertex 1.2058 37.5 30
      vertex 2.10559 38.7851 30
    endloop
  endfacet
  facet normal -0.906303 0.422628 0
    outer loop
      vertex 0.542786 36.0782 0
      vertex 1.2058 37.5 30
      vertex 1.2058 37.5 0
    endloop
  endfacet
  facet normal -0.906303 0.422628 0
    outer loop
      vertex 0.542786 36.0782 0
      vertex 0.542786 36.0782 30
      vertex 1.2058 37.5 30
    endloop
  endfacet
  facet normal -0.965918 0.258847 0
    outer loop
      vertex 0.136688 34.5628 0
      vertex 0.542786 36.0782 30
      vertex 0.542786 36.0782 0
    endloop
  endfacet
  facet normal -0.965918 0.258847 0
    outer loop
      vertex 0.136688 34.5628 0
      vertex 0.136688 34.5628 30
      vertex 0.542786 36.0782 30
    endloop
  endfacet
  facet normal -0.996197 0.0871309 0
    outer loop
      vertex 0 33 0
      vertex 0.136688 34.5628 30
      vertex 0.136688 34.5628 0
    endloop
  endfacet
  facet normal -0.996197 0.0871309 0
    outer loop
      vertex 0 33 0
      vertex 0 33 30
      vertex 0.136688 34.5628 30
    endloop
  endfacet
  facet normal -1 0 0
    outer loop
      vertex 0 9 0
      vertex 0 33 30
      vertex 0 33 0
    endloop
  endfacet
  facet normal -1 0 0
    outer loop
      vertex 0 9 0
      vertex 0 9 30
      vertex 0 33 30
    endloop
  endfacet
  facet normal -0.995187 -0.0979974 0
    outer loop
      vertex 0.172897 7.24419 0
      vertex 0 9 30
      vertex 0 9 0
    endloop
  endfacet
  facet normal -0.995187 -0.0979974 0
    outer loop
      vertex 0.172897 7.24419 0
      vertex 0.172897 7.24419 30
      vertex 0 9 30
    endloop
  endfacet
  facet normal -0.956937 -0.290296 0
    outer loop
      vertex 0.685089 5.55579 0
      vertex 0.172897 7.24419 30
      vertex 0.172897 7.24419 0
    endloop
  endfacet
  facet normal -0.956937 -0.290296 0
    outer loop
      vertex 0.685089 5.55579 0
      vertex 0.685089 5.55579 30
      vertex 0.172897 7.24419 30
    endloop
  endfacet
  facet normal -0.881906 -0.471425 0
    outer loop
      vertex 1.5168 3.99989 0
      vertex 0.685089 5.55579 30
      vertex 0.685089 5.55579 0
    endloop
  endfacet
  facet normal -0.881906 -0.471425 0
    outer loop
      vertex 1.5168 3.99989 0
      vertex 1.5168 3.99989 30
      vertex 0.685089 5.55579 30
    endloop
  endfacet
  facet normal -0.773048 -0.634348 0
    outer loop
      vertex 2.63599 2.63599 0
      vertex 1.5168 3.99989 30
      vertex 1.5168 3.99989 0
    endloop
  endfacet
  facet normal -0.773048 -0.634348 0
    outer loop
      vertex 2.63599 2.63599 0
      vertex 2.63599 2.63599 30
      vertex 1.5168 3.99989 30
    endloop
  endfacet
  facet normal -0.634348 -0.773048 0
    outer loop
      vertex 3.99989 1.5168 0
      vertex 2.63599 2.63599 30
      vertex 2.63599 2.63599 0
    endloop
  endfacet
  facet normal -0.634348 -0.773048 0
    outer loop
      vertex 3.99989 1.5168 0
      vertex 3.99989 1.5168 30
      vertex 2.63599 2.63599 30
    endloop
  endfacet
  facet normal -0.471425 -0.881906 0
    outer loop
      vertex 5.55579 0.685089 0
      vertex 3.99989 1.5168 30
      vertex 3.99989 1.5168 0
    endloop
  endfacet
  facet normal -0.471425 -0.881906 0
    outer loop
      vertex 5.55579 0.685089 0
      vertex 5.55579 0.685089 30
      vertex 3.99989 1.5168 30
    endloop
  endfacet
  facet normal -0.290296 -0.956937 0
    outer loop
      vertex 7.24419 0.172897 0
      vertex 5.55579 0.685089 30
      vertex 5.55579 0.685089 0
    endloop
  endfacet
  facet normal -0.290296 -0.956937 0
    outer loop
      vertex 7.24419 0.172897 0
      vertex 7.24419 0.172897 30
      vertex 5.55579 0.685089 30
    endloop
  endfacet
  facet normal -0.0979974 -0.995187 0
    outer loop
      vertex 9 0 0
      vertex 7.24419 0.172897 30
      vertex 7.24419 0.172897 0
    endloop
  endfacet
  facet normal -0.0979974 -0.995187 0
    outer loop
      vertex 9 0 0
      vertex 9 0 30
      vertex 7.24419 0.172897 30
    endloop
  endfacet
  facet normal 0 -1 0
    outer loop
      vertex 97.3296 0 0
      vertex 9 0 30
      vertex 9 0 0
    endloop
  endfacet
  facet normal 0 -1 0
    outer loop
      vertex 97.3296 0 0
      vertex 97.3296 0 30
      vertex 9 0 30
    endloop
  endfacet
  facet normal 0.0978266 -0.995203 0
    outer loop
      vertex 99.0823 0.172287 0
      vertex 97.3296 0 30
      vertex 97.3296 0 0
    endloop
  endfacet
  facet normal 0.0978266 -0.995203 0
    outer loop
      vertex 99.0823 0.172287 0
      vertex 99.0823 0.172287 30
      vertex 97.3296 0 30
    endloop
  endfacet
  facet normal 0.164595 0.986361 -0
    outer loop
      vertex 18.0542 9.36719 0
      vertex 18.0542 9.36719 30
      vertex 20.009 9.04099 0
    endloop
  endfacet
  facet normal 0.164595 0.986361 0
    outer loop
      vertex 20.009 9.04099 30
      vertex 20.009 9.04099 0
      vertex 18.0542 9.36719 30
    endloop
  endfacet
  facet normal 0.324696 0.945818 -0
    outer loop
      vertex 16.1797 10.0107 0
      vertex 16.1797 10.0107 30
      vertex 18.0542 9.36719 0
    endloop
  endfacet
  facet normal 0.324696 0.945818 0
    outer loop
      vertex 18.0542 9.36719 30
      vertex 18.0542 9.36719 0
      vertex 16.1797 10.0107 30
    endloop
  endfacet
  facet normal 0.47594 0.879478 -0
    outer loop
      vertex 14.4366 10.954 0
      vertex 14.4366 10.954 30
      vertex 16.1797 10.0107 0
    endloop
  endfacet
  facet normal 0.47594 0.879478 0
    outer loop
      vertex 16.1797 10.0107 30
      vertex 16.1797 10.0107 0
      vertex 14.4366 10.954 30
    endloop
  endfacet
  facet normal 0.61421 0.789143 -0
    outer loop
      vertex 12.8726 12.1713 0
      vertex 12.8726 12.1713 30
      vertex 14.4366 10.954 0
    endloop
  endfacet
  facet normal 0.61421 0.789143 0
    outer loop
      vertex 14.4366 10.954 30
      vertex 14.4366 10.954 0
      vertex 12.8726 12.1713 30
    endloop
  endfacet
  facet normal 0.735718 0.677288 -0
    outer loop
      vertex 11.5303 13.6294 0
      vertex 11.5303 13.6294 30
      vertex 12.8726 12.1713 0
    endloop
  endfacet
  facet normal 0.735718 0.677288 0
    outer loop
      vertex 12.8726 12.1713 30
      vertex 12.8726 12.1713 0
      vertex 11.5303 13.6294 30
    endloop
  endfacet
  facet normal 0.837169 0.546945 -0
    outer loop
      vertex 10.4463 15.2886 0
      vertex 10.4463 15.2886 30
      vertex 11.5303 13.6294 0
    endloop
  endfacet
  facet normal 0.837169 0.546945 0
    outer loop
      vertex 11.5303 13.6294 30
      vertex 11.5303 13.6294 0
      vertex 10.4463 15.2886 30
    endloop
  endfacet
  facet normal 0.915778 0.401686 -0
    outer loop
      vertex 9.65019 17.1036 0
      vertex 9.65019 17.1036 30
      vertex 10.4463 15.2886 0
    endloop
  endfacet
  facet normal 0.915778 0.401686 0
    outer loop
      vertex 10.4463 15.2886 30
      vertex 10.4463 15.2886 0
      vertex 9.65019 17.1036 30
    endloop
  endfacet
  facet normal 0.969406 0.245462 -0
    outer loop
      vertex 9.1637 19.0249 0
      vertex 9.1637 19.0249 30
      vertex 9.65019 17.1036 0
    endloop
  endfacet
  facet normal 0.969406 0.245462 0
    outer loop
      vertex 9.65019 17.1036 30
      vertex 9.65019 17.1036 0
      vertex 9.1637 19.0249 30
    endloop
  endfacet
  facet normal 0.996583 0.0825987 -0
    outer loop
      vertex 9 21 0
      vertex 9 21 30
      vertex 9.1637 19.0249 0
    endloop
  endfacet
  facet normal 0.996583 0.0825987 0
    outer loop
      vertex 9.1637 19.0249 30
      vertex 9.1637 19.0249 0
      vertex 9 21 30
    endloop
  endfacet
  facet normal 0.996583 -0.0825987 0
    outer loop
      vertex 9.1637 22.9751 0
      vertex 9.1637 22.9751 30
      vertex 9 21 0
    endloop
  endfacet
  facet normal 0.996583 -0.0825987 0
    outer loop
      vertex 9 21 30
      vertex 9 21 0
      vertex 9.1637 22.9751 30
    endloop
  endfacet
  facet normal 0.969406 -0.245462 0
    outer loop
      vertex 9.65019 24.8964 0
      vertex 9.65019 24.8964 30
      vertex 9.1637 22.9751 0
    endloop
  endfacet
  facet normal 0.969406 -0.245462 0
    outer loop
      vertex 9.1637 22.9751 30
      vertex 9.1637 22.9751 0
      vertex 9.65019 24.8964 30
    endloop
  endfacet
  facet normal 0.915778 -0.401686 0
    outer loop
      vertex 10.4463 26.7114 0
      vertex 10.4463 26.7114 30
      vertex 9.65019 24.8964 0
    endloop
  endfacet
  facet normal 0.915778 -0.401686 0
    outer loop
      vertex 9.65019 24.8964 30
      vertex 9.65019 24.8964 0
      vertex 10.4463 26.7114 30
    endloop
  endfacet
  facet normal 0.837169 -0.546945 0
    outer loop
      vertex 11.5303 28.3706 0
      vertex 11.5303 28.3706 30
      vertex 10.4463 26.7114 0
    endloop
  endfacet
  facet normal 0.837169 -0.546945 0
    outer loop
      vertex 10.4463 26.7114 30
      vertex 10.4463 26.7114 0
      vertex 11.5303 28.3706 30
    endloop
  endfacet
  facet normal 0.735718 -0.677288 0
    outer loop
      vertex 12.8726 29.8287 0
      vertex 12.8726 29.8287 30
      vertex 11.5303 28.3706 0
    endloop
  endfacet
  facet normal 0.735718 -0.677288 0
    outer loop
      vertex 11.5303 28.3706 30
      vertex 11.5303 28.3706 0
      vertex 12.8726 29.8287 30
    endloop
  endfacet
  facet normal 0.61421 -0.789143 0
    outer loop
      vertex 14.4366 31.046 0
      vertex 14.4366 31.046 30
      vertex 12.8726 29.8287 0
    endloop
  endfacet
  facet normal 0.61421 -0.789143 0
    outer loop
      vertex 12.8726 29.8287 30
      vertex 12.8726 29.8287 0
      vertex 14.4366 31.046 30
    endloop
  endfacet
  facet normal 0.47594 -0.879478 0
    outer loop
      vertex 16.1797 31.9893 0
      vertex 16.1797 31.9893 30
      vertex 14.4366 31.046 0
    endloop
  endfacet
  facet normal 0.47594 -0.879478 0
    outer loop
      vertex 14.4366 31.046 30
      vertex 14.4366 31.046 0
      vertex 16.1797 31.9893 30
    endloop
  endfacet
  facet normal 0.324692 -0.94582 0
    outer loop
      vertex 18.0542 32.6328 0
      vertex 18.0542 32.6328 30
      vertex 16.1797 31.9893 0
    endloop
  endfacet
  facet normal 0.324692 -0.94582 0
    outer loop
      vertex 16.1797 31.9893 30
      vertex 16.1797 31.9893 0
      vertex 18.0542 32.6328 30
    endloop
  endfacet
  facet normal 0.164595 -0.986361 0
    outer loop
      vertex 20.009 32.959 0
      vertex 20.009 32.959 30
      vertex 18.0542 32.6328 0
    endloop
  endfacet
  facet normal 0.164595 -0.986361 0
    outer loop
      vertex 18.0542 32.6328 30
      vertex 18.0542 32.6328 0
      vertex 20.009 32.959 30
    endloop
  endfacet
  facet normal 0 -1 0
    outer loop
      vertex 21.991 32.959 0
      vertex 21.991 32.959 30
      vertex 20.009 32.959 0
    endloop
  endfacet
  facet normal 0 -1 0
    outer loop
      vertex 20.009 32.959 30
      vertex 20.009 32.959 0
      vertex 21.991 32.959 30
    endloop
  endfacet
  facet normal -0.164595 -0.986361 0
    outer loop
      vertex 23.9458 32.6328 0
      vertex 23.9458 32.6328 30
      vertex 21.991 32.959 0
    endloop
  endfacet
  facet normal -0.164595 -0.986361 -0
    outer loop
      vertex 21.991 32.959 30
      vertex 21.991 32.959 0
      vertex 23.9458 32.6328 30
    endloop
  endfacet
  facet normal -0.324692 -0.94582 0
    outer loop
      vertex 25.8203 31.9893 0
      vertex 25.8203 31.9893 30
      vertex 23.9458 32.6328 0
    endloop
  endfacet
  facet normal -0.324692 -0.94582 -0
    outer loop
      vertex 23.9458 32.6328 30
      vertex 23.9458 32.6328 0
      vertex 25.8203 31.9893 30
    endloop
  endfacet
  facet normal -0.47594 -0.879478 0
    outer loop
      vertex 27.5634 31.046 0
      vertex 27.5634 31.046 30
      vertex 25.8203 31.9893 0
    endloop
  endfacet
  facet normal -0.47594 -0.879478 -0
    outer loop
      vertex 25.8203 31.9893 30
      vertex 25.8203 31.9893 0
      vertex 27.5634 31.046 30
    endloop
  endfacet
  facet normal -0.61421 -0.789143 0
    outer loop
      vertex 29.1274 29.8287 0
      vertex 29.1274 29.8287 30
      vertex 27.5634 31.046 0
    endloop
  endfacet
  facet normal -0.61421 -0.789143 -0
    outer loop
      vertex 27.5634 31.046 30
      vertex 27.5634 31.046 0
      vertex 29.1274 29.8287 30
    endloop
  endfacet
  facet normal -0.735718 -0.677288 0
    outer loop
      vertex 30.4697 28.3706 0
      vertex 30.4697 28.3706 30
      vertex 29.1274 29.8287 0
    endloop
  endfacet
  facet normal -0.735718 -0.677288 -0
    outer loop
      vertex 29.1274 29.8287 30
      vertex 29.1274 29.8287 0
      vertex 30.4697 28.3706 30
    endloop
  endfacet
  facet normal -0.837169 -0.546945 0
    outer loop
      vertex 31.5537 26.7114 0
      vertex 31.5537 26.7114 30
      vertex 30.4697 28.3706 0
    endloop
  endfacet
  facet normal -0.837169 -0.546945 -0
    outer loop
      vertex 30.4697 28.3706 30
      vertex 30.4697 28.3706 0
      vertex 31.5537 26.7114 30
    endloop
  endfacet
  facet normal -0.915779 -0.401682 0
    outer loop
      vertex 32.3498 24.8964 0
      vertex 32.3498 24.8964 30
      vertex 31.5537 26.7114 0
    endloop
  endfacet
  facet normal -0.915779 -0.401682 -0
    outer loop
      vertex 31.5537 26.7114 30
      vertex 31.5537 26.7114 0
      vertex 32.3498 24.8964 30
    endloop
  endfacet
  facet normal -0.969405 -0.245467 0
    outer loop
      vertex 32.8363 22.9751 0
      vertex 32.8363 22.9751 30
      vertex 32.3498 24.8964 0
    endloop
  endfacet
  facet normal -0.969405 -0.245467 -0
    outer loop
      vertex 32.3498 24.8964 30
      vertex 32.3498 24.8964 0
      vertex 32.8363 22.9751 30
    endloop
  endfacet
  facet normal -0.996583 -0.0825987 0
    outer loop
      vertex 33 21 0
      vertex 33 21 30
      vertex 32.8363 22.9751 0
    endloop
  endfacet
  facet normal -0.996583 -0.0825987 -0
    outer loop
      vertex 32.8363 22.9751 30
      vertex 32.8363 22.9751 0
      vertex 33 21 30
    endloop
  endfacet
  facet normal -0.996583 0.0825987 0
    outer loop
      vertex 32.8363 19.0249 0
      vertex 32.8363 19.0249 30
      vertex 33 21 0
    endloop
  endfacet
  facet normal -0.996583 0.0825987 0
    outer loop
      vertex 33 21 30
      vertex 33 21 0
      vertex 32.8363 19.0249 30
    endloop
  endfacet
  facet normal -0.969405 0.245467 0
    outer loop
      vertex 32.3498 17.1036 0
      vertex 32.3498 17.1036 30
      vertex 32.8363 19.0249 0
    endloop
  endfacet
  facet normal -0.969405 0.245467 0
    outer loop
      vertex 32.8363 19.0249 30
      vertex 32.8363 19.0249 0
      vertex 32.3498 17.1036 30
    endloop
  endfacet
  facet normal -0.915779 0.401682 0
    outer loop
      vertex 31.5537 15.2886 0
      vertex 31.5537 15.2886 30
      vertex 32.3498 17.1036 0
    endloop
  endfacet
  facet normal -0.915779 0.401682 0
    outer loop
      vertex 32.3498 17.1036 30
      vertex 32.3498 17.1036 0
      vertex 31.5537 15.2886 30
    endloop
  endfacet
  facet normal -0.837169 0.546945 0
    outer loop
      vertex 30.4697 13.6294 0
      vertex 30.4697 13.6294 30
      vertex 31.5537 15.2886 0
    endloop
  endfacet
  facet normal -0.837169 0.546945 0
    outer loop
      vertex 31.5537 15.2886 30
      vertex 31.5537 15.2886 0
      vertex 30.4697 13.6294 30
    endloop
  endfacet
  facet normal -0.735718 0.677288 0
    outer loop
      vertex 29.1274 12.1713 0
      vertex 29.1274 12.1713 30
      vertex 30.4697 13.6294 0
    endloop
  endfacet
  facet normal -0.735718 0.677288 0
    outer loop
      vertex 30.4697 13.6294 30
      vertex 30.4697 13.6294 0
      vertex 29.1274 12.1713 30
    endloop
  endfacet
  facet normal -0.61421 0.789143 0
    outer loop
      vertex 27.5634 10.954 0
      vertex 27.5634 10.954 30
      vertex 29.1274 12.1713 0
    endloop
  endfacet
  facet normal -0.61421 0.789143 0
    outer loop
      vertex 29.1274 12.1713 30
      vertex 29.1274 12.1713 0
      vertex 27.5634 10.954 30
    endloop
  endfacet
  facet normal -0.47594 0.879478 0
    outer loop
      vertex 25.8203 10.0107 0
      vertex 25.8203 10.0107 30
      vertex 27.5634 10.954 0
    endloop
  endfacet
  facet normal -0.47594 0.879478 0
    outer loop
      vertex 27.5634 10.954 30
      vertex 27.5634 10.954 0
      vertex 25.8203 10.0107 30
    endloop
  endfacet
  facet normal -0.324696 0.945818 0
    outer loop
      vertex 23.9458 9.36719 0
      vertex 23.9458 9.36719 30
      vertex 25.8203 10.0107 0
    endloop
  endfacet
  facet normal -0.324696 0.945818 0
    outer loop
      vertex 25.8203 10.0107 30
      vertex 25.8203 10.0107 0
      vertex 23.9458 9.36719 30
    endloop
  endfacet
  facet normal -0.164595 0.986361 0
    outer loop
      vertex 21.991 9.04099 0
      vertex 21.991 9.04099 30
      vertex 23.9458 9.36719 0
    endloop
  endfacet
  facet normal -0.164595 0.986361 0
    outer loop
      vertex 23.9458 9.36719 30
      vertex 23.9458 9.36719 0
      vertex 21.991 9.04099 30
    endloop
  endfacet
  facet normal 0 1 0
    outer loop
      vertex 20.009 9.04099 0
      vertex 20.009 9.04099 30
      vertex 21.991 9.04099 0
    endloop
  endfacet
  facet normal 0 1 0
    outer loop
      vertex 21.991 9.04099 30
      vertex 21.991 9.04099 0
      vertex 20.009 9.04099 30
    endloop
  endfacet
  facet normal 0.290328 0.956927 -0
    outer loop
      vertex 49.7411 9.6776 0
      vertex 49.7411 9.6776 30
      vertex 51.4109 9.17099 0
    endloop
  endfacet
  facet normal 0.290328 0.956927 0
    outer loop
      vertex 51.4109 9.17099 30
      vertex 51.4109 9.17099 0
      vertex 49.7411 9.6776 30
    endloop
  endfacet
  facet normal 0.471391 0.881924 -0
    outer loop
      vertex 48.2021 10.5002 0
      vertex 48.2021 10.5002 30
      vertex 49.7411 9.6776 0
    endloop
  endfacet
  facet normal 0.471391 0.881924 0
    outer loop
      vertex 49.7411 9.6776 30
      vertex 49.7411 9.6776 0
      vertex 48.2021 10.5002 30
    endloop
  endfacet
  facet normal 0.634389 0.773014 -0
    outer loop
      vertex 46.8532 11.6072 0
      vertex 46.8532 11.6072 30
      vertex 48.2021 10.5002 0
    endloop
  endfacet
  facet normal 0.634389 0.773014 0
    outer loop
      vertex 48.2021 10.5002 30
      vertex 48.2021 10.5002 0
      vertex 46.8532 11.6072 30
    endloop
  endfacet
  facet normal 0.773014 0.634389 -0
    outer loop
      vertex 45.7462 12.9561 0
      vertex 45.7462 12.9561 30
      vertex 46.8532 11.6072 0
    endloop
  endfacet
  facet normal 0.773014 0.634389 0
    outer loop
      vertex 46.8532 11.6072 30
      vertex 46.8532 11.6072 0
      vertex 45.7462 12.9561 30
    endloop
  endfacet
  facet normal 0.881924 0.471391 -0
    outer loop
      vertex 44.9236 14.4951 0
      vertex 44.9236 14.4951 30
      vertex 45.7462 12.9561 0
    endloop
  endfacet
  facet normal 0.881924 0.471391 0
    outer loop
      vertex 45.7462 12.9561 30
      vertex 45.7462 12.9561 0
      vertex 44.9236 14.4951 30
    endloop
  endfacet
  facet normal 0.956934 0.290306 -0
    outer loop
      vertex 44.417 16.165 0
      vertex 44.417 16.165 30
      vertex 44.9236 14.4951 0
    endloop
  endfacet
  facet normal 0.956934 0.290306 0
    outer loop
      vertex 44.9236 14.4951 30
      vertex 44.9236 14.4951 0
      vertex 44.417 16.165 30
    endloop
  endfacet
  facet normal 0.995187 0.0979943 -0
    outer loop
      vertex 44.246 17.9016 0
      vertex 44.246 17.9016 30
      vertex 44.417 16.165 0
    endloop
  endfacet
  facet normal 0.995187 0.0979943 0
    outer loop
      vertex 44.417 16.165 30
      vertex 44.417 16.165 0
      vertex 44.246 17.9016 30
    endloop
  endfacet
  facet normal 0.995187 -0.0979943 0
    outer loop
      vertex 44.417 19.6382 0
      vertex 44.417 19.6382 30
      vertex 44.246 17.9016 0
    endloop
  endfacet
  facet normal 0.995187 -0.0979943 0
    outer loop
      vertex 44.246 17.9016 30
      vertex 44.246 17.9016 0
      vertex 44.417 19.6382 30
    endloop
  endfacet
  facet normal 0.956934 -0.290306 0
    outer loop
      vertex 44.9236 21.3081 0
      vertex 44.9236 21.3081 30
      vertex 44.417 19.6382 0
    endloop
  endfacet
  facet normal 0.956934 -0.290306 0
    outer loop
      vertex 44.417 19.6382 30
      vertex 44.417 19.6382 0
      vertex 44.9236 21.3081 30
    endloop
  endfacet
  facet normal 0.881924 -0.471391 0
    outer loop
      vertex 45.7462 22.8471 0
      vertex 45.7462 22.8471 30
      vertex 44.9236 21.3081 0
    endloop
  endfacet
  facet normal 0.881924 -0.471391 0
    outer loop
      vertex 44.9236 21.3081 30
      vertex 44.9236 21.3081 0
      vertex 45.7462 22.8471 30
    endloop
  endfacet
  facet normal 0.773014 -0.634389 0
    outer loop
      vertex 46.8532 24.196 0
      vertex 46.8532 24.196 30
      vertex 45.7462 22.8471 0
    endloop
  endfacet
  facet normal 0.773014 -0.634389 0
    outer loop
      vertex 45.7462 22.8471 30
      vertex 45.7462 22.8471 0
      vertex 46.8532 24.196 30
    endloop
  endfacet
  facet normal 0.634389 -0.773014 0
    outer loop
      vertex 48.2021 25.303 0
      vertex 48.2021 25.303 30
      vertex 46.8532 24.196 0
    endloop
  endfacet
  facet normal 0.634389 -0.773014 0
    outer loop
      vertex 46.8532 24.196 30
      vertex 46.8532 24.196 0
      vertex 48.2021 25.303 30
    endloop
  endfacet
  facet normal 0.471391 -0.881924 0
    outer loop
      vertex 49.7411 26.1256 0
      vertex 49.7411 26.1256 30
      vertex 48.2021 25.303 0
    endloop
  endfacet
  facet normal 0.471391 -0.881924 0
    outer loop
      vertex 48.2021 25.303 30
      vertex 48.2021 25.303 0
      vertex 49.7411 26.1256 30
    endloop
  endfacet
  facet normal 0.290322 -0.956929 0
    outer loop
      vertex 51.4109 26.6322 0
      vertex 51.4109 26.6322 30
      vertex 49.7411 26.1256 0
    endloop
  endfacet
  facet normal 0.290322 -0.956929 0
    outer loop
      vertex 49.7411 26.1256 30
      vertex 49.7411 26.1256 0
      vertex 51.4109 26.6322 30
    endloop
  endfacet
  facet normal 0.0979888 -0.995188 0
    outer loop
      vertex 53.1476 26.8032 0
      vertex 53.1476 26.8032 30
      vertex 51.4109 26.6322 0
    endloop
  endfacet
  facet normal 0.0979888 -0.995188 0
    outer loop
      vertex 51.4109 26.6322 30
      vertex 51.4109 26.6322 0
      vertex 53.1476 26.8032 30
    endloop
  endfacet
  facet normal -0.0979943 -0.995187 0
    outer loop
      vertex 54.8842 26.6322 0
      vertex 54.8842 26.6322 30
      vertex 53.1476 26.8032 0
    endloop
  endfacet
  facet normal -0.0979943 -0.995187 -0
    outer loop
      vertex 53.1476 26.8032 30
      vertex 53.1476 26.8032 0
      vertex 54.8842 26.6322 30
    endloop
  endfacet
  facet normal -0.290306 -0.956934 0
    outer loop
      vertex 56.5541 26.1256 0
      vertex 56.5541 26.1256 30
      vertex 54.8842 26.6322 0
    endloop
  endfacet
  facet normal -0.290306 -0.956934 -0
    outer loop
      vertex 54.8842 26.6322 30
      vertex 54.8842 26.6322 0
      vertex 56.5541 26.1256 30
    endloop
  endfacet
  facet normal -0.471415 -0.881912 0
    outer loop
      vertex 58.093 25.303 0
      vertex 58.093 25.303 30
      vertex 56.5541 26.1256 0
    endloop
  endfacet
  facet normal -0.471415 -0.881912 -0
    outer loop
      vertex 56.5541 26.1256 30
      vertex 56.5541 26.1256 0
      vertex 58.093 25.303 30
    endloop
  endfacet
  facet normal -0.634389 -0.773014 0
    outer loop
      vertex 59.4419 24.196 0
      vertex 59.4419 24.196 30
      vertex 58.093 25.303 0
    endloop
  endfacet
  facet normal -0.634389 -0.773014 -0
    outer loop
      vertex 58.093 25.303 30
      vertex 58.093 25.303 0
      vertex 59.4419 24.196 30
    endloop
  endfacet
  facet normal -0.772986 -0.634423 0
    outer loop
      vertex 60.549 22.8471 0
      vertex 60.549 22.8471 30
      vertex 59.4419 24.196 0
    endloop
  endfacet
  facet normal -0.772986 -0.634423 -0
    outer loop
      vertex 59.4419 24.196 30
      vertex 59.4419 24.196 0
      vertex 60.549 22.8471 30
    endloop
  endfacet
  facet normal -0.881924 -0.471391 0
    outer loop
      vertex 61.3716 21.3081 0
      vertex 61.3716 21.3081 30
      vertex 60.549 22.8471 0
    endloop
  endfacet
  facet normal -0.881924 -0.471391 -0
    outer loop
      vertex 60.549 22.8471 30
      vertex 60.549 22.8471 0
      vertex 61.3716 21.3081 30
    endloop
  endfacet
  facet normal -0.95695 -0.290254 0
    outer loop
      vertex 61.8781 19.6382 0
      vertex 61.8781 19.6382 30
      vertex 61.3716 21.3081 0
    endloop
  endfacet
  facet normal -0.95695 -0.290254 -0
    outer loop
      vertex 61.3716 21.3081 30
      vertex 61.3716 21.3081 0
      vertex 61.8781 19.6382 30
    endloop
  endfacet
  facet normal -0.995181 -0.0980511 0
    outer loop
      vertex 62.0492 17.9016 0
      vertex 62.0492 17.9016 30
      vertex 61.8781 19.6382 0
    endloop
  endfacet
  facet normal -0.995181 -0.0980511 -0
    outer loop
      vertex 61.8781 19.6382 30
      vertex 61.8781 19.6382 0
      vertex 62.0492 17.9016 30
    endloop
  endfacet
  facet normal -0.995181 0.0980511 0
    outer loop
      vertex 61.8781 16.165 0
      vertex 61.8781 16.165 30
      vertex 62.0492 17.9016 0
    endloop
  endfacet
  facet normal -0.995181 0.0980511 0
    outer loop
      vertex 62.0492 17.9016 30
      vertex 62.0492 17.9016 0
      vertex 61.8781 16.165 30
    endloop
  endfacet
  facet normal -0.95695 0.290254 0
    outer loop
      vertex 61.3716 14.4951 0
      vertex 61.3716 14.4951 30
      vertex 61.8781 16.165 0
    endloop
  endfacet
  facet normal -0.95695 0.290254 0
    outer loop
      vertex 61.8781 16.165 30
      vertex 61.8781 16.165 0
      vertex 61.3716 14.4951 30
    endloop
  endfacet
  facet normal -0.881924 0.471391 0
    outer loop
      vertex 60.549 12.9561 0
      vertex 60.549 12.9561 30
      vertex 61.3716 14.4951 0
    endloop
  endfacet
  facet normal -0.881924 0.471391 0
    outer loop
      vertex 61.3716 14.4951 30
      vertex 61.3716 14.4951 0
      vertex 60.549 12.9561 30
    endloop
  endfacet
  facet normal -0.772986 0.634423 0
    outer loop
      vertex 59.4419 11.6072 0
      vertex 59.4419 11.6072 30
      vertex 60.549 12.9561 0
    endloop
  endfacet
  facet normal -0.772986 0.634423 0
    outer loop
      vertex 60.549 12.9561 30
      vertex 60.549 12.9561 0
      vertex 59.4419 11.6072 30
    endloop
  endfacet
  facet normal -0.634389 0.773014 0
    outer loop
      vertex 58.093 10.5002 0
      vertex 58.093 10.5002 30
      vertex 59.4419 11.6072 0
    endloop
  endfacet
  facet normal -0.634389 0.773014 0
    outer loop
      vertex 59.4419 11.6072 30
      vertex 59.4419 11.6072 0
      vertex 58.093 10.5002 30
    endloop
  endfacet
  facet normal -0.471415 0.881912 0
    outer loop
      vertex 56.5541 9.6776 0
      vertex 56.5541 9.6776 30
      vertex 58.093 10.5002 0
    endloop
  endfacet
  facet normal -0.471415 0.881912 0
    outer loop
      vertex 58.093 10.5002 30
      vertex 58.093 10.5002 0
      vertex 56.5541 9.6776 30
    endloop
  endfacet
  facet normal -0.290312 0.956932 0
    outer loop
      vertex 54.8842 9.17099 0
      vertex 54.8842 9.17099 30
      vertex 56.5541 9.6776 0
    endloop
  endfacet
  facet normal -0.290312 0.956932 0
    outer loop
      vertex 56.5541 9.6776 30
      vertex 56.5541 9.6776 0
      vertex 54.8842 9.17099 30
    endloop
  endfacet
  facet normal -0.0979887 0.995188 0
    outer loop
      vertex 53.1476 9 0
      vertex 53.1476 9 30
      vertex 54.8842 9.17099 0
    endloop
  endfacet
  facet normal -0.0979887 0.995188 0
    outer loop
      vertex 54.8842 9.17099 30
      vertex 54.8842 9.17099 0
      vertex 53.1476 9 30
    endloop
  endfacet
  facet normal 0.0979831 0.995188 -0
    outer loop
      vertex 51.4109 9.17099 0
      vertex 51.4109 9.17099 30
      vertex 53.1476 9 0
    endloop
  endfacet
  facet normal 0.0979831 0.995188 0
    outer loop
      vertex 53.1476 9 30
      vertex 53.1476 9 0
      vertex 51.4109 9.17099 30
    endloop
  endfacet
  facet normal 0.290269 0.956945 -0
    outer loop
      vertex 74.726 9.32179 0
      vertex 74.726 9.32179 30
      vertex 75.5192 9.08119 0
    endloop
  endfacet
  facet normal 0.290269 0.956945 0
    outer loop
      vertex 75.5192 9.08119 30
      vertex 75.5192 9.08119 0
      vertex 74.726 9.32179 30
    endloop
  endfacet
  facet normal 0.471465 0.881885 -0
    outer loop
      vertex 73.995 9.71259 0
      vertex 73.995 9.71259 30
      vertex 74.726 9.32179 0
    endloop
  endfacet
  facet normal 0.471465 0.881885 0
    outer loop
      vertex 74.726 9.32179 30
      vertex 74.726 9.32179 0
      vertex 73.995 9.71259 30
    endloop
  endfacet
  facet normal 0.634394 0.77301 -0
    outer loop
      vertex 73.3543 10.2384 0
      vertex 73.3543 10.2384 30
      vertex 73.995 9.71259 0
    endloop
  endfacet
  facet normal 0.634394 0.77301 0
    outer loop
      vertex 73.995 9.71259 30
      vertex 73.995 9.71259 0
      vertex 73.3543 10.2384 30
    endloop
  endfacet
  facet normal 0.773016 0.634387 -0
    outer loop
      vertex 72.8285 10.8791 0
      vertex 72.8285 10.8791 30
      vertex 73.3543 10.2384 0
    endloop
  endfacet
  facet normal 0.773016 0.634387 0
    outer loop
      vertex 73.3543 10.2384 30
      vertex 73.3543 10.2384 0
      vertex 72.8285 10.8791 30
    endloop
  endfacet
  facet normal 0.881935 0.471371 -0
    outer loop
      vertex 72.4378 11.6101 0
      vertex 72.4378 11.6101 30
      vertex 72.8285 10.8791 0
    endloop
  endfacet
  facet normal 0.881935 0.471371 0
    outer loop
      vertex 72.8285 10.8791 30
      vertex 72.8285 10.8791 0
      vertex 72.4378 11.6101 30
    endloop
  endfacet
  facet normal 0.956935 0.290302 -0
    outer loop
      vertex 72.1972 12.4032 0
      vertex 72.1972 12.4032 30
      vertex 72.4378 11.6101 0
    endloop
  endfacet
  facet normal 0.956935 0.290302 0
    outer loop
      vertex 72.4378 11.6101 30
      vertex 72.4378 11.6101 0
      vertex 72.1972 12.4032 30
    endloop
  endfacet
  facet normal 0.995178 0.0980822 -0
    outer loop
      vertex 72.1159 13.2281 0
      vertex 72.1159 13.2281 30
      vertex 72.1972 12.4032 0
    endloop
  endfacet
  facet normal 0.995178 0.0980822 0
    outer loop
      vertex 72.1972 12.4032 30
      vertex 72.1972 12.4032 0
      vertex 72.1159 13.2281 30
    endloop
  endfacet
  facet normal 0.995177 -0.098094 0
    outer loop
      vertex 72.1972 14.0529 0
      vertex 72.1972 14.0529 30
      vertex 72.1159 13.2281 0
    endloop
  endfacet
  facet normal 0.995177 -0.098094 0
    outer loop
      vertex 72.1159 13.2281 30
      vertex 72.1159 13.2281 0
      vertex 72.1972 14.0529 30
    endloop
  endfacet
  facet normal 0.956945 -0.290269 0
    outer loop
      vertex 72.4378 14.8461 0
      vertex 72.4378 14.8461 30
      vertex 72.1972 14.0529 0
    endloop
  endfacet
  facet normal 0.956945 -0.290269 0
    outer loop
      vertex 72.1972 14.0529 30
      vertex 72.1972 14.0529 0
      vertex 72.4378 14.8461 30
    endloop
  endfacet
  facet normal 0.881935 -0.471371 0
    outer loop
      vertex 72.8285 15.5771 0
      vertex 72.8285 15.5771 30
      vertex 72.4378 14.8461 0
    endloop
  endfacet
  facet normal 0.881935 -0.471371 0
    outer loop
      vertex 72.4378 14.8461 30
      vertex 72.4378 14.8461 0
      vertex 72.8285 15.5771 30
    endloop
  endfacet
  facet normal 0.773016 -0.634387 0
    outer loop
      vertex 73.3543 16.2178 0
      vertex 73.3543 16.2178 30
      vertex 72.8285 15.5771 0
    endloop
  endfacet
  facet normal 0.773016 -0.634387 0
    outer loop
      vertex 72.8285 15.5771 30
      vertex 72.8285 15.5771 0
      vertex 73.3543 16.2178 30
    endloop
  endfacet
  facet normal 0.634387 -0.773016 0
    outer loop
      vertex 73.995 16.7436 0
      vertex 73.995 16.7436 30
      vertex 73.3543 16.2178 0
    endloop
  endfacet
  facet normal 0.634387 -0.773016 0
    outer loop
      vertex 73.3543 16.2178 30
      vertex 73.3543 16.2178 0
      vertex 73.995 16.7436 30
    endloop
  endfacet
  facet normal 0.471371 -0.881935 0
    outer loop
      vertex 74.726 17.1343 0
      vertex 74.726 17.1343 30
      vertex 73.995 16.7436 0
    endloop
  endfacet
  facet normal 0.471371 -0.881935 0
    outer loop
      vertex 73.995 16.7436 30
      vertex 73.995 16.7436 0
      vertex 74.726 17.1343 30
    endloop
  endfacet
  facet normal 0.290269 -0.956945 0
    outer loop
      vertex 75.5192 17.3749 0
      vertex 75.5192 17.3749 30
      vertex 74.726 17.1343 0
    endloop
  endfacet
  facet normal 0.290269 -0.956945 0
    outer loop
      vertex 74.726 17.1343 30
      vertex 74.726 17.1343 0
      vertex 75.5192 17.3749 30
    endloop
  endfacet
  facet normal 0.098094 -0.995177 0
    outer loop
      vertex 76.344 17.4562 0
      vertex 76.344 17.4562 30
      vertex 75.5192 17.3749 0
    endloop
  endfacet
  facet normal 0.098094 -0.995177 0
    outer loop
      vertex 75.5192 17.3749 30
      vertex 75.5192 17.3749 0
      vertex 76.344 17.4562 30
    endloop
  endfacet
  facet normal -0.0980822 -0.995178 0
    outer loop
      vertex 77.1689 17.3749 0
      vertex 77.1689 17.3749 30
      vertex 76.344 17.4562 0
    endloop
  endfacet
  facet normal -0.0980822 -0.995178 -0
    outer loop
      vertex 76.344 17.4562 30
      vertex 76.344 17.4562 0
      vertex 77.1689 17.3749 30
    endloop
  endfacet
  facet normal -0.290302 -0.956935 0
    outer loop
      vertex 77.962 17.1343 0
      vertex 77.962 17.1343 30
      vertex 77.1689 17.3749 0
    endloop
  endfacet
  facet normal -0.290302 -0.956935 -0
    outer loop
      vertex 77.1689 17.3749 30
      vertex 77.1689 17.3749 0
      vertex 77.962 17.1343 30
    endloop
  endfacet
  facet normal -0.471371 -0.881935 0
    outer loop
      vertex 78.693 16.7436 0
      vertex 78.693 16.7436 30
      vertex 77.962 17.1343 0
    endloop
  endfacet
  facet normal -0.471371 -0.881935 -0
    outer loop
      vertex 77.962 17.1343 30
      vertex 77.962 17.1343 0
      vertex 78.693 16.7436 30
    endloop
  endfacet
  facet normal -0.634387 -0.773016 0
    outer loop
      vertex 79.3337 16.2178 0
      vertex 79.3337 16.2178 30
      vertex 78.693 16.7436 0
    endloop
  endfacet
  facet normal -0.634387 -0.773016 -0
    outer loop
      vertex 78.693 16.7436 30
      vertex 78.693 16.7436 0
      vertex 79.3337 16.2178 30
    endloop
  endfacet
  facet normal -0.773016 -0.634387 0
    outer loop
      vertex 79.8595 15.5771 0
      vertex 79.8595 15.5771 30
      vertex 79.3337 16.2178 0
    endloop
  endfacet
  facet normal -0.773016 -0.634387 -0
    outer loop
      vertex 79.3337 16.2178 30
      vertex 79.3337 16.2178 0
      vertex 79.8595 15.5771 30
    endloop
  endfacet
  facet normal -0.881885 -0.471465 0
    outer loop
      vertex 80.2503 14.8461 0
      vertex 80.2503 14.8461 30
      vertex 79.8595 15.5771 0
    endloop
  endfacet
  facet normal -0.881885 -0.471465 -0
    outer loop
      vertex 79.8595 15.5771 30
      vertex 79.8595 15.5771 0
      vertex 80.2503 14.8461 30
    endloop
  endfacet
  facet normal -0.956945 -0.290269 0
    outer loop
      vertex 80.4909 14.0529 0
      vertex 80.4909 14.0529 30
      vertex 80.2503 14.8461 0
    endloop
  endfacet
  facet normal -0.956945 -0.290269 -0
    outer loop
      vertex 80.2503 14.8461 30
      vertex 80.2503 14.8461 0
      vertex 80.4909 14.0529 30
    endloop
  endfacet
  facet normal -0.995189 -0.0979745 0
    outer loop
      vertex 80.5721 13.2281 0
      vertex 80.5721 13.2281 30
      vertex 80.4909 14.0529 0
    endloop
  endfacet
  facet normal -0.995189 -0.0979745 -0
    outer loop
      vertex 80.4909 14.0529 30
      vertex 80.4909 14.0529 0
      vertex 80.5721 13.2281 30
    endloop
  endfacet
  facet normal -0.99519 0.0979627 0
    outer loop
      vertex 80.4909 12.4032 0
      vertex 80.4909 12.4032 30
      vertex 80.5721 13.2281 0
    endloop
  endfacet
  facet normal -0.99519 0.0979627 0
    outer loop
      vertex 80.5721 13.2281 30
      vertex 80.5721 13.2281 0
      vertex 80.4909 12.4032 30
    endloop
  endfacet
  facet normal -0.956935 0.290302 0
    outer loop
      vertex 80.2503 11.6101 0
      vertex 80.2503 11.6101 30
      vertex 80.4909 12.4032 0
    endloop
  endfacet
  facet normal -0.956935 0.290302 0
    outer loop
      vertex 80.4909 12.4032 30
      vertex 80.4909 12.4032 0
      vertex 80.2503 11.6101 30
    endloop
  endfacet
  facet normal -0.881885 0.471465 0
    outer loop
      vertex 79.8595 10.8791 0
      vertex 79.8595 10.8791 30
      vertex 80.2503 11.6101 0
    endloop
  endfacet
  facet normal -0.881885 0.471465 0
    outer loop
      vertex 80.2503 11.6101 30
      vertex 80.2503 11.6101 0
      vertex 79.8595 10.8791 30
    endloop
  endfacet
  facet normal -0.773016 0.634387 0
    outer loop
      vertex 79.3337 10.2384 0
      vertex 79.3337 10.2384 30
      vertex 79.8595 10.8791 0
    endloop
  endfacet
  facet normal -0.773016 0.634387 0
    outer loop
      vertex 79.8595 10.8791 30
      vertex 79.8595 10.8791 0
      vertex 79.3337 10.2384 30
    endloop
  endfacet
  facet normal -0.634394 0.77301 0
    outer loop
      vertex 78.693 9.71259 0
      vertex 78.693 9.71259 30
      vertex 79.3337 10.2384 0
    endloop
  endfacet
  facet normal -0.634394 0.77301 0
    outer loop
      vertex 79.3337 10.2384 30
      vertex 79.3337 10.2384 0
      vertex 78.693 9.71259 30
    endloop
  endfacet
  facet normal -0.471465 0.881885 0
    outer loop
      vertex 77.962 9.32179 0
      vertex 77.962 9.32179 30
      vertex 78.693 9.71259 0
    endloop
  endfacet
  facet normal -0.471465 0.881885 0
    outer loop
      vertex 78.693 9.71259 30
      vertex 78.693 9.71259 0
      vertex 77.962 9.32179 30
    endloop
  endfacet
  facet normal -0.290302 0.956935 0
    outer loop
      vertex 77.1689 9.08119 0
      vertex 77.1689 9.08119 30
      vertex 77.962 9.32179 0
    endloop
  endfacet
  facet normal -0.290302 0.956935 0
    outer loop
      vertex 77.962 9.32179 30
      vertex 77.962 9.32179 0
      vertex 77.1689 9.08119 30
    endloop
  endfacet
  facet normal -0.0979508 0.995191 0
    outer loop
      vertex 76.344 9 0
      vertex 76.344 9 30
      vertex 77.1689 9.08119 0
    endloop
  endfacet
  facet normal -0.0979508 0.995191 0
    outer loop
      vertex 77.1689 9.08119 30
      vertex 77.1689 9.08119 0
      vertex 76.344 9 30
    endloop
  endfacet
  facet normal 0.0979625 0.99519 -0
    outer loop
      vertex 75.5192 9.08119 0
      vertex 75.5192 9.08119 30
      vertex 76.344 9 0
    endloop
  endfacet
  facet normal 0.0979625 0.99519 0
    outer loop
      vertex 76.344 9 30
      vertex 76.344 9 0
      vertex 75.5192 9.08119 30
    endloop
  endfacet
endsolid OpenSCAD_Model
