<svg width="43" height="109" viewBox="-2 -5 43 109" xmlns="http://www.w3.org/2000/svg"><path d="M 5.0000 90.0000 L 25.0000 90.0000 A 5.0000 5.0000 0 0 0 30.0000 85.0000 L 30.0000 5.0000 A 5.0000 5.0000 0 0 0 25.0000 0.0000 L 5.0000 0.0000 A 5.0000 5.0000 0 0 0 0.0000 5.0000 L 0.0000 85.0000 A 5.0000 5.0000 0 0 0 5.0000 90.0000 Z" stroke="green" stroke-width="1" fill="none" /><path d="M 12.0000 80.0000 L 18.0000 80.0000 A 2.0000 2.0000 0 0 0 20.0000 78.0000 L 20.0000 72.0000 A 2.0000 2.0000 0 0 0 18.0000 70.0000 L 12.0000 70.0000 A 2.0000 2.0000 0 0 0 10.0000 72.0000 L 10.0000 78.0000 A 2.0000 2.0000 0 0 0 12.0000 80.0000 Z" stroke="green" stroke-width="1" fill="none" /><path d="M 12.0000 68.0000 L 18.0000 68.0000 A 2.0000 2.0000 0 0 0 20.0000 66.0000 L 20.0000 60.0000 A 2.0000 2.0000 0 0 0 18.0000 58.0000 L 12.0000 58.0000 A 2.0000 2.0000 0 0 0 10.0000 60.0000 L 10.0000 66.0000 A 2.0000 2.0000 0 0 0 12.0000 68.0000 Z" stroke="green" stroke-width="1" fill="none" /><path d="M 12.0000 56.0000 L 18.0000 56.0000 A 2.0000 2.0000 0 0 0 20.0000 54.0000 L 20.0000 48.0000 A 2.0000 2.0000 0 0 0 18.0000 46.0000 L 12.0000 46.0000 A 2.0000 2.0000 0 0 0 10.0000 48.0000 L 10.0000 54.0000 A 2.0000 2.0000 0 0 0 12.0000 56.0000 Z" stroke="green" stroke-width="1" fill="none" /><path d="M 12.0000 44.0000 L 18.0000 44.0000 A 2.0000 2.0000 0 0 0 20.0000 42.0000 L 20.0000 36.0000 A 2.0000 2.0000 0 0 0 18.0000 34.0000 L 12.0000 34.0000 A 2.0000 2.0000 0 0 0 10.0000 36.0000 L 10.0000 42.0000 A 2.0000 2.0000 0 0 0 12.0000 44.0000 Z" stroke="green" stroke-width="1" fill="none" /><path d="M 12.0000 32.0000 L 18.0000 32.0000 A 2.0000 2.0000 0 0 0 20.0000 30.0000 L 20.0000 24.0000 A 2.0000 2.0000 0 0 0 18.0000 22.0000 L 12.0000 22.0000 A 2.0000 2.0000 0 0 0 10.0000 24.0000 L 10.0000 30.0000 A 2.0000 2.0000 0 0 0 12.0000 32.0000 Z" stroke="green" stroke-width="1" fill="none" /><path d="M 12.0000 20.0000 L 18.0000 20.0000 A 2.0000 2.0000 0 0 0 20.0000 18.0000 L 20.0000 12.0000 A 2.0000 2.0000 0 0 0 18.0000 10.0000 L 12.0000 10.0000 A 2.0000 2.0000 0 0 0 10.0000 12.0000 L 10.0000 18.0000 A 2.0000 2.0000 0 0 0 12.0000 20.0000 Z" stroke="green" stroke-width="1" fill="none" /></svg>