<svg width="366" height="347" viewBox="-193 -157 366 347" xmlns="http://www.w3.org/2000/svg"><path d="M -100.0000 26.2500 A 2.5000 2.5000 0 0 0 -105.0000 26.2500 A 105.0000 105.0000 0 0 0 -0.0000 131.2500 A 113.7500 113.7500 0 0 0 113.7500 17.5000 A 122.5000 122.5000 0 0 0 -8.7500 -105.0000 A 131.2500 131.2500 0 0 0 -140.0000 26.2500 A 140.0000 140.0000 0 0 0 -0.0000 166.2500 A 148.7500 148.7500 0 0 0 148.7500 17.5000 A 157.5000 157.5000 0 0 0 -8.7500 -140.0000 A 166.2500 166.2500 0 0 0 -175.0000 26.2500 A 2.5000 2.5000 0 0 0 -170.0000 26.2500 A 161.2500 161.2500 0 0 1 -8.7500 -135.0000 A 152.5000 152.5000 0 0 1 143.7500 17.5000 A 143.7500 143.7500 0 0 1 -0.0000 161.2500 A 135.0000 135.0000 0 0 1 -135.0000 26.2500 A 126.2500 126.2500 0 0 1 -8.7500 -100.0000 A 117.5000 117.5000 0 0 1 108.7500 17.5000 A 108.7500 108.7500 0 0 1 -0.0000 126.2500 A 100.0000 100.0000 0 0 1 -100.0000 26.2500 Z" stroke="green" stroke-width="1" fill="none" /></svg>