0
SECTION
2
ENTITIES
0
LINE
8
PARAMETRIX
10
-4686.6667
20
-5415.0000
11
-3086.6667
21
-5415.0000
0
LINE
8
PARAMETRIX
10
-3086.6667
20
-5415.0000
11
-3086.6667
21
-4415.0000
0
LINE
8
PARAMETRIX
10
-3086.6667
20
-4415.0000
11
-4686.6667
21
-4415.0000
0
LINE
8
PARAMETRIX
10
-4686.6667
20
-4415.0000
11
-4686.6667
21
-5415.0000
0
LINE
8
PARAMETRIX
10
-4686.6667
20
-4405.0000
11
-3086.6667
21
-4405.0000
0
LINE
8
PARAMETRIX
10
-3086.6667
20
-4405.0000
11
-3086.6667
21
-3405.0000
0
LINE
8
PARAMETRIX
10
-3086.6667
20
-3405.0000
11
-4686.6667
21
-3405.0000
0
LINE
8
PARAMETRIX
10
-4686.6667
20
-3405.0000
11
-4686.6667
21
-4405.0000
0
LINE
8
PARAMETRIX
10
-4686.6667
20
-2919.7578
11
-3086.6667
21
-2919.7578
0
LINE
8
PARAMETRIX
10
-3086.6667
20
-2919.7578
11
-3086.6667
21
-1919.7578
0
LINE
8
PARAMETRIX
10
-3086.6667
20
-1919.7578
11
-4686.6667
21
-1919.7578
0
LINE
8
PARAMETRIX
10
-4686.6667
20
-1919.7578
11
-4686.6667
21
-2919.7578
0
LINE
8
PARAMETRIX
10
-4686.6667
20
-1815.6302
11
-3086.6667
21
-1815.6302
0
LINE
8
PARAMETRIX
10
-3086.6667
20
-1815.6302
11
-3086.6667
21
-815.6302
0
LINE
8
PARAMETRIX
10
-3086.6667
20
-815.6302
11
-4686.6667
21
-815.6302
0
LINE
8
PARAMETRIX
10
-4686.6667
20
-815.6302
11
-4686.6667
21
-1815.6302
0
LINE
8
PARAMETRIX
10
-4686.6667
20
-500.0000
11
-3086.6667
21
-500.0000
0
LINE
8
PARAMETRIX
10
-3086.6667
20
-500.0000
11
-3086.6667
21
500.0000
0
LINE
8
PARAMETRIX
10
-3086.6667
20
500.0000
11
-4686.6667
21
500.0000
0
LINE
8
PARAMETRIX
10
-4686.6667
20
500.0000
11
-4686.6667
21
-500.0000
0
LINE
8
PARAMETRIX
10
-4686.6667
20
815.6302
11
-3086.6667
21
815.6302
0
LINE
8
PARAMETRIX
10
-3086.6667
20
815.6302
11
-3086.6667
21
1815.6302
0
LINE
8
PARAMETRIX
10
-3086.6667
20
1815.6302
11
-4686.6667
21
1815.6302
0
LINE
8
PARAMETRIX
10
-4686.6667
20
1815.6302
11
-4686.6667
21
815.6302
0
LINE
8
PARAMETRIX
10
-4686.6667
20
1919.7578
11
-3086.6667
21
1919.7578
0
LINE
8
PARAMETRIX
10
-3086.6667
20
1919.7578
11
-3086.6667
21
2919.7578
0
LINE
8
PARAMETRIX
10
-3086.6667
20
2919.7578
11
-4686.6667
21
2919.7578
0
LINE
8
PARAMETRIX
10
-4686.6667
20
2919.7578
11
-4686.6667
21
1919.7578
0
LINE
8
PARAMETRIX
10
-4686.6667
20
3405.0000
11
-3086.6667
21
3405.0000
0
LINE
8
PARAMETRIX
10
-3086.6667
20
3405.0000
11
-3086.6667
21
4405.0000
0
LINE
8
PARAMETRIX
10
-3086.6667
20
4405.0000
11
-4686.6667
21
4405.0000
0
LINE
8
PARAMETRIX
10
-4686.6667
20
4405.0000
11
-4686.6667
21
3405.0000
0
LINE
8
PARAMETRIX
10
-4686.6667
20
4415.0000
11
-3086.6667
21
4415.0000
0
LINE
8
PARAMETRIX
10
-3086.6667
20
4415.0000
11
-3086.6667
21
5415.0000
0
LINE
8
PARAMETRIX
10
-3086.6667
20
5415.0000
11
-4686.6667
21
5415.0000
0
LINE
8
PARAMETRIX
10
-4686.6667
20
5415.0000
11
-4686.6667
21
4415.0000
0
LINE
8
PARAMETRIX
10
-3076.6667
20
-5415.0000
11
-1476.6667
21
-5415.0000
0
LINE
8
PARAMETRIX
10
-1476.6667
20
-5415.0000
11
-1476.6667
21
-4415.0000
0
LINE
8
PARAMETRIX
10
-1476.6667
20
-4415.0000
11
-3076.6667
21
-4415.0000
0
LINE
8
PARAMETRIX
10
-3076.6667
20
-4415.0000
11
-3076.6667
21
-5415.0000
0
LINE
8
PARAMETRIX
10
-3076.6667
20
-4405.0000
11
-1476.6667
21
-4405.0000
0
LINE
8
PARAMETRIX
10
-1476.6667
20
-4405.0000
11
-1476.6667
21
-3405.0000
0
LINE
8
PARAMETRIX
10
-1476.6667
20
-3405.0000
11
-3076.6667
21
-3405.0000
0
LINE
8
PARAMETRIX
10
-3076.6667
20
-3405.0000
11
-3076.6667
21
-4405.0000
0
LINE
8
PARAMETRIX
10
-3076.6667
20
-2919.7578
11
-1476.6667
21
-2919.7578
0
LINE
8
PARAMETRIX
10
-1476.6667
20
-2919.7578
11
-1476.6667
21
-1919.7578
0
LINE
8
PARAMETRIX
10
-1476.6667
20
-1919.7578
11
-3076.6667
21
-1919.7578
0
LINE
8
PARAMETRIX
10
-3076.6667
20
-1919.7578
11
-3076.6667
21
-2919.7578
0
LINE
8
PARAMETRIX
10
-3076.6667
20
-1815.6302
11
-1476.6667
21
-1815.6302
0
LINE
8
PARAMETRIX
10
-1476.6667
20
-1815.6302
11
-1476.6667
21
-815.6302
0
LINE
8
PARAMETRIX
10
-1476.6667
20
-815.6302
11
-3076.6667
21
-815.6302
0
LINE
8
PARAMETRIX
10
-3076.6667
20
-815.6302
11
-3076.6667
21
-1815.6302
0
LINE
8
PARAMETRIX
10
-3076.6667
20
-500.0000
11
-1476.6667
21
-500.0000
0
LINE
8
PARAMETRIX
10
-1476.6667
20
-500.0000
11
-1476.6667
21
500.0000
0
LINE
8
PARAMETRIX
10
-1476.6667
20
500.0000
11
-3076.6667
21
500.0000
0
LINE
8
PARAMETRIX
10
-3076.6667
20
500.0000
11
-3076.6667
21
-500.0000
0
LINE
8
PARAMETRIX
10
-3076.6667
20
815.6302
11
-1476.6667
21
815.6302
0
LINE
8
PARAMETRIX
10
-1476.6667
20
815.6302
11
-1476.6667
21
1815.6302
0
LINE
8
PARAMETRIX
10
-1476.6667
20
1815.6302
11
-3076.6667
21
1815.6302
0
LINE
8
PARAMETRIX
10
-3076.6667
20
1815.6302
11
-3076.6667
21
815.6302
0
LINE
8
PARAMETRIX
10
-3076.6667
20
1919.7578
11
-1476.6667
21
1919.7578
0
LINE
8
PARAMETRIX
10
-1476.6667
20
1919.7578
11
-1476.6667
21
2919.7578
0
LINE
8
PARAMETRIX
10
-1476.6667
20
2919.7578
11
-3076.6667
21
2919.7578
0
LINE
8
PARAMETRIX
10
-3076.6667
20
2919.7578
11
-3076.6667
21
1919.7578
0
LINE
8
PARAMETRIX
10
-3076.6667
20
3405.0000
11
-1476.6667
21
3405.0000
0
LINE
8
PARAMETRIX
10
-1476.6667
20
3405.0000
11
-1476.6667
21
4405.0000
0
LINE
8
PARAMETRIX
10
-1476.6667
20
4405.0000
11
-3076.6667
21
4405.0000
0
LINE
8
PARAMETRIX
10
-3076.6667
20
4405.0000
11
-3076.6667
21
3405.0000
0
LINE
8
PARAMETRIX
10
-3076.6667
20
4415.0000
11
-1476.6667
21
4415.0000
0
LINE
8
PARAMETRIX
10
-1476.6667
20
4415.0000
11
-1476.6667
21
5415.0000
0
LINE
8
PARAMETRIX
10
-1476.6667
20
5415.0000
11
-3076.6667
21
5415.0000
0
LINE
8
PARAMETRIX
10
-3076.6667
20
5415.0000
11
-3076.6667
21
4415.0000
0
LINE
8
PARAMETRIX
10
-800.0000
20
-2919.7578
11
800.0000
21
-2919.7578
0
LINE
8
PARAMETRIX
10
800.0000
20
-2919.7578
11
800.0000
21
-1919.7578
0
LINE
8
PARAMETRIX
10
800.0000
20
-1919.7578
11
-800.0000
21
-1919.7578
0
LINE
8
PARAMETRIX
10
-800.0000
20
-1919.7578
11
-800.0000
21
-2919.7578
0
LINE
8
PARAMETRIX
10
-800.0000
20
-1815.6302
11
800.0000
21
-1815.6302
0
LINE
8
PARAMETRIX
10
800.0000
20
-1815.6302
11
800.0000
21
-815.6302
0
LINE
8
PARAMETRIX
10
800.0000
20
-815.6302
11
-800.0000
21
-815.6302
0
LINE
8
PARAMETRIX
10
-800.0000
20
-815.6302
11
-800.0000
21
-1815.6302
0
LINE
8
PARAMETRIX
10
-800.0000
20
-500.0000
11
800.0000
21
-500.0000
0
LINE
8
PARAMETRIX
10
800.0000
20
-500.0000
11
800.0000
21
500.0000
0
LINE
8
PARAMETRIX
10
800.0000
20
500.0000
11
-800.0000
21
500.0000
0
LINE
8
PARAMETRIX
10
-800.0000
20
500.0000
11
-800.0000
21
-500.0000
0
LINE
8
PARAMETRIX
10
-800.0000
20
815.6302
11
800.0000
21
815.6302
0
LINE
8
PARAMETRIX
10
800.0000
20
815.6302
11
800.0000
21
1815.6302
0
LINE
8
PARAMETRIX
10
800.0000
20
1815.6302
11
-800.0000
21
1815.6302
0
LINE
8
PARAMETRIX
10
-800.0000
20
1815.6302
11
-800.0000
21
815.6302
0
LINE
8
PARAMETRIX
10
-800.0000
20
1919.7578
11
800.0000
21
1919.7578
0
LINE
8
PARAMETRIX
10
800.0000
20
1919.7578
11
800.0000
21
2919.7578
0
LINE
8
PARAMETRIX
10
800.0000
20
2919.7578
11
-800.0000
21
2919.7578
0
LINE
8
PARAMETRIX
10
-800.0000
20
2919.7578
11
-800.0000
21
1919.7578
0
LINE
8
PARAMETRIX
10
1476.6667
20
-5415.0000
11
3076.6667
21
-5415.0000
0
LINE
8
PARAMETRIX
10
3076.6667
20
-5415.0000
11
3076.6667
21
-4415.0000
0
LINE
8
PARAMETRIX
10
3076.6667
20
-4415.0000
11
1476.6667
21
-4415.0000
0
LINE
8
PARAMETRIX
10
1476.6667
20
-4415.0000
11
1476.6667
21
-5415.0000
0
LINE
8
PARAMETRIX
10
1476.6667
20
-4405.0000
11
3076.6667
21
-4405.0000
0
LINE
8
PARAMETRIX
10
3076.6667
20
-4405.0000
11
3076.6667
21
-3405.0000
0
LINE
8
PARAMETRIX
10
3076.6667
20
-3405.0000
11
1476.6667
21
-3405.0000
0
LINE
8
PARAMETRIX
10
1476.6667
20
-3405.0000
11
1476.6667
21
-4405.0000
0
LINE
8
PARAMETRIX
10
1476.6667
20
-2919.7578
11
3076.6667
21
-2919.7578
0
LINE
8
PARAMETRIX
10
3076.6667
20
-2919.7578
11
3076.6667
21
-1919.7578
0
LINE
8
PARAMETRIX
10
3076.6667
20
-1919.7578
11
1476.6667
21
-1919.7578
0
LINE
8
PARAMETRIX
10
1476.6667
20
-1919.7578
11
1476.6667
21
-2919.7578
0
LINE
8
PARAMETRIX
10
1476.6667
20
-1815.6302
11
3076.6667
21
-1815.6302
0
LINE
8
PARAMETRIX
10
3076.6667
20
-1815.6302
11
3076.6667
21
-815.6302
0
LINE
8
PARAMETRIX
10
3076.6667
20
-815.6302
11
1476.6667
21
-815.6302
0
LINE
8
PARAMETRIX
10
1476.6667
20
-815.6302
11
1476.6667
21
-1815.6302
0
LINE
8
PARAMETRIX
10
1476.6667
20
-500.0000
11
3076.6667
21
-500.0000
0
LINE
8
PARAMETRIX
10
3076.6667
20
-500.0000
11
3076.6667
21
500.0000
0
LINE
8
PARAMETRIX
10
3076.6667
20
500.0000
11
1476.6667
21
500.0000
0
LINE
8
PARAMETRIX
10
1476.6667
20
500.0000
11
1476.6667
21
-500.0000
0
LINE
8
PARAMETRIX
10
1476.6667
20
815.6302
11
3076.6667
21
815.6302
0
LINE
8
PARAMETRIX
10
3076.6667
20
815.6302
11
3076.6667
21
1815.6302
0
LINE
8
PARAMETRIX
10
3076.6667
20
1815.6302
11
1476.6667
21
1815.6302
0
LINE
8
PARAMETRIX
10
1476.6667
20
1815.6302
11
1476.6667
21
815.6302
0
LINE
8
PARAMETRIX
10
1476.6667
20
1919.7578
11
3076.6667
21
1919.7578
0
LINE
8
PARAMETRIX
10
3076.6667
20
1919.7578
11
3076.6667
21
2919.7578
0
LINE
8
PARAMETRIX
10
3076.6667
20
2919.7578
11
1476.6667
21
2919.7578
0
LINE
8
PARAMETRIX
10
1476.6667
20
2919.7578
11
1476.6667
21
1919.7578
0
LINE
8
PARAMETRIX
10
1476.6667
20
3405.0000
11
3076.6667
21
3405.0000
0
LINE
8
PARAMETRIX
10
3076.6667
20
3405.0000
11
3076.6667
21
4405.0000
0
LINE
8
PARAMETRIX
10
3076.6667
20
4405.0000
11
1476.6667
21
4405.0000
0
LINE
8
PARAMETRIX
10
1476.6667
20
4405.0000
11
1476.6667
21
3405.0000
0
LINE
8
PARAMETRIX
10
1476.6667
20
4415.0000
11
3076.6667
21
4415.0000
0
LINE
8
PARAMETRIX
10
3076.6667
20
4415.0000
11
3076.6667
21
5415.0000
0
LINE
8
PARAMETRIX
10
3076.6667
20
5415.0000
11
1476.6667
21
5415.0000
0
LINE
8
PARAMETRIX
10
1476.6667
20
5415.0000
11
1476.6667
21
4415.0000
0
LINE
8
PARAMETRIX
10
3086.6667
20
-5415.0000
11
4686.6667
21
-5415.0000
0
LINE
8
PARAMETRIX
10
4686.6667
20
-5415.0000
11
4686.6667
21
-4415.0000
0
LINE
8
PARAMETRIX
10
4686.6667
20
-4415.0000
11
3086.6667
21
-4415.0000
0
LINE
8
PARAMETRIX
10
3086.6667
20
-4415.0000
11
3086.6667
21
-5415.0000
0
LINE
8
PARAMETRIX
10
3086.6667
20
-4405.0000
11
4686.6667
21
-4405.0000
0
LINE
8
PARAMETRIX
10
4686.6667
20
-4405.0000
11
4686.6667
21
-3405.0000
0
LINE
8
PARAMETRIX
10
4686.6667
20
-3405.0000
11
3086.6667
21
-3405.0000
0
LINE
8
PARAMETRIX
10
3086.6667
20
-3405.0000
11
3086.6667
21
-4405.0000
0
LINE
8
PARAMETRIX
10
3086.6667
20
-2919.7578
11
4686.6667
21
-2919.7578
0
LINE
8
PARAMETRIX
10
4686.6667
20
-2919.7578
11
4686.6667
21
-1919.7578
0
LINE
8
PARAMETRIX
10
4686.6667
20
-1919.7578
11
3086.6667
21
-1919.7578
0
LINE
8
PARAMETRIX
10
3086.6667
20
-1919.7578
11
3086.6667
21
-2919.7578
0
LINE
8
PARAMETRIX
10
3086.6667
20
-1815.6302
11
4686.6667
21
-1815.6302
0
LINE
8
PARAMETRIX
10
4686.6667
20
-1815.6302
11
4686.6667
21
-815.6302
0
LINE
8
PARAMETRIX
10
4686.6667
20
-815.6302
11
3086.6667
21
-815.6302
0
LINE
8
PARAMETRIX
10
3086.6667
20
-815.6302
11
3086.6667
21
-1815.6302
0
LINE
8
PARAMETRIX
10
3086.6667
20
-500.0000
11
4686.6667
21
-500.0000
0
LINE
8
PARAMETRIX
10
4686.6667
20
-500.0000
11
4686.6667
21
500.0000
0
LINE
8
PARAMETRIX
10
4686.6667
20
500.0000
11
3086.6667
21
500.0000
0
LINE
8
PARAMETRIX
10
3086.6667
20
500.0000
11
3086.6667
21
-500.0000
0
LINE
8
PARAMETRIX
10
3086.6667
20
815.6302
11
4686.6667
21
815.6302
0
LINE
8
PARAMETRIX
10
4686.6667
20
815.6302
11
4686.6667
21
1815.6302
0
LINE
8
PARAMETRIX
10
4686.6667
20
1815.6302
11
3086.6667
21
1815.6302
0
LINE
8
PARAMETRIX
10
3086.6667
20
1815.6302
11
3086.6667
21
815.6302
0
LINE
8
PARAMETRIX
10
3086.6667
20
1919.7578
11
4686.6667
21
1919.7578
0
LINE
8
PARAMETRIX
10
4686.6667
20
1919.7578
11
4686.6667
21
2919.7578
0
LINE
8
PARAMETRIX
10
4686.6667
20
2919.7578
11
3086.6667
21
2919.7578
0
LINE
8
PARAMETRIX
10
3086.6667
20
2919.7578
11
3086.6667
21
1919.7578
0
LINE
8
PARAMETRIX
10
3086.6667
20
3405.0000
11
4686.6667
21
3405.0000
0
LINE
8
PARAMETRIX
10
4686.6667
20
3405.0000
11
4686.6667
21
4405.0000
0
LINE
8
PARAMETRIX
10
4686.6667
20
4405.0000
11
3086.6667
21
4405.0000
0
LINE
8
PARAMETRIX
10
3086.6667
20
4405.0000
11
3086.6667
21
3405.0000
0
LINE
8
PARAMETRIX
10
3086.6667
20
4415.0000
11
4686.6667
21
4415.0000
0
LINE
8
PARAMETRIX
10
4686.6667
20
4415.0000
11
4686.6667
21
5415.0000
0
LINE
8
PARAMETRIX
10
4686.6667
20
5415.0000
11
3086.6667
21
5415.0000
0
LINE
8
PARAMETRIX
10
3086.6667
20
5415.0000
11
3086.6667
21
4415.0000
0
ENDSEC
0
EOF
