<svg width="10321" height="11923" viewBox="-5203 -6011 10321 11923" xmlns="http://www.w3.org/2000/svg"><path d="M -4686.6667 5415.0000 L -3086.6667 5415.0000 L -3086.6667 4415.0000 L -4686.6667 4415.0000 L -4686.6667 5415.0000 Z" stroke="green" stroke-width="1" fill="none" /><path d="M -4686.6667 4405.0000 L -3086.6667 4405.0000 L -3086.6667 3405.0000 L -4686.6667 3405.0000 L -4686.6667 4405.0000 Z" stroke="green" stroke-width="1" fill="none" /><path d="M -4686.6667 2919.7578 L -3086.6667 2919.7578 L -3086.6667 1919.7578 L -4686.6667 1919.7578 L -4686.6667 2919.7578 Z" stroke="green" stroke-width="1" fill="none" /><path d="M -4686.6667 1815.6302 L -3086.6667 1815.6302 L -3086.6667 815.6302 L -4686.6667 815.6302 L -4686.6667 1815.6302 Z" stroke="green" stroke-width="1" fill="none" /><path d="M -4686.6667 500.0000 L -3086.6667 500.0000 L -3086.6667 -500.0000 L -4686.6667 -500.0000 L -4686.6667 500.0000 Z" stroke="green" stroke-width="1" fill="none" /><path d="M -4686.6667 -815.6302 L -3086.6667 -815.6302 L -3086.6667 -1815.6302 L -4686.6667 -1815.6302 L -4686.6667 -815.6302 Z" stroke="green" stroke-width="1" fill="none" /><path d="M -4686.6667 -1919.7578 L -3086.6667 -1919.7578 L -3086.6667 -2919.7578 L -4686.6667 -2919.7578 L -4686.6667 -1919.7578 Z" stroke="green" stroke-width="1" fill="none" /><path d="M -4686.6667 -3405.0000 L -3086.6667 -3405.0000 L -3086.6667 -4405.0000 L -4686.6667 -4405.0000 L -4686.6667 -3405.0000 Z" stroke="green" stroke-width="1" fill="none" /><path d="M -4686.6667 -4415.0000 L -3086.6667 -4415.0000 L -3086.6667 -5415.0000 L -4686.6667 -5415.0000 L -4686.6667 -4415.0000 Z" stroke="green" stroke-width="1" fill="none" /><path d="M -3076.6667 5415.0000 L -1476.6667 5415.0000 L -1476.6667 4415.0000 L -3076.6667 4415.0000 L -3076.6667 5415.0000 Z" stroke="green" stroke-width="1" fill="none" /><path d="M -3076.6667 4405.0000 L -1476.6667 4405.0000 L -1476.6667 3405.0000 L -3076.6667 3405.0000 L -3076.6667 4405.0000 Z" stroke="green" stroke-width="1" fill="none" /><path d="M -3076.6667 2919.7578 L -1476.6667 2919.7578 L -1476.6667 1919.7578 L -3076.6667 1919.7578 L -3076.6667 2919.7578 Z" stroke="green" stroke-width="1" fill="none" /><path d="M -3076.6667 1815.6302 L -1476.6667 1815.6302 L -1476.6667 815.6302 L -3076.6667 815.6302 L -3076.6667 1815.6302 Z" stroke="green" stroke-width="1" fill="none" /><path d="M -3076.6667 500.0000 L -1476.6667 500.0000 L -1476.6667 -500.0000 L -3076.6667 -500.0000 L -3076.6667 500.0000 Z" stroke="green" stroke-width="1" fill="none" /><path d="M -3076.6667 -815.6302 L -1476.6667 -815.6302 L -1476.6667 -1815.6302 L -3076.6667 -1815.6302 L -3076.6667 -815.6302 Z" stroke="green" stroke-width="1" fill="none" /><path d="M -3076.6667 -1919.7578 L -1476.6667 -1919.7578 L -1476.6667 -2919.7578 L -3076.6667 -2919.7578 L -3076.6667 -1919.7578 Z" stroke="green" stroke-width="1" fill="none" /><path d="M -3076.6667 -3405.0000 L -1476.6667 -3405.0000 L -1476.6667 -4405.0000 L -3076.6667 -4405.0000 L -3076.6667 -3405.0000 Z" stroke="green" stroke-width="1" fill="none" /><path d="M -3076.6667 -4415.0000 L -1476.6667 -4415.0000 L -1476.6667 -5415.0000 L -3076.6667 -5415.0000 L -3076.6667 -4415.0000 Z" stroke="green" stroke-width="1" fill="none" /><path d="M -800.0000 2919.7578 L 800.0000 2919.7578 L 800.0000 1919.7578 L -800.0000 1919.7578 L -800.0000 2919.7578 Z" stroke="green" stroke-width="1" fill="none" /><path d="M -800.0000 1815.6302 L 800.0000 1815.6302 L 800.0000 815.6302 L -800.0000 815.6302 L -800.0000 1815.6302 Z" stroke="green" stroke-width="1" fill="none" /><path d="M -800.0000 500.0000 L 800.0000 500.0000 L 800.0000 -500.0000 L -800.0000 -500.0000 L -800.0000 500.0000 Z" stroke="green" stroke-width="1" fill="none" /><path d="M -800.0000 -815.6302 L 800.0000 -815.6302 L 800.0000 -1815.6302 L -800.0000 -1815.6302 L -800.0000 -815.6302 Z" stroke="green" stroke-width="1" fill="none" /><path d="M -800.0000 -1919.7578 L 800.0000 -1919.7578 L 800.0000 -2919.7578 L -800.0000 -2919.7578 L -800.0000 -1919.7578 Z" stroke="green" stroke-width="1" fill="none" /><path d="M 1476.6667 5415.0000 L 3076.6667 5415.0000 L 3076.6667 4415.0000 L 1476.6667 4415.0000 L 1476.6667 5415.0000 Z" stroke="green" stroke-width="1" fill="none" /><path d="M 1476.6667 4405.0000 L 3076.6667 4405.0000 L 3076.6667 3405.0000 L 1476.6667 3405.0000 L 1476.6667 4405.0000 Z" stroke="green" stroke-width="1" fill="none" /><path d="M 1476.6667 2919.7578 L 3076.6667 2919.7578 L 3076.6667 1919.7578 L 1476.6667 1919.7578 L 1476.6667 2919.7578 Z" stroke="green" stroke-width="1" fill="none" /><path d="M 1476.6667 1815.6302 L 3076.6667 1815.6302 L 3076.6667 815.6302 L 1476.6667 815.6302 L 1476.6667 1815.6302 Z" stroke="green" stroke-width="1" fill="none" /><path d="M 1476.6667 500.0000 L 3076.6667 500.0000 L 3076.6667 -500.0000 L 1476.6667 -500.0000 L 1476.6667 500.0000 Z" stroke="green" stroke-width="1" fill="none" /><path d="M 1476.6667 -815.6302 L 3076.6667 -815.6302 L 3076.6667 -1815.6302 L 1476.6667 -1815.6302 L 1476.6667 -815.6302 Z" stroke="green" stroke-width="1" fill="none" /><path d="M 1476.6667 -1919.7578 L 3076.6667 -1919.7578 L 3076.6667 -2919.7578 L 1476.6667 -2919.7578 L 1476.6667 -1919.7578 Z" stroke="green" stroke-width="1" fill="none" /><path d="M 1476.6667 -3405.0000 L 3076.6667 -3405.0000 L 3076.6667 -4405.0000 L 1476.6667 -4405.0000 L 1476.6667 -3405.0000 Z" stroke="green" stroke-width="1" fill="none" /><path d="M 1476.6667 -4415.0000 L 3076.6667 -4415.0000 L 3076.6667 -5415.0000 L 1476.6667 -5415.0000 L 1476.6667 -4415.0000 Z" stroke="green" stroke-width="1" fill="none" /><path d="M 3086.6667 5415.0000 L 4686.6667 5415.0000 L 4686.6667 4415.0000 L 3086.6667 4415.0000 L 3086.6667 5415.0000 Z" stroke="green" stroke-width="1" fill="none" /><path d="M 3086.6667 4405.0000 L 4686.6667 4405.0000 L 4686.6667 3405.0000 L 3086.6667 3405.0000 L 3086.6667 4405.0000 Z" stroke="green" stroke-width="1" fill="none" /><path d="M 3086.6667 2919.7578 L 4686.6667 2919.7578 L 4686.6667 1919.7578 L 3086.6667 1919.7578 L 3086.6667 2919.7578 Z" stroke="green" stroke-width="1" fill="none" /><path d="M 3086.6667 1815.6302 L 4686.6667 1815.6302 L 4686.6667 815.6302 L 3086.6667 815.6302 L 3086.6667 1815.6302 Z" stroke="green" stroke-width="1" fill="none" /><path d="M 3086.6667 500.0000 L 4686.6667 500.0000 L 4686.6667 -500.0000 L 3086.6667 -500.0000 L 3086.6667 500.0000 Z" stroke="green" stroke-width="1" fill="none" /><path d="M 3086.6667 -815.6302 L 4686.6667 -815.6302 L 4686.6667 -1815.6302 L 3086.6667 -1815.6302 L 3086.6667 -815.6302 Z" stroke="green" stroke-width="1" fill="none" /><path d="M 3086.6667 -1919.7578 L 4686.6667 -1919.7578 L 4686.6667 -2919.7578 L 3086.6667 -2919.7578 L 3086.6667 -1919.7578 Z" stroke="green" stroke-width="1" fill="none" /><path d="M 3086.6667 -3405.0000 L 4686.6667 -3405.0000 L 4686.6667 -4405.0000 L 3086.6667 -4405.0000 L 3086.6667 -3405.0000 Z" stroke="green" stroke-width="1" fill="none" /><path d="M 3086.6667 -4415.0000 L 4686.6667 -4415.0000 L 4686.6667 -5415.0000 L 3086.6667 -5415.0000 L 3086.6667 -4415.0000 Z" stroke="green" stroke-width="1" fill="none" /></svg>