0
SECTION
2
ENTITIES
0
LINE
8
PARAMETRIX
10
104.3731
20
-3.4921
11
104.9413
21
-3.5111
0
ARC
8
PARAMETRIX
10
100.6121
20
22.1486
40
26.0224
50
279.5765
51
287.4149
0
ARC
8
PARAMETRIX
10
95.5404
20
38.3176
40
42.9681
50
287.4149
51
293.5130
0
ARC
8
PARAMETRIX
10
92.4639
20
45.3886
40
50.6794
50
293.5130
51
300.9790
0
ARC
8
PARAMETRIX
10
83.8337
20
59.7638
40
67.4462
50
300.9790
51
307.4496
0
LINE
8
PARAMETRIX
10
124.8452
20
6.2190
11
124.5292
21
10.8387
0
ARC
8
PARAMETRIX
10
91.1907
20
-47.7918
40
67.4462
50
60.3765
51
66.8471
0
ARC
8
PARAMETRIX
10
97.7831
20
-32.3754
40
50.6794
50
66.8471
51
74.3131
0
ARC
8
PARAMETRIX
10
99.8681
20
-24.9513
40
42.9681
50
74.3131
51
80.4112
0
ARC
8
PARAMETRIX
10
102.6909
20
-8.2423
40
26.0224
50
80.4112
51
88.2496
0
LINE
8
PARAMETRIX
10
103.4858
20
17.7679
11
102.9254
21
17.6717
0
ARC
8
PARAMETRIX
10
102.5870
20
19.6429
40
2.0000
50
191.7391
51
279.7424
0
LINE
8
PARAMETRIX
10
100.6288
20
19.2359
11
99.9615
21
22.4472
0
ARC
8
PARAMETRIX
10
101.9197
20
22.8541
40
2.0000
50
103.7359
51
191.7391
0
LINE
8
PARAMETRIX
10
101.4448
20
24.7969
11
101.9971
21
24.9319
0
ARC
8
PARAMETRIX
10
90.9055
20
48.4721
40
26.0224
50
295.2287
51
303.0671
0
ARC
8
PARAMETRIX
10
81.6595
20
62.6732
40
42.9681
50
303.0671
51
309.1652
0
ARC
8
PARAMETRIX
10
76.7894
20
68.6520
40
50.6794
50
309.1652
51
316.6311
0
ARC
8
PARAMETRIX
10
64.6008
20
80.1656
40
67.4462
50
316.6311
51
323.1017
0
LINE
8
PARAMETRIX
10
118.5377
20
39.6712
11
116.9871
21
44.0343
0
ARC
8
PARAMETRIX
10
100.7031
20
-21.4166
40
67.4462
50
76.0287
51
82.4993
0
ARC
8
PARAMETRIX
10
102.8918
20
-4.7932
40
50.6794
50
82.4993
51
89.9652
0
ARC
8
PARAMETRIX
10
102.8965
20
2.9180
40
42.9681
50
89.9652
51
96.0633
0
ARC
8
PARAMETRIX
10
101.1066
20
19.7690
40
26.0224
50
96.0633
51
103.9018
0
LINE
8
PARAMETRIX
10
94.8545
20
45.0291
11
94.3409
21
44.7853
0
ARC
8
PARAMETRIX
10
93.4832
20
46.5921
40
2.0000
50
207.3913
51
295.3945
0
LINE
8
PARAMETRIX
10
91.7075
20
45.6720
11
90.1985
21
48.5841
0
ARC
8
PARAMETRIX
10
91.9743
20
49.5042
40
2.0000
50
119.3881
51
207.3913
0
LINE
8
PARAMETRIX
10
90.9928
20
51.2469
11
91.4882
21
51.5259
0
ARC
8
PARAMETRIX
10
74.4569
20
71.2006
40
26.0224
50
310.8808
51
318.7193
0
ARC
8
PARAMETRIX
10
61.7224
20
82.3806
40
42.9681
50
318.7193
51
324.8174
0
ARC
8
PARAMETRIX
10
55.4198
20
86.8237
40
50.6794
50
324.8174
51
332.2833
0
ARC
8
PARAMETRIX
10
40.5768
20
94.6219
40
67.4462
50
332.2833
51
338.7539
0
LINE
8
PARAMETRIX
10
103.4389
20
70.1812
11
100.7686
21
73.9642
0
ARC
8
PARAMETRIX
10
102.7469
20
6.5470
40
67.4462
50
91.6809
51
98.1515
0
ARC
8
PARAMETRIX
10
100.3695
20
23.1444
40
50.6794
50
98.1515
51
105.6174
0
ARC
8
PARAMETRIX
10
98.2936
20
30.5710
40
42.9681
50
105.6174
51
111.7155
0
ARC
8
PARAMETRIX
10
92.0237
20
46.3141
40
26.0224
50
111.7155
51
119.5539
0
LINE
8
PARAMETRIX
10
79.1883
20
68.9508
11
78.7596
21
68.5774
0
ARC
8
PARAMETRIX
10
77.4462
20
70.0858
40
2.0000
50
223.0435
51
311.0467
0
LINE
8
PARAMETRIX
10
75.9845
20
68.7207
11
73.7459
21
71.1177
0
ARC
8
PARAMETRIX
10
75.2075
20
72.4828
40
2.0000
50
135.0402
51
223.0435
0
LINE
8
PARAMETRIX
10
73.7923
20
73.8961
11
74.1940
21
74.2984
0
ARC
8
PARAMETRIX
10
52.4861
20
88.6485
40
26.0224
50
326.5330
51
334.3714
0
ARC
8
PARAMETRIX
10
37.2075
20
95.9782
40
42.9681
50
334.3714
51
340.4696
0
ARC
8
PARAMETRIX
10
29.9399
20
98.5561
40
50.6794
50
340.4696
51
347.9355
0
ARC
8
PARAMETRIX
10
13.5434
20
102.0606
40
67.4462
50
347.9355
51
354.4061
0
LINE
8
PARAMETRIX
10
80.6684
20
95.4861
11
77.0765
21
98.4084
0
ARC
8
PARAMETRIX
10
97.1704
20
34.0250
40
67.4462
50
107.3330
51
113.8036
0
ARC
8
PARAMETRIX
10
90.4033
20
49.3655
40
50.6794
50
113.8036
51
121.2696
0
ARC
8
PARAMETRIX
10
86.4006
20
55.9566
40
42.9681
50
121.2696
51
127.3677
0
ARC
8
PARAMETRIX
10
76.1158
20
69.4244
40
26.0224
50
127.3677
51
135.2061
0
LINE
8
PARAMETRIX
10
57.6491
20
87.7586
11
57.3370
21
87.2835
0
ARC
8
PARAMETRIX
10
55.6654
20
88.3816
40
2.0000
50
238.6957
51
326.6989
0
LINE
8
PARAMETRIX
10
54.6262
20
86.6727
11
51.8238
21
88.3769
0
ARC
8
PARAMETRIX
10
52.8630
20
90.0857
40
2.0000
50
150.6924
51
238.6957
0
LINE
8
PARAMETRIX
10
51.1190
20
91.0647
11
51.3973
21
91.5605
0
ARC
8
PARAMETRIX
10
26.6227
20
99.5218
40
26.0224
50
342.1852
51
350.0236
0
ARC
8
PARAMETRIX
10
9.9331
20
102.4575
40
42.9681
50
350.0236
51
356.1217
0
ARC
8
PARAMETRIX
10
2.2395
20
102.9791
40
50.6794
50
356.1217
51
3.5877
0
ARC
8
PARAMETRIX
10
-14.4944
20
101.9299
40
67.4462
50
3.5877
51
10.0583
0
LINE
8
PARAMETRIX
10
51.9152
20
113.7093
11
47.6680
21
115.5541
0
ARC
8
PARAMETRIX
10
84.3872
20
58.9795
40
67.4462
50
122.9852
51
129.4558
0
ARC
8
PARAMETRIX
10
73.7322
20
71.9254
40
50.6794
50
129.4558
51
136.9217
0
ARC
8
PARAMETRIX
10
68.0997
20
77.1922
40
42.9681
50
136.9217
51
143.0199
0
ARC
8
PARAMETRIX
10
54.5627
20
87.3857
40
26.0224
50
143.0199
51
150.8583
0
LINE
8
PARAMETRIX
10
31.8343
20
100.0579
11
31.6620
21
99.5161
0
ARC
8
PARAMETRIX
10
29.7561
20
100.1225
40
2.0000
50
254.3478
51
342.3511
0
LINE
8
PARAMETRIX
10
29.2165
20
98.1966
11
26.0583
21
99.0815
0
ARC
8
PARAMETRIX
10
26.5978
20
101.0074
40
2.0000
50
166.3446
51
254.3478
0
LINE
8
PARAMETRIX
10
24.6544
20
101.4795
11
24.7886
21
102.0320
0
ARC
8
PARAMETRIX
10
-1.2152
20
103.0140
40
26.0224
50
357.8374
51
5.6758
0
ARC
8
PARAMETRIX
10
-18.0779
20
101.3380
40
42.9681
50
5.6758
51
11.7739
0
ARC
8
PARAMETRIX
10
-25.6269
20
99.7646
40
50.6794
50
11.7739
51
19.2398
0
ARC
8
PARAMETRIX
10
-41.4573
20
94.2395
40
67.4462
50
19.2398
51
25.7104
0
LINE
8
PARAMETRIX
10
19.3116
20
123.4992
11
14.7242
21
124.1298
0
ARC
8
PARAMETRIX
10
65.3454
20
79.5598
40
67.4462
50
138.6374
51
145.1080
0
ARC
8
PARAMETRIX
10
51.5928
20
89.1510
40
50.6794
50
145.1080
51
152.5739
0
ARC
8
PARAMETRIX
10
44.7482
20
92.7028
40
42.9681
50
152.5739
51
158.6720
0
ARC
8
PARAMETRIX
10
28.9630
20
98.8661
40
26.0224
50
158.6720
51
166.5105
0
LINE
8
PARAMETRIX
10
3.6585
20
104.9362
11
3.6387
21
104.3681
0
ARC
8
PARAMETRIX
10
1.6399
20
104.4378
40
2.0000
50
270.0000
51
358.0032
0
LINE
8
PARAMETRIX
10
1.6399
20
102.4378
11
-1.6399
21
102.4378
0
ARC
8
PARAMETRIX
10
-1.6399
20
104.4378
40
2.0000
50
181.9968
51
270.0000
0
LINE
8
PARAMETRIX
10
-3.6387
20
104.3681
11
-3.6585
21
104.9362
0
ARC
8
PARAMETRIX
10
-28.9630
20
98.8661
40
26.0224
50
13.4895
51
21.3280
0
ARC
8
PARAMETRIX
10
-44.7482
20
92.7028
40
42.9681
50
21.3280
51
27.4261
0
ARC
8
PARAMETRIX
10
-51.5928
20
89.1510
40
50.6794
50
27.4261
51
34.8920
0
ARC
8
PARAMETRIX
10
-65.3454
20
79.5598
40
67.4462
50
34.8920
51
41.3626
0
LINE
8
PARAMETRIX
10
-14.7242
20
124.1298
11
-19.3116
21
123.4992
0
ARC
8
PARAMETRIX
10
41.4573
20
94.2395
40
67.4462
50
154.2896
51
160.7602
0
ARC
8
PARAMETRIX
10
25.6269
20
99.7646
40
50.6794
50
160.7602
51
168.2261
0
ARC
8
PARAMETRIX
10
18.0779
20
101.3380
40
42.9681
50
168.2261
51
174.3242
0
ARC
8
PARAMETRIX
10
1.2152
20
103.0140
40
26.0224
50
174.3242
51
182.1626
0
LINE
8
PARAMETRIX
10
-24.7886
20
102.0320
11
-24.6544
21
101.4795
0
ARC
8
PARAMETRIX
10
-26.5978
20
101.0074
40
2.0000
50
285.6522
51
13.6554
0
LINE
8
PARAMETRIX
10
-26.0583
20
99.0815
11
-29.2165
21
98.1966
0
ARC
8
PARAMETRIX
10
-29.7561
20
100.1225
40
2.0000
50
197.6489
51
285.6522
0
LINE
8
PARAMETRIX
10
-31.6620
20
99.5161
11
-31.8343
21
100.0579
0
ARC
8
PARAMETRIX
10
-54.5627
20
87.3857
40
26.0224
50
29.1417
51
36.9801
0
ARC
8
PARAMETRIX
10
-68.0997
20
77.1922
40
42.9681
50
36.9801
51
43.0783
0
ARC
8
PARAMETRIX
10
-73.7322
20
71.9254
40
50.6794
50
43.0783
51
50.5442
0
ARC
8
PARAMETRIX
10
-84.3872
20
58.9795
40
67.4462
50
50.5442
51
57.0148
0
LINE
8
PARAMETRIX
10
-47.6680
20
115.5541
11
-51.9152
21
113.7093
0
ARC
8
PARAMETRIX
10
14.4944
20
101.9299
40
67.4462
50
169.9417
51
176.4123
0
ARC
8
PARAMETRIX
10
-2.2395
20
102.9791
40
50.6794
50
176.4123
51
183.8783
0
ARC
8
PARAMETRIX
10
-9.9331
20
102.4575
40
42.9681
50
183.8783
51
189.9764
0
ARC
8
PARAMETRIX
10
-26.6227
20
99.5218
40
26.0224
50
189.9764
51
197.8148
0
LINE
8
PARAMETRIX
10
-51.3973
20
91.5605
11
-51.1190
21
91.0647
0
ARC
8
PARAMETRIX
10
-52.8630
20
90.0857
40
2.0000
50
301.3043
51
29.3076
0
LINE
8
PARAMETRIX
10
-51.8238
20
88.3769
11
-54.6262
21
86.6727
0
ARC
8
PARAMETRIX
10
-55.6654
20
88.3816
40
2.0000
50
213.3011
51
301.3043
0
LINE
8
PARAMETRIX
10
-57.3370
20
87.2835
11
-57.6491
21
87.7586
0
ARC
8
PARAMETRIX
10
-76.1158
20
69.4244
40
26.0224
50
44.7939
51
52.6323
0
ARC
8
PARAMETRIX
10
-86.4006
20
55.9566
40
42.9681
50
52.6323
51
58.7304
0
ARC
8
PARAMETRIX
10
-90.4033
20
49.3655
40
50.6794
50
58.7304
51
66.1964
0
ARC
8
PARAMETRIX
10
-97.1704
20
34.0250
40
67.4462
50
66.1964
51
72.6670
0
LINE
8
PARAMETRIX
10
-77.0765
20
98.4084
11
-80.6684
21
95.4861
0
ARC
8
PARAMETRIX
10
-13.5434
20
102.0606
40
67.4462
50
185.5939
51
192.0645
0
ARC
8
PARAMETRIX
10
-29.9399
20
98.5561
40
50.6794
50
192.0645
51
199.5304
0
ARC
8
PARAMETRIX
10
-37.2075
20
95.9782
40
42.9681
50
199.5304
51
205.6286
0
ARC
8
PARAMETRIX
10
-52.4861
20
88.6485
40
26.0224
50
205.6286
51
213.4670
0
LINE
8
PARAMETRIX
10
-74.1940
20
74.2984
11
-73.7923
21
73.8961
0
ARC
8
PARAMETRIX
10
-75.2075
20
72.4828
40
2.0000
50
316.9565
51
44.9598
0
LINE
8
PARAMETRIX
10
-73.7459
20
71.1177
11
-75.9845
21
68.7207
0
ARC
8
PARAMETRIX
10
-77.4462
20
70.0858
40
2.0000
50
228.9533
51
316.9565
0
LINE
8
PARAMETRIX
10
-78.7596
20
68.5774
11
-79.1883
21
68.9508
0
ARC
8
PARAMETRIX
10
-92.0237
20
46.3141
40
26.0224
50
60.4461
51
68.2845
0
ARC
8
PARAMETRIX
10
-98.2936
20
30.5710
40
42.9681
50
68.2845
51
74.3826
0
ARC
8
PARAMETRIX
10
-100.3695
20
23.1444
40
50.6794
50
74.3826
51
81.8485
0
ARC
8
PARAMETRIX
10
-102.7469
20
6.5470
40
67.4462
50
81.8485
51
88.3191
0
LINE
8
PARAMETRIX
10
-100.7686
20
73.9642
11
-103.4389
21
70.1812
0
ARC
8
PARAMETRIX
10
-40.5768
20
94.6219
40
67.4462
50
201.2461
51
207.7167
0
ARC
8
PARAMETRIX
10
-55.4198
20
86.8237
40
50.6794
50
207.7167
51
215.1826
0
ARC
8
PARAMETRIX
10
-61.7224
20
82.3806
40
42.9681
50
215.1826
51
221.2807
0
ARC
8
PARAMETRIX
10
-74.4569
20
71.2006
40
26.0224
50
221.2807
51
229.1192
0
LINE
8
PARAMETRIX
10
-91.4882
20
51.5259
11
-90.9928
21
51.2469
0
ARC
8
PARAMETRIX
10
-91.9743
20
49.5042
40
2.0000
50
332.6087
51
60.6119
0
LINE
8
PARAMETRIX
10
-90.1985
20
48.5841
11
-91.7075
21
45.6720
0
ARC
8
PARAMETRIX
10
-93.4832
20
46.5921
40
2.0000
50
244.6055
51
332.6087
0
LINE
8
PARAMETRIX
10
-94.3409
20
44.7853
11
-94.8545
21
45.0291
0
ARC
8
PARAMETRIX
10
-101.1066
20
19.7690
40
26.0224
50
76.0982
51
83.9367
0
ARC
8
PARAMETRIX
10
-102.8965
20
2.9180
40
42.9681
50
83.9367
51
90.0348
0
ARC
8
PARAMETRIX
10
-102.8918
20
-4.7932
40
50.6794
50
90.0348
51
97.5007
0
ARC
8
PARAMETRIX
10
-100.7031
20
-21.4166
40
67.4462
50
97.5007
51
103.9713
0
LINE
8
PARAMETRIX
10
-116.9871
20
44.0343
11
-118.5377
21
39.6712
0
ARC
8
PARAMETRIX
10
-64.6008
20
80.1656
40
67.4462
50
216.8983
51
223.3689
0
ARC
8
PARAMETRIX
10
-76.7894
20
68.6520
40
50.6794
50
223.3689
51
230.8348
0
ARC
8
PARAMETRIX
10
-81.6595
20
62.6732
40
42.9681
50
230.8348
51
236.9329
0
ARC
8
PARAMETRIX
10
-90.9055
20
48.4721
40
26.0224
50
236.9329
51
244.7713
0
LINE
8
PARAMETRIX
10
-101.9971
20
24.9319
11
-101.4448
21
24.7969
0
ARC
8
PARAMETRIX
10
-101.9197
20
22.8541
40
2.0000
50
348.2609
51
76.2641
0
LINE
8
PARAMETRIX
10
-99.9615
20
22.4472
11
-100.6288
21
19.2359
0
ARC
8
PARAMETRIX
10
-102.5870
20
19.6429
40
2.0000
50
260.2576
51
348.2609
0
LINE
8
PARAMETRIX
10
-102.9254
20
17.6717
11
-103.4858
21
17.7679
0
ARC
8
PARAMETRIX
10
-102.6909
20
-8.2423
40
26.0224
50
91.7504
51
99.5888
0
ARC
8
PARAMETRIX
10
-99.8681
20
-24.9513
40
42.9681
50
99.5888
51
105.6869
0
ARC
8
PARAMETRIX
10
-97.7831
20
-32.3754
40
50.6794
50
105.6869
51
113.1529
0
ARC
8
PARAMETRIX
10
-91.1907
20
-47.7918
40
67.4462
50
113.1529
51
119.6235
0
LINE
8
PARAMETRIX
10
-124.5292
20
10.8387
11
-124.8452
21
6.2190
0
ARC
8
PARAMETRIX
10
-83.8337
20
59.7638
40
67.4462
50
232.5504
51
239.0210
0
ARC
8
PARAMETRIX
10
-92.4639
20
45.3886
40
50.6794
50
239.0210
51
246.4870
0
ARC
8
PARAMETRIX
10
-95.5404
20
38.3176
40
42.9681
50
246.4870
51
252.5851
0
ARC
8
PARAMETRIX
10
-100.6121
20
22.1486
40
26.0224
50
252.5851
51
260.4235
0
LINE
8
PARAMETRIX
10
-104.9413
20
-3.5111
11
-104.3731
21
-3.4921
0
ARC
8
PARAMETRIX
10
-104.3062
20
-5.4910
40
2.0000
50
3.9130
51
91.9163
0
LINE
8
PARAMETRIX
10
-102.3109
20
-5.3545
11
-102.0870
21
-8.6267
0
ARC
8
PARAMETRIX
10
-104.0824
20
-8.7632
40
2.0000
50
275.9098
51
3.9130
0
LINE
8
PARAMETRIX
10
-103.8765
20
-10.7526
11
-104.4419
21
-10.8111
0
ARC
8
PARAMETRIX
10
-96.6591
20
-35.6423
40
26.0224
50
107.4026
51
115.2410
0
ARC
8
PARAMETRIX
10
-89.4330
20
-50.9702
40
42.9681
50
115.2410
51
121.3391
0
ARC
8
PARAMETRIX
10
-85.4223
20
-57.5564
40
50.6794
50
121.3391
51
128.8051
0
ARC
8
PARAMETRIX
10
-74.9150
20
-70.6225
40
67.4462
50
128.8051
51
135.2757
0
LINE
8
PARAMETRIX
10
-122.8356
20
-23.1608
11
-121.8935
21
-27.6945
0
ARC
8
PARAMETRIX
10
-96.8490
20
34.9295
40
67.4462
50
248.2026
51
254.6732
0
ARC
8
PARAMETRIX
10
-101.2808
20
18.7590
40
50.6794
50
254.6732
51
262.1391
0
ARC
8
PARAMETRIX
10
-102.3355
20
11.1202
40
42.9681
50
262.1391
51
268.2373
0
ARC
8
PARAMETRIX
10
-102.8567
20
-5.8175
40
26.0224
50
268.2373
51
276.0757
0
LINE
8
PARAMETRIX
10
-100.1025
20
-31.6937
11
-99.5605
21
-31.5221
0
ARC
8
PARAMETRIX
10
-98.9568
20
-33.4288
40
2.0000
50
19.5652
51
107.5684
0
LINE
8
PARAMETRIX
10
-97.0723
20
-32.7591
11
-95.9739
21
-35.8496
0
ARC
8
PARAMETRIX
10
-97.8584
20
-36.5193
40
2.0000
50
291.5620
51
19.5652
0
LINE
8
PARAMETRIX
10
-97.1234
20
-38.3794
11
-97.6522
21
-38.5883
0
ARC
8
PARAMETRIX
10
-83.4585
20
-60.3989
40
26.0224
50
123.0548
51
130.8932
0
ARC
8
PARAMETRIX
10
-72.3650
20
-73.2088
40
42.9681
50
130.8932
51
136.9913
0
ARC
8
PARAMETRIX
10
-66.7261
20
-78.4687
40
50.6794
50
136.9913
51
144.4572
0
ARC
8
PARAMETRIX
10
-53.0832
20
-88.2154
40
67.4462
50
144.4572
51
150.9278
0
LINE
8
PARAMETRIX
10
-112.0318
20
-55.4426
11
-109.9014
21
-59.5539
0
ARC
8
PARAMETRIX
10
-102.6814
20
7.5047
40
67.4462
50
263.8548
51
270.3254
0
ARC
8
PARAMETRIX
10
-102.5862
20
-9.2619
40
50.6794
50
270.3254
51
277.7913
0
ARC
8
PARAMETRIX
10
-101.5408
20
-16.9019
40
42.9681
50
277.7913
51
283.8894
0
ARC
8
PARAMETRIX
10
-97.4730
20
-33.3522
40
26.0224
50
283.8894
51
291.7279
0
LINE
8
PARAMETRIX
10
-87.8396
20
-57.5258
11
-87.3640
21
-57.2143
0
ARC
8
PARAMETRIX
10
-86.2682
20
-58.8874
40
2.0000
50
35.2174
51
123.2206
0
LINE
8
PARAMETRIX
10
-84.6343
20
-57.7341
11
-82.7428
21
-60.4136
0
ARC
8
PARAMETRIX
10
-84.3768
20
-61.5670
40
2.0000
50
307.2142
51
35.2174
0
LINE
8
PARAMETRIX
10
-83.1672
20
-63.1597
11
-83.6199
21
-63.5036
0
ARC
8
PARAMETRIX
10
-64.0682
20
-80.6760
40
26.0224
50
138.7069
51
146.5454
0
ARC
8
PARAMETRIX
10
-49.9300
20
-90.0178
40
42.9681
50
146.5454
51
152.6435
0
ARC
8
PARAMETRIX
10
-43.0811
20
-93.5613
40
50.6794
50
152.6435
51
160.1094
0
ARC
8
PARAMETRIX
10
-27.3145
20
-99.2658
40
67.4462
50
160.1094
51
166.5800
0
LINE
8
PARAMETRIX
10
-92.9191
20
-83.6124
11
-89.7585
21
-86.9966
0
ARC
8
PARAMETRIX
10
-100.8984
20
-20.4767
40
67.4462
50
279.5069
51
285.9776
0
ARC
8
PARAMETRIX
10
-96.2832
20
-36.5958
40
50.6794
50
285.9776
51
293.4435
0
ARC
8
PARAMETRIX
10
-93.2153
20
-43.6705
40
42.9681
50
293.4435
51
299.5416
0
ARC
8
PARAMETRIX
10
-84.8601
20
-58.4133
40
26.0224
50
299.5416
51
307.3800
0
LINE
8
PARAMETRIX
10
-69.0620
20
-79.0914
11
-68.6880
21
-78.6631
0
ARC
8
PARAMETRIX
10
-67.1815
20
-79.9786
40
2.0000
50
50.8696
51
138.8728
0
LINE
8
PARAMETRIX
10
-65.9194
20
-78.4272
11
-63.3751
21
-80.4971
0
ARC
8
PARAMETRIX
10
-64.6373
20
-82.0485
40
2.0000
50
322.8663
51
50.8696
0
LINE
8
PARAMETRIX
10
-63.0428
20
-83.2558
11
-63.3860
21
-83.7091
0
ARC
8
PARAMETRIX
10
-39.9263
20
-94.9697
40
26.0224
50
154.3591
51
162.1975
0
ARC
8
PARAMETRIX
10
-23.7919
20
-100.1507
40
42.9681
50
162.1975
51
168.2956
0
ARC
8
PARAMETRIX
10
-16.2410
20
-101.7150
40
50.6794
50
168.2956
51
175.7616
0
ARC
8
PARAMETRIX
10
0.4800
20
-102.9542
40
67.4462
50
175.7616
51
182.2322
0
LINE
8
PARAMETRIX
10
-66.9151
20
-105.5811
11
-62.9586
21
-107.9871
0
ARC
8
PARAMETRIX
10
-91.6323
20
-46.9395
40
67.4462
50
295.1591
51
301.6297
0
ARC
8
PARAMETRIX
10
-82.8393
20
-61.2156
40
50.6794
50
301.6297
51
309.0957
0
ARC
8
PARAMETRIX
10
-77.9765
20
-67.2003
40
42.9681
50
309.0957
51
315.1938
0
ARC
8
PARAMETRIX
10
-65.9535
20
-79.1422
40
26.0224
50
315.1938
51
323.0322
0
LINE
8
PARAMETRIX
10
-45.1624
20
-94.7911
11
-44.9178
21
-94.2779
0
ARC
8
PARAMETRIX
10
-43.1123
20
-95.1381
40
2.0000
50
66.5217
51
154.5250
0
LINE
8
PARAMETRIX
10
-42.3155
20
-93.3037
11
-39.3071
21
-94.6104
0
ARC
8
PARAMETRIX
10
-40.1039
20
-96.4448
40
2.0000
50
338.5185
51
66.5217
0
LINE
8
PARAMETRIX
10
-38.2429
20
-97.1772
11
-38.4511
21
-97.7063
0
ARC
8
PARAMETRIX
10
-12.8232
20
-102.2200
40
26.0224
50
170.0113
51
177.8497
0
ARC
8
PARAMETRIX
10
4.1107
20
-102.8558
40
42.9681
50
177.8497
51
183.9478
0
ARC
8
PARAMETRIX
10
11.8036
20
-102.3249
40
50.6794
50
183.9478
51
191.4138
0
ARC
8
PARAMETRIX
10
28.2389
20
-99.0069
40
67.4462
50
191.4138
51
197.8844
0
LINE
8
PARAMETRIX
10
-35.9482
20
-119.7194
11
-31.4894
21
-120.9687
0
ARC
8
PARAMETRIX
10
-75.5702
20
-69.9209
40
67.4462
50
310.8113
51
317.2819
0
ARC
8
PARAMETRIX
10
-63.2516
20
-81.2954
40
50.6794
50
317.2819
51
324.7478
0
ARC
8
PARAMETRIX
10
-56.9545
20
-85.7461
40
42.9681
50
324.7478
51
330.8459
0
ARC
8
PARAMETRIX
10
-42.1555
20
-94.0014
40
26.0224
50
330.8459
51
338.6844
0
LINE
8
PARAMETRIX
10
-17.9133
20
-103.4607
11
-17.8163
21
-102.9005
0
ARC
8
PARAMETRIX
10
-15.8456
20
-103.2417
40
2.0000
50
82.1739
51
170.1771
0
LINE
8
PARAMETRIX
10
-15.5733
20
-101.2603
11
-12.3239
21
-101.7070
0
ARC
8
PARAMETRIX
10
-12.5963
20
-103.6883
40
2.0000
50
354.1707
51
82.1739
0
LINE
8
PARAMETRIX
10
-10.6066
20
-103.8915
11
-10.6644
21
-104.4570
0
ARC
8
PARAMETRIX
10
15.2310
20
-101.8890
40
26.0224
50
185.6634
51
193.5019
0
ARC
8
PARAMETRIX
10
31.7084
20
-97.9326
40
42.9681
50
193.5019
51
199.6000
0
ARC
8
PARAMETRIX
10
38.9728
20
-95.3458
40
50.6794
50
199.6000
51
207.0659
0
ARC
8
PARAMETRIX
10
53.9034
20
-87.7167
40
67.4462
50
207.0659
51
213.5365
0
LINE
8
PARAMETRIX
10
-2.3153
20
-124.9786
11
2.3153
21
-124.9786
0
ARC
8
PARAMETRIX
10
-53.9034
20
-87.7167
40
67.4462
50
326.4635
51
332.9341
0
ARC
8
PARAMETRIX
10
-38.9728
20
-95.3458
40
50.6794
50
332.9341
51
340.4000
0
ARC
8
PARAMETRIX
10
-31.7084
20
-97.9326
40
42.9681
50
340.4000
51
346.4981
0
ARC
8
PARAMETRIX
10
-15.2310
20
-101.8890
40
26.0224
50
346.4981
51
354.3366
0
LINE
8
PARAMETRIX
10
10.6644
20
-104.4570
11
10.6066
21
-103.8915
0
ARC
8
PARAMETRIX
10
12.5963
20
-103.6883
40
2.0000
50
97.8261
51
185.8293
0
LINE
8
PARAMETRIX
10
12.3239
20
-101.7070
11
15.5733
21
-101.2603
0
ARC
8
PARAMETRIX
10
15.8456
20
-103.2417
40
2.0000
50
9.8229
51
97.8261
0
LINE
8
PARAMETRIX
10
17.8163
20
-102.9005
11
17.9133
21
-103.4607
0
ARC
8
PARAMETRIX
10
42.1555
20
-94.0014
40
26.0224
50
201.3156
51
209.1541
0
ARC
8
PARAMETRIX
10
56.9545
20
-85.7461
40
42.9681
50
209.1541
51
215.2522
0
ARC
8
PARAMETRIX
10
63.2516
20
-81.2954
40
50.6794
50
215.2522
51
222.7181
0
ARC
8
PARAMETRIX
10
75.5702
20
-69.9209
40
67.4462
50
222.7181
51
229.1887
0
LINE
8
PARAMETRIX
10
31.4894
20
-120.9687
11
35.9482
21
-119.7194
0
ARC
8
PARAMETRIX
10
-28.2389
20
-99.0069
40
67.4462
50
342.1156
51
348.5862
0
ARC
8
PARAMETRIX
10
-11.8036
20
-102.3249
40
50.6794
50
348.5862
51
356.0522
0
ARC
8
PARAMETRIX
10
-4.1107
20
-102.8558
40
42.9681
50
356.0522
51
2.1503
0
ARC
8
PARAMETRIX
10
12.8232
20
-102.2200
40
26.0224
50
2.1503
51
9.9887
0
LINE
8
PARAMETRIX
10
38.4511
20
-97.7063
11
38.2429
21
-97.1772
0
ARC
8
PARAMETRIX
10
40.1039
20
-96.4448
40
2.0000
50
113.4783
51
201.4815
0
LINE
8
PARAMETRIX
10
39.3071
20
-94.6104
11
42.3155
21
-93.3037
0
ARC
8
PARAMETRIX
10
43.1123
20
-95.1381
40
2.0000
50
25.4750
51
113.4783
0
LINE
8
PARAMETRIX
10
44.9178
20
-94.2779
11
45.1624
21
-94.7911
0
ARC
8
PARAMETRIX
10
65.9535
20
-79.1422
40
26.0224
50
216.9678
51
224.8062
0
ARC
8
PARAMETRIX
10
77.9765
20
-67.2003
40
42.9681
50
224.8062
51
230.9043
0
ARC
8
PARAMETRIX
10
82.8393
20
-61.2156
40
50.6794
50
230.9043
51
238.3703
0
ARC
8
PARAMETRIX
10
91.6323
20
-46.9395
40
67.4462
50
238.3703
51
244.8409
0
LINE
8
PARAMETRIX
10
62.9586
20
-107.9871
11
66.9151
21
-105.5811
0
ARC
8
PARAMETRIX
10
-0.4800
20
-102.9542
40
67.4462
50
357.7678
51
4.2384
0
ARC
8
PARAMETRIX
10
16.2410
20
-101.7150
40
50.6794
50
4.2384
51
11.7044
0
ARC
8
PARAMETRIX
10
23.7919
20
-100.1507
40
42.9681
50
11.7044
51
17.8025
0
ARC
8
PARAMETRIX
10
39.9263
20
-94.9697
40
26.0224
50
17.8025
51
25.6409
0
LINE
8
PARAMETRIX
10
63.3860
20
-83.7091
11
63.0428
21
-83.2558
0
ARC
8
PARAMETRIX
10
64.6373
20
-82.0485
40
2.0000
50
129.1304
51
217.1337
0
LINE
8
PARAMETRIX
10
63.3751
20
-80.4971
11
65.9194
21
-78.4272
0
ARC
8
PARAMETRIX
10
67.1815
20
-79.9786
40
2.0000
50
41.1272
51
129.1304
0
LINE
8
PARAMETRIX
10
68.6880
20
-78.6631
11
69.0620
21
-79.0914
0
ARC
8
PARAMETRIX
10
84.8601
20
-58.4133
40
26.0224
50
232.6200
51
240.4584
0
ARC
8
PARAMETRIX
10
93.2153
20
-43.6705
40
42.9681
50
240.4584
51
246.5565
0
ARC
8
PARAMETRIX
10
96.2832
20
-36.5958
40
50.6794
50
246.5565
51
254.0224
0
ARC
8
PARAMETRIX
10
100.8984
20
-20.4767
40
67.4462
50
254.0224
51
260.4931
0
LINE
8
PARAMETRIX
10
89.7585
20
-86.9966
11
92.9191
21
-83.6124
0
ARC
8
PARAMETRIX
10
27.3145
20
-99.2658
40
67.4462
50
13.4200
51
19.8906
0
ARC
8
PARAMETRIX
10
43.0811
20
-93.5613
40
50.6794
50
19.8906
51
27.3565
0
ARC
8
PARAMETRIX
10
49.9300
20
-90.0178
40
42.9681
50
27.3565
51
33.4546
0
ARC
8
PARAMETRIX
10
64.0682
20
-80.6760
40
26.0224
50
33.4546
51
41.2931
0
LINE
8
PARAMETRIX
10
83.6199
20
-63.5036
11
83.1672
21
-63.1597
0
ARC
8
PARAMETRIX
10
84.3768
20
-61.5670
40
2.0000
50
144.7826
51
232.7858
0
LINE
8
PARAMETRIX
10
82.7428
20
-60.4136
11
84.6343
21
-57.7341
0
ARC
8
PARAMETRIX
10
86.2682
20
-58.8874
40
2.0000
50
56.7794
51
144.7826
0
LINE
8
PARAMETRIX
10
87.3640
20
-57.2143
11
87.8396
21
-57.5258
0
ARC
8
PARAMETRIX
10
97.4730
20
-33.3522
40
26.0224
50
248.2721
51
256.1106
0
ARC
8
PARAMETRIX
10
101.5408
20
-16.9019
40
42.9681
50
256.1106
51
262.2087
0
ARC
8
PARAMETRIX
10
102.5862
20
-9.2619
40
50.6794
50
262.2087
51
269.6746
0
ARC
8
PARAMETRIX
10
102.6814
20
7.5047
40
67.4462
50
269.6746
51
276.1452
0
LINE
8
PARAMETRIX
10
109.9014
20
-59.5539
11
112.0318
21
-55.4426
0
ARC
8
PARAMETRIX
10
53.0832
20
-88.2154
40
67.4462
50
29.0722
51
35.5428
0
ARC
8
PARAMETRIX
10
66.7261
20
-78.4687
40
50.6794
50
35.5428
51
43.0087
0
ARC
8
PARAMETRIX
10
72.3650
20
-73.2088
40
42.9681
50
43.0087
51
49.1068
0
ARC
8
PARAMETRIX
10
83.4585
20
-60.3989
40
26.0224
50
49.1068
51
56.9452
0
LINE
8
PARAMETRIX
10
97.6522
20
-38.5883
11
97.1234
21
-38.3794
0
ARC
8
PARAMETRIX
10
97.8584
20
-36.5193
40
2.0000
50
160.4348
51
248.4380
0
LINE
8
PARAMETRIX
10
95.9739
20
-35.8496
11
97.0723
21
-32.7591
0
ARC
8
PARAMETRIX
10
98.9568
20
-33.4288
40
2.0000
50
72.4316
51
160.4348
0
LINE
8
PARAMETRIX
10
99.5605
20
-31.5221
11
100.1025
21
-31.6937
0
ARC
8
PARAMETRIX
10
102.8567
20
-5.8175
40
26.0224
50
263.9243
51
271.7627
0
ARC
8
PARAMETRIX
10
102.3355
20
11.1202
40
42.9681
50
271.7627
51
277.8609
0
ARC
8
PARAMETRIX
10
101.2808
20
18.7590
40
50.6794
50
277.8609
51
285.3268
0
ARC
8
PARAMETRIX
10
96.8490
20
34.9295
40
67.4462
50
285.3268
51
291.7974
0
LINE
8
PARAMETRIX
10
121.8935
20
-27.6945
11
122.8356
21
-23.1608
0
ARC
8
PARAMETRIX
10
74.9150
20
-70.6225
40
67.4462
50
44.7243
51
51.1949
0
ARC
8
PARAMETRIX
10
85.4223
20
-57.5564
40
50.6794
50
51.1949
51
58.6609
0
ARC
8
PARAMETRIX
10
89.4330
20
-50.9702
40
42.9681
50
58.6609
51
64.7590
0
ARC
8
PARAMETRIX
10
96.6591
20
-35.6423
40
26.0224
50
64.7590
51
72.5974
0
LINE
8
PARAMETRIX
10
104.4419
20
-10.8111
11
103.8765
21
-10.7526
0
ARC
8
PARAMETRIX
10
104.0824
20
-8.7632
40
2.0000
50
176.0870
51
264.0902
0
LINE
8
PARAMETRIX
10
102.0870
20
-8.6267
11
102.3109
21
-5.3545
0
ARC
8
PARAMETRIX
10
104.3062
20
-5.4910
40
2.0000
50
88.0837
51
176.0870
0
CIRCLE
8
PARAMETRIX
10
0.0000
20
0.0000
40
20.0000
0
ARC
8
PARAMETRIX
10
0.0000
20
0.0000
40
92.5000
50
10.4757
51
61.5243
0
ARC
8
PARAMETRIX
10
39.3348
20
72.5191
40
10.0000
50
61.5243
51
162.0000
0
LINE
8
PARAMETRIX
10
29.8243
20
75.6093
11
15.2072
21
30.6226
0
ARC
8
PARAMETRIX
10
24.7178
20
27.5324
40
10.0000
50
162.0000
51
228.0835
0
ARC
8
PARAMETRIX
10
0.0000
20
0.0000
40
27.0000
50
23.9165
51
48.0835
0
ARC
8
PARAMETRIX
10
33.8231
20
15.0000
40
10.0000
50
203.9165
51
270.0000
0
LINE
8
PARAMETRIX
10
33.8231
20
5.0000
11
81.1249
21
5.0000
0
ARC
8
PARAMETRIX
10
81.1249
20
15.0000
40
10.0000
50
270.0000
51
10.4757
0
ARC
8
PARAMETRIX
10
-0.0000
20
-0.0000
40
92.5000
50
82.4757
51
133.5243
0
ARC
8
PARAMETRIX
10
-56.8146
20
59.8193
40
10.0000
50
133.5243
51
234.0000
0
LINE
8
PARAMETRIX
10
-62.6925
20
51.7291
11
-24.4245
21
23.9258
0
ARC
8
PARAMETRIX
10
-18.5467
20
32.0160
40
10.0000
50
234.0000
51
300.0835
0
ARC
8
PARAMETRIX
10
-0.0000
20
-0.0000
40
27.0000
50
95.9165
51
120.0835
0
ARC
8
PARAMETRIX
10
-3.8139
20
36.8029
40
10.0000
50
275.9165
51
342.0000
0
LINE
8
PARAMETRIX
10
5.6966
20
33.7127
11
20.3137
21
78.6995
0
ARC
8
PARAMETRIX
10
10.8031
20
81.7896
40
10.0000
50
342.0000
51
82.4757
0
ARC
8
PARAMETRIX
10
0.0000
20
-0.0000
40
92.5000
50
154.4757
51
205.5243
0
ARC
8
PARAMETRIX
10
-74.4482
20
-35.5488
40
10.0000
50
205.5243
51
306.0000
0
LINE
8
PARAMETRIX
10
-68.5704
20
-43.6389
11
-30.3024
21
-15.8356
0
ARC
8
PARAMETRIX
10
-36.1802
20
-7.7454
40
10.0000
50
306.0000
51
12.0835
0
ARC
8
PARAMETRIX
10
-0.0000
20
-0.0000
40
27.0000
50
167.9165
51
192.0835
0
ARC
8
PARAMETRIX
10
-36.1802
20
7.7454
40
10.0000
50
347.9165
51
54.0000
0
LINE
8
PARAMETRIX
10
-30.3024
20
15.8356
11
-68.5704
21
43.6389
0
ARC
8
PARAMETRIX
10
-74.4482
20
35.5488
40
10.0000
50
54.0000
51
154.4757
0
ARC
8
PARAMETRIX
10
0.0000
20
-0.0000
40
92.5000
50
226.4757
51
277.5243
0
ARC
8
PARAMETRIX
10
10.8031
20
-81.7896
40
10.0000
50
277.5243
51
18.0000
0
LINE
8
PARAMETRIX
10
20.3137
20
-78.6995
11
5.6966
21
-33.7127
0
ARC
8
PARAMETRIX
10
-3.8139
20
-36.8029
40
10.0000
50
18.0000
51
84.0835
0
ARC
8
PARAMETRIX
10
-0.0000
20
0.0000
40
27.0000
50
239.9165
51
264.0835
0
ARC
8
PARAMETRIX
10
-18.5467
20
-32.0160
40
10.0000
50
59.9165
51
126.0000
0
LINE
8
PARAMETRIX
10
-24.4245
20
-23.9258
11
-62.6925
21
-51.7291
0
ARC
8
PARAMETRIX
10
-56.8146
20
-59.8193
40
10.0000
50
126.0000
51
226.4757
0
ARC
8
PARAMETRIX
10
-0.0000
20
-0.0000
40
92.5000
50
298.4757
51
349.5243
0
ARC
8
PARAMETRIX
10
81.1249
20
-15.0000
40
10.0000
50
349.5243
51
90.0000
0
LINE
8
PARAMETRIX
10
81.1249
20
-5.0000
11
33.8231
21
-5.0000
0
ARC
8
PARAMETRIX
10
33.8231
20
-15.0000
40
10.0000
50
90.0000
51
156.0835
0
ARC
8
PARAMETRIX
10
0.0000
20
0.0000
40
27.0000
50
311.9165
51
336.0835
0
ARC
8
PARAMETRIX
10
24.7178
20
-27.5324
40
10.0000
50
131.9165
51
198.0000
0
LINE
8
PARAMETRIX
10
15.2072
20
-30.6226
11
29.8243
21
-75.6093
0
ARC
8
PARAMETRIX
10
39.3348
20
-72.5191
40
10.0000
50
198.0000
51
298.4757
0
ENDSEC
0
EOF
