<svg width="285" height="284" viewBox="-139 -139 285 284" xmlns="http://www.w3.org/2000/svg"><path d="M 104.3731 2.6433 L 104.9413 2.6623 A 26.0224 26.0224 0 0 0 108.4003 1.8321 A 42.9681 42.9681 0 0 0 112.6829 0.2340 A 50.6794 50.6794 0 0 0 118.5498 -2.7871 A 67.4462 67.4462 0 0 0 124.8452 -7.0678 L 124.5292 -11.6875 A 67.4462 67.4462 0 0 0 117.7096 -15.0710 A 50.6794 50.6794 0 0 0 111.4859 -17.2652 A 42.9681 42.9681 0 0 0 107.0256 -18.2653 A 26.0224 26.0224 0 0 0 103.4858 -18.6167 L 102.9254 -18.5205 A 2.0000 2.0000 0 0 1 100.6288 -20.0847 L 99.9615 -23.2960 A 2.0000 2.0000 0 0 1 101.4448 -25.6457 L 101.9971 -25.7807 A 26.0224 26.0224 0 0 0 105.1038 -27.5133 A 42.9681 42.9681 0 0 0 108.7964 -30.2076 A 50.6794 50.6794 0 0 0 113.6307 -34.6996 A 67.4462 67.4462 0 0 0 118.5377 -40.5200 L 116.9871 -44.8831 A 67.4462 67.4462 0 0 0 109.5075 -46.3013 A 50.6794 50.6794 0 0 0 102.9226 -46.7349 A 42.9681 42.9681 0 0 0 98.3579 -46.4946 A 26.0224 26.0224 0 0 0 94.8545 -45.8779 L 94.3409 -45.6341 A 2.0000 2.0000 0 0 1 91.7075 -46.5208 L 90.1985 -49.4329 A 2.0000 2.0000 0 0 1 90.9928 -52.0957 L 91.4882 -52.3747 A 26.0224 26.0224 0 0 0 94.0123 -54.8812 A 42.9681 42.9681 0 0 0 96.8410 -58.4718 A 50.6794 50.6794 0 0 0 100.2841 -64.1015 A 67.4462 67.4462 0 0 0 103.4389 -71.0300 L 100.7686 -74.8130 A 67.4462 67.4462 0 0 0 93.1837 -74.1606 A 50.6794 50.6794 0 0 0 86.7260 -72.8015 A 42.9681 42.9681 0 0 0 82.3954 -71.3386 A 26.0224 26.0224 0 0 0 79.1883 -69.7996 L 78.7596 -69.4262 A 2.0000 2.0000 0 0 1 75.9845 -69.5695 L 73.7459 -71.9665 A 2.0000 2.0000 0 0 1 73.7923 -74.7449 L 74.1940 -75.1471 A 26.0224 26.0224 0 0 0 75.9483 -78.2418 A 42.9681 42.9681 0 0 0 77.7034 -82.4624 A 50.6794 50.6794 0 0 0 79.4999 -88.8123 A 67.4462 67.4462 0 0 0 80.6684 -96.3349 L 77.0765 -99.2572 A 67.4462 67.4462 0 0 0 69.9489 -96.5826 A 50.6794 50.6794 0 0 0 64.0974 -93.5317 A 42.9681 42.9681 0 0 0 60.3221 -90.9546 A 26.0224 26.0224 0 0 0 57.6491 -88.6074 L 57.3370 -88.1323 A 2.0000 2.0000 0 0 1 54.6262 -87.5215 L 51.8238 -89.2257 A 2.0000 2.0000 0 0 1 51.1190 -91.9135 L 51.3973 -92.4093 A 26.0224 26.0224 0 0 0 52.2516 -95.8624 A 42.9681 42.9681 0 0 0 52.8029 -100.4001 A 50.6794 50.6794 0 0 0 52.8196 -106.9992 A 67.4462 67.4462 0 0 0 51.9152 -114.5581 L 47.6680 -116.4029 A 67.4462 67.4462 0 0 0 41.5263 -111.9045 A 50.6794 50.6794 0 0 0 36.7149 -107.3881 A 42.9681 42.9681 0 0 0 33.7749 -103.8880 A 26.0224 26.0224 0 0 0 31.8343 -100.9067 L 31.6620 -100.3649 A 2.0000 2.0000 0 0 1 29.2165 -99.0454 L 26.0583 -99.9303 A 2.0000 2.0000 0 0 1 24.6544 -102.3283 L 24.7886 -102.8808 A 26.0224 26.0224 0 0 0 24.6796 -106.4364 A 42.9681 42.9681 0 0 0 23.9862 -110.9545 A 50.6794 50.6794 0 0 0 22.2219 -117.3134 A 67.4462 67.4462 0 0 0 19.3116 -124.3480 L 14.7242 -124.9786 A 67.4462 67.4462 0 0 0 10.0239 -118.9900 A 50.6794 50.6794 0 0 0 6.6095 -113.3429 A 42.9681 42.9681 0 0 0 4.7228 -109.1793 A 26.0224 26.0224 0 0 0 3.6585 -105.7850 L 3.6387 -105.2169 A 2.0000 2.0000 0 0 1 1.6399 -103.2866 L -1.6399 -103.2866 A 2.0000 2.0000 0 0 1 -3.6387 -105.2169 L -3.6585 -105.7850 A 26.0224 26.0224 0 0 0 -4.7228 -109.1793 A 42.9681 42.9681 0 0 0 -6.6095 -113.3429 A 50.6794 50.6794 0 0 0 -10.0239 -118.9900 A 67.4462 67.4462 0 0 0 -14.7242 -124.9786 L -19.3116 -124.3480 A 67.4462 67.4462 0 0 0 -22.2219 -117.3134 A 50.6794 50.6794 0 0 0 -23.9862 -110.9545 A 42.9681 42.9681 0 0 0 -24.6796 -106.4364 A 26.0224 26.0224 0 0 0 -24.7886 -102.8808 L -24.6544 -102.3283 A 2.0000 2.0000 0 0 1 -26.0583 -99.9303 L -29.2165 -99.0454 A 2.0000 2.0000 0 0 1 -31.6620 -100.3649 L -31.8343 -100.9067 A 26.0224 26.0224 0 0 0 -33.7749 -103.8880 A 42.9681 42.9681 0 0 0 -36.7149 -107.3881 A 50.6794 50.6794 0 0 0 -41.5263 -111.9045 A 67.4462 67.4462 0 0 0 -47.6680 -116.4029 L -51.9152 -114.5581 A 67.4462 67.4462 0 0 0 -52.8196 -106.9992 A 50.6794 50.6794 0 0 0 -52.8029 -100.4001 A 42.9681 42.9681 0 0 0 -52.2516 -95.8624 A 26.0224 26.0224 0 0 0 -51.3973 -92.4093 L -51.1190 -91.9135 A 2.0000 2.0000 0 0 1 -51.8238 -89.2257 L -54.6262 -87.5215 A 2.0000 2.0000 0 0 1 -57.3370 -88.1323 L -57.6491 -88.6074 A 26.0224 26.0224 0 0 0 -60.3221 -90.9546 A 42.9681 42.9681 0 0 0 -64.0974 -93.5317 A 50.6794 50.6794 0 0 0 -69.9489 -96.5826 A 67.4462 67.4462 0 0 0 -77.0765 -99.2572 L -80.6684 -96.3349 A 67.4462 67.4462 0 0 0 -79.4999 -88.8123 A 50.6794 50.6794 0 0 0 -77.7034 -82.4624 A 42.9681 42.9681 0 0 0 -75.9483 -78.2418 A 26.0224 26.0224 0 0 0 -74.1940 -75.1471 L -73.7923 -74.7449 A 2.0000 2.0000 0 0 1 -73.7459 -71.9665 L -75.9845 -69.5695 A 2.0000 2.0000 0 0 1 -78.7596 -69.4262 L -79.1883 -69.7996 A 26.0224 26.0224 0 0 0 -82.3954 -71.3386 A 42.9681 42.9681 0 0 0 -86.7260 -72.8015 A 50.6794 50.6794 0 0 0 -93.1837 -74.1606 A 67.4462 67.4462 0 0 0 -100.7686 -74.8130 L -103.4389 -71.0300 A 67.4462 67.4462 0 0 0 -100.2841 -64.1015 A 50.6794 50.6794 0 0 0 -96.8410 -58.4718 A 42.9681 42.9681 0 0 0 -94.0123 -54.8812 A 26.0224 26.0224 0 0 0 -91.4882 -52.3747 L -90.9928 -52.0957 A 2.0000 2.0000 0 0 1 -90.1985 -49.4329 L -91.7075 -46.5208 A 2.0000 2.0000 0 0 1 -94.3409 -45.6341 L -94.8545 -45.8779 A 26.0224 26.0224 0 0 0 -98.3579 -46.4946 A 42.9681 42.9681 0 0 0 -102.9226 -46.7349 A 50.6794 50.6794 0 0 0 -109.5075 -46.3013 A 67.4462 67.4462 0 0 0 -116.9871 -44.8831 L -118.5377 -40.5200 A 67.4462 67.4462 0 0 0 -113.6307 -34.6996 A 50.6794 50.6794 0 0 0 -108.7964 -30.2076 A 42.9681 42.9681 0 0 0 -105.1038 -27.5133 A 26.0224 26.0224 0 0 0 -101.9971 -25.7807 L -101.4448 -25.6457 A 2.0000 2.0000 0 0 1 -99.9615 -23.2960 L -100.6288 -20.0847 A 2.0000 2.0000 0 0 1 -102.9254 -18.5205 L -103.4858 -18.6167 A 26.0224 26.0224 0 0 0 -107.0256 -18.2653 A 42.9681 42.9681 0 0 0 -111.4859 -17.2652 A 50.6794 50.6794 0 0 0 -117.7096 -15.0710 A 67.4462 67.4462 0 0 0 -124.5292 -11.6875 L -124.8452 -7.0678 A 67.4462 67.4462 0 0 0 -118.5498 -2.7871 A 50.6794 50.6794 0 0 0 -112.6829 0.2340 A 42.9681 42.9681 0 0 0 -108.4003 1.8321 A 26.0224 26.0224 0 0 0 -104.9413 2.6623 L -104.3731 2.6433 A 2.0000 2.0000 0 0 1 -102.3109 4.5057 L -102.0870 7.7779 A 2.0000 2.0000 0 0 1 -103.8765 9.9038 L -104.4419 9.9623 A 26.0224 26.0224 0 0 0 -107.7557 11.2557 A 42.9681 42.9681 0 0 0 -111.7808 13.4221 A 50.6794 50.6794 0 0 0 -117.1817 17.2140 A 67.4462 67.4462 0 0 0 -122.8356 22.3120 L -121.8935 26.8457 A 67.4462 67.4462 0 0 0 -114.6766 29.2691 A 50.6794 50.6794 0 0 0 -108.2121 30.5953 A 42.9681 42.9681 0 0 0 -103.6572 30.9788 A 26.0224 26.0224 0 0 0 -100.1025 30.8449 L -99.5605 30.6733 A 2.0000 2.0000 0 0 1 -97.0723 31.9103 L -95.9739 35.0008 A 2.0000 2.0000 0 0 1 -97.1234 37.5306 L -97.6522 37.7395 A 26.0224 26.0224 0 0 0 -100.4941 39.8790 A 42.9681 42.9681 0 0 0 -103.7854 43.0510 A 50.6794 50.6794 0 0 0 -107.9630 48.1594 A 67.4462 67.4462 0 0 0 -112.0318 54.5938 L -109.9014 58.7052 A 67.4462 67.4462 0 0 0 -102.2984 59.0916 A 50.6794 50.6794 0 0 0 -95.7158 58.6246 A 42.9681 42.9681 0 0 0 -91.2264 57.7649 A 26.0224 26.0224 0 0 0 -87.8396 56.6770 L -87.3640 56.3655 A 2.0000 2.0000 0 0 1 -84.6343 56.8853 L -82.7428 59.5648 A 2.0000 2.0000 0 0 1 -83.1672 62.3109 L -83.6199 62.6548 A 26.0224 26.0224 0 0 0 -85.7792 65.4817 A 42.9681 42.9681 0 0 0 -88.0927 69.4240 A 50.6794 50.6794 0 0 0 -90.7372 75.4701 A 67.4462 67.4462 0 0 0 -92.9191 82.7636 L -89.7585 86.1478 A 67.4462 67.4462 0 0 0 -82.3331 84.4686 A 50.6794 50.6794 0 0 0 -76.1207 82.2430 A 42.9681 42.9681 0 0 0 -72.0296 80.2039 A 26.0224 26.0224 0 0 0 -69.0620 78.2426 L -68.6880 77.8143 A 2.0000 2.0000 0 0 1 -65.9194 77.5784 L -63.3751 79.6483 A 2.0000 2.0000 0 0 1 -63.0428 82.4071 L -63.3860 82.8603 A 26.0224 26.0224 0 0 0 -64.7026 86.1649 A 42.9681 42.9681 0 0 0 -65.8666 90.5853 A 50.6794 50.6794 0 0 0 -66.7818 97.1206 A 67.4462 67.4462 0 0 0 -66.9151 104.7323 L -62.9586 107.1383 A 67.4462 67.4462 0 0 0 -56.2616 103.5181 A 50.6794 50.6794 0 0 0 -50.8800 99.6988 A 42.9681 42.9681 0 0 0 -47.4908 96.6316 A 26.0224 26.0224 0 0 0 -45.1624 93.9423 L -44.9178 93.4291 A 2.0000 2.0000 0 0 1 -42.3155 92.4549 L -39.3071 93.7616 A 2.0000 2.0000 0 0 1 -38.2429 96.3285 L -38.4511 96.8575 A 26.0224 26.0224 0 0 0 -38.8272 100.3948 A 42.9681 42.9681 0 0 0 -38.7555 104.9653 A 50.6794 50.6794 0 0 0 -37.8735 111.5052 A 67.4462 67.4462 0 0 0 -35.9482 118.8706 L -31.4894 120.1199 A 67.4462 67.4462 0 0 0 -26.0175 114.8271 A 50.6794 50.6794 0 0 0 -21.8658 109.6975 A 42.9681 42.9681 0 0 0 -19.4298 105.8297 A 26.0224 26.0224 0 0 0 -17.9133 102.6119 L -17.8163 102.0517 A 2.0000 2.0000 0 0 1 -15.5733 100.4115 L -12.3239 100.8582 A 2.0000 2.0000 0 0 1 -10.6066 103.0427 L -10.6644 103.6082 A 26.0224 26.0224 0 0 0 -10.0722 107.1158 A 42.9681 42.9681 0 0 0 -8.7700 111.4975 A 50.6794 50.6794 0 0 0 -6.1563 117.5569 A 67.4462 67.4462 0 0 0 -2.3153 124.1298 L 2.3153 124.1298 A 67.4462 67.4462 0 0 0 6.1563 117.5569 A 50.6794 50.6794 0 0 0 8.7700 111.4975 A 42.9681 42.9681 0 0 0 10.0722 107.1158 A 26.0224 26.0224 0 0 0 10.6644 103.6082 L 10.6066 103.0427 A 2.0000 2.0000 0 0 1 12.3239 100.8582 L 15.5733 100.4115 A 2.0000 2.0000 0 0 1 17.8163 102.0517 L 17.9133 102.6119 A 26.0224 26.0224 0 0 0 19.4298 105.8297 A 42.9681 42.9681 0 0 0 21.8658 109.6975 A 50.6794 50.6794 0 0 0 26.0175 114.8271 A 67.4462 67.4462 0 0 0 31.4894 120.1199 L 35.9482 118.8706 A 67.4462 67.4462 0 0 0 37.8735 111.5052 A 50.6794 50.6794 0 0 0 38.7555 104.9653 A 42.9681 42.9681 0 0 0 38.8272 100.3948 A 26.0224 26.0224 0 0 0 38.4511 96.8575 L 38.2429 96.3285 A 2.0000 2.0000 0 0 1 39.3071 93.7616 L 42.3155 92.4549 A 2.0000 2.0000 0 0 1 44.9178 93.4291 L 45.1624 93.9423 A 26.0224 26.0224 0 0 0 47.4908 96.6316 A 42.9681 42.9681 0 0 0 50.8800 99.6988 A 50.6794 50.6794 0 0 0 56.2616 103.5181 A 67.4462 67.4462 0 0 0 62.9586 107.1383 L 66.9151 104.7323 A 67.4462 67.4462 0 0 0 66.7818 97.1206 A 50.6794 50.6794 0 0 0 65.8666 90.5853 A 42.9681 42.9681 0 0 0 64.7026 86.1649 A 26.0224 26.0224 0 0 0 63.3860 82.8603 L 63.0428 82.4071 A 2.0000 2.0000 0 0 1 63.3751 79.6483 L 65.9194 77.5784 A 2.0000 2.0000 0 0 1 68.6880 77.8143 L 69.0620 78.2426 A 26.0224 26.0224 0 0 0 72.0296 80.2039 A 42.9681 42.9681 0 0 0 76.1207 82.2430 A 50.6794 50.6794 0 0 0 82.3331 84.4686 A 67.4462 67.4462 0 0 0 89.7585 86.1478 L 92.9191 82.7636 A 67.4462 67.4462 0 0 0 90.7372 75.4701 A 50.6794 50.6794 0 0 0 88.0927 69.4240 A 42.9681 42.9681 0 0 0 85.7792 65.4817 A 26.0224 26.0224 0 0 0 83.6199 62.6548 L 83.1672 62.3109 A 2.0000 2.0000 0 0 1 82.7428 59.5648 L 84.6343 56.8853 A 2.0000 2.0000 0 0 1 87.3640 56.3655 L 87.8396 56.6770 A 26.0224 26.0224 0 0 0 91.2264 57.7649 A 42.9681 42.9681 0 0 0 95.7158 58.6246 A 50.6794 50.6794 0 0 0 102.2984 59.0916 A 67.4462 67.4462 0 0 0 109.9014 58.7052 L 112.0318 54.5938 A 67.4462 67.4462 0 0 0 107.9630 48.1594 A 50.6794 50.6794 0 0 0 103.7854 43.0510 A 42.9681 42.9681 0 0 0 100.4941 39.8790 A 26.0224 26.0224 0 0 0 97.6522 37.7395 L 97.1234 37.5306 A 2.0000 2.0000 0 0 1 95.9739 35.0008 L 97.0723 31.9103 A 2.0000 2.0000 0 0 1 99.5605 30.6733 L 100.1025 30.8449 A 26.0224 26.0224 0 0 0 103.6572 30.9788 A 42.9681 42.9681 0 0 0 108.2121 30.5953 A 50.6794 50.6794 0 0 0 114.6766 29.2691 A 67.4462 67.4462 0 0 0 121.8935 26.8457 L 122.8356 22.3120 A 67.4462 67.4462 0 0 0 117.1817 17.2140 A 50.6794 50.6794 0 0 0 111.7808 13.4221 A 42.9681 42.9681 0 0 0 107.7557 11.2557 A 26.0224 26.0224 0 0 0 104.4419 9.9623 L 103.8765 9.9038 A 2.0000 2.0000 0 0 1 102.0870 7.7779 L 102.3109 4.5057 A 2.0000 2.0000 0 0 1 104.3731 2.6433 Z" stroke="green" stroke-width="1" fill="none" /><circle cx="0.0000" cy="-0.8488" r="20.0000" stroke="green" stroke-width="1" fill="none" /><path d="M 90.9582 -17.6670 A 92.5000 92.5000 0 0 0 44.1027 -82.1581 A 10.0000 10.0000 0 0 0 29.8243 -76.4581 L 15.2072 -31.4714 A 10.0000 10.0000 0 0 0 18.0373 -20.9400 A 27.0000 27.0000 0 0 1 24.6817 -11.7947 A 10.0000 10.0000 0 0 0 33.8231 -5.8488 L 81.1249 -5.8488 A 10.0000 10.0000 0 0 0 90.9582 -17.6670 Z" stroke="green" stroke-width="1" fill="none" /><path d="M 12.1126 -92.5523 A 92.5000 92.5000 0 0 0 -63.7013 -67.9189 A 10.0000 10.0000 0 0 0 -62.6925 -52.5779 L -24.4245 -24.7746 A 10.0000 10.0000 0 0 0 -13.5340 -24.2118 A 27.0000 27.0000 0 0 1 -2.7831 -27.7050 A 10.0000 10.0000 0 0 0 5.6966 -34.5615 L 20.3137 -79.5482 A 10.0000 10.0000 0 0 0 12.1126 -92.5523 Z" stroke="green" stroke-width="1" fill="none" /><path d="M -83.4722 -40.7065 A 92.5000 92.5000 0 0 0 -83.4722 39.0089 A 10.0000 10.0000 0 0 0 -68.5704 42.7901 L -30.3024 14.9868 A 10.0000 10.0000 0 0 0 -26.4018 4.8033 A 27.0000 27.0000 0 0 1 -26.4018 -6.5009 A 10.0000 10.0000 0 0 0 -30.3024 -16.6844 L -68.5704 -44.4877 A 10.0000 10.0000 0 0 0 -83.4722 -40.7065 Z" stroke="green" stroke-width="1" fill="none" /><path d="M -63.7013 66.2213 A 92.5000 92.5000 0 0 0 12.1126 90.8547 A 10.0000 10.0000 0 0 0 20.3137 77.8507 L 5.6966 32.8639 A 10.0000 10.0000 0 0 0 -2.7831 26.0074 A 27.0000 27.0000 0 0 1 -13.5340 22.5142 A 10.0000 10.0000 0 0 0 -24.4245 23.0770 L -62.6925 50.8803 A 10.0000 10.0000 0 0 0 -63.7013 66.2213 Z" stroke="green" stroke-width="1" fill="none" /><path d="M 44.1027 80.4605 A 92.5000 92.5000 0 0 0 90.9582 15.9694 A 10.0000 10.0000 0 0 0 81.1249 4.1512 L 33.8231 4.1512 A 10.0000 10.0000 0 0 0 24.6817 10.0972 A 27.0000 27.0000 0 0 1 18.0373 19.2424 A 10.0000 10.0000 0 0 0 15.2072 29.7738 L 29.8243 74.7605 A 10.0000 10.0000 0 0 0 44.1027 80.4605 Z" stroke="green" stroke-width="1" fill="none" /></svg>