0
SECTION
2
ENTITIES
0
LINE
8
PARAMETRIX
10
-10.0000
20
0.0000
11
0.0000
21
0.0000
0
LINE
8
PARAMETRIX
10
0.0000
20
0.0000
11
0.0000
21
50.0000
0
LINE
8
PARAMETRIX
10
0.0000
20
50.0000
11
-10.0000
21
50.0000
0
LINE
8
PARAMETRIX
10
-10.0000
20
50.0000
11
-10.0000
21
0.0000
0
LINE
8
PARAMETRIX
10
10.0000
20
0.0000
11
20.0000
21
0.0000
0
LINE
8
PARAMETRIX
10
20.0000
20
0.0000
11
20.0000
21
50.0000
0
LINE
8
PARAMETRIX
10
20.0000
20
50.0000
11
10.0000
21
50.0000
0
LINE
8
PARAMETRIX
10
10.0000
20
50.0000
11
10.0000
21
0.0000
0
LINE
8
PARAMETRIX
10
-50.0000
20
0.0000
11
-40.0000
21
0.0000
0
LINE
8
PARAMETRIX
10
-40.0000
20
0.0000
11
-40.0000
21
50.0000
0
LINE
8
PARAMETRIX
10
-40.0000
20
50.0000
11
-50.0000
21
50.0000
0
LINE
8
PARAMETRIX
10
-50.0000
20
50.0000
11
-50.0000
21
0.0000
0
LINE
8
PARAMETRIX
10
50.0000
20
0.0000
11
60.0000
21
0.0000
0
LINE
8
PARAMETRIX
10
60.0000
20
0.0000
11
60.0000
21
50.0000
0
LINE
8
PARAMETRIX
10
60.0000
20
50.0000
11
50.0000
21
50.0000
0
LINE
8
PARAMETRIX
10
50.0000
20
50.0000
11
50.0000
21
0.0000
0
LINE
8
PARAMETRIX
10
-90.0000
20
0.0000
11
-80.0000
21
0.0000
0
LINE
8
PARAMETRIX
10
-80.0000
20
0.0000
11
-80.0000
21
50.0000
0
LINE
8
PARAMETRIX
10
-80.0000
20
50.0000
11
-90.0000
21
50.0000
0
LINE
8
PARAMETRIX
10
-90.0000
20
50.0000
11
-90.0000
21
0.0000
0
LINE
8
PARAMETRIX
10
90.0000
20
0.0000
11
100.0000
21
0.0000
0
LINE
8
PARAMETRIX
10
100.0000
20
0.0000
11
100.0000
21
50.0000
0
LINE
8
PARAMETRIX
10
100.0000
20
50.0000
11
90.0000
21
50.0000
0
LINE
8
PARAMETRIX
10
90.0000
20
50.0000
11
90.0000
21
0.0000
0
LINE
8
PARAMETRIX
10
-130.0000
20
0.0000
11
-120.0000
21
0.0000
0
LINE
8
PARAMETRIX
10
-120.0000
20
0.0000
11
-120.0000
21
50.0000
0
LINE
8
PARAMETRIX
10
-120.0000
20
50.0000
11
-130.0000
21
50.0000
0
LINE
8
PARAMETRIX
10
-130.0000
20
50.0000
11
-130.0000
21
0.0000
0
LINE
8
PARAMETRIX
10
130.0000
20
0.0000
11
140.0000
21
0.0000
0
LINE
8
PARAMETRIX
10
140.0000
20
0.0000
11
140.0000
21
50.0000
0
LINE
8
PARAMETRIX
10
140.0000
20
50.0000
11
130.0000
21
50.0000
0
LINE
8
PARAMETRIX
10
130.0000
20
50.0000
11
130.0000
21
0.0000
0
LINE
8
PARAMETRIX
10
-170.0000
20
0.0000
11
-160.0000
21
0.0000
0
LINE
8
PARAMETRIX
10
-160.0000
20
0.0000
11
-160.0000
21
50.0000
0
LINE
8
PARAMETRIX
10
-160.0000
20
50.0000
11
-170.0000
21
50.0000
0
LINE
8
PARAMETRIX
10
-170.0000
20
50.0000
11
-170.0000
21
0.0000
0
LINE
8
PARAMETRIX
10
170.0000
20
0.0000
11
180.0000
21
0.0000
0
LINE
8
PARAMETRIX
10
180.0000
20
0.0000
11
180.0000
21
50.0000
0
LINE
8
PARAMETRIX
10
180.0000
20
50.0000
11
170.0000
21
50.0000
0
LINE
8
PARAMETRIX
10
170.0000
20
50.0000
11
170.0000
21
0.0000
0
LINE
8
PARAMETRIX
10
-210.0000
20
0.0000
11
-200.0000
21
0.0000
0
LINE
8
PARAMETRIX
10
-200.0000
20
0.0000
11
-200.0000
21
50.0000
0
LINE
8
PARAMETRIX
10
-200.0000
20
50.0000
11
-210.0000
21
50.0000
0
LINE
8
PARAMETRIX
10
-210.0000
20
50.0000
11
-210.0000
21
0.0000
0
LINE
8
PARAMETRIX
10
210.0000
20
0.0000
11
220.0000
21
0.0000
0
LINE
8
PARAMETRIX
10
220.0000
20
0.0000
11
220.0000
21
50.0000
0
LINE
8
PARAMETRIX
10
220.0000
20
50.0000
11
210.0000
21
50.0000
0
LINE
8
PARAMETRIX
10
210.0000
20
50.0000
11
210.0000
21
0.0000
0
LINE
8
PARAMETRIX
10
-250.0000
20
0.0000
11
-240.0000
21
0.0000
0
LINE
8
PARAMETRIX
10
-240.0000
20
0.0000
11
-240.0000
21
50.0000
0
LINE
8
PARAMETRIX
10
-240.0000
20
50.0000
11
-250.0000
21
50.0000
0
LINE
8
PARAMETRIX
10
-250.0000
20
50.0000
11
-250.0000
21
0.0000
0
LINE
8
PARAMETRIX
10
250.0000
20
0.0000
11
260.0000
21
0.0000
0
LINE
8
PARAMETRIX
10
260.0000
20
0.0000
11
260.0000
21
50.0000
0
LINE
8
PARAMETRIX
10
260.0000
20
50.0000
11
250.0000
21
50.0000
0
LINE
8
PARAMETRIX
10
250.0000
20
50.0000
11
250.0000
21
0.0000
0
LINE
8
PARAMETRIX
10
-290.0000
20
0.0000
11
-280.0000
21
0.0000
0
LINE
8
PARAMETRIX
10
-280.0000
20
0.0000
11
-280.0000
21
50.0000
0
LINE
8
PARAMETRIX
10
-280.0000
20
50.0000
11
-290.0000
21
50.0000
0
LINE
8
PARAMETRIX
10
-290.0000
20
50.0000
11
-290.0000
21
0.0000
0
LINE
8
PARAMETRIX
10
290.0000
20
0.0000
11
300.0000
21
0.0000
0
LINE
8
PARAMETRIX
10
300.0000
20
0.0000
11
300.0000
21
50.0000
0
LINE
8
PARAMETRIX
10
300.0000
20
50.0000
11
290.0000
21
50.0000
0
LINE
8
PARAMETRIX
10
290.0000
20
50.0000
11
290.0000
21
0.0000
0
ENDSEC
0
EOF
