<svg width="659" height="637" viewBox="-323 -322 659 637" xmlns="http://www.w3.org/2000/svg"><path d="M 0.0000 -10.0000 A 5.0000 5.0000 0 0 0 -10.0000 -10.0000 A 10.0000 10.0000 0 0 0 -0.0000 0.0000 A 20.0000 20.0000 0 0 0 20.0000 -20.0000 A 30.0000 30.0000 0 0 0 -10.0000 -50.0000 A 40.0000 40.0000 0 0 0 -50.0000 -10.0000 A 50.0000 50.0000 0 0 0 -0.0000 40.0000 A 60.0000 60.0000 0 0 0 60.0000 -20.0000 A 70.0000 70.0000 0 0 0 -10.0000 -90.0000 A 80.0000 80.0000 0 0 0 -90.0000 -10.0000 A 90.0000 90.0000 0 0 0 -0.0000 80.0000 A 100.0000 100.0000 0 0 0 100.0000 -20.0000 A 110.0000 110.0000 0 0 0 -10.0000 -130.0000 A 120.0000 120.0000 0 0 0 -130.0000 -10.0000 A 130.0000 130.0000 0 0 0 0.0000 120.0000 A 140.0000 140.0000 0 0 0 140.0000 -20.0000 A 150.0000 150.0000 0 0 0 -10.0000 -170.0000 A 160.0000 160.0000 0 0 0 -170.0000 -10.0000 A 170.0000 170.0000 0 0 0 0.0000 160.0000 A 180.0000 180.0000 0 0 0 180.0000 -20.0000 A 190.0000 190.0000 0 0 0 -10.0000 -210.0000 A 200.0000 200.0000 0 0 0 -210.0000 -10.0000 A 210.0000 210.0000 0 0 0 0.0000 200.0000 A 220.0000 220.0000 0 0 0 220.0000 -20.0000 A 230.0000 230.0000 0 0 0 -10.0000 -250.0000 A 240.0000 240.0000 0 0 0 -250.0000 -10.0000 A 250.0000 250.0000 0 0 0 0.0000 240.0000 A 260.0000 260.0000 0 0 0 260.0000 -20.0000 A 270.0000 270.0000 0 0 0 -10.0000 -290.0000 A 280.0000 280.0000 0 0 0 -290.0000 -10.0000 A 290.0000 290.0000 0 0 0 0.0000 280.0000 A 300.0000 300.0000 0 0 0 300.0000 -20.0000 A 5.0000 5.0000 0 0 0 290.0000 -20.0000 A 290.0000 290.0000 0 0 1 0.0000 270.0000 A 280.0000 280.0000 0 0 1 -280.0000 -10.0000 A 270.0000 270.0000 0 0 1 -10.0000 -280.0000 A 260.0000 260.0000 0 0 1 250.0000 -20.0000 A 250.0000 250.0000 0 0 1 0.0000 230.0000 A 240.0000 240.0000 0 0 1 -240.0000 -10.0000 A 230.0000 230.0000 0 0 1 -10.0000 -240.0000 A 220.0000 220.0000 0 0 1 210.0000 -20.0000 A 210.0000 210.0000 0 0 1 0.0000 190.0000 A 200.0000 200.0000 0 0 1 -200.0000 -10.0000 A 190.0000 190.0000 0 0 1 -10.0000 -200.0000 A 180.0000 180.0000 0 0 1 170.0000 -20.0000 A 170.0000 170.0000 0 0 1 0.0000 150.0000 A 160.0000 160.0000 0 0 1 -160.0000 -10.0000 A 150.0000 150.0000 0 0 1 -10.0000 -160.0000 A 140.0000 140.0000 0 0 1 130.0000 -20.0000 A 130.0000 130.0000 0 0 1 0.0000 110.0000 A 120.0000 120.0000 0 0 1 -120.0000 -10.0000 A 110.0000 110.0000 0 0 1 -10.0000 -120.0000 A 100.0000 100.0000 0 0 1 90.0000 -20.0000 A 90.0000 90.0000 0 0 1 -0.0000 70.0000 A 80.0000 80.0000 0 0 1 -80.0000 -10.0000 A 70.0000 70.0000 0 0 1 -10.0000 -80.0000 A 60.0000 60.0000 0 0 1 50.0000 -20.0000 A 50.0000 50.0000 0 0 1 -0.0000 30.0000 A 40.0000 40.0000 0 0 1 -40.0000 -10.0000 A 30.0000 30.0000 0 0 1 -10.0000 -40.0000 A 20.0000 20.0000 0 0 1 10.0000 -20.0000 A 10.0000 10.0000 0 0 1 -0.0000 -10.0000 Z" stroke="green" stroke-width="1" fill="none" /></svg>