0
SECTION
2
ENTITIES
0
ARC
8
PARAMETRIX
10
-5.0000
20
0.0000
40
5.0000
50
360.0000
51
180.0000
0
ARC
8
PARAMETRIX
10
-0.0000
20
0.0000
40
10.0000
50
180.0000
51
270.0000
0
ARC
8
PARAMETRIX
10
-0.0000
20
10.0000
40
20.0000
50
270.0000
51
360.0000
0
ARC
8
PARAMETRIX
10
-10.0000
20
10.0000
40
30.0000
50
360.0000
51
90.0000
0
ARC
8
PARAMETRIX
10
-10.0000
20
0.0000
40
40.0000
50
90.0000
51
180.0000
0
ARC
8
PARAMETRIX
10
0.0000
20
0.0000
40
50.0000
50
180.0000
51
270.0000
0
ARC
8
PARAMETRIX
10
0.0000
20
10.0000
40
60.0000
50
270.0000
51
360.0000
0
ARC
8
PARAMETRIX
10
-10.0000
20
10.0000
40
70.0000
50
360.0000
51
90.0000
0
ARC
8
PARAMETRIX
10
-10.0000
20
-0.0000
40
80.0000
50
90.0000
51
180.0000
0
ARC
8
PARAMETRIX
10
0.0000
20
-0.0000
40
90.0000
50
180.0000
51
270.0000
0
ARC
8
PARAMETRIX
10
0.0000
20
10.0000
40
100.0000
50
270.0000
51
360.0000
0
ARC
8
PARAMETRIX
10
-10.0000
20
10.0000
40
110.0000
50
360.0000
51
90.0000
0
ARC
8
PARAMETRIX
10
-10.0000
20
0.0000
40
120.0000
50
90.0000
51
180.0000
0
ARC
8
PARAMETRIX
10
0.0000
20
0.0000
40
130.0000
50
180.0000
51
270.0000
0
ARC
8
PARAMETRIX
10
0.0000
20
10.0000
40
140.0000
50
270.0000
51
0.0000
0
ARC
8
PARAMETRIX
10
-10.0000
20
10.0000
40
150.0000
50
0.0000
51
90.0000
0
ARC
8
PARAMETRIX
10
-10.0000
20
0.0000
40
160.0000
50
90.0000
51
180.0000
0
ARC
8
PARAMETRIX
10
0.0000
20
0.0000
40
170.0000
50
180.0000
51
270.0000
0
ARC
8
PARAMETRIX
10
0.0000
20
10.0000
40
180.0000
50
270.0000
51
0.0000
0
ARC
8
PARAMETRIX
10
-10.0000
20
10.0000
40
190.0000
50
0.0000
51
90.0000
0
ARC
8
PARAMETRIX
10
-10.0000
20
-0.0000
40
200.0000
50
90.0000
51
180.0000
0
ARC
8
PARAMETRIX
10
0.0000
20
0.0000
40
210.0000
50
180.0000
51
270.0000
0
ARC
8
PARAMETRIX
10
0.0000
20
10.0000
40
220.0000
50
270.0000
51
0.0000
0
ARC
8
PARAMETRIX
10
-10.0000
20
10.0000
40
230.0000
50
0.0000
51
90.0000
0
ARC
8
PARAMETRIX
10
-10.0000
20
-0.0000
40
240.0000
50
90.0000
51
180.0000
0
ARC
8
PARAMETRIX
10
0.0000
20
-0.0000
40
250.0000
50
180.0000
51
270.0000
0
ARC
8
PARAMETRIX
10
0.0000
20
10.0000
40
260.0000
50
270.0000
51
0.0000
0
ARC
8
PARAMETRIX
10
-10.0000
20
10.0000
40
270.0000
50
0.0000
51
90.0000
0
ARC
8
PARAMETRIX
10
-10.0000
20
0.0000
40
280.0000
50
90.0000
51
180.0000
0
ARC
8
PARAMETRIX
10
0.0000
20
0.0000
40
290.0000
50
180.0000
51
270.0000
0
ARC
8
PARAMETRIX
10
0.0000
20
10.0000
40
300.0000
50
270.0000
51
0.0000
0
ARC
8
PARAMETRIX
10
295.0000
20
10.0000
40
5.0000
50
0.0000
51
180.0000
0
ARC
8
PARAMETRIX
10
0.0000
20
10.0000
40
290.0000
50
270.0000
51
0.0000
0
ARC
8
PARAMETRIX
10
0.0000
20
-0.0000
40
280.0000
50
180.0000
51
270.0000
0
ARC
8
PARAMETRIX
10
-10.0000
20
-0.0000
40
270.0000
50
90.0000
51
180.0000
0
ARC
8
PARAMETRIX
10
-10.0000
20
10.0000
40
260.0000
50
0.0000
51
90.0000
0
ARC
8
PARAMETRIX
10
0.0000
20
10.0000
40
250.0000
50
270.0000
51
0.0000
0
ARC
8
PARAMETRIX
10
0.0000
20
-0.0000
40
240.0000
50
180.0000
51
270.0000
0
ARC
8
PARAMETRIX
10
-10.0000
20
-0.0000
40
230.0000
50
90.0000
51
180.0000
0
ARC
8
PARAMETRIX
10
-10.0000
20
10.0000
40
220.0000
50
0.0000
51
90.0000
0
ARC
8
PARAMETRIX
10
0.0000
20
10.0000
40
210.0000
50
270.0000
51
0.0000
0
ARC
8
PARAMETRIX
10
0.0000
20
-0.0000
40
200.0000
50
180.0000
51
270.0000
0
ARC
8
PARAMETRIX
10
-10.0000
20
-0.0000
40
190.0000
50
90.0000
51
180.0000
0
ARC
8
PARAMETRIX
10
-10.0000
20
10.0000
40
180.0000
50
0.0000
51
90.0000
0
ARC
8
PARAMETRIX
10
0.0000
20
10.0000
40
170.0000
50
270.0000
51
0.0000
0
ARC
8
PARAMETRIX
10
0.0000
20
-0.0000
40
160.0000
50
180.0000
51
270.0000
0
ARC
8
PARAMETRIX
10
-10.0000
20
-0.0000
40
150.0000
50
90.0000
51
180.0000
0
ARC
8
PARAMETRIX
10
-10.0000
20
10.0000
40
140.0000
50
0.0000
51
90.0000
0
ARC
8
PARAMETRIX
10
0.0000
20
10.0000
40
130.0000
50
270.0000
51
0.0000
0
ARC
8
PARAMETRIX
10
-0.0000
20
0.0000
40
120.0000
50
180.0000
51
270.0000
0
ARC
8
PARAMETRIX
10
-10.0000
20
-0.0000
40
110.0000
50
90.0000
51
180.0000
0
ARC
8
PARAMETRIX
10
-10.0000
20
10.0000
40
100.0000
50
360.0000
51
90.0000
0
ARC
8
PARAMETRIX
10
0.0000
20
10.0000
40
90.0000
50
270.0000
51
360.0000
0
ARC
8
PARAMETRIX
10
0.0000
20
-0.0000
40
80.0000
50
180.0000
51
270.0000
0
ARC
8
PARAMETRIX
10
-10.0000
20
-0.0000
40
70.0000
50
90.0000
51
180.0000
0
ARC
8
PARAMETRIX
10
-10.0000
20
10.0000
40
60.0000
50
360.0000
51
90.0000
0
ARC
8
PARAMETRIX
10
0.0000
20
10.0000
40
50.0000
50
270.0000
51
360.0000
0
ARC
8
PARAMETRIX
10
0.0000
20
-0.0000
40
40.0000
50
180.0000
51
270.0000
0
ARC
8
PARAMETRIX
10
-10.0000
20
-0.0000
40
30.0000
50
90.0000
51
180.0000
0
ARC
8
PARAMETRIX
10
-10.0000
20
10.0000
40
20.0000
50
360.0000
51
90.0000
0
ARC
8
PARAMETRIX
10
0.0000
20
10.0000
40
10.0000
50
270.0000
51
360.0000
0
ENDSEC
0
EOF
