<svg width="659" height="65" viewBox="-323 -3 659 65" xmlns="http://www.w3.org/2000/svg"><path d="M -10.0000 50.0000 L 0.0000 50.0000 L 0.0000 0.0000 L -10.0000 0.0000 L -10.0000 50.0000 Z" stroke="green" stroke-width="1" fill="none" /><path d="M 10.0000 50.0000 L 20.0000 50.0000 L 20.0000 0.0000 L 10.0000 0.0000 L 10.0000 50.0000 Z" stroke="green" stroke-width="1" fill="none" /><path d="M -50.0000 50.0000 L -40.0000 50.0000 L -40.0000 0.0000 L -50.0000 0.0000 L -50.0000 50.0000 Z" stroke="green" stroke-width="1" fill="none" /><path d="M 50.0000 50.0000 L 60.0000 50.0000 L 60.0000 0.0000 L 50.0000 0.0000 L 50.0000 50.0000 Z" stroke="green" stroke-width="1" fill="none" /><path d="M -90.0000 50.0000 L -80.0000 50.0000 L -80.0000 0.0000 L -90.0000 0.0000 L -90.0000 50.0000 Z" stroke="green" stroke-width="1" fill="none" /><path d="M 90.0000 50.0000 L 100.0000 50.0000 L 100.0000 0.0000 L 90.0000 0.0000 L 90.0000 50.0000 Z" stroke="green" stroke-width="1" fill="none" /><path d="M -130.0000 50.0000 L -120.0000 50.0000 L -120.0000 0.0000 L -130.0000 0.0000 L -130.0000 50.0000 Z" stroke="green" stroke-width="1" fill="none" /><path d="M 130.0000 50.0000 L 140.0000 50.0000 L 140.0000 0.0000 L 130.0000 0.0000 L 130.0000 50.0000 Z" stroke="green" stroke-width="1" fill="none" /><path d="M -170.0000 50.0000 L -160.0000 50.0000 L -160.0000 0.0000 L -170.0000 0.0000 L -170.0000 50.0000 Z" stroke="green" stroke-width="1" fill="none" /><path d="M 170.0000 50.0000 L 180.0000 50.0000 L 180.0000 0.0000 L 170.0000 0.0000 L 170.0000 50.0000 Z" stroke="green" stroke-width="1" fill="none" /><path d="M -210.0000 50.0000 L -200.0000 50.0000 L -200.0000 0.0000 L -210.0000 0.0000 L -210.0000 50.0000 Z" stroke="green" stroke-width="1" fill="none" /><path d="M 210.0000 50.0000 L 220.0000 50.0000 L 220.0000 0.0000 L 210.0000 0.0000 L 210.0000 50.0000 Z" stroke="green" stroke-width="1" fill="none" /><path d="M -250.0000 50.0000 L -240.0000 50.0000 L -240.0000 0.0000 L -250.0000 0.0000 L -250.0000 50.0000 Z" stroke="green" stroke-width="1" fill="none" /><path d="M 250.0000 50.0000 L 260.0000 50.0000 L 260.0000 0.0000 L 250.0000 0.0000 L 250.0000 50.0000 Z" stroke="green" stroke-width="1" fill="none" /><path d="M -290.0000 50.0000 L -280.0000 50.0000 L -280.0000 0.0000 L -290.0000 0.0000 L -290.0000 50.0000 Z" stroke="green" stroke-width="1" fill="none" /><path d="M 290.0000 50.0000 L 300.0000 50.0000 L 300.0000 0.0000 L 290.0000 0.0000 L 290.0000 50.0000 Z" stroke="green" stroke-width="1" fill="none" /></svg>